<svg xmlns="http://www.w3.org/2000/svg" version="1.1" xmlns:xlink="http://www.w3.org/1999/xlink" width="512" height="512" x="0" y="0" viewBox="0 0 512 512" xml:space="preserve"><g><path fill="#a3e440" d="M404.06 34.404c-2.499-3.161-7.27-3.222-9.848-.125-12.912 15.511-42.303 54.707-42.759 90.604-.469 36.917 29.737 64.69 41.709 74.235a6.33 6.33 0 0 0 7.761.099c12.211-9.238 43.113-36.235 43.582-73.152.455-35.897-27.931-75.827-40.445-91.661" opacity="1" data-original="#a3e440"></path><path fill="#99d53b" d="M444.509 126.064c-.471 36.922-31.372 63.915-43.59 73.151a6.32 6.32 0 0 1-6.835.511c13.083-13.453 27.669-34.072 27.99-59.351.446-35.219-26.871-74.308-39.72-90.734a265 265 0 0 1 11.856-15.358c2.58-3.1 7.349-3.038 9.851.119 12.51 15.835 40.902 55.766 40.448 91.662" opacity="1" data-original="#99d53b"></path><path fill="#2db181" d="M507.292 66.65c.469-4.002-2.863-7.419-6.875-7.052-20.098 1.838-68.597 8.77-94.302 33.831-26.436 25.773-24.715 66.77-22.999 81.985a6.33 6.33 0 0 0 5.418 5.558c15.167 2.102 56.107 4.863 82.543-20.909 25.705-25.061 33.868-73.367 36.215-93.413" opacity="1" data-original="#2db181"></path><path fill="#158f5e" d="M471.081 160.066c-26.441 25.774-67.378 23.012-82.548 20.903a6.32 6.32 0 0 1-5.194-4.472c18.764-.262 43.657-4.528 61.76-22.175 25.219-24.589 33.543-71.545 36.072-92.245a265 265 0 0 1 19.243-2.477c4.017-.368 7.344 3.048 6.882 7.05-2.352 20.043-10.512 68.354-36.215 93.416" opacity="1" data-original="#158f5e"></path><path fill="#128252" d="M386.231 185.973a7.727 7.727 0 0 1-6.472-11.935q.161-.326.414-.845c17.693-36.173 46.733-65.82 81.772-83.478a7.723 7.723 0 0 1 10.376 3.423 7.725 7.725 0 0 1-3.423 10.376c-32.044 16.15-58.625 43.307-74.844 76.469-1.135 2.319-2.688 5.494-7.01 5.947a8 8 0 0 1-.813.043" opacity="1" data-original="#128252"></path><path fill="#f82f40" d="M130.9 205.201c0 30.548-23.17 55.312-51.751 55.312s-51.751-24.764-51.751-55.312 23.17-37.626 51.751-37.626 51.751 7.078 51.751 37.626" opacity="1" data-original="#f82f40"></path><path fill="#e22334" d="M130.905 205.203c0 30.545-23.179 55.31-51.756 55.31-9.632 0-18.646-2.812-26.373-7.716 26.476-2.421 47.265-26.156 47.265-55.094 0-15.041-5.635-24.405-14.762-30.019 25.692 1.04 45.626 9.189 45.626 37.519" opacity="1" data-original="#e22334"></path><path fill="#ce1b31" d="M94.533 187.619c15.72-20.714 47.327-70.605 47.321-136.891a7.727 7.727 0 0 0-15.453.002c.006 72.432-41.927 125.291-50.32 135.141-3.726-1.155-6.08-2.407-6.191-2.467-3.723-2.055-8.409-.723-10.485 2.992a7.725 7.725 0 0 0 2.975 10.513c.359.202 5.721 3.147 13.765 4.957 5.154 1.16 11.409 1.854 18.155 1.06a7.727 7.727 0 0 0 6.772-8.575c-.416-3.542-3.171-6.234-6.539-6.732" opacity="1" data-original="#ce1b31"></path><path fill="#fb4a59" d="M235.014 206.264c0 33.993-25.783 61.55-57.588 61.55s-57.588-27.557-57.588-61.55 25.783-41.87 57.588-41.87 57.588 7.877 57.588 41.87" opacity="1" data-original="#fb4a59"></path><path fill="#f82f40" d="M235.015 206.264c0 33.996-25.785 61.553-57.587 61.553a53.9 53.9 0 0 1-18.914-3.41c22.509-8.355 38.663-31.235 38.663-58.144s-16.153-37.447-38.663-40.682c5.924-.845 12.29-1.185 18.914-1.185 31.802.001 57.587 7.872 57.587 41.868" opacity="1" data-original="#f82f40"></path><path fill="#e5233a" d="M191.657 185.491a7.725 7.725 0 0 0-9.853-4.722c-.507.178-1.012.338-1.517.489 7.287-56.501-15.975-110.528-25.039-128.945l3.259-1.003a7.726 7.726 0 0 0 5.112-9.657 7.724 7.724 0 0 0-9.657-5.112l-36.396 11.201a7.726 7.726 0 0 0 4.545 14.769l18.14-5.583c7.274 14.491 32.689 70.203 24.242 125.694-3.37-.336-5.55-.933-5.661-.965a7.726 7.726 0 0 0-4.361 14.825c.395.118 6.272 1.814 14.518 1.814 5.283 0 11.537-.696 17.945-2.952a7.727 7.727 0 0 0 4.723-9.853" opacity="1" data-original="#e5233a"></path><path fill="#804ea0" d="M406.548 159.83c-4.655 35.006-39.142 44.213-58.53 41.635s-50.271-20.477-45.616-55.483c5.07-38.13 30.238-48.973 58.997-45.149s50.219 20.867 45.149 58.997" opacity="1" data-original="#804ea0"></path><path fill="#6e4189" d="M406.551 159.834c-4.656 35.006-39.147 44.205-58.535 41.63-10.147-1.35-23.437-6.892-33.131-16.885 3.595 1.288 7.098 2.132 10.281 2.555 18.718 2.493 52.034-6.398 56.526-40.208 2.833-21.294-2.895-35.778-13.609-44.926 25.312 5.49 43.134 22.715 38.468 57.834" opacity="1" data-original="#6e4189"></path><ellipse cx="357.438" cy="136.8" fill="#5b3573" rx="12.205" ry="22.269" transform="rotate(-82.42 357.523 136.845)" opacity="1" data-original="#5b3573"></ellipse><path fill="#a176bd" d="M479.72 217.846c-4.655 35.006-39.142 44.213-58.53 41.635-19.389-2.578-50.271-20.477-45.616-55.483 5.07-38.13 30.238-48.973 58.997-45.149s50.219 20.868 45.149 58.997" opacity="1" data-original="#a176bd"></path><path fill="#915eb2" d="M479.724 217.843c-4.656 35.006-39.147 44.215-58.535 41.64-5.429-.721-11.775-2.647-17.977-5.821 19.8.68 49.634-9.632 53.94-42.011 3.719-27.99-6.851-44.617-24.127-52.992q.773.077 1.545.185c28.764 3.833 50.223 20.872 45.154 58.999" opacity="1" data-original="#915eb2"></path><ellipse cx="429.393" cy="195.964" fill="#5b3573" rx="12.205" ry="22.269" transform="rotate(-82.42 429.494 196.026)" opacity="1" data-original="#5b3573"></ellipse><path fill="#b18bc8" d="M313.818 173.908c11.087 33.529-15.925 56.861-34.495 63.002s-54.168 3.512-65.255-30.017c-12.077-36.52 5.837-57.259 33.382-66.368s54.291-3.137 66.368 33.383" opacity="1" data-original="#b18bc8"></path><path fill="#a176bd" d="M279.323 236.906c-4.492 1.484-9.982 2.462-15.875 2.606 17.348-9.158 36.427-30.586 26.805-59.689-9.498-28.721-28.062-38.549-48.965-37.004a85 85 0 0 1 6.161-2.297c27.547-9.107 54.291-3.132 66.364 33.388 11.096 33.522-15.916 56.856-34.49 62.996" opacity="1" data-original="#a176bd"></path><ellipse cx="258.944" cy="175.236" fill="#5b3573" rx="22.269" ry="12.205" transform="rotate(-18.3 258.893 175.234)" opacity="1" data-original="#5b3573"></ellipse><path fill="#915eb2" d="M387.133 241.21c-4.655 35.006-39.142 44.213-58.53 41.635-19.389-2.578-50.271-20.477-45.616-55.483 5.07-38.13 30.238-48.973 58.997-45.149 28.76 3.824 50.219 20.867 45.149 58.997" opacity="1" data-original="#915eb2"></path><path fill="#804ea0" d="M387.132 241.208c-4.656 35.006-39.137 44.215-58.525 41.64-5.882-.783-12.815-2.977-19.491-6.624 19.79.876 50.098-9.313 54.445-41.98 3.595-27.073-6.171-43.505-22.427-52.137.288.031.567.062.855.103 28.753 3.832 50.211 20.871 45.143 58.998" opacity="1" data-original="#804ea0"></path><ellipse cx="338.024" cy="218.18" fill="#5b3573" rx="12.205" ry="22.269" transform="rotate(-82.42 338.101 218.245)" opacity="1" data-original="#5b3573"></ellipse><path fill="#fee7c9" d="M508.26 272.421C485.215 390.717 381.033 480.003 256 480.003c-125.043 0-229.215-89.286-252.271-207.582l247.989-5.151z" opacity="1" data-original="#fee7c9"></path><path fill="#ffd496" d="M245.43 424.304c-.412 2.153-2.658 3.42-4.739 2.73a40 40 0 0 1-3.42-1.298c-.968 14.773-9.447 30.133-27.125 47.8-.69.69-1.38 1.36-2.081 2.009-53.878-10.168-101.813-37.148-138.147-75.275 4.749-15.411 12.651-30.256 24.673-42.279 17.678-17.678 33.038-26.156 47.811-27.135a43 43 0 0 1-1.308-3.41c-.68-2.081.587-4.327 2.74-4.739 31.616-6.068 51.674 23.189 58.525 35.345a20.3 20.3 0 0 0 7.726 7.716c12.146 6.862 41.413 26.919 35.345 58.536M508.26 272.421C485.205 390.717 381.033 480.003 256 480.003c-9.076 0-18.038-.464-26.847-1.391 112.867-11.713 204.027-96.476 225.414-206.191z" opacity="1" data-original="#ffd496"></path><path fill="#bcea73" d="M3.752 272.418h504.493a256 256 0 0 0 3.688-25.743c.802-8.774-6.039-16.369-14.85-16.369H14.914c-8.811 0-15.652 7.594-14.85 16.369a256 256 0 0 0 3.688 25.743" opacity="1" data-original="#bcea73"></path><path fill="#99d53b" d="M458.247 246.671a255 255 0 0 1-3.694 25.747h53.695a256 256 0 0 0 3.689-25.747c.791-8.77-6.04-16.361-14.854-16.361h-53.691c8.815 0 15.646 7.591 14.855 16.361" opacity="1" data-original="#99d53b"></path><path fill="#fb4a59" d="M194.395 442.765c-36.636 43.807-110.265 42.58-127.001 28.584s-30.965-86.248 5.671-130.054 65.24-37.135 105.79-3.222 52.176 60.885 15.54 104.692" opacity="1" data-original="#fb4a59"></path><path fill="#f82f40" d="M181.033 403.915a52 52 0 0 1-14.818 23.873c-1.748 1.608-4.485 1.396-5.929-.493-5.254-6.937-16.087-24.369-12.664-46.5.474-3.014-2.409-5.425-5.292-4.425-21.177 7.283-40.259-.304-48.006-4.24-2.115-1.086-2.808-3.743-1.534-5.748a52 52 0 0 1 20.876-18.806c2.717-1.34 2.983-5.087.519-6.868-10.226-7.405-15.52-15.74-18.084-21.109 26.647-17.902 51.04-8.045 82.753 18.477s45.729 48.787 32.822 78.18c-5.738-1.574-14.877-5.31-23.975-14.066-2.189-2.111-5.83-1.187-6.668 1.725" opacity="1" data-original="#f82f40"></path><path fill="#f82f40" d="M194.391 442.762c-36.64 43.81-110.265 42.58-126.997 28.586-4.352-3.64-8.541-11.237-11.705-21.247 25.061 9.578 86.897 6.237 119.477-32.72 22.387-26.768 26.75-47.243 17.513-66.861 28.881 28.48 33.766 53.915 1.712 92.242" opacity="1" data-original="#f82f40"></path><path fill="#1ca56f" d="M161.585 363.499c-3.047 19.626 6.571 35.086 11.228 41.235 1.271 1.678 3.706 1.863 5.255.438a46.16 46.16 0 0 0 13.137-21.165c.747-2.59 3.976-3.408 5.918-1.538 8.879 8.553 17.815 11.697 22.717 12.839 2.066.482 4.126-.934 4.339-3.045 3.13-31-26.803-47.825-39.106-53.386a19.7 19.7 0 0 1-8.11-6.783c-7.649-11.125-29.502-37.611-59.46-29.047-2.04.583-3.069 2.86-2.229 4.809 1.991 4.623 6.667 12.861 16.655 20.088 2.184 1.58 1.95 4.903-.467 6.096a46.17 46.17 0 0 0-18.508 16.674c-1.128 1.777-.515 4.141 1.361 5.095 6.876 3.496 23.794 10.228 42.571 3.758 2.558-.881 5.114 1.256 4.699 3.932" opacity="1" data-original="#1ca56f"></path><path fill="#158f5e" d="M224.18 392.268c-.218 2.109-2.277 3.522-4.338 3.038-4.902-1.139-13.839-4.283-22.721-12.841-1.934-1.869-5.168-1.044-5.916 1.542a46.1 46.1 0 0 1-13.135 21.159c-1.556 1.428-3.984 1.251-5.256-.427-3.397-4.485-9.447-13.952-11.258-26.364a46.1 46.1 0 0 0 10.013-18.003c.748-2.598 3.983-3.412 5.916-1.542 8.882 8.558 17.82 11.702 22.721 12.841 2.061.485 4.12-.928 4.337-3.049.764-7.507-.416-14.184-2.827-20.059 12.176 8.932 24.532 23.234 22.464 43.705" opacity="1" data-original="#158f5e"></path><path fill="#e5233a" d="M94.402 384.788a7.7 7.7 0 0 1-4.954-1.801 7.725 7.725 0 0 1-.968-10.883l1.265-1.512a7.727 7.727 0 0 1 11.852 9.915l-1.265 1.512a7.7 7.7 0 0 1-5.93 2.769M124.907 410.3a7.726 7.726 0 0 1-5.924-12.682l1.265-1.513a7.727 7.727 0 0 1 11.855 9.911l-1.265 1.513a7.7 7.7 0 0 1-5.931 2.771M155.412 435.812a7.726 7.726 0 0 1-5.924-12.682l1.265-1.513a7.727 7.727 0 0 1 11.855 9.911l-1.265 1.513a7.7 7.7 0 0 1-5.931 2.771M86.857 424.804a7.7 7.7 0 0 1-4.954-1.801 7.725 7.725 0 0 1-.968-10.883l1.265-1.512a7.725 7.725 0 0 1 10.884-.968 7.725 7.725 0 0 1 .968 10.883l-1.265 1.512a7.71 7.71 0 0 1-5.93 2.769M117.362 450.316a7.7 7.7 0 0 1-4.954-1.801 7.725 7.725 0 0 1-.968-10.883l1.265-1.512a7.725 7.725 0 0 1 10.884-.968 7.725 7.725 0 0 1 .968 10.883l-1.265 1.512a7.71 7.71 0 0 1-5.93 2.769" opacity="1" data-original="#e5233a"></path></g></svg>