<svg xmlns="http://www.w3.org/2000/svg" version="1.1" xmlns:xlink="http://www.w3.org/1999/xlink" width="512" height="512" x="0" y="0" viewBox="0 0 512 512" xml:space="preserve"><g><path fill="#ffc344" fill-rule="evenodd" d="M171.835 157.796c9.381-66.468 1.209-120.077-24.16-128.139-31.358-9.975-66.227 32.66-93.661 93.979l26.107 25.746-40.031 8.739a625 625 0 0 0-9.705 28.894l16.077 22.48-25.842 12.799a637 637 0 0 0-6.578 29.865l18.998 21.832-24.78 14.712c-4.277 34.69-4.484 67.321.708 93.655 41.064.942 116.406-15.653 154.46-16.477 40.679-58.555 35.074-104.044 8.407-208.085" clip-rule="evenodd" opacity="1" data-original="#ffc344"></path><path fill="#aa6a51" fill-rule="evenodd" d="M309.392 441.791h148.797c15.812 0 28.733-12.887 28.733-28.658V264.162c52.568-28.158 15.192-93.184-44.839-109.808-20.089-5.561-37.819-8.356-55.518-8.356H237.914z" clip-rule="evenodd" opacity="1" data-original="#aa6a51"></path><path fill="#feb237" fill-rule="evenodd" d="M147.675 29.657c-11.829-3.766-24.16-.059-36.403 9.357 4.572 33.955 7.168 72.293 7.168 112.898 0 18.743-.561 37.015-1.622 54.61 18.526.736 41.949-11.799 55.017-48.725 9.381-66.468 1.209-120.078-24.16-128.14" clip-rule="evenodd" opacity="1" data-original="#feb237"></path><path fill="#935b44" fill-rule="evenodd" d="M453.675 264.162v148.971c0 15.771-12.921 28.658-28.733 28.658h33.246c15.812 0 28.733-12.887 28.733-28.658V264.162c52.568-28.158 15.192-93.184-44.839-109.808-20.089-5.561-37.819-8.356-55.518-8.356h-33.276c65.843-.001 158.708 68.791 100.387 118.164" clip-rule="evenodd" opacity="1" data-original="#935b44"></path><path fill="#aa6a51" fill-rule="evenodd" d="M50.975 283.111c3.097-9.621-2.242-19.92-11.888-22.98l-25.045-7.974c-2.36 12.328-4.307 24.569-5.782 36.544l19.706 6.267c9.616 3.06 19.941-2.236 23.009-11.857M48.379 231.119c9.646 3.06 19.971-2.266 23.039-11.858 3.068-9.621-2.271-19.92-11.888-22.98l-29.146-9.268a635 635 0 0 0-9.764 35.279zM68.792 167.271c9.646 3.06 19.971-2.266 23.039-11.887s-2.242-19.89-11.888-22.95l-25.93-8.798c-4.897 10.975-9.558 22.538-13.924 34.484z" clip-rule="evenodd" opacity="1" data-original="#aa6a51"></path><path fill="#feb237" fill-rule="evenodd" d="M114.251 239.093c-4.041 40.722-10.826 76.471-19.529 104.218a316 316 0 0 1 42.627-3.854c22.332-99.481 10.857-62.525-23.098-100.364" clip-rule="evenodd" opacity="1" data-original="#feb237"></path><path fill="#fed2a4" fill-rule="evenodd" d="M171.835 157.796c-53.778 20.714-83.956 79.855-34.485 106.366v75.295c32.833 5.885 95.018 40.81 145.168 102.335h26.874c15.782 0 28.703-12.887 28.703-28.658V264.162c52.568-28.158 15.222-93.184-44.81-109.808-20.03-5.561-37.701-8.327-55.371-8.356h-.177c-17.729 0-35.459 2.795-55.548 8.356q-5.31 1.5-10.354 3.442" clip-rule="evenodd" opacity="1" data-original="#fed2a4"></path><path fill="#aa6a51" fill-rule="evenodd" d="M282.518 441.791c13.776-31.248 2.655-72.882-37.347-85.916-32.951-10.74-69.413-17.124-104.163-16.477l-3.658.059c-17.641.382-35.282 2.266-52.922 5.679-13.511 2.589-26.992 6.061-40.474 10.416-16.254 5.267-27.818 15.006-34.987 26.805-21.594 35.514-3.451 89.653 46.491 95.891 59.088 7.385 118.146 7.385 177.234 0 24.78-3.091 41.684-17.949 49.826-36.457" clip-rule="evenodd" opacity="1" data-original="#aa6a51"></path><path fill="#ffbd86" fill-rule="evenodd" d="M307.504 264.162V401.04c2.92 13.564-6.608 33.072-24.986 40.751h26.874c15.782 0 28.703-12.887 28.703-28.658V264.162c52.568-28.158 15.222-93.184-44.81-109.808-20.03-5.561-37.701-8.327-55.371-8.356-10.384 0-20.62.942-30.886 2.707 73.897-2.708 148 56.581 100.476 115.457" clip-rule="evenodd" opacity="1" data-original="#ffbd86"></path><path fill="#935b44" fill-rule="evenodd" d="M207.736 346.283c28.497 9.945 42.332 35.367 42.952 61.23.265 10.416-1.622 20.92-5.605 30.483-8.142 19.773-25.016 35.602-49.825 38.927q-43.984 5.87-87.968 5.914 62.701 3.266 125.403-4.59c24.78-3.09 41.683-17.948 49.825-36.456 13.776-31.248 2.655-72.882-37.347-85.916a346 346 0 0 0-39.972-10.445c.855.294 1.681.558 2.537.853" clip-rule="evenodd" opacity="1" data-original="#935b44"></path><path fill="#aa6a51" d="M205.317 217.219h-.295a7.726 7.726 0 1 1 0-15.452h.295c4.268 0 7.726 3.459 7.726 7.726s-3.458 7.726-7.726 7.726M256.734 299.017h-.295a7.726 7.726 0 1 1 0-15.452h.295a7.725 7.725 0 0 1 7.726 7.726 7.725 7.725 0 0 1-7.726 7.726M185.67 286.982h-.324a7.726 7.726 0 1 1 0-15.452h.324c4.268 0 7.726 3.459 7.726 7.726s-3.458 7.726-7.726 7.726M272.606 232.402h-.295a7.726 7.726 0 1 1 0-15.452h.295a7.726 7.726 0 1 1 0 15.452" opacity="1" data-original="#aa6a51"></path><path fill="#ffbd86" d="M149.385 397.674a7.725 7.725 0 0 1-7.726-7.726v-6.385c0-14.516-5.668-28.164-15.961-38.43a7.727 7.727 0 0 1 10.914-10.941c13.219 13.186 20.5 30.719 20.5 49.37v6.385a7.727 7.727 0 0 1-7.727 7.727M87.731 399.468a7.725 7.725 0 0 1-7.726-7.726v-6.385c0-12.253-3.973-23.814-11.49-33.435a7.727 7.727 0 0 1 12.177-9.515c9.66 12.363 14.766 27.215 14.766 42.949v6.385a7.726 7.726 0 0 1-7.727 7.727M210.303 394.907a7.725 7.725 0 0 1-7.726-7.726v-6.414c0-11.616-3.625-22.704-10.484-32.066a7.727 7.727 0 0 1 12.467-9.132c8.812 12.03 13.47 26.276 13.47 41.198v6.414a7.727 7.727 0 0 1-7.727 7.726" opacity="1" data-original="#ffbd86"></path></g></svg>