<svg xmlns="http://www.w3.org/2000/svg" version="1.1" xmlns:xlink="http://www.w3.org/1999/xlink" width="512" height="512" x="0" y="0" viewBox="0 0 512 512" xml:space="preserve"><g><path d="M376.627 121.882h-66.781L186.535 72.558C156.694 60.622 137.412 32.141 137.412 0h30c0 19.802 11.88 37.35 30.265 44.703l117.946 47.179h61.004z" style="" fill="#9b9b9b" data-original="#9b9b9b"></path><path d="M261 117.764H105.348V189l20.001 67-20.001 182.451V512H261z" style="" fill="#e30020" data-original="#e30020"></path><path d="M256 117.764V512h150.652v-73.549L386.651 256l20.001-67v-71.236z" style="" fill="#aa0018" data-original="#aa0018"></path><path d="M105.348 91.882v30h301.305v-30z" style="" fill="#e5e5e5" data-original="#e5e5e5"></path><path d="M256 91.88h150.65v30H256z" style="" fill="#cfcfcf" data-original="#cfcfcf"></path><path d="M105.348 189v249.451h301.305V189z" style="" fill="#ffe7c3" data-original="#ffe7c3"></path><path d="M256 189h150.65v249.45H256z" style="" fill="#ffcf87" data-original="#ffcf87"></path><path d="M241 213.77h30v42.893h-30z" style="" fill="#00c47a" data-original="#00c47a"></path><path d="M336.556 256.198c-13.226-13.634-31.567-21.143-51.648-21.143-10.105 0-19.964 1.792-28.907 5.224-8.943-3.431-18.802-5.224-28.907-5.224-20.081 0-38.423 7.509-51.648 21.143-13.847 14.275-21.166 33.965-21.166 56.941 0 32.512 21.876 67.018 52.016 82.047 6.298 3.14 23.026 11.48 49.706 11.48 26.806 0 43.791-8.533 49.374-11.337 30.332-15.24 52.348-49.806 52.348-82.19-.003-22.975-7.322-42.665-21.168-56.941" style="" fill="#fc334f" data-original="#fc334f"></path><path d="M336.556 256.198c-13.226-13.634-31.567-21.143-51.648-21.143-10.105 0-19.964 1.792-28.907 5.224v166.387c26.806 0 43.791-8.533 49.374-11.337 30.332-15.24 52.348-49.806 52.348-82.19-.002-22.975-7.321-42.665-21.167-56.941" style="" fill="#e30020" data-original="#e30020"></path></g></svg>