<svg xmlns="http://www.w3.org/2000/svg" version="1.1" xmlns:xlink="http://www.w3.org/1999/xlink" width="512" height="512" x="0" y="0" viewBox="0 0 512 512" xml:space="preserve"><g><path fill="#fdd131" d="M195.931 158.034c0 87.28 70.754 158.034 158.034 158.034l21.661-160.054L353.966 0c-87.28 0-158.035 70.754-158.035 158.034" opacity="1" data-original="#fdd131"></path><path fill="#f8b32c" d="M353.966 0v316.069c87.28 0 158.034-70.754 158.034-158.034C512 70.754 441.246 0 353.966 0" opacity="1" data-original="#f8b32c"></path><path fill="#fed200" d="M0 79.451v90.416l189.682 20.826 10.682-1.055 18.052-32.633-18.052-32.352z" opacity="1" data-original="#fed200"></path><path fill="#f8b400" d="m400.489 169.801-200.125-45.148v64.985l200.125-19.771z" opacity="1" data-original="#f8b400"></path><path fill="#fff594" d="M0 169.867v186.232c0 28.95 23.468 52.418 52.418 52.418h147.946l34.896-118.742-34.896-119.908z" opacity="1" data-original="#fff594"></path><path fill="#fedc6b" d="M400.489 169.867H200.364v238.65h200.363z" opacity="1" data-original="#fedc6b"></path><path fill="#fed200" d="M257.118 270.274v41.63c0 15.687-12.717 28.404-28.404 28.404s-28.404-12.717-28.404-28.404v-41.63h-89.802V512h200.746l24.079-110.262-24.079-131.465z" opacity="1" data-original="#fed200"></path><path fill="#f8b400" d="M311.254 270.274H512V512H311.254z" opacity="1" data-original="#f8b400"></path><path fill="#fff594" d="M234.761 512c-26.575 0-48.195-21.62-48.195-48.195s21.62-48.195 48.195-48.195 48.195 21.62 48.195 48.195C282.955 490.38 261.335 512 234.761 512" opacity="1" data-original="#fff594"></path><path fill="#fedc6b" d="M362.007 375.478c-18.62 0-33.769-15.149-33.769-33.769 0-18.621 15.149-33.769 33.769-33.769s33.769 15.149 33.769 33.769c0 18.621-15.149 33.769-33.769 33.769M478.231 459.368c-18.62 0-33.769-15.149-33.769-33.769 0-18.621 15.149-33.769 33.769-33.769S512 406.979 512 425.599c0 18.621-15.149 33.769-33.769 33.769" opacity="1" data-original="#fedc6b"></path></g></svg>