<svg xmlns="http://www.w3.org/2000/svg" version="1.1" xmlns:xlink="http://www.w3.org/1999/xlink" width="512" height="512" x="0" y="0" viewBox="0 0 512 512" xml:space="preserve"><g><path d="M407 391h-45.835v-30H407c41.353 0 75-33.647 75-75v-46h-75v-30h105v76c0 57.891-47.109 105-105 105" style="" fill="#b20000" data-original="#b20000"></path><path d="M31 180v75c0 107.399 87.599 196 195 196s196-88.601 196-196v-75z" style="" fill="#ff3636" data-original="#ff3636"></path><path d="M143.427 144.961c-14.238-9.492-22.734-25.371-22.734-42.48s8.496-32.988 22.734-42.48c5.962-3.97 9.375-10.356 9.375-17.52s-3.413-13.55-9.375-17.52L160.067 0c14.238 9.492 22.734 25.371 22.734 42.48s-8.496 32.988-22.734 42.48c-5.962 3.97-9.375 10.356-9.375 17.52s3.413 13.55 9.375 17.52zM257.8 42.599c0 17.1-8.399 32.999-22.8 42.299-5.4 3.301-8.399 9.001-9 15-.3.901-.3 1.802-.3 2.701 0 .901 0 1.8.3 2.701a19.86 19.86 0 0 0 9 14.7l-9 13.5-7.5 11.398c-14.399-9.3-22.8-25.199-22.8-42.299S204.101 69.6 218.5 60c3.6-2.401 6-5.4 7.5-9 1.199-2.701 1.8-5.402 1.8-8.401s-.601-6-1.8-8.699c-1.5-3.6-3.9-6.601-7.5-9.001L226 13.5 235 0c14.401 9.6 22.8 25.499 22.8 42.599" style="" fill="#ffbd86" data-original="#ffbd86"></path><path d="M293.427 144.961c-14.238-9.492-22.734-25.371-22.734-42.48s8.496-32.988 22.734-42.48c5.962-3.97 9.375-10.356 9.375-17.52s-3.413-13.55-9.375-17.52L310.067 0c14.238 9.492 22.734 25.371 22.734 42.48s-8.496 32.988-22.734 42.48c-5.962 3.97-9.375 10.356-9.375 17.52s3.413 13.55 9.375 17.52z" style="" fill="#f6a96c" data-original="#f6a96c"></path><path d="M422 180v75c0 107.399-88.599 196-196 196V180z" style="" fill="#f40000" data-original="#f40000"></path><path d="m235 120-9 13.5v-28.2a19.86 19.86 0 0 0 9 14.7M257.8 42.599c0 17.1-8.399 32.999-22.8 42.299-5.4 3.301-8.399 9.001-9 15V51c1.199-2.701 1.8-5.402 1.8-8.401s-.601-6-1.8-8.699V13.5L235 0c14.401 9.6 22.8 25.499 22.8 42.599" style="" fill="#f6a96c" data-original="#f6a96c"></path><path d="M0 421v15c0 41.4 34.6 76 76 76h301c41.4 0 75-34.6 75-76v-15z" style="" fill="#fdbf00" data-original="#fdbf00"></path><path d="M452 421v15c0 41.4-33.6 76-75 76H226v-91z" style="" fill="#ff9f00" data-original="#ff9f00"></path></g></svg>