<svg xmlns="http://www.w3.org/2000/svg" version="1.1" xmlns:xlink="http://www.w3.org/1999/xlink" width="512" height="512" x="0" y="0" viewBox="0 0 512.352 512.352" xml:space="preserve"><g><path fill="#9ef3ea" d="M264.564 59.377V.176H55.995v58.768L0 170.271v341.905h313.803V170.703z" opacity="1" data-original="#9ef3ea"></path><path fill="#55d5d2" d="m264.564 59.377-208.569-.433L0 170.271l313.803.432z" opacity="1" data-original="#55d5d2"></path><path fill="#00b2cc" d="m264.564 59.377-57.878 110.894 1.883 341.905h105.234V170.703z" opacity="1" data-original="#00b2cc"></path><path fill="#0b9ab0" d="m206.687 170.556 107.116.147-49.239-111.326-57.878 110.894z" opacity="1" data-original="#0b9ab0"></path><path fill="#c7c1dc" d="M496.167 309.982c-30.332-27.289-91.099-3.667-133.919 24.85l-17.751 161.984c15.207 10.338 32.705 15.36 50.107 15.36 24.726 0 49.259-10.141 66.755-29.589 16.052-17.844 33.318-51.006 42.965-82.519 12.994-42.446 10.173-73.598-8.157-90.086" opacity="1" data-original="#c7c1dc"></path><path fill="#f2f2fc" d="M313.803 512.176c-49.384 0-89.56-40.177-89.56-89.561 0-24.001 9.342-60.202 23.246-90.081 18.728-40.247 41.66-61.52 66.314-61.52 24.655 0 47.586 21.273 66.314 61.52 13.904 29.879 23.246 66.08 23.246 90.081.001 49.385-40.176 89.561-89.56 89.561" opacity="1" data-original="#f2f2fc"></path><path fill="#e2d9fb" d="M313.803 512.176V271.014c24.655 0 47.586 21.273 66.314 61.52 13.904 29.879 23.246 66.08 23.246 90.081.001 49.385-40.176 89.561-89.56 89.561" opacity="1" data-original="#e2d9fb"></path></g></svg>