<svg xmlns="http://www.w3.org/2000/svg" version="1.1" xmlns:xlink="http://www.w3.org/1999/xlink" width="512" height="512" x="0" y="0" viewBox="0 0 512 512" xml:space="preserve"><g><path d="M193.977 112.053c0 19.224-3.485 38.62-10.309 54.538-7.577 17.674-23.148 29.65-36.805 40.39-14.6 11.483-30.624 22.569-49.268 22.569s-38.236-6.579-52.837-18.064c-13.652-10.738-20.887-29.253-28.464-46.921C9.469 148.644 0 131.28 0 112.053c0-19.224 4.659-38.637 11.483-54.555 7.577-17.674 21.166-32.192 34.821-42.932C60.904 3.083 78.952.303 97.596.303c18.645 0 34.742 5.251 49.343 16.736 13.652 10.738 27.31 23.585 34.886 41.253 6.826 15.92 12.152 34.534 12.152 53.761" style="" fill="#ff9a32" data-original="#ff9a32"></path><path d="M154.243 100.529c1.561 11.167 1.281 22.693-1.06 32.448-2.599 10.831-9.917 18.946-16.316 26.201-6.841 7.757-14.472 15.389-24.398 16.776s-20.891-.977-29.598-6.561c-8.14-5.222-13.496-15.439-18.963-25.138-4.927-8.74-11.379-18.121-12.939-29.291-1.561-11.167-.657-22.79 1.684-32.545 2.599-10.831 8.655-20.275 15.053-27.53 6.841-7.757 16.225-10.714 26.151-12.102 9.927-1.388 18.923.465 27.63 6.05 8.14 5.222 16.455 11.668 21.923 21.367 4.925 8.74 9.272 19.157 10.833 30.325" style="" fill="#ff7d28" data-original="#ff7d28"></path><path d="M113.003 218.115c-.649-4.012-3.849-6.985-7.843-7.733-13.531-2.531-26.698-8.229-37.256-16.533-13.652-10.738-20.888-29.253-28.464-46.921-6.827-15.918-16.295-33.282-16.295-52.509 0-14.791 4.882-26.21 9.691-38.844a8.98 8.98 0 0 0-.882-8.079l-.102-.158c-3.679-5.65-11.978-5.381-15.408.423a85 85 0 0 0-4.96 9.736C4.659 73.416 0 92.828 0 112.053c0 19.227 9.469 36.591 16.295 52.512 7.577 17.668 14.812 36.183 28.464 46.921 13.519 10.633 31.314 17.061 48.677 17.956a59.6 59.6 0 0 0 11.951-.605c5.055-.764 8.432-5.673 7.616-10.722" style="" fill="#ff7d28" data-original="#ff7d28"></path><path d="M483.9 483.035c-10.825 10.825-23.709 19.785-36.515 24.905-14.219 5.685-29.731 3.661-43.468 2.019-14.687-1.756-29.953-4.536-40.451-15.034s-17.826-25.235-19.581-39.924c-1.641-13.734 4.711-28.234 10.393-42.449 5.121-12.808 9.567-27.918 20.393-38.745 10.825-10.825 24.379-19.133 37.186-24.254 14.219-5.685 30.045-6.209 43.783-4.567 14.687 1.756 26.415 10.352 36.913 20.851 10.499 10.499 16.606 22.52 18.362 37.209 1.641 13.734 2.097 28.659-3.585 42.874-5.121 12.808-12.604 26.288-23.43 37.115" style="" fill="#ff9a32" data-original="#ff9a32"></path><path d="M468.015 454.172c-5.409 7.167-12.057 13.5-18.869 17.674-7.562 4.634-16.253 5.084-23.941 5.566-8.22.516-16.815.516-23.186-4.292-6.371-4.809-11.214-12.313-12.971-20.361-1.643-7.524 1.094-16.293 3.476-24.833 2.147-7.695 3.797-16.611 9.207-23.78 5.409-7.167 12.464-13.204 19.274-17.377 7.562-4.634 16.291-6.543 23.979-7.026 8.22-.516 15.169 3.103 21.54 7.911s10.394 10.918 12.151 18.965c1.643 7.524 2.696 15.836.313 24.377-2.145 7.694-5.563 16.008-10.973 23.176" style="" fill="#ff7d28" data-original="#ff7d28"></path><path d="M378.579 497.162c1.893-2.624 1.767-6.1-.062-8.771-6.195-9.044-10.4-19.667-11.669-30.288-1.641-13.734 4.711-28.234 10.393-42.45 5.121-12.808 9.567-27.917 20.393-38.745 8.329-8.329 17.509-12.009 27.33-16.416a7.15 7.15 0 0 0 4.053-5.046l.031-.147c1.11-5.253-3.715-9.775-8.915-8.438a68 68 0 0 0-8.276 2.69c-12.806 5.121-26.361 13.428-37.186 24.254-10.826 10.826-15.272 25.937-20.393 38.745-5.683 14.215-12.034 28.715-10.393 42.449 1.625 13.6 8.026 27.241 17.299 37.521a47.4 47.4 0 0 0 7.07 6.388c3.276 2.42 7.942 1.557 10.325-1.746" style="" fill="#ff7d28" data-original="#ff7d28"></path><path d="M375.458 117.235c-9.2 9.2-22.434 10.1-33.211 14.63-12.116 5.093-21.832 8.525-33.5 7.437-12.787-1.194-25.759-.906-34.753-9.899-8.997-8.997-6.315-22.149-7.507-34.94-1.086-11.666-4.256-23.042.838-35.155 4.531-10.776 11.93-19.879 21.128-29.078 9.2-9.2 16.64-20.413 27.417-24.944C327.986.193 341.58-.311 353.248.778c12.787 1.194 23.973 7.413 32.966 16.405 8.997 8.997 20.522 19.798 21.713 32.589 1.086 11.666-10.447 23.146-15.54 35.26-4.531 10.777-7.731 23.006-16.929 32.203" style="" fill="#6e4848" data-original="#6e4848"></path><path d="M335.062 113.956a8.78 8.78 0 0 1-5.924-2.29c-3.607-3.272-3.875-8.842-.603-12.451 7.112-7.844 13.441-11.349 18.521-14.156 2.868-1.593 5.348-2.97 7.611-4.925a8.786 8.786 0 0 1 12.433.878c3.194 3.677 2.798 9.248-.878 12.433-3.651 3.177-7.198 5.14-10.626 7.035-4.555 2.523-8.851 4.899-14.009 10.583a8.78 8.78 0 0 1-6.525 2.893M367.929 63.946a8.81 8.81 0 0 1-8.817-8.817c0-4.788.551-10.014 4.555-15.8 2.773-3.995 8.257-5.011 12.27-2.23a8.82 8.82 0 0 1 2.23 12.27c-1.206 1.739-1.421 3.022-1.421 5.761a8.81 8.81 0 0 1-8.817 8.816" style="" fill="#785353" data-original="#785353"></path><path d="M349.361 29.786c-3.031-3.823-8.576-4.478-12.382-1.429-10.032 7.948-12.089 13.897-13.906 21.422-1.059 4.409-2.152 8.973-7.878 16.713-1.86 2.514-4.943 4.874-8.205 7.371-4.798 3.671-10.881 11.673-13.82 10.387-5.144.184-3.665-14.783.607-24.943 4.531-10.776 11.93-19.879 21.128-29.078 2.139-2.139 4.609-4.428 6.895-6.665 5.62-5.497 4.125-15.509-3.295-18.105-1.03-.359-1.944-.465-2.633-.174-10.778 4.531-18.218 15.744-27.417 24.944-9.198 9.198-16.597 18.302-21.128 29.078-5.093 12.114-1.923 23.49-.838 35.155 1.191 12.791-1.49 25.944 7.507 34.94 3.419 3.418 7.412 5.494 11.751 6.821 6.536 1.998 11.999-3.019 13.003-9.779.483-3.252.758-25.295 18.961-38.582 4.162-3.037 8.318-6.371 11.658-10.884 7.862-10.626 9.592-17.815 10.858-23.068 1.179-4.917 1.671-6.949 7.706-11.744 3.813-3.021 4.459-8.566 1.428-12.38" style="" fill="#643c3e" data-original="#643c3e"></path><path d="M133.037 378.833c0 13.01-8.721 23.004-13.139 33.829-4.966 12.169-9.409 21.466-18.429 28.947-9.885 8.198-18.855 17.575-31.573 17.575-12.723 0-20.126-11.196-30.015-19.399-9.017-7.481-19.303-13.284-24.267-25.451-4.416-10.823-5.621-22.493-5.621-35.501 0-13.01-2.668-26.2 1.749-37.025 4.966-12.169 14.222-22.138 23.242-29.618 9.885-8.198 22.193-11.709 34.911-11.709 12.723 0 28.51-.513 38.398 7.691 9.017 7.481 8.979 23.753 13.943 35.921 4.417 10.822 10.801 21.731 10.801 34.74" style="" fill="#c87857" data-original="#c87857"></path><path d="M102.154 405.078a8.78 8.78 0 0 1-5.808 2.569c-4.865.237-8.992-3.514-9.23-8.377-.518-10.576 1.479-17.528 3.087-23.106.902-3.154 1.681-5.881 1.9-8.865a8.787 8.787 0 0 1 9.413-8.171c4.858.341 8.517 4.561 8.171 9.413-.335 4.828-1.455 8.725-2.539 12.487-1.437 5.005-2.795 9.723-2.424 17.388a8.78 8.78 0 0 1-2.57 6.662M90.033 346.476a8.813 8.813 0 0 1-12.47 0c-3.385-3.386-6.691-7.47-7.952-14.393-.864-4.786 2.296-9.383 7.099-10.253a8.82 8.82 0 0 1 10.253 7.099c.378 2.082 1.133 3.142 3.068 5.078a8.81 8.81 0 0 1 .002 12.469" style="" fill="#d28764" data-original="#d28764"></path><path d="M52.749 335.449c-4.846-.56-9.23 2.899-9.766 7.745-1.474 12.713 1.278 18.375 5.316 24.981 2.369 3.866 4.822 7.866 6.247 17.388.463 3.093-.048 6.941-.591 11.014-.796 5.988.56 15.948-2.427 17.116-3.507 3.766-13.044-7.862-17.208-18.066-4.415-10.823-5.621-22.492-5.621-35.501 0-3.025.128-6.39.163-9.588.086-7.862-8.05-13.884-15.132-10.471-.982.474-1.704 1.046-1.985 1.739-4.417 10.824-1.749 24.015-1.749 37.024s1.206 24.678 5.621 35.501c4.964 12.167 15.25 17.97 24.267 25.451 9.887 8.203 17.292 19.399 30.015 19.399 4.834 0 9.126-1.356 13.132-3.486 6.034-3.208 6.349-10.619 2.279-16.11-1.959-2.642-17.35-18.423-13.874-40.689.795-5.091 1.375-10.387.548-15.94-1.954-13.073-5.815-19.38-8.633-23.989-2.643-4.31-3.732-6.095-2.856-13.754.558-4.832-2.906-9.209-7.746-9.764" style="" fill="#b9644b" data-original="#b9644b"></path><path d="M493.212 177.394c7.227 7.017 8.247 17.074 11.965 25.277 4.179 9.221 7.035 16.613 6.505 25.474-.582 9.711-.034 19.569-6.642 26.373-6.611 6.808-16.675 4.731-26.37 5.598-8.84.79-17.407 3.164-26.746-.742-8.307-3.475-15.415-9.124-22.641-16.14-7.227-7.017-15.94-12.703-19.658-20.905-4.179-9.221-4.908-19.55-4.377-28.411.582-9.711 5.026-18.191 11.634-24.997 6.611-6.808 14.528-15.531 24.222-16.398 8.84-.79 17.86 8.007 27.198 11.913 8.307 3.474 17.684 5.942 24.91 12.958" style="" fill="#ffdc64" data-original="#ffdc64"></path><path d="M487.008 234.889a8.8 8.8 0 0 1-6.643-3.698c-7.582-10.694-15.704-13.769-23.557-16.742-9.885-3.73-22.178-8.388-24.298-28.383-.514-4.846 2.996-9.189 7.834-9.694a8.8 8.8 0 0 1 9.694 7.834c.98 9.207 3.769 10.263 13.004 13.754 8.865 3.355 21.007 7.944 31.702 23.027 2.82 3.974 1.886 9.481-2.087 12.292a8.76 8.76 0 0 1-5.649 1.61" style="" fill="#ffc850" data-original="#ffc850"></path><path d="M495.756 243.23c-8.84.789-17.407 3.164-26.746-.743-8.307-3.474-15.415-9.124-22.64-16.14-7.227-7.017-15.94-12.704-19.658-20.907-2.672-5.893-3.43-8.247-3.519-11.712-.117-4.528-1.23-8.973-3.593-12.837l-.056-.093c-2.605-4.26-9.035-4.031-11.112.511-1.784 3.903-2.913 8.112-3.183 12.606-.531 8.861.197 19.19 4.377 28.411 3.718 8.202 12.431 13.889 19.658 20.905 7.226 7.016 14.334 12.665 22.64 16.14 9.338 3.906 17.905 1.532 26.746.742 9.693-.866 19.759 1.21 26.37-5.598 3.262-3.36 2.496-8.07.66-9.539-3.473-2.775-4.92-2.195-9.944-1.746" style="" fill="#ffc850" data-original="#ffc850"></path><path d="M308.011 352.827c-14.774 30.106-12.686 46.51-28.329 78.388-20.858 42.503-56.721 38.105-77.152 28.089s-45.866-35.666-25.008-78.169c15.644-31.877 29.901-40.268 44.675-70.374s12.685-46.51 28.328-78.388c20.858-42.503 56.721-38.105 77.152-28.089s45.866 35.666 25.008 78.169c-15.643 31.877-29.9 40.266-44.674 70.374" style="" fill="#c87857" data-original="#c87857"></path><path d="M237.812 437.131c-4.202 0-9.084-1.128-14.766-3.918-4.366-2.136-6.174-7.422-4.029-11.796 2.136-4.357 7.422-6.191 11.796-4.029 8.386 4.09 10.023 2.626 14.621-6.751 6.01-12.253 8.456-21.087 11.547-32.255 2.918-10.565 6.234-22.551 12.632-37.188 1.946-4.452 7.139-6.527 11.607-4.546 4.46 1.946 6.5 7.146 4.546 11.607-5.89 13.492-9.024 24.824-11.787 34.83-3.074 11.099-5.985 21.587-12.718 35.32-2.8 5.706-9.198 18.726-23.449 18.726M219.283 406.641a8.7 8.7 0 0 1-3.875-.904c-4.374-2.144-6.174-7.422-4.029-11.796 6.742-13.759 13.26-22.456 20.157-31.669 2.927-3.883 8.438-4.675 12.347-1.773 3.9 2.918 4.693 8.447 1.773 12.347-6.673 8.903-12.433 16.593-18.452 28.863-1.523 3.123-4.657 4.932-7.921 4.932" style="" fill="#b9644b" data-original="#b9644b"></path><path d="M295.907 320.295a8.74 8.74 0 0 1-4.917-1.507c-4.038-2.712-5.106-8.198-2.385-12.236 3.927-5.838 7.724-10.918 11.306-15.714 2.918-3.9 8.499-4.727 12.374-1.825 3.9 2.918 4.736 8.395 1.816 12.296l-.069.095c-3.419 4.572-7.052 9.42-10.806 14.999-1.695 2.532-4.485 3.892-7.319 3.892" style="" fill="#d28764" data-original="#d28764"></path><path d="M276.952 288.361c-4.7-1.303-7.452-6.155-6.143-10.853 2.018-7.248 4.56-16.162 6.139-20.562 1.644-4.589 6.716-6.974 11.279-5.321 4.581 1.644 6.966 6.699 5.321 11.279-1.409 3.924-3.818 12.385-5.754 19.346-1.304 4.688-6.154 7.411-10.842 6.111M280.159 282.856h.086z" style="" fill="#b9644b" data-original="#b9644b"></path><path d="M326.338 274.573a8.9 8.9 0 0 1-3.883-.904c-4.366-2.144-6.165-7.431-4.021-11.805 1.145-2.324 3.823-7.767 2.945-10.324-.56-1.644-2.884-3.539-6.552-5.339-4.366-2.136-6.174-7.422-4.029-11.796 2.136-4.357 7.422-6.2 11.796-4.029 8.241 4.038 13.303 9.093 15.473 15.464 3.238 9.472-1.343 18.797-3.806 23.808a8.82 8.82 0 0 1-7.923 4.925" style="" fill="#d28764" data-original="#d28764"></path><path d="M230.675 456.889c.303-3.197-1.071-6.353-3.715-8.176-17.952-12.376-34.346-36.468-16.375-73.09 15.644-31.877 29.901-40.268 44.675-70.374s4.08-39.414 19.723-71.291c3.026-6.166 14.976-18.426 18.544-22.725 4.703-5.666-.432-13.78-7.518-11.78-13.03 3.68-25.854 13.292-35.486 32.918-15.643 31.877-13.553 48.282-28.328 78.389s-29.032 38.497-44.675 70.374c-20.858 42.503 4.575 68.153 25.008 78.169a65.6 65.6 0 0 0 17.905 5.729c5.077.845 9.757-3.022 10.242-8.143" style="" fill="#b9644b" data-original="#b9644b"></path></g></svg>