<svg xmlns="http://www.w3.org/2000/svg" version="1.1" xmlns:xlink="http://www.w3.org/1999/xlink" width="512" height="512" x="0" y="0" viewBox="0 0 510.36 510.36" xml:space="preserve"><g><path fill="#ae0551" d="m360.27 399.59 18 61.13-18 49.64h-82.69V409.35l80.67-10z" opacity="1" data-original="#ae0551"></path><path fill="#801926" d="M442.96 409.35v101.01h-82.69V399.59z" opacity="1" data-original="#801926"></path><path fill="#ae0551" d="m360.27 55.21 25.336 109.9-25.336 135.41-82.69-43.22v-43.65c0-13.85 5.61-26.38 14.69-35.46 9.07-9.07 21.61-14.69 35.46-14.69V65.21z" opacity="1" data-original="#ae0551"></path><path fill="#801926" d="M442.96 213.65v43.65l-82.69 10V55.21l32.54 10v98.29c27.7 0 50.15 22.46 50.15 50.15" opacity="1" data-original="#801926"></path><path fill="#fff1b3" d="M277.58 257.3h165.38v152.05H277.58z" opacity="1" data-original="#fff1b3"></path><path fill="#ad5e2e" d="m360.27 0 10 31.605-10 33.605h-32.54V0z" opacity="1" data-original="#ad5e2e"></path><path fill="#883f2e" d="M360.27 0h32.54v65.21h-32.54z" opacity="1" data-original="#883f2e"></path><path fill="#ffe898" d="m360.27 257.3 10 76.026-10 76.024h-82.69V257.3z" opacity="1" data-original="#ffe898"></path><path fill="#ffda45" d="M360.27 257.3h82.69v152.05h-82.69z" opacity="1" data-original="#ffda45"></path><path fill="#ae774e" d="m360.27 320.54 10 15.022-10 14.978h-29.34v-30z" opacity="1" data-original="#ae774e"></path><path fill="#ad5e2e" d="M360.27 320.54h29.34v30h-29.34z" opacity="1" data-original="#ad5e2e"></path><path fill="#f5f3f2" d="m139.08 340.61 10 79.25-10 74.6h-15V340.61z" opacity="1" data-original="#f5f3f2"></path><path fill="#ebe2df" d="M139.08 340.61h15v153.85h-15zM139.08 165.11l20 41.425-20 35.045-71.68-10v-66.47z" opacity="1" data-original="#ebe2df"></path><path fill="#d2c5c2" d="M210.76 165.11v66.47l-71.68 10v-76.47z" opacity="1" data-original="#d2c5c2"></path><path fill="#cb2e43" d="m139.08 231.58 20 51.75-20 66.53c-39.58 0-71.68-32.09-71.68-71.68v-46.6z" opacity="1" data-original="#cb2e43"></path><path fill="#ae0551" d="M210.76 231.58v46.6c0 39.59-32.1 71.68-71.68 71.68V231.58z" opacity="1" data-original="#ae0551"></path><path fill="#ebe2df" d="m139.08 479.46 21 15-21 15h-62v-30z" opacity="1" data-original="#ebe2df"></path><path fill="#d2c5c2" d="M139.08 479.46h62v30h-62z" opacity="1" data-original="#d2c5c2"></path></g></svg>