<svg xmlns="http://www.w3.org/2000/svg" version="1.1" xmlns:xlink="http://www.w3.org/1999/xlink" width="512" height="512" x="0" y="0" viewBox="0 0 512 512" xml:space="preserve"><g><path fill="#e0875b" d="M256 455.04c25.601 15.789 55.754 24.907 88.04 24.907 92.762 0 167.96-75.198 167.96-167.96S436.802 32.053 344.04 32.053c-32.284 0-62.44 22.676-88.04 56.149z" opacity="1" data-original="#e0875b"></path><path fill="#f5f4f9" d="M0 311.987c0 92.762 75.198 167.96 167.96 167.96l39.987-160.002L167.96 32.053C75.198 32.053 0 219.225 0 311.987" opacity="1" data-original="#f5f4f9"></path><path fill="#e3e8fa" d="M167.96 32.053v447.894c92.762 0 167.96-75.198 167.96-167.96S260.722 32.053 167.96 32.053" opacity="1" data-original="#e3e8fa"></path><path fill="#ffd930" d="M87.987 319.945c0 44.168 35.805 79.974 79.973 79.974l27.79-79.974-27.79-79.974c-44.168.001-79.973 35.806-79.973 79.974" opacity="1" data-original="#ffd930"></path><path fill="#ffbc12" d="M167.96 239.972v159.947c44.168 0 79.974-35.805 79.974-79.974s-35.806-79.973-79.974-79.973" opacity="1" data-original="#ffbc12"></path></g></svg>