<svg xmlns="http://www.w3.org/2000/svg" version="1.1" xmlns:xlink="http://www.w3.org/1999/xlink" width="512" height="512" x="0" y="0" viewBox="0 0 506.422 506.422" xml:space="preserve"><g><path fill="#8cbcff" d="m373.082 300.57-50.4 50.396 112.26 83.976 71.48-71.48z" opacity="1" data-original="#8cbcff"></path><path fill="#b3d8f4" d="m300.568 373.077 62.894 133.345 71.48-71.48-98.118-98.118zM149.31 451.161l-55.26-153.59L297.571 94.05l153.59 55.26z" opacity="1" data-original="#b3d8f4"></path><path fill="#7c84e8" d="M203.931 26.192c-1.467 22.268-48.91 80.111-87.411 118.612l261.529 233.244s20.17-183.351-80.477-283.998c-31.821-31.82-63.543-53.441-93.641-67.858" opacity="1" data-original="#7c84e8"></path><path fill="#8cbcff" d="M26.192 203.931c14.417 30.098 36.039 61.82 67.858 93.64 100.647 100.647 283.998 80.477 283.998 80.477L130.662 130.662c-38.501 38.501-82.203 71.802-104.47 73.269" opacity="1" data-original="#8cbcff"></path><path fill="#8cbcff" d="m13.573 13.573 60.83 89.114 74.067 45.783c34.04-34.04 52.526-77.742 55.461-122.278C98.824-24.155 13.573 13.573 13.573 13.573" opacity="1" data-original="#8cbcff"></path><path fill="#b3d8f4" d="M26.192 203.931c44.536-2.935 88.239-21.421 122.278-55.461L13.573 13.573s-37.728 85.251 12.619 190.358" opacity="1" data-original="#b3d8f4"></path><path fill="#07485e" d="m54.883 76.11 21.21-21.21L99.132 77.94l-21.21 21.21z" opacity="1" data-original="#07485e"></path><path fill="#8cbcff" d="M229.888 119.727a240.6 240.6 0 0 1-45.942 64.219l4.793 18.935 16.42 2.278a270.5 270.5 0 0 0 51.66-72.213z" opacity="1" data-original="#8cbcff"></path><path fill="#b3d8f4" d="M183.946 183.946a240.5 240.5 0 0 1-64.216 45.94l13.221 26.929a270.5 270.5 0 0 0 72.208-51.656z" opacity="1" data-original="#b3d8f4"></path></g></svg>