<svg xmlns="http://www.w3.org/2000/svg" version="1.1" xmlns:xlink="http://www.w3.org/1999/xlink" width="512" height="512" x="0" y="0" viewBox="0 0 512 512" xml:space="preserve"><g><path fill="#00ed83" d="m36.358 391.774-19.797 55.111V512h478.878v-65.115l-19.797-55.111V120.225l19.797-55.11V0H16.561v65.115l19.797 55.11z" opacity="1" data-original="#00ed83"></path><path fill="#00cb71" d="M495.439 65.115V0H256v512h239.439v-65.115l-19.797-55.111V120.225z" opacity="1" data-original="#00cb71"></path><path fill="#f9ebd7" d="m371.499 262.221-51.038 13.675L286 256l34.461-19.897 51.038 13.676 7.765-28.978-22.061-5.911 18.225-10.522-15-25.98-18.224 10.521 5.911-22.059-28.978-7.764-13.675 51.037L271 230.019v-39.792l37.362-37.363-21.213-21.213L271 147.801v-21.044h-30v21.044l-16.149-16.15-21.213 21.213L241 190.227v39.792l-34.462-19.896-13.675-51.037-28.978 7.764 5.911 22.059-18.224-10.521-15 25.98 18.225 10.522-22.061 5.911 7.765 28.978 51.038-13.676L226 256l-34.461 19.896-51.038-13.675-7.765 28.978 22.061 5.911-18.225 10.522 15 25.98 18.224-10.521-5.911 22.059 28.978 7.764 13.675-51.037L241 281.981v39.792l-37.362 37.363 21.213 21.213L241 364.199v21.044h30v-21.044l16.149 16.15 21.213-21.213L271 321.773v-39.792l34.462 19.896 13.675 51.037 28.978-7.764-5.911-22.059 18.224 10.521 15-25.98-18.225-10.522 22.061-5.911z" opacity="1" data-original="#f9ebd7"></path><path fill="#f3d6ae" d="m371.499 262.221-51.038 13.675L286 256l34.461-19.897 51.038 13.676 7.765-28.978-22.061-5.911 18.225-10.522-15-25.98-18.224 10.521 5.911-22.059-28.978-7.764-13.675 51.037L271 230.019v-39.792l37.362-37.363-21.213-21.213L271 147.801v-21.044h-15v258.486h15v-21.044l16.149 16.15 21.213-21.213L271 321.773v-39.792l34.462 19.896 13.675 51.037 28.978-7.764-5.911-22.059 18.224 10.521 15-25.98-18.225-10.522 22.061-5.911z" opacity="1" data-original="#f3d6ae"></path><path fill="#00cb71" d="M16.561 0h478.878v65.115H16.561z" opacity="1" data-original="#00cb71"></path><path fill="#009854" d="M256 0h239.439v65.115H256z" opacity="1" data-original="#009854"></path><path fill="#00cb71" d="M16.561 446.885h478.878V512H16.561z" opacity="1" data-original="#00cb71"></path><path fill="#009854" d="M256 446.885h239.439V512H256z" opacity="1" data-original="#009854"></path></g></svg>