<svg xmlns="http://www.w3.org/2000/svg" version="1.1" xmlns:xlink="http://www.w3.org/1999/xlink" width="512" height="512" x="0" y="0" viewBox="0 0 511.934 511.934" xml:space="preserve"><g><path d="M155.816 162.155h-30c0-34.06-26.21-50.924-27.325-51.625l.089.055 15.598-25.627c1.7 1.035 41.638 25.935 41.638 77.197" style="" fill="#c06100" data-original="#c06100"></path><path d="M294.68 292.082c0 81.14-66.01 147.15-147.15 147.15-3.23 0-6.43-.1-9.61-.31C61.24 433.962.38 369.992.38 292.082s60.86-141.87 137.54-146.83c3.18-.21 6.38-.31 9.61-.31 81.14 0 147.15 66 147.15 147.14" style="" fill="#ffa920" data-original="#ffa920"></path><path d="M294.68 292.082c0 81.14-66.01 147.15-147.15 147.15-3.23 0-6.43-.1-9.61-.31v-293.67c3.18-.21 6.38-.31 9.61-.31 81.14 0 147.15 66 147.15 147.14" style="" fill="#ff8801" data-original="#ff8801"></path><path d="M273.021 123.037h-30c0-41.83-32.715-62.229-33.046-62.43l15.6-25.625c1.937 1.179 47.446 29.554 47.446 88.055" style="" fill="#c06100" data-original="#c06100"></path><path d="M368.29 423.952c-26.6 33.33-66.27 52.65-108.84 52.99-.63 0-1.25.01-1.87.01-.53 0-1.05-.01-1.58-.01h-.27c-42.59-.34-82.26-19.66-108.86-52.99-26.39-33.07-36.36-75.63-27.35-116.76 5.75-26.26 18.87-47.51 31.55-68.07 11.31-18.33 21.99-35.64 27.15-55.69 9.89-38.49 31.06-57.57 47.08-66.78 9.49-5.46 20.07-8.32 30.7-8.58 11.69-.29 23.44 2.57 33.87 8.58 16.01 9.22 37.18 28.29 47.08 66.78 5.15 20.05 15.84 37.36 27.14 55.69 12.69 20.56 25.8 41.81 31.55 68.07 9.01 41.13-.96 83.69-27.35 116.76" style="" fill="#ffdaa7" data-original="#ffdaa7"></path><path d="M368.29 423.952c-26.6 33.33-66.27 52.65-108.84 52.99-.63 0-1.25.01-1.87.01-.53 0-1.05-.01-1.58-.01v-368.87c11.69-.29 23.44 2.57 33.87 8.58 16.01 9.22 37.18 28.29 47.08 66.78 5.15 20.05 15.84 37.36 27.14 55.69 12.69 20.56 25.8 41.81 31.55 68.07 9.01 41.13-.96 83.69-27.35 116.76" style="" fill="#ffc473" data-original="#ffc473"></path><path d="m407.68 174.741-8.161-12.586-8.161-12.586c-26.177 16.976-35.321 39.909-38.383 56.159-3.237 17.182-.493 30.468-.169 31.926l29.287-6.498c-.077-.348-7.344-35.06 25.587-56.415" style="" fill="#c06100" data-original="#c06100"></path><path d="M471.24 427.972c-11.82 14.14-24.87 25.97-38.78 35.17-8.31 5.5-20.87 13.81-35 13.81h-.11c-12.56-.04-23.06-3.55-29.9-6.66-6.84 3.11-17.34 6.62-29.9 6.66h-.11c-14.14 0-26.69-8.31-35.01-13.81-13.9-9.2-26.95-21.03-38.77-35.17-39.76-47.53-51.41-109.49-30.41-161.69 13.41-33.36 41.99-54.05 76.45-55.35 9.52-.36 19.52.51 31.47 2.75 4.16.78 8.11 1.9 11.93 2.99 4.19 1.2 8.17 2.33 11.56 2.73h5.58c3.39-.4 7.36-1.53 11.56-2.73 3.82-1.09 7.76-2.21 11.93-2.99 11.95-2.24 21.95-3.11 31.47-2.75 34.46 1.3 63.04 21.99 76.45 55.35 21 52.2 9.34 114.16-30.41 161.69" style="" fill="#60dd4d" data-original="#60dd4d"></path><path d="M118.02 417.202c0 32.534-26.476 59.01-59.01 59.01S0 449.736 0 417.202c0-32.544 26.476-59.01 59.01-59.01s59.01 26.465 59.01 59.01" style="" fill="#ff73af" data-original="#ff73af"></path><path d="M118.02 417.202c0 32.534-26.476 59.01-59.01 59.01v-118.02c32.534 0 59.01 26.465 59.01 59.01" style="" fill="#ff52a1" data-original="#ff52a1"></path><path d="M212.52 417.202c0 32.534-26.476 59.01-59.01 59.01s-59.01-26.476-59.01-59.01c0-32.544 26.476-59.01 59.01-59.01s59.01 26.465 59.01 59.01" style="" fill="#ff73af" data-original="#ff73af"></path><path d="M212.52 417.202c0 32.534-26.476 59.01-59.01 59.01v-118.02c32.534 0 59.01 26.465 59.01 59.01" style="" fill="#ff52a1" data-original="#ff52a1"></path><path d="M471.24 427.972c-11.82 14.14-24.87 25.97-38.78 35.17-8.31 5.5-20.87 13.81-35 13.81h-.11c-12.56-.04-23.06-3.55-29.9-6.66v-250.89h2.79c3.39-.4 7.36-1.53 11.56-2.73 3.82-1.09 7.76-2.21 11.93-2.99 11.95-2.24 21.95-3.11 31.47-2.75 34.46 1.3 63.04 21.99 76.45 55.35 21 52.2 9.34 114.16-30.41 161.69" style="" fill="#5eac00" data-original="#5eac00"></path></g></svg>