<svg xmlns="http://www.w3.org/2000/svg" version="1.1" xmlns:xlink="http://www.w3.org/1999/xlink" width="512" height="512" x="0" y="0" viewBox="0 0 512.001 512.001" xml:space="preserve"><g><path fill="#f8bd00" d="M-.021 490.751 430.535 60.195l21.21 21.21L21.189 511.961z" opacity="1" data-original="#f8bd00"></path><path fill="#ff8f00" d="M10.584 501.357 441.14 70.801l10.605 10.605L21.19 511.962z" opacity="1" data-original="#ff8f00"></path><path fill="#f8bd00" d="m364.142 193.726-22.931-22.931c37.993-37.993 99.593-37.993 137.586 0l22.931 22.931c-37.652 37.748-99.67 38.057-137.586 0" opacity="1" data-original="#f8bd00"></path><path fill="#fcd72c" d="m318.28 147.864 22.931 22.931c37.993-37.993 37.993-99.593 0-137.586L318.28 10.277c-37.748 37.653-38.057 99.671 0 137.587" opacity="1" data-original="#fcd72c"></path><path fill="#f8bd00" d="m272.418 285.45-22.931-22.931c37.993-37.993 99.593-37.993 137.586 0l22.931 22.931c-37.652 37.748-99.671 38.057-137.586 0" opacity="1" data-original="#f8bd00"></path><path fill="#fcd72c" d="m226.556 239.588 22.931 22.931c37.993-37.993 37.993-99.593 0-137.586l-22.931-22.931c-37.748 37.652-38.057 99.67 0 137.586" opacity="1" data-original="#fcd72c"></path><path fill="#f8bd00" d="m180.694 377.174-22.931-22.931c37.993-37.993 99.593-37.993 137.586 0l22.931 22.931c-37.652 37.748-99.671 38.057-137.586 0" opacity="1" data-original="#f8bd00"></path><path fill="#fcd72c" d="m134.832 331.312 22.931 22.931c37.993-37.993 37.993-99.593 0-137.586l-22.931-22.931c-37.748 37.652-38.057 99.671 0 137.586" opacity="1" data-original="#fcd72c"></path><path fill="#f8bd00" d="m88.97 468.898-22.931-22.931c37.993-37.993 99.593-37.993 137.586 0l22.931 22.931c-37.652 37.748-99.671 38.057-137.586 0" opacity="1" data-original="#f8bd00"></path><path fill="#fcd72c" d="m43.108 423.036 22.931 22.931c37.993-37.993 37.993-99.593 0-137.586L43.108 285.45c-37.748 37.652-38.057 99.671 0 137.586M488.986 81.013c-28.447 28.447-80.504 22.507-80.504 22.507s-5.94-52.057 22.507-80.504c28.44-28.44 80.497-22.5 80.497-22.5s5.939 52.057-22.5 80.497" opacity="1" data-original="#fcd72c"></path><path fill="#f8bd00" d="M488.986 81.013c-28.447 28.447-80.504 22.507-80.504 22.507L511.486.516s5.939 52.057-22.5 80.497" opacity="1" data-original="#f8bd00"></path></g></svg>