<svg xmlns="http://www.w3.org/2000/svg" version="1.1" xmlns:xlink="http://www.w3.org/1999/xlink" width="512" height="512" x="0" y="0" viewBox="0 0 511.998 511.998" xml:space="preserve"><g><path fill="#edba75" d="m469.818 430.347-9.84-18.053-20.222-345.29H72.242L52.02 412.294l-9.839 18.053a55.4 55.4 0 0 0-6.734 26.428c0 30.45 24.772 55.223 55.223 55.223h330.66c30.45 0 55.223-24.773 55.223-55.223a55.4 55.4 0 0 0-6.735-26.428" opacity="1" data-original="#edba75"></path><path fill="#e59e34" d="m469.818 430.347-9.84-18.053-20.222-345.29H255.999v444.994h165.33c30.45 0 55.223-24.773 55.223-55.223a55.4 55.4 0 0 0-6.734-26.428" opacity="1" data-original="#e59e34"></path><path fill="#f3d6ae" d="M44.798 97.004h196.199V20.001L210.997 0H44.798z" opacity="1" data-original="#f3d6ae"></path><path fill="#edba75" d="M271.001 20.001v77.003H467.2V0H301.001z" opacity="1" data-original="#edba75"></path><path fill="#ff734b" d="M210.997 0v147.007h45.002L276 73.504 255.999 0z" opacity="1" data-original="#ff734b"></path><path fill="#ff3838" d="M255.999 0h45.002v147.007h-45.002z" opacity="1" data-original="#ff3838"></path><path fill="#f3d6ae" d="M140.999 210.013v180.993h115L276 300.51l-20.001-90.497z" opacity="1" data-original="#f3d6ae"></path><path fill="#edba75" d="M255.999 210.013h115v180.993h-115z" opacity="1" data-original="#edba75"></path></g></svg>