<svg xmlns="http://www.w3.org/2000/svg" version="1.1" xmlns:xlink="http://www.w3.org/1999/xlink" width="512" height="512" x="0" y="0" viewBox="0 0 513.717 513.717" xml:space="preserve"><g><path fill="#90ea8f" d="m208.457 418.552 10.864-40.517-10.864-37.332c0-114.653-92.945-207.598-207.598-207.598v77.849C.858 325.607 93.803 418.552 208.457 418.552" opacity="1" data-original="#90ea8f"></path><path fill="#6bc800" d="M208.457 304.402v114.151c168.116 0 304.402-136.285 304.402-304.402V0C344.742 0 208.457 136.285 208.457 304.402" opacity="1" data-original="#6bc800"></path><path fill="#6bc800" d="M84.982 213.927 61.2 232.214l132.257 172.009v109.494l.555-1.717h14.445l5.544-60.363-5.544-77.371z" opacity="1" data-original="#6bc800"></path><path fill="#009854" d="M391.189 185.794c2.329 0 4.667-.107 7-.326a75.7 75.7 0 0 0 46.719-22.111l-21.332-21.094c-7.411 7.495-17.682 12.355-28.176 13.336-9.16.856-18.692-1.226-26.733-5.75 22.035-25.894 46.26-48.537 72.465-64.89l-15.883-25.451c-33.784 21.083-67.004 53.04-98.737 94.982-25.029 33.083-49.265 72.499-72.031 117.152-20.419 40.049-35.878 76.505-46.024 102.625V512h15v-91.013c3.788-11.209 22.224-64.065 53.031-126.132q6.961.364 13.562.365c17.255 0 32.73-1.864 46.923-5.632 24.068-6.388 44.555-18.42 59.246-34.794l-22.33-20.035c-10.779 12.015-26.206 20.947-44.612 25.833-11.186 2.969-23.551 4.493-37.447 4.613 16.633-30.824 36.04-62.603 57.971-91.744a75.7 75.7 0 0 0 41.388 12.333" opacity="1" data-original="#009854"></path></g></svg>