<svg xmlns="http://www.w3.org/2000/svg" version="1.1" xmlns:xlink="http://www.w3.org/1999/xlink" width="512" height="512" x="0" y="0" viewBox="0 0 682.667 682.667" xml:space="preserve"><g><defs><clipPath id="a" clipPathUnits="userSpaceOnUse"><path d="M0 512h512V0H0Z" fill="#000000" opacity="1" data-original="#000000"></path></clipPath></defs><path d="m0 0-60-90h-90l-60 90 60 90 120 30z" style="fill-opacity:1;fill-rule:nonzero;stroke:none" transform="matrix(1.33333 0 0 -1.33333 381.333 360)" fill="#ffbe40" data-original="#ffbe40"></path><path d="m0 0-60-90 60-90h90l60 15v75L90 0Z" style="fill-opacity:1;fill-rule:nonzero;stroke:none" transform="matrix(1.33333 0 0 -1.33333 181.333 0)" fill="#ffdf40" data-original="#ffdf40"></path><g clip-path="url(#a)" transform="matrix(1.33333 0 0 -1.33333 0 682.667)"><path d="m0 0-30-45v-75c0-16.5-13.498-30-30-30-16.501 0-30 13.5-30 30v30h-60l-60 90 60 90h90z" style="fill-opacity:1;fill-rule:nonzero;stroke:none" transform="translate(436 332)" fill="#ff9f40" data-original="#ff9f40"></path><path d="M0 0c-24.814 0-45 20.186-45 45 0 25.038 37.649 75.417 45 86.396C8.688 118.418 45 69.744 45 45 45 20.186 24.814 0 0 0" style="fill-opacity:1;fill-rule:nonzero;stroke:none" transform="translate(376)" fill="#ffdf40" data-original="#ffdf40"></path><path d="M0 0c0 24.745-36.313 73.418-45 86.396V-45C-20.186-45 0-24.814 0 0" style="fill-opacity:1;fill-rule:nonzero;stroke:none" transform="translate(421 45)" fill="#ffbe40" data-original="#ffbe40"></path></g></g></svg>