<svg xmlns="http://www.w3.org/2000/svg" version="1.1" xmlns:xlink="http://www.w3.org/1999/xlink" width="512" height="512" x="0" y="0" viewBox="0 0 512 512" xml:space="preserve"><g><path fill="#8c4d62" d="M311.847 45.318c-11.049 26.676-5.41 57.238 14.163 78.201 0 0 58.729-14.082 86.315 30.392l79.016-43.553v-.001c-13.703-33.083-33.938-63.467-59.82-89.027-37.187-36.723-99.673-24.296-119.674 23.988" opacity="1" data-original="#8c4d62"></path><path fill="#a66b6b" d="M410.409 283.268c-26.676-11.049-44.299-36.648-45.282-65.311 0 0 55.312-22.332 43.37-73.286l82.842-34.314v.001c13.703 33.083 20.88 68.876 20.652 105.251-.326 52.261-53.297 87.659-101.582 67.659" opacity="1" data-original="#a66b6b"></path><path fill="#c48958" d="M326.01 123.519c.718.769 1.45 1.529 2.206 2.271 11.89 11.686 21.178 25.601 27.458 40.763l29.806-1.522 32.257-24.185c-11.786-28.455-44.409-41.968-72.864-30.181a55.55 55.55 0 0 0-18.863 12.854" opacity="1" data-original="#c48958"></path><path fill="#e1bb78" d="M365.081 214.79c-.009 1.06.011 2.115.047 3.168a55.6 55.6 0 0 0 22.428-4.248c28.455-11.786 41.968-44.409 30.181-72.864l-62.063 25.707c6.279 15.161 9.551 31.567 9.407 48.237" opacity="1" data-original="#e1bb78"></path><path fill="#8c4d62" d="M182.121 74.357c-28.873 0-54.952 16.906-66.828 43.011 0 0 35.485 48.87 4.953 91.375l70.476 56.334c25.32-25.32 45.649-55.642 59.358-89.336 19.697-48.41-15.696-101.384-67.959-101.384" opacity="1" data-original="#8c4d62"></path><path fill="#a66b6b" d="M.002 256.476c0-28.873 16.906-54.952 43.011-66.828 0 0 41.799 42.556 84.304 12.024l63.405 63.405c-25.32 25.32-55.642 45.648-89.336 59.358C52.977 344.131.002 308.739.002 256.476" opacity="1" data-original="#a66b6b"></path><path fill="#c48958" d="M115.293 117.367a72 72 0 0 0-1.254 2.907c-6.246 15.456-15.548 29.363-27.152 40.967L99.7 188.196l34.688 20.546c21.779-21.779 21.779-57.089 0-78.867a55.6 55.6 0 0 0-19.095-12.508" opacity="1" data-original="#c48958"></path><path fill="#e1bb78" d="M45.921 188.393a74 74 0 0 0-2.909 1.255 55.6 55.6 0 0 0 12.508 19.095c21.779 21.779 57.089 21.779 78.867 0l-47.501-47.501c-11.603 11.603-25.509 20.904-40.965 27.151" opacity="1" data-original="#e1bb78"></path><path fill="#8c4d62" d="M416.648 371.06c-20.417-20.417-50.811-26.903-77.668-16.842 0 0-9.465 59.648-61.11 68.114l10 89.668h.001c35.808 0 71.623-7.067 105.142-21.197 48.158-20.303 60.59-82.788 23.635-119.743" opacity="1" data-original="#8c4d62"></path><path fill="#a66b6b" d="M159.093 371.06c20.417-20.417 50.811-26.903 77.668-16.842 0 0-.535 59.648 51.11 68.114V512h-.001c-35.808 0-71.623-7.067-105.142-21.197-48.158-20.303-60.59-82.788-23.635-119.743" opacity="1" data-original="#a66b6b"></path><path fill="#c48958" d="M338.98 354.218c-.985.369-1.967.755-2.943 1.168-15.346 6.513-31.757 9.769-48.167 9.769l-10 28.12 10 39.057c30.8 0 55.768-24.968 55.768-55.768a55.6 55.6 0 0 0-4.658-22.346" opacity="1" data-original="#c48958"></path><path fill="#e1bb78" d="M239.705 355.387c-.976-.414-1.958-.8-2.945-1.169a55.6 55.6 0 0 0-4.658 22.346c0 30.8 24.968 55.768 55.768 55.768v-67.177c-16.41 0-32.82-3.256-48.165-9.768" opacity="1" data-original="#e1bb78"></path></g></svg>