<svg xmlns="http://www.w3.org/2000/svg" version="1.1" xmlns:xlink="http://www.w3.org/1999/xlink" width="512" height="512" x="0" y="0" viewBox="0 0 682.667 682.667" xml:space="preserve"><g><defs><clipPath id="a" clipPathUnits="userSpaceOnUse"><path d="M0 512h512V0H0Z" fill="#000000" opacity="1" data-original="#000000"></path></clipPath></defs><g clip-path="url(#a)" transform="matrix(1.33333 0 0 -1.33333 0 682.667)"><path d="M0 0c-38.204-.001-74.11 14.856-101.192 41.891-26.626 26.578-41.208 61.692-41.064 98.873.193 48.897 25.218 93.382 66.943 118.998 12.395 7.61 19.914 21.237 19.622 35.563-.061 3.01-.059 6.068.007 9.089C-54.46 360.478-31.809 412.806 8.1 451.759 47.905 490.613 100.622 512 156.562 512h.382c56.629-.099 109.854-22.226 149.868-62.305 40.019-40.085 62.058-93.355 62.058-149.998 0-81.92-37.957-157.717-106.878-213.429C193.88 31.21 101.134.574.842.002Q.42 0 0 0" style="fill-opacity:1;fill-rule:nonzero;stroke:none" transform="translate(142.693)" fill="#fce4e4" data-original="#fce4e4"></path><path d="M0 0c-40.014 40.08-93.238 62.207-149.867 62.305h-.383c-.753 0-1.503-.019-2.255-.027v-485.509c39.978 14.435 76.431 34.54 107.686 59.804 68.92 55.712 106.878 131.51 106.878 213.429C62.059-93.354 40.02-40.085 0 0" style="fill-opacity:1;fill-rule:nonzero;stroke:none" transform="translate(449.505 449.695)" fill="#fbced3" data-original="#fbced3"></path><path d="M0 0c-46.829 0-84.928 38.098-84.928 84.927 0 37.65 25.231 71.213 61.355 81.619 19.973 5.752 32.395 26.218 28.282 46.591a158.5 158.5 0 0 0-3.115 31.284c0 86.582 70.439 157.021 157.02 157.021s157.021-70.439 157.021-157.021c0-65.225-30.941-125.975-87.12-171.057C169.56 26.054 88.404 0 0 0" style="fill-opacity:1;fill-rule:nonzero;stroke:none" transform="translate(140.647 55.276)" fill="#e94543" data-original="#e94543"></path><path d="M0 0c-.756 0-1.507-.018-2.261-.028v-370.873c26.492 11.334 50.791 25.674 72.161 42.823 56.181 45.082 87.121 105.832 87.121 171.057C157.021-70.439 86.581 0 0 0" style="fill-opacity:1;fill-rule:nonzero;stroke:none" transform="translate(299.26 456.718)" fill="#ce0834" data-original="#ce0834"></path><path d="M0 0c-35.382 0-64.168 28.786-64.168 64.168S-35.382 128.336 0 128.336s64.168-28.785 64.168-64.168C64.168 28.786 35.382 0 0 0" style="fill-opacity:1;fill-rule:nonzero;stroke:none" transform="translate(298.22 238.769)" fill="#fce4e4" data-original="#fce4e4"></path><path d="M0 0c-.41 0-.813-.023-1.221-.031v-128.274c.408-.008.811-.031 1.221-.031 35.382 0 64.168 28.786 64.168 64.168S35.382 0 0 0" style="fill-opacity:1;fill-rule:nonzero;stroke:none" transform="translate(298.22 367.104)" fill="#fbced3" data-original="#fbced3"></path></g></g></svg>