<svg xmlns="http://www.w3.org/2000/svg" version="1.1" xmlns:xlink="http://www.w3.org/1999/xlink" width="512" height="512" x="0" y="0" viewBox="0 0 509.999 509.999" xml:space="preserve"><g><path fill="#f4ebeb" d="M214.088 254.999c-11.669 55.468-13.867 124.151-9.875 180.756l5.786 44.244 14.874 30h30.126l15-127.5-15-127.5-20.456-15z" opacity="1" data-original="#f4ebeb"></path><path fill="#ded8e8" d="M305.534 435.753c4.052-57.449 1.665-125.899-9.875-180.754l-20.33-15-20.329 15v255h29.874l15.126-30z" opacity="1" data-original="#ded8e8"></path><path fill="#a07984" d="M150.888 23.629 63.357 95.164c-19.195 25.371-33.113 54.275-41.03 85.272-9.637 37.729 19.049 74.563 58.208 74.563H255L270 127.5 254.999 0c-35.561 0-71.019 7.74-104.111 23.629" opacity="1" data-original="#a07984"></path><path fill="#7a566a" d="M474.561 143.153C436.54 56.666 350.708.05 254.999 0v254.999h144.964zM162.3 117.425c27.44-27.44 22.063-73.542-11.412-93.796-34.415 16.525-64.473 41.057-87.531 71.535 14.826 41.548 67.899 53.305 98.943 22.261" opacity="1" data-original="#7a566a"></path><path fill="#5c3651" d="M474.561 143.153c-25.808-14.027-58.448-9.853-79.917 11.616-28.245 28.245-25.997 74.9 5.319 100.23h29.249c39.113 0 67.857-36.789 58.208-74.563a240.5 240.5 0 0 0-12.859-37.283M284.874 134.999c16.568 0 30-13.431 30-30 0-16.568-13.431-30-30-30-15.565 0-28.506 11.907-29.874 27.313v5.374c1.366 15.381 14.284 27.313 29.874 27.313" opacity="1" data-original="#5c3651"></path><path fill="#59c36a" d="M296.179 459.439c-7.308 21.859-8.568 33.479-11.306 50.56h90l15.126-15 5.432-41.388c-1.286-18.513 3.279-36.969 12.036-53.641 4.946-9.415 9.53-14.956 9.573-15.006l21.235-24.966h-31.964c-56.843.001-92.114 45.545-110.132 99.441M213.567 459.439c-18.105-54.158-53.479-99.44-110.134-99.44l-32.002-.045 21.236 24.965c.068.081 4.653 5.622 9.597 15.026 8.584 16.329 13.358 34.805 12.051 53.656l5.684 41.398 14.874 15h90l-1.384-8.726c-1.108-6.893-2.767-20.432-9.922-41.834" opacity="1" data-original="#59c36a"></path><path fill="#97de3d" d="M134.874 509.999H21.891l5.375-19.466c3.826-13.857 3.464-27.614 1.407-39.589-3.7-21.542-12.882-37.323-13.026-37.566L1.83 390.041l24.834-.042c54.242 0 86.15 47.995 102.112 100.096z" opacity="1" data-original="#97de3d"></path><path fill="#00a66c" d="m380.973 490.095-6.1 19.904h113.008l-5.376-19.466c-3.825-13.849-3.465-27.597-1.412-39.566 3.696-21.549 12.881-37.331 13.01-37.549l14.067-23.419h-25.062c-54.275 0-86.179 48.029-102.135 100.096" opacity="1" data-original="#00a66c"></path></g></svg>