<svg xmlns="http://www.w3.org/2000/svg" version="1.1" xmlns:xlink="http://www.w3.org/1999/xlink" width="512" height="512" x="0" y="0" viewBox="0 0 512 512" xml:space="preserve"><g><path d="m137.136 365.165-39.14 39.14a334 334 0 0 1-26.293-34.841l-16.58 12.927c-19.008-24.382-27.885-54.297-28.253-73.136l-.299-15.515 15.515.299c18.839.368 48.754 9.245 73.136 28.253l-12.927 16.58c11.454 7.524 23.297 16.311 34.841 26.293" style="" fill="#c06200" data-original="#c06200"></path><path d="m137.136 365.165-19.476 19.476-91.089-90.9 15.515.299c18.839.368 48.754 9.245 73.136 28.253l-12.927 16.58c11.454 7.523 23.297 16.31 34.841 26.292" style="" fill="#9a4c00" data-original="#9a4c00"></path><path d="m198.643 61.948-24.458-17.122c1.123-1.603 28.203-39.282 90.261-40.409l.542 29.85c-46.277.841-66.157 27.414-66.345 27.681" style="" fill="#ff9a00" data-original="#ff9a00"></path><path d="M196.031 191.476c-31.01 31.01-58.139 48.396-82.331 50.048a74 74 0 0 1-4.926.169c-23.655 0-46.744-11.415-74.081-26.193l-3.911-2.12-2.12-3.911C12.859 180.241.906 155.859 2.638 130.462c1.652-24.193 19.585-50.764 50.595-81.774l10.559 10.549 60.617 60.626 61.064 61.064zM511.882 176.409c-1.921 30.801-27.178 60.895-79.197 60.895-1.891 0-3.802-.04-5.762-.119-32.294-1.334-64.916-11.902-92.691-29.955a169 169 0 0 1-6.359-4.309 173 173 0 0 1-10.33-7.932c-26.412-21.794-43.828-49.321-50.655-80.241-8.588-38.912 1.761-64.448 11.962-79.007 14.669-20.949 36.225-30.552 50.217-32.403 16.56-2.189 30.731 3.075 42.136 15.634 8.728 9.623 14.739 22.073 21.088 35.259 6.349 13.156 12.509 25.944 21.138 35.687h.01a59 59 0 0 0 4.548 4.618c7.633 6.936 17.137 11.624 29.865 12.699 19.466 1.632 36.662 10.002 48.426 23.566 10.936 12.628 16.629 29.247 15.604 45.608" style="" fill="#c8ad92" data-original="#c8ad92"></path><path d="m221.617 481.711-1.105 2.299-3.672 3.672-2.299 1.105c-30.552 14.649-58.527 21.984-83.685 21.984-20.451 0-39.041-4.847-55.67-14.54C9.395 457.856 1.911 358.02 1.622 353.79L0 329.806l106.763 44.126-.109-.279L62.637 267.17l23.984 1.622c4.239.289 104.066 7.772 142.44 73.564 21.625 37.08 19.117 83.963-7.444 139.355M511.026 369.444c-3.195 27.497-15.595 68.867-56.487 109.769-17.864 17.854-47.082 29.358-78.181 30.781q-3.254.149-6.449.149c-30.542 0-57.93-10.012-75.942-27.935l-.149-.149c-19.267-19.267-29.447-49.351-27.935-82.54 1.423-31.099 12.927-60.328 30.781-78.181 40.902-40.892 82.272-53.292 109.769-56.487 33.786-3.921 65.543 4.399 82.869 21.725l.139.139c17.226 17.356 25.496 49.033 21.585 82.729" style="" fill="#ff9a00" data-original="#ff9a00"></path><path d="M196.031 191.476c-31.01 31.01-58.139 48.396-82.331 50.048a74 74 0 0 1-4.926.169c-23.655 0-46.744-11.415-74.081-26.193l-3.911-2.12 93.627-93.517 61.064 61.064z" style="" fill="#bd9b7b" data-original="#bd9b7b"></path><path d="m223.657 193.755-5.722 5.732-7.922-1.682c-43.569-9.225-84.969-46.923-100.752-62.696l-.06-.06C93.388 119.226 55.77 77.866 46.565 34.357l-1.682-7.922 5.722-5.722C68.886 2.431 97.916-3.231 132.349 4.77c26.9 6.25 54.626 20.63 70.618 36.623 16.003 16.003 30.383 43.718 36.633 70.628 8.001 34.423 2.339 63.453-15.943 81.734" style="" fill="#c06200" data-original="#c06200"></path><path d="m223.657 193.755-5.722 5.732-7.922-1.682c-43.569-9.225-84.969-46.923-100.752-62.696l-.06-.06 93.766-93.657C218.97 57.395 233.35 85.11 239.6 112.02c8.001 34.424 2.339 63.454-15.943 81.735" style="" fill="#9a4c00" data-original="#9a4c00"></path><path d="M511.026 369.444c-3.195 27.497-15.595 68.867-56.487 109.769-17.864 17.854-47.082 29.358-78.181 30.781q-3.254.149-6.449.149c-30.542 0-57.93-10.012-75.942-27.935L489.44 286.715c17.227 17.356 25.497 49.033 21.586 82.729" style="" fill="#e67500" data-original="#e67500"></path><path d="M511.882 176.409c-1.921 30.801-27.178 60.895-79.197 60.895-1.891 0-3.802-.04-5.762-.119-32.294-1.334-64.916-11.902-92.691-29.955a169 169 0 0 1-6.359-4.309 173 173 0 0 1-10.33-7.932L417.986 94.535c7.633 6.936 17.137 11.624 29.865 12.699 19.466 1.632 36.662 10.002 48.426 23.566 10.937 12.629 16.63 29.248 15.605 45.609" style="" fill="#bd9b7b" data-original="#bd9b7b"></path><path d="m456.37 319.506-.03.309-1.473 17.326c-.08.965-2.16 23.795-16.659 48.595-13.405 22.949-40.335 52.277-92.432 61.711l-20.819 3.772-.358.06 3.831-21.177c9.434-52.098 38.762-79.027 61.711-92.432 24.8-14.5 47.629-16.58 48.595-16.659z" style="" fill="#c06200" data-original="#c06200"></path><path d="m456.34 319.815-1.473 17.326c-.08.965-2.16 23.795-16.659 48.595-13.405 22.949-40.335 52.277-92.432 61.711l-20.819 3.772z" style="" fill="#9a4c00" data-original="#9a4c00"></path><path d="m414.712 120.848-5.951 29.258c-8.927-1.821-18.56-6.319-27.487-12.549a95 95 0 0 1-3.642-2.667c-6.917-5.314-13.256-11.624-18.331-18.471l23.984-17.774c4.17 5.623 9.424 10.449 14.699 14.161.338.239.687.478 1.025.707 5.721 3.892 11.394 6.449 15.703 7.335" style="" fill="#c06200" data-original="#c06200"></path><path d="m414.712 120.848-5.951 29.258c-8.927-1.821-18.56-6.319-27.487-12.549a95 95 0 0 1-3.642-2.667l21.377-21.376c5.721 3.891 11.394 6.448 15.703 7.334" style="" fill="#9a4c00" data-original="#9a4c00"></path><path d="m221.617 481.711-1.105 2.299-1.642 1.642-112.216-111.998L62.637 267.17l23.984 1.622c4.239.289 104.066 7.772 142.44 73.564 21.625 37.08 19.117 83.963-7.444 139.355" style="" fill="#e67500" data-original="#e67500"></path></g></svg>