<svg xmlns="http://www.w3.org/2000/svg" version="1.1" xmlns:xlink="http://www.w3.org/1999/xlink" width="512" height="512" x="0" y="0" viewBox="0 0 512 512" xml:space="preserve"><g><path fill="#f96269" d="M285.32 58.19a8.337 8.337 0 0 0-7.54 10.58c2.64 9.4 6.76 24.52 10.25 39.12 10.87 45.53-40.12 65.28 11.2 124.63l138.81-74.88S364.27 53.59 285.32 58.19M223.97 107.89c3.49-14.6 7.61-29.72 10.25-39.12a8.337 8.337 0 0 0-7.54-10.58c-78.95-4.6-152.72 99.45-152.72 99.45l138.81 74.88c51.32-59.35.33-79.1 11.2-124.63" opacity="1" data-original="#f96269"></path><path fill="#dd494c" d="M500.73 246.8c6.32 93.91-98.82 181.47-128.06 203.92a15.72 15.72 0 0 1-15.75 1.97c-7.81-3.35-9.07-13.25-8.41-20.19 1.34-13.94 6.44-22.09 6.77-31.82.75-22.79-8.73-44.66-25.23-60.42-18.24-17.43-48.61-56-30.82-107.74 4.17-12.13 10.99-24.99 21.23-38.47 34.49-45.37 72.4-49.46 102.2-41.72a103.4 103.4 0 0 1 15.38 5.31 105.17 105.17 0 0 1 62.69 89.16" opacity="1" data-original="#dd494c"></path><path fill="#c4535b" d="M231.618 60.189a8.26 8.26 0 0 0-4.938-2c-78.95-4.6-152.72 99.45-152.72 99.45l20.153 10.871c17.879-22.71 79.47-96.118 137.505-108.321" opacity="1" data-original="#c4535b"></path><path fill="#dd494c" d="M212.77 232.52c17.79 51.74-12.58 90.31-30.82 107.74-16.5 15.76-25.98 37.63-25.23 60.42.33 9.73 5.43 17.88 6.77 31.82.66 6.94-.6 16.84-8.41 20.19a15.72 15.72 0 0 1-15.75-1.97C110.09 428.27 4.95 340.71 11.27 246.8a105.17 105.17 0 0 1 62.69-89.16 103.4 103.4 0 0 1 15.38-5.31c29.8-7.74 67.71-3.65 102.2 41.72 10.24 13.48 17.06 26.34 21.23 38.47" opacity="1" data-original="#dd494c"></path><path fill="#a84247" d="M41.27 246.8a105.17 105.17 0 0 1 62.69-89.16 103.4 103.4 0 0 1 15.38-5.31 101 101 0 0 1 8.422-1.812 89.1 89.1 0 0 0-38.422 1.812 103.4 103.4 0 0 0-15.38 5.31 105.17 105.17 0 0 0-62.69 89.16c-6.32 93.91 98.82 181.47 128.06 203.92a15.72 15.72 0 0 0 15.75 1.97 13.06 13.06 0 0 0 6.992-7.677C125.814 415.887 35.4 334.092 41.27 246.8" opacity="1" data-original="#a84247"></path><path fill="#f4f8fc" d="M66.348 201.594a6 6 0 0 1-3.772-10.67 77 77 0 0 1 5.686-4.166 6 6 0 1 1 6.64 9.994 66 66 0 0 0-4.791 3.512 5.97 5.97 0 0 1-3.763 1.33M52.249 293.685a5.99 5.99 0 0 1-5-2.677 75.11 75.11 0 0 1-.352-82.752 6 6 0 1 1 10.047 6.56 63.13 63.13 0 0 0 .3 69.546 6 6 0 0 1-4.989 9.323z" opacity="1" data-original="#f4f8fc"></path><path fill="#ad4449" d="M459.751 293.685a6 6 0 0 1-4.989-9.323 63.43 63.43 0 0 0-1.467-72.1 6 6 0 1 1 9.711-7.05 75.48 75.48 0 0 1 1.746 85.8 5.99 5.99 0 0 1-5.001 2.673" opacity="1" data-original="#ad4449"></path></g></svg>