<svg xmlns="http://www.w3.org/2000/svg" version="1.1" xmlns:xlink="http://www.w3.org/1999/xlink" width="512" height="512" x="0" y="0" viewBox="0 0 512 512" xml:space="preserve"><g><path d="M196 60h285v30H196z" style="" fill="#896748" data-original="#896748"></path><path d="M0 60h76v30H0zM0 0h481v30H0z" style="" fill="#bf6015" data-original="#bf6015"></path><path d="M61 0h150v332H61z" style="" fill="#fe9923" data-original="#fe9923"></path><path d="M91 0h30v332H91zM151 0h30v332h-30z" style="" fill="#fcbf29" data-original="#fcbf29"></path><circle cx="331" cy="302" r="120" style="" fill="#fe8821" data-original="#fe8821"></circle><circle cx="331" cy="302" r="90" style="" fill="#fcbf29" data-original="#fcbf29"></circle><circle cx="331" cy="302" r="60" style="" fill="#fe8821" data-original="#fe8821"></circle><circle cx="331" cy="302" r="30" style="" fill="#fcbf29" data-original="#fcbf29"></circle><path d="M464.356 482C474.665 464.288 481 443.969 481 422c0-66.275-53.725-120-120-120s-120 53.725-120 120c0 21.969 6.335 42.288 16.644 60z" style="" fill="#fe9923" data-original="#fe9923"></path><path d="M427.643 482C442.01 466.052 451 445.156 451 422c0-49.706-40.294-90-90-90s-90 40.294-90 90c0 23.156 8.99 44.052 23.357 60z" style="" fill="#fcbf29" data-original="#fcbf29"></path><circle cx="361" cy="422" r="60" style="" fill="#fe9923" data-original="#fe9923"></circle><circle cx="361" cy="422" r="30" style="" fill="#fcbf29" data-original="#fcbf29"></circle><path d="M196 242c-90.901 0-165 74.099-165 165v75h330v-75c0-90.901-74.099-165-165-165" style="" fill="#fea832" data-original="#fea832"></path><path d="M331 407v75H61v-75c0-74.7 60.3-135 135-135s135 60.3 135 135" style="" fill="#fedb41" data-original="#fedb41"></path><path d="M301 407v75H91v-75c0-57.9 47.1-105 105-105s105 47.1 105 105" style="" fill="#fea832" data-original="#fea832"></path><path d="M271 407v75H121v-75c0-41.4 33.6-75 75-75s75 33.6 75 75" style="" fill="#fedb41" data-original="#fedb41"></path><path d="M241 407v75h-90v-75c0-24.901 20.099-45 45-45s45 20.099 45 45" style="" fill="#fea832" data-original="#fea832"></path><path d="M211 407v75h-30v-75c0-8.401 6.599-15 15-15s15 6.599 15 15" style="" fill="#fedb41" data-original="#fedb41"></path><path d="M512 452c0 16.5-7.599 31.5-18.701 42.299C482.5 505.401 467.5 512 451 512H61c-32.999 0-61-27.001-61-60z" style="" fill="#e5e5e5" data-original="#e5e5e5"></path><path d="M512 452c0 16.5-7.599 31.5-18.701 42.299C482.5 505.401 467.5 512 451 512H256v-60z" style="" fill="#d9d9d9" data-original="#d9d9d9"></path><path d="M256 0h225v30H256zM256 60h225v30H256z" style="" fill="#994c10" data-original="#994c10"></path></g></svg>