<svg xmlns="http://www.w3.org/2000/svg" version="1.1" xmlns:xlink="http://www.w3.org/1999/xlink" width="512" height="512" x="0" y="0" viewBox="0 0 512 512" xml:space="preserve"><g><path fill="#f9995b" d="M357.114 512h-53.258c-19.539 0-37.209-12.316-43.971-30.647l-39.426-106.888 28.146-10.383 39.426 106.889c2.434 6.597 8.793 11.029 15.825 11.029h53.258z" opacity="1" data-original="#f9995b"></path><path fill="#f9b861" d="M167.992 512h-33.948v-30h33.948c5.595 0 10.638-2.633 13.837-7.223s3.924-10.232 1.987-15.481l28.146-10.383a46.9 46.9 0 0 1-5.522 43.019A46.89 46.89 0 0 1 167.992 512" opacity="1" data-original="#f9b861"></path><path fill="#f9b861" d="M235.924 482c-7.032 0-13.391-4.433-15.825-11.029L166.37 325.306l-28.146 10.382 53.729 145.665C198.714 499.684 216.385 512 235.924 512h67.932v-30z" opacity="1" data-original="#f9b861"></path><path fill="#ed3946" d="M446.196 9.097c-7.891-3.269-16.339-3.124-23.719-.26C416.756 3.367 409.006 0 400.465 0s-16.291 3.367-22.013 8.837c-7.379-2.865-15.828-3.009-23.719.26-16.26 6.735-23.982 25.376-17.247 41.636l14.601 35.25 96.749.011 14.606-35.261c6.736-16.26-.986-34.901-17.246-41.636M417.332 112.469l15 46.867c0 17.6 14.267 31.867 31.867 31.867s31.867-14.267 31.867-31.867v-31.867h-31.867z" opacity="1" data-original="#ed3946"></path><path fill="#ebebeb" d="m317.987 220.27-238.308-45c-.011-35.199-28.546-63.734-63.745-63.734v63.734c0 47.48 25.962 88.893 64.462 110.828 7.667 80.855 75.746 144.11 158.608 144.11h33.992z" opacity="1" data-original="#ebebeb"></path><path fill="#d4d4d4" d="M400.465 63.734c-19.01 0-36.065 8.333-47.742 21.533l-79.726 89.994v254.946c87.999 0 159.336-71.337 159.336-159.336V127.469H464.2c-.001-35.2-28.536-63.735-63.735-63.735" opacity="1" data-original="#d4d4d4"></path><path fill="#b8b4b3" d="m272.996 175.27-30 95.602 30 95.602c52.799 0 95.602-42.802 95.602-95.602s-42.803-95.602-95.602-95.602" opacity="1" data-original="#b8b4b3"></path><path fill="#d4d4d4" d="M272.996 175.27H79.668c0 35.199 28.535 63.734 63.734 63.734h2.125c.135 35.105 28.631 63.757 63.735 63.49-.132 35.312 28.453 63.979 63.734 63.979z" opacity="1" data-original="#d4d4d4"></path></g></svg>