<svg xmlns="http://www.w3.org/2000/svg" version="1.1" xmlns:xlink="http://www.w3.org/1999/xlink" width="512" height="512" x="0" y="0" viewBox="0 0 510.95 510.95" xml:space="preserve"><g><path fill="#24b324" d="M99.371 142.95H84.538c-25.456 0-46.167-20.71-46.167-46.167s20.71-46.167 46.167-46.167h55.375v30H84.538c-8.914 0-16.167 7.252-16.167 16.167 0 8.914 7.419 16.167 16.333 16.167z" opacity="1" data-original="#24b324"></path><path fill="#93e300" d="M147.78 0 95.875 142.95h103.809z" opacity="1" data-original="#93e300"></path><path fill="#00da26" d="M199.684 142.95 147.78 0v142.95z" opacity="1" data-original="#00da26"></path><path fill="#00da26" d="M84.704 112.95h127v93h-127z" opacity="1" data-original="#00da26"></path><path fill="#24b324" d="M147.78 112.95h63.925v93H147.78z" opacity="1" data-original="#24b324"></path><path fill="#d2eb5a" d="M48.704 175.95v335h193v-325l-93.924-10z" opacity="1" data-original="#d2eb5a"></path><path fill="#93e300" d="M147.78 175.95h93.925v335H147.78z" opacity="1" data-original="#93e300"></path><path fill="#00da26" d="M117.28 328.95h61v30h-61z" opacity="1" data-original="#00da26"></path><path fill="#24b324" d="M147.78 328.95h30.5v30h-30.5z" opacity="1" data-original="#24b324"></path><path fill="#8f1e2c" d="M330.246 142.95h-14.833c-25.456 0-46.167-20.71-46.167-46.167s20.71-46.167 46.167-46.167h55.375v30h-55.375c-8.914 0-16.167 7.252-16.167 16.167 0 8.914 7.419 16.167 16.333 16.167z" opacity="1" data-original="#8f1e2c"></path><path fill="#e62e2e" d="m378.654 0-51.905 142.95h103.81z" opacity="1" data-original="#e62e2e"></path><path fill="#b32424" d="M430.559 142.95 378.654 0v142.95z" opacity="1" data-original="#b32424"></path><path fill="#b32424" d="M315.579 112.95h127v93h-127z" opacity="1" data-original="#b32424"></path><path fill="#8f1e2c" d="M378.654 112.95h63.925v93h-63.925z" opacity="1" data-original="#8f1e2c"></path><path fill="#ff4949" d="M279.579 175.95v335h193v-325l-93.925-10z" opacity="1" data-original="#ff4949"></path><path fill="#e62e2e" d="M378.654 175.95h93.925v335h-93.925z" opacity="1" data-original="#e62e2e"></path><path fill="#b32424" d="M348.154 328.95h61v30h-61z" opacity="1" data-original="#b32424"></path><path fill="#8f1e2c" d="M378.654 328.95h30.5v30h-30.5z" opacity="1" data-original="#8f1e2c"></path></g></svg>