<svg xmlns="http://www.w3.org/2000/svg" version="1.1" xmlns:xlink="http://www.w3.org/1999/xlink" width="512" height="512" x="0" y="0" viewBox="0 0 511.858 511.858" xml:space="preserve"><g><path fill="#fabe2c" d="m415.689 303.147-44.297-152.34-5.142-5.142-53.749-53.749-65.921-35.921-201.684 61.059a63.05 63.05 0 0 0-26.44 15.776c-24.536 24.536-24.536 64.438 0 88.975l135.828 135.828L290.111 493.46c12.261 12.261 28.374 18.398 44.487 18.398 16.099 0 32.212-6.138 44.487-18.398 7.354-7.354 12.803-16.494 15.806-26.528l33.601-107.718z" opacity="1" data-original="#fabe2c"></path><path fill="#ff9100" d="M334.598 511.858c16.099 0 32.212-6.138 44.487-18.398 7.354-7.354 12.803-16.494 15.806-26.528l33.601-107.718-12.803-56.067-44.297-152.34-5.142-5.142-211.967 211.967L290.111 493.46c12.261 12.261 28.374 18.398 44.487 18.398M121.856 180.059h30v30h-30z" opacity="1" data-original="#ff9100"></path><path fill="#ff641a" d="M301.856 360.059h30v30h-30zM301.856 240.059h30v30h-30z" opacity="1" data-original="#ff641a"></path><path fill="#ff9100" d="M241.856 150.059h30v30h-30zM211.856 270.059h30v30h-30z" opacity="1" data-original="#ff9100"></path><path fill="#ff641a" d="m241.856 270.059-30 30h30z" opacity="1" data-original="#ff641a"></path><path fill="#fed843" d="M492.425 19.491C476.736 3.63 453.341-4.613 429.019 2.682L246.58 55.995l64.812 64.812c13.559 13.559 25.432 28.336 35.713 44.004 29.063 44.29 44.751 96.05 44.751 150.249 0 21.951 15.813 40.217 36.636 44.154 2.717.515 5.5.846 8.364.846 24.814 0 45-20.186 45-45v-40.884c0-44.297 4.351-88.799 12.949-132.246a683 683 0 0 1 14.399-58.916c7.085-23.606-.898-47.467-16.779-63.523" opacity="1" data-original="#fed843"></path><path fill="#fabe2c" d="M428.492 359.214c2.717.515 5.5.846 8.364.846 24.814 0 45-20.186 45-45v-40.884c0-44.297 4.351-88.799 12.949-132.246a683 683 0 0 1 14.399-58.916c7.084-23.606-.899-47.466-16.78-63.523l-145.32 145.32c29.063 44.29 44.751 96.05 44.751 150.249.001 21.95 15.814 40.217 36.637 44.154" opacity="1" data-original="#fabe2c"></path></g></svg>