<svg xmlns="http://www.w3.org/2000/svg" version="1.1" xmlns:xlink="http://www.w3.org/1999/xlink" width="512" height="512" x="0" y="0" viewBox="0 0 511.061 511.061" xml:space="preserve"><g><path fill="#a7ddfa" d="M5.227 138.084v85.974l10 287.003h207.42l10-287.003v-85.974z" opacity="1" data-original="#a7ddfa"></path><path fill="#87c7ff" d="M118.937 138.084v372.977h103.71l10-287.003v-85.974z" opacity="1" data-original="#87c7ff"></path><path fill="#f2b88f" d="M103.937 0h30v47.682h-30z" opacity="1" data-original="#f2b88f"></path><path fill="#d99668" d="M118.937 0h15v47.682h-15z" opacity="1" data-original="#d99668"></path><path fill="#f2b88f" d="M377.124 0h30v47.682h-30z" opacity="1" data-original="#f2b88f"></path><path fill="#d99668" d="M392.124 0h15v47.682h-15z" opacity="1" data-original="#d99668"></path><path fill="#c27b48" d="M189.981 32.682H47.894c-23.526 0-42.667 19.14-42.667 42.667v82.736h227.42V75.349c0-23.527-19.14-42.667-42.666-42.667" opacity="1" data-original="#c27b48"></path><path fill="#a66235" d="M189.981 32.682h-71.044v125.402h113.71V75.349c0-23.527-19.14-42.667-42.666-42.667" opacity="1" data-original="#a66235"></path><path fill="#ebf6fc" d="M5.227 224.058h227.42v287.003H5.227z" opacity="1" data-original="#ebf6fc"></path><path fill="#cdebfc" d="M118.937 224.058h113.71v287.003h-113.71z" opacity="1" data-original="#cdebfc"></path><path fill="#a7ddfa" d="M278.414 138.084h227.42V511.06h-227.42z" opacity="1" data-original="#a7ddfa"></path><path fill="#87c7ff" d="M392.124 138.084h113.71V511.06h-113.71z" opacity="1" data-original="#87c7ff"></path><path fill="#c27b48" d="M463.168 32.682H321.081c-23.526 0-42.667 19.14-42.667 42.667v82.736h227.42V75.349c0-23.527-19.14-42.667-42.666-42.667" opacity="1" data-original="#c27b48"></path><path fill="#a66235" d="M463.168 32.682h-71.044v125.402h113.71V75.349c0-23.527-19.14-42.667-42.666-42.667" opacity="1" data-original="#a66235"></path><path fill="#f2b88f" d="M278.414 224.058h227.42v287.003h-227.42z" opacity="1" data-original="#f2b88f"></path><path fill="#d99668" d="M392.124 224.058h113.71v287.003h-113.71z" opacity="1" data-original="#d99668"></path></g></svg>