<svg xmlns="http://www.w3.org/2000/svg" version="1.1" xmlns:xlink="http://www.w3.org/1999/xlink" width="512" height="512" x="0" y="0" viewBox="0 0 510 510" xml:space="preserve"><g><path fill="#007579" d="M285 146.875v223.39H133.51L95.495 228.57 133.51 93.755c.03.01.07.03.1.04A84.96 84.96 0 0 1 200 61.875c46.87 0 85 38.13 85 85" opacity="1" data-original="#007579"></path><path fill="#00a98f" d="M133.51 93.755v276.51H68.38l-1.58-.35c-4.56-.99-9.07-2.38-13.41-4.12-32.43-13-53.39-43.98-53.39-78.92 0-25.85 11.48-49.64 30.87-65.57-10.22-14.3-15.87-31.57-15.87-49.43 0-46.87 38.13-85 85-85 11.61 0 22.98 2.36 33.51 6.88" opacity="1" data-original="#00a98f"></path><path fill="#e40058" d="M495.916 149.476a54.06 54.06 0 0 0-39.863-17.601h-82.737l19.543 235h100.835l16.074-176.083c1.394-15.072-3.654-30.132-13.852-41.316" opacity="1" data-original="#e40058"></path><path fill="#00a98f" d="M423.77 41.875v30c-27.57 0-50 22.43-50 50v5h-10.38v-57.42c14.67-16.89 36.3-27.58 60.38-27.58" opacity="1" data-original="#00a98f"></path><path fill="#00dc80" d="M363.39 69.455v57.42h-19.62v-5c0-20.04 7.4-38.37 19.62-52.42" opacity="1" data-original="#00dc80"></path><path fill="#ff4a4a" d="M278.059 131.875c-16.817 0-32.961 7.128-44.292 19.556-11.33 12.428-16.939 29.16-15.39 45.906l15.236 164.538H333.77v-230zM434.71 169.985l-15.66 163.64-5.89 42.08-49.77 19.06v-282.89h18.51c14.92 0 29.23 6.33 39.26 17.37s14.97 25.89 13.55 40.74" opacity="1" data-original="#ff4a4a"></path><path fill="#ffa07b" d="M363.39 111.875v282.89l-49.61 19-8.72-75.73-13.08-169.01c-1.13-14.69 3.96-29.32 13.97-40.13 10.01-10.82 24.2-17.02 38.93-17.02z" opacity="1" data-original="#ffa07b"></path><path fill="#ffa07b" d="m410.08 387.855-12.13 41.5-1.36 1.98c-14.44 21-38.02 33.25-63.06 33.25-2.96 0-5.94-.18-8.94-.53L270 457.687l-14-16.614-16 13.115-201.92-23.553C16.37 428.105 0 409.715 0 387.855z" opacity="1" data-original="#ffa07b"></path><path fill="#ffc377" d="m410.21 387.405-.13.45H0c0-21.88 16.39-40.27 38.13-42.78L180 328.703l21 38.172 9-41.634 90-10.386 19.336 16.437c1.773-.205 8.897-19.633 10.663-19.714 26.1-1.194 51.114 11.013 66.25 32.668l1.36 1.94z" opacity="1" data-original="#ffc377"></path><path fill="#00a98f" d="M510 387.855c-.17 25.97-18.17 47.81-41.93 52.9-9.22 16.69-26.53 27.37-45.57 27.37-28.95 0-52.5-24.39-52.5-54.37 0-9.12 2.2-18 6.34-25.9z" opacity="1" data-original="#00a98f"></path><path fill="#00dc80" d="M510 387.495v.36H376.34c.05-.12.12-.24.18-.36-4.25-7.98-6.52-16.99-6.52-26.24 0-29.99 23.55-54.38 52.5-54.38 19.04 0 36.35 10.68 45.57 27.37 23.87 5.11 41.93 27.13 41.93 53.25" opacity="1" data-original="#00dc80"></path><path fill="#ffe0ba" d="M180 328.701v59.14h30v-62.602zM330 311.578a77 77 0 0 0-5.312.426L300 314.853v54.631h30z" opacity="1" data-original="#ffe0ba"></path><path fill="#ffc377" d="m240 454.191 30 3.5v-51.493h-30z" opacity="1" data-original="#ffc377"></path></g></svg>