<svg xmlns="http://www.w3.org/2000/svg" version="1.1" xmlns:xlink="http://www.w3.org/1999/xlink" width="512" height="512" x="0" y="0" viewBox="0 0 512 512" xml:space="preserve"><g><path d="m270.916 159.611-29.831-3.188c12.163-113.866-48.932-126.148-51.539-126.614l.175.028L194.284.186c2.529.389 25.312 4.455 46.027 27.069 26.589 29.027 36.886 73.558 30.605 132.356" style="" fill="#e37500" data-original="#e37500"></path><path d="m446.742 58.654-10.6 10.61c-31.931 31.921-63.422 48.042-93.783 48.042-3.94 0-7.85-.27-11.74-.81-46.072-6.4-70.183-48.732-71.193-50.532l-4.08-7.31 4.08-7.31c1.01-1.8 25.121-44.132 71.193-50.532 33.951-4.72 69.453 11.17 105.524 47.232z" style="" fill="#00aa00" data-original="#00aa00"></path><path d="m446.742 58.654-10.6 10.61c-31.931 31.921-63.422 48.042-93.783 48.042-3.94 0-7.85-.27-11.74-.81-46.072-6.4-70.183-48.732-71.193-50.532l-4.08-7.31z" style="" fill="#008000" data-original="#008000"></path><path d="M476.863 329.684c-8.59 42.472-28.141 84.733-55.032 119.014C389.89 489.42 352.709 512 319.108 512c-5.97 0-11.83-.72-17.531-2.17-4.42-.76-25.621-4.8-45.572-14.791-19.961 9.99-41.162 14.031-45.582 14.791-5.7 1.45-11.56 2.17-17.531 2.17-33.601 0-70.783-22.581-102.724-63.302-26.891-34.281-46.442-76.543-55.032-119.014-9.91-48.972-4.49-94.334 15.691-131.185 20.461-37.361 48.472-60.682 83.263-69.323 51.562-12.82 102.404 10.98 121.915 21.821 19.501-10.84 70.343-34.641 121.905-21.821 34.791 8.64 62.802 31.961 83.263 69.323 20.181 36.851 25.601 82.213 15.69 131.185" style="" fill="#ff3b62" data-original="#ff3b62"></path><path d="M476.863 329.684c-8.59 42.472-28.141 84.733-55.032 119.014C389.89 489.42 352.709 512 319.108 512c-5.97 0-11.83-.72-17.531-2.17-4.42-.76-25.621-4.8-45.572-14.791V150.997c19.501-10.84 70.343-34.641 121.905-21.821 34.791 8.64 62.802 31.961 83.263 69.323 20.181 36.851 25.601 82.213 15.69 131.185" style="" fill="#e50020" data-original="#e50020"></path></g></svg>