<svg xmlns="http://www.w3.org/2000/svg" version="1.1" xmlns:xlink="http://www.w3.org/1999/xlink" width="512" height="512" x="0" y="0" viewBox="0 0 512.006 512.006" xml:space="preserve"><g><path fill="#814f2b" d="M241.003 51.568h30v57.098h-30z" opacity="1" data-original="#814f2b"></path><path fill="#5c3629" d="M256.003 51.568h15v57.098h-15z" opacity="1" data-original="#5c3629"></path><path fill="#ffda44" d="M358.888 89.48h-32.636c-25.652 0-49.666 7.002-70.249 19.186-20.583-12.184-44.597-19.186-70.249-19.186h-32.636C76.837 89.48 15 151.318 15 227.598v79.723c0 76.28 61.837 138.118 138.118 138.118h32.636c25.652 0 49.666-7.002 70.249-19.186 20.583 12.184 44.596 19.186 70.249 19.186h32.636c76.28 0 138.118-61.837 138.118-138.118v-79.723c0-76.28-61.838-138.118-138.118-138.118" opacity="1" data-original="#ffda44"></path><path fill="#ffb655" d="M358.888 89.48h-32.636c-25.652 0-49.666 7.002-70.249 19.186v317.587c20.583 12.184 44.596 19.186 70.249 19.186h32.636c76.28 0 138.118-61.837 138.118-138.118v-79.723c0-76.28-61.838-138.118-138.118-138.118" opacity="1" data-original="#ffb655"></path><path fill="#ffb655" d="M358.888 460.438h-32.636c-24.514 0-48.621-5.871-70.249-17.047-21.628 11.176-45.735 17.047-70.249 17.047h-32.636C68.688 460.438 0 391.75 0 307.321v-79.723C0 143.168 68.688 74.48 153.118 74.48h32.636c24.512 0 48.62 5.871 70.249 17.047 21.629-11.176 45.737-17.047 70.249-17.047h32.636c84.43 0 153.118 68.688 153.118 153.118v79.723c0 84.429-68.689 153.117-153.118 153.117m-102.885-51.617 7.641 4.523c18.891 11.183 40.54 17.094 62.608 17.094h32.636c67.888 0 123.118-55.23 123.118-123.117v-79.723c0-67.888-55.23-123.118-123.118-123.118h-32.636c-22.066 0-43.716 5.911-62.608 17.094l-7.641 4.522-7.641-4.522c-18.893-11.183-40.542-17.094-62.608-17.094h-32.636C85.23 104.48 30 159.71 30 227.598v79.723c0 67.887 55.23 123.117 123.118 123.117h32.636c22.068 0 43.718-5.911 62.608-17.094z" opacity="1" data-original="#ffb655"></path><path fill="#ff8755" d="M358.888 74.48h-32.636c-24.512 0-48.62 5.871-70.249 17.047v34.569l7.641-4.522c18.893-11.183 40.542-17.094 62.608-17.094h32.636c67.888 0 123.118 55.23 123.118 123.118v79.723c0 67.887-55.23 123.117-123.118 123.117h-32.636c-22.068 0-43.718-5.911-62.608-17.094l-7.641-4.523v34.57c21.628 11.176 45.735 17.047 70.249 17.047h32.636c84.43 0 153.118-68.688 153.118-153.117v-79.723c0-84.43-68.689-153.118-153.118-153.118" opacity="1" data-original="#ff8755"></path><path fill="#814f2b" d="m263.857 166.666-7.854-4.828-7.854 4.828c-2.91 1.789-71.253 44.445-71.253 100.794s68.343 99.005 71.253 100.794l7.854 4.828 7.854-4.828c2.91-1.789 71.253-44.445 71.253-100.794s-68.342-99.005-71.253-100.794" opacity="1" data-original="#814f2b"></path><path fill="#5c3629" d="m263.857 166.666-7.854-4.828v211.244l7.854-4.828c2.91-1.789 71.253-44.445 71.253-100.794s-68.342-99.005-71.253-100.794" opacity="1" data-original="#5c3629"></path></g></svg>