<svg xmlns="http://www.w3.org/2000/svg" version="1.1" xmlns:xlink="http://www.w3.org/1999/xlink" width="512" height="512" x="0" y="0" viewBox="0 0 512 512" xml:space="preserve"><g><path fill="#76dd00" d="m325.585 77.55-69.59 53.7V10s6.5-6.16 15.53.2c20.51 14.46 54.06 41.99 54.06 67.35" opacity="1" data-original="#76dd00"></path><path fill="#ade952" d="M255.995 10v121.25l-69.76-53.7c0-25.81 34.86-53.88 55.29-68.11 8.48-5.91 14.47.56 14.47.56" opacity="1" data-original="#ade952"></path><path fill="#76dd00" d="m255.995 0 10 49.05-10 49.05h-14.47V9.44c8.48-5.91 14.47-9.44 14.47-9.44" opacity="1" data-original="#76dd00"></path><path fill="#00c200" d="M271.525 10.2v87.9h-15.53V0s6.5 3.84 15.53 10.2" opacity="1" data-original="#00c200"></path><path fill="#76dd00" d="M136.008 143.699s-3.5-46.341 23.343-73.184c0 0 26.557-2.258 64.109 33.71l-31.906 87.789z" opacity="1" data-original="#76dd00"></path><path fill="#00c200" d="M375.851 142.72s3.097-45.362-23.746-72.205c0 0-26.015-2.258-63.567 33.71l22.649 87.789z" opacity="1" data-original="#00c200"></path><path fill="#ade952" d="m255.995 77.55 57.141 122.69-57.141 119.7-.08.05-139.3-82.96v-95.88c35.53 4.2 44.68 6.89 60.74 16.06 27.04-43.16 78.64-79.66 78.64-79.66" opacity="1" data-original="#ade952"></path><path fill="#76dd00" d="M395.385 141.15v95.68l-139.39 83.11V77.55s51.6 36.5 78.65 79.66c16.93-8.69 22.83-14.24 60.74-16.06" opacity="1" data-original="#76dd00"></path><path fill="#ade952" d="m255.995 352.17 32.543 79.915L255.995 512h-41.2V352.17z" opacity="1" data-original="#ade952"></path><path fill="#76dd00" d="M255.995 352.17h41.04V512h-41.04z" opacity="1" data-original="#76dd00"></path><path fill="#76dd00" d="m255.995 170.08 72.545 137.225-72.545 71.436h-56.95c-58.14 0-105.28-47.14-105.28-105.29V232.3l39.43 7.82c22.13 4.39 42.48 13.75 59.83 26.91 13.76-45.9 62.97-96.95 62.97-96.95" opacity="1" data-original="#76dd00"></path><path fill="#00c200" d="M418.235 232.3v41.15c0 58.15-47.14 105.29-105.29 105.29h-56.95V170.08s49.22 51.05 62.98 96.95c17.35-13.16 37.7-22.52 59.83-26.91z" opacity="1" data-original="#00c200"></path></g></svg>