<svg xmlns="http://www.w3.org/2000/svg" version="1.1" xmlns:xlink="http://www.w3.org/1999/xlink" width="512" height="512" x="0" y="0" viewBox="0 0 512 512" xml:space="preserve"><g><path fill="#97ce7e" d="M336.329 30.139a98.27 98.27 0 0 0-28.783 69.487v32.926c0 16.987-13.771 30.758-30.758 30.758s-30.758-13.771-30.758-30.758v-15.4c.001-27.109-32.777-40.684-51.946-21.515l-.537.537c-5.932 5.932-9.175 13.764-9.175 21.94v137.612c0 16.987-13.771 30.758-30.758 30.758s-30.758-13.771-30.758-30.758v-6.53c0-27.01-30.775-42.485-52.457-26.378a32.86 32.86 0 0 0-13.265 26.378v204.162h.98l214.532-185.284L481.594 29.88c-40.208-39.925-105.165-39.841-145.265.259" opacity="1" data-original="#97ce7e"></path><path fill="#25ae7f" d="M481.594 29.88 58.117 453.358h204.581a32.82 32.82 0 0 0 28.989-17.432c11.604-21.859-4.24-48.209-28.989-48.209h-7.007c-16.987 0-30.758-13.771-30.758-30.758s13.771-30.758 30.758-30.758l139.039.001a28.54 28.54 0 0 0 20.187-8.359l.68-.68c19.408-19.408 5.647-52.619-21.818-52.619h-14.914c-16.987 0-30.758-13.771-30.758-30.758s13.771-30.758 30.758-30.758h36.945a93.4 93.4 0 0 0 66.05-27.359c40.187-40.187 40.187-105.343 0-145.531q-.133-.129-.266-.258" opacity="1" data-original="#25ae7f"></path><path fill="#d7e183" d="M158.11 332.151 0 490.262l10.178 11.034 84.787-69.241 73.752-89.297z" opacity="1" data-original="#d7e183"></path><path fill="#97ce7e" d="M10.178 501.296 20.687 512l158.636-158.636-10.606-10.606z" opacity="1" data-original="#97ce7e"></path></g></svg>