<svg xmlns="http://www.w3.org/2000/svg" version="1.1" xmlns:xlink="http://www.w3.org/1999/xlink" width="512" height="512" x="0" y="0" viewBox="0 0 511.273 511.273" xml:space="preserve"><g><path fill="#59c36a" d="m115.747 244.897-9.167-28.644 23.464-7.509a12.97 12.97 0 0 0 9.046-12.393v-13.896h30.075v13.896c0 18.812-12.038 35.304-29.954 41.037z" opacity="1" data-original="#59c36a"></path><path fill="#97de3d" d="m104.026 310.55-23.464-7.508c-17.918-5.735-29.954-22.226-29.954-41.037v-13.897h30.075v13.897a12.97 12.97 0 0 0 9.046 12.393l23.463 7.508zM110.161 136.401c-23.371 0-42.385-19.014-42.385-42.385 0-18.33 42.11-94.016 42.11-94.016s42.659 75.685 42.659 94.016c0 23.371-19.013 42.385-42.384 42.385" opacity="1" data-original="#97de3d"></path><path fill="#59c36a" d="M109.886 0v136.394c.092.001.183.007.275.007 23.371 0 42.384-19.014 42.384-42.385C152.545 75.685 109.886 0 109.886 0" opacity="1" data-original="#59c36a"></path><path fill="#59c36a" d="M132.699 113.862c0-9.747-22.813-49.994-22.813-49.994s-22.264 40.246-22.264 49.994c0 6.654 2.901 12.642 7.501 16.771v380.639h30.075v-380.64c4.601-4.128 7.501-10.116 7.501-16.77" opacity="1" data-original="#59c36a"></path><path fill="#00a66c" d="M109.886 63.869v447.404h15.313v-380.64c4.6-4.129 7.5-10.117 7.5-16.771 0-9.747-22.813-49.993-22.813-49.993" opacity="1" data-original="#00a66c"></path><path fill="#59c36a" d="m407.248 244.897-9.167-28.644 23.464-7.509a12.97 12.97 0 0 0 9.046-12.393v-13.896h30.075v13.896c0 18.812-12.038 35.304-29.954 41.037z" opacity="1" data-original="#59c36a"></path><path fill="#97de3d" d="m395.526 310.55-23.464-7.508c-17.918-5.735-29.954-22.226-29.954-41.037v-13.897h30.075v13.897a12.97 12.97 0 0 0 9.046 12.393l23.463 7.508zM401.662 136.401c-23.371 0-42.385-19.014-42.385-42.385 0-18.33 42.11-94.016 42.11-94.016s42.659 75.685 42.659 94.016c0 23.371-19.013 42.385-42.384 42.385" opacity="1" data-original="#97de3d"></path><path fill="#59c36a" d="M401.387 0v136.394c.092.001.183.007.275.007 23.371 0 42.384-19.014 42.384-42.385C444.046 75.685 401.387 0 401.387 0" opacity="1" data-original="#59c36a"></path><path fill="#59c36a" d="M424.2 113.862c0-9.747-22.813-49.994-22.813-49.994s-22.264 40.246-22.264 49.994c0 6.654 2.901 12.642 7.501 16.771v380.639h30.075v-380.64c4.6-4.128 7.501-10.116 7.501-16.77" opacity="1" data-original="#59c36a"></path><path fill="#00a66c" d="M401.387 63.869v447.404H416.7v-380.64c4.6-4.129 7.5-10.117 7.5-16.771 0-9.747-22.813-49.993-22.813-49.993" opacity="1" data-original="#00a66c"></path><path fill="#59c36a" d="m261.498 244.897-9.167-28.644 23.464-7.509a12.97 12.97 0 0 0 9.046-12.393v-13.896h30.075v13.896c0 18.812-12.038 35.304-29.954 41.037z" opacity="1" data-original="#59c36a"></path><path fill="#97de3d" d="m249.776 310.55-23.464-7.508c-17.918-5.735-29.954-22.226-29.954-41.037v-13.897h30.075v13.897a12.97 12.97 0 0 0 9.046 12.393l23.463 7.508zM255.911 136.401c-23.371 0-42.385-19.014-42.385-42.385 0-18.33 42.11-94.016 42.11-94.016s42.659 75.685 42.659 94.016c.001 23.371-19.013 42.385-42.384 42.385" opacity="1" data-original="#97de3d"></path><path fill="#59c36a" d="M255.636 0v136.394c.092.001.183.007.275.007 23.371 0 42.384-19.014 42.384-42.385C298.296 75.685 255.636 0 255.636 0" opacity="1" data-original="#59c36a"></path><path fill="#59c36a" d="M278.449 113.862c0-9.747-22.813-49.994-22.813-49.994s-22.264 40.246-22.264 49.994c0 6.654 2.901 12.642 7.501 16.771v380.639h30.075v-380.64c4.601-4.128 7.501-10.116 7.501-16.77" opacity="1" data-original="#59c36a"></path><path fill="#00a66c" d="M255.636 63.869v447.404h15.313v-380.64c4.6-4.129 7.5-10.117 7.5-16.771 0-9.747-22.813-49.993-22.813-49.993" opacity="1" data-original="#00a66c"></path></g></svg>