<svg xmlns="http://www.w3.org/2000/svg" version="1.1" xmlns:xlink="http://www.w3.org/1999/xlink" width="512" height="512" x="0" y="0" viewBox="0 0 511.957 511.957" xml:space="preserve"><g><path fill="#814f2b" d="M240.978 0h30v31.992h-30z" opacity="1" data-original="#814f2b"></path><path fill="#5c3629" d="M255.978 0h15v31.992h-15z" opacity="1" data-original="#5c3629"></path><path fill="#d0ea59" d="M359.799 139.041q.054-1.791.047-3.597c-.225-57.357-47.623-104.048-104.978-103.447-56.854.596-102.758 46.868-102.758 103.863q0 1.31.032 2.611c.65 26.303-8.06 52.035-25.485 71.749-27.084 30.64-43.447 70.977-43.211 115.143.508 95.198 77.333 171.594 172.533 171.593 95.288 0 172.534-77.247 172.534-172.535 0-43.798-16.323-83.78-43.215-114.203-17.295-19.566-26.286-45.074-25.499-71.177" opacity="1" data-original="#d0ea59"></path><path fill="#9bda05" d="M385.298 210.219c-17.295-19.566-26.287-45.075-25.5-71.177q.054-1.791.047-3.597c-.224-56.987-47.013-103.443-103.867-103.452v464.965h.001c95.288 0 172.534-77.247 172.534-172.535 0-43.799-16.323-83.781-43.215-114.204" opacity="1" data-original="#9bda05"></path><circle cx="255.978" cy="324.422" r="90.035" fill="#814f2b" opacity="1" data-original="#814f2b"></circle><path fill="#00a763" d="M255.979 511.957c-50.035 0-97.039-19.341-132.353-54.461-35.316-35.122-54.913-82.019-55.18-132.052-.246-46.162 16.436-90.611 46.973-125.158 14.583-16.499 22.299-38.32 21.728-61.444q-.037-1.486-.037-2.981c0-31.53 12.217-61.232 34.4-83.635 22.167-22.386 51.715-34.897 83.201-35.227 65.827-.724 119.877 52.685 120.135 118.387.005 1.377-.013 2.759-.054 4.111-.68 22.565 7.042 44.155 21.746 60.789 30.293 34.271 46.976 78.357 46.976 124.137-.001 103.405-84.128 187.533-187.535 187.534m-.017-464.966-.937.005c-23.536.247-45.625 9.6-62.197 26.337-16.584 16.749-25.718 38.955-25.718 62.527q0 1.123.028 2.239c.759 30.722-9.626 59.863-29.242 82.055-25.647 29.015-39.658 66.351-39.45 105.129.224 42.049 16.679 81.448 46.334 110.94 29.654 29.492 69.145 45.733 111.198 45.733 86.865 0 157.535-70.67 157.535-157.535 0-38.456-14.012-75.486-39.454-104.269-19.776-22.372-30.165-51.339-29.254-81.563q.046-1.542.041-3.091c-.192-48.801-40.065-88.507-88.884-88.507" opacity="1" data-original="#00a763"></path><path fill="#009398" d="M396.537 200.285c-14.703-16.634-22.426-38.223-21.746-60.789.041-1.352.059-2.734.054-4.111-.256-65.28-53.615-118.424-118.867-118.394v30c48.812.009 88.676 39.711 88.868 88.507a88 88 0 0 1-.041 3.091c-.911 30.224 9.479 59.191 29.254 81.563 25.442 28.783 39.454 65.813 39.454 104.269 0 86.864-70.67 157.534-157.535 157.535v30c103.407 0 187.535-84.128 187.535-187.535 0-45.779-16.683-89.866-46.976-124.136" opacity="1" data-original="#009398"></path><path fill="#5c3629" d="M346.013 324.422c0-49.646-40.389-90.035-90.035-90.035v180.069c49.646.001 90.035-40.389 90.035-90.034" opacity="1" data-original="#5c3629"></path></g></svg>