<svg xmlns="http://www.w3.org/2000/svg" version="1.1" xmlns:xlink="http://www.w3.org/1999/xlink" width="512" height="512" x="0" y="0" viewBox="0 0 512 512" xml:space="preserve"><g><path fill="#fd6e70" d="m97.576 511.543-40.999-48.779 3.837-24.491-25.189-.913L0 395.45l7.521-9.566c18.427-23.441 34.074-31.344 49.206-38.988 12.495-6.312 24.299-12.274 40.031-28.006 16.45-16.45 20.902-27.4 26.056-40.079 5.573-13.706 11.888-29.24 32.62-49.971 20.73-20.731 36.265-27.046 49.97-32.618 12.679-5.154 23.628-9.606 40.077-26.054 16.447-16.448 20.898-27.397 26.052-40.075 5.572-13.705 11.886-29.239 32.618-49.97 20.356-20.357 37.516-28.74 54.111-36.846 15.048-7.351 29.263-14.295 46.085-31.117L416.051.456l39.861 48.796 4.743 21.374 16.383 4.488L512 117.915l-7.516 9.443c-18.073 22.709-33.377 30.142-48.176 37.331-12.412 6.028-24.135 11.723-40.004 27.591-16.448 16.448-20.898 27.397-26.052 40.075-5.572 13.705-11.886 29.239-32.617 49.97s-36.265 27.046-49.97 32.617c-12.68 5.154-23.628 9.606-40.077 26.054-16.45 16.45-20.902 27.4-26.056 40.079-5.573 13.705-11.888 29.239-32.62 49.971-20.275 20.276-37.272 28.901-53.709 37.241-15.007 7.616-29.183 14.809-46.088 31.714z" opacity="1" data-original="#fd6e70"></path><path fill="#e43b54" d="M357.636 282.325c20.73-20.731 27.045-36.265 32.617-49.97 5.154-12.678 9.604-23.627 26.052-40.075 15.869-15.869 27.592-21.563 40.004-27.591 14.799-7.189 30.103-14.622 48.176-37.331l7.516-9.443-34.964-42.801-16.383-4.487-4.743-21.374L416.049.457l-11.704 11.704c-16.822 16.821-31.036 23.765-46.084 31.117-16.595 8.106-33.755 16.489-54.111 36.846-20.731 20.731-27.046 36.265-32.618 49.97-5.154 12.678-9.605 23.627-26.052 40.075-16.449 16.448-27.399 20.899-40.077 26.054-2.117.861-4.278 1.739-6.494 2.686l113.914 113.914c12.456-5.228 26.636-12.322 44.813-30.498" opacity="1" data-original="#e43b54"></path><path fill="#fec2ca" d="M194.289 276.504c-23.214 23.214-30.286 40.608-36.524 55.954-5.772 14.197-10.756 26.457-29.175 44.876-18.865 18.865-34.193 26.268-50.421 34.106-13.487 6.515-27.341 13.211-43.036 25.809l21.59 25.687c12.648-10.004 24.081-15.545 36.024-21.314 17.187-8.302 36.666-17.71 59.543-40.588 23.214-23.214 30.286-40.607 36.525-55.954 5.772-14.197 10.756-26.457 29.175-44.876 18.418-18.417 30.677-23.401 44.874-29.173 2.017-.82 4.07-1.655 6.166-2.539l-25.67-25.67c-13.682 5.816-29.256 13.866-49.071 33.682" opacity="1" data-original="#fec2ca"></path><path fill="#fda8b4" d="M318.816 234.511c23.212-23.213 30.282-40.605 36.521-55.951 5.771-14.196 10.754-26.456 29.17-44.873 18.648-18.648 32.181-24.751 47.851-31.819 13.098-5.907 27.603-12.455 44.713-26.711l-21.194-25.944c-13.549 11.383-24.739 16.435-37.3 22.1-16.306 7.354-34.79 15.69-57.771 38.672-23.212 23.213-30.282 40.605-36.521 55.951-5.771 14.196-10.754 26.456-29.171 44.873s-30.678 23.401-44.875 29.173c-2.365.962-4.78 1.944-7.257 3.001l25.67 25.67c13.945-5.852 29.819-13.797 50.164-34.142" opacity="1" data-original="#fda8b4"></path></g></svg>