<svg xmlns="http://www.w3.org/2000/svg" version="1.1" xmlns:xlink="http://www.w3.org/1999/xlink" width="512" height="512" x="0" y="0" viewBox="0 0 512 512" xml:space="preserve"><g><path fill="#ff835d" d="M74.97 74.981C124.96 24.991 190.48-.003 256 0l60 87.635-60 87.635c-44.596 0-80.74 36.144-80.74 80.73 0 22.293 9.036 42.475 23.645 57.084L49.309 375.327C30 364.099 14.933 345.542 8.695 322.262c-22.796-85.4-.721-180.285 66.275-247.281" opacity="1" data-original="#ff835d"></path><path fill="#f9bb69" d="M198.904 313.084c14.609 14.61 34.792 23.646 57.085 23.646.01 0 60.01 87.635 60.01 87.635L256 512c-65.52.003-131.04-24.991-181.03-74.981-17.042-17.042-25.592-39.356-25.661-61.692-.07-22.519 8.479-45.06 25.661-62.242 34.224-34.224 89.71-34.224 123.934-.001" opacity="1" data-original="#f9bb69"></path><path fill="#fc9f63" d="M336.72 256c0-44.583-36.139-80.724-80.72-80.73V0c65.513.003 131.025 24.996 181.009 74.981 99.974 99.974 99.974 262.065 0 362.039C387.025 487.004 321.513 511.997 256 512V336.73c44.581-.006 80.72-36.147 80.72-80.73" opacity="1" data-original="#fc9f63"></path><path fill="#ff835d" d="M270.99 48.734h-15l-7.5 15 7.5 15h15z" opacity="1" data-original="#ff835d"></path><path fill="#fc9f63" d="M240.99 48.734h15v30h-15zM177.255 96.535h30v30h-30z" opacity="1" data-original="#fc9f63"></path><path fill="#ff835d" d="M270.99 433.265h-15l-7.5 15 7.5 15h15z" opacity="1" data-original="#ff835d"></path><path fill="#fc9f63" d="M240.99 433.265h15v30h-15z" opacity="1" data-original="#fc9f63"></path><g fill="#ff835d"><path d="M433.255 241h30v30h-30zM385.454 177.265h30v30h-30z" fill="#ff835d" opacity="1" data-original="#000000"></path></g></g></svg>