<svg xmlns="http://www.w3.org/2000/svg" version="1.1" xmlns:xlink="http://www.w3.org/1999/xlink" width="512" height="512" x="0" y="0" viewBox="0 0 511.932 511.932" xml:space="preserve"><g><path fill="#57c126" d="M495.827.577C489.639.799 343.547 6.724 281.4 68.87c-48.742 48.742-46.936 131.354-42.994 169.573a348 348 0 0 0-34.875-1.774c-41.026 0-97.691 7.761-134.662 44.732C6.724 343.546.799 489.638.577 495.827L0 511.932l16.104-.577c6.188-.222 152.28-6.146 214.427-68.293 48.742-48.742 46.936-131.354 42.994-169.573a348 348 0 0 0 34.874 1.774c41.026 0 97.691-7.761 134.662-44.732 62.146-62.146 68.071-208.238 68.293-214.427L511.932 0z" opacity="1" data-original="#57c126"></path><path fill="#00a763" d="M16.104 511.354c6.188-.222 152.28-6.146 214.427-68.293 48.742-48.742 46.936-131.354 42.994-169.573a348 348 0 0 0 34.874 1.774c41.026 0 97.691-7.761 134.662-44.732 62.146-62.146 68.071-208.238 68.293-214.427L511.932 0 0 511.932z" opacity="1" data-original="#00a763"></path><path fill="#00a763" d="M435.132 98.013 413.919 76.8l-28.43 28.43V80.313h-30v54.917l-24.967 24.966v-24.917h-30v54.917L190.196 300.523h-54.917v30h24.917l-24.966 24.966H80.312v30h24.918l-28.43 28.43 21.213 21.213 28.429-28.429v24.916h30v-54.916l24.967-24.967v24.916h30v-54.916l110.327-110.327h54.916v-30h-24.916l24.966-24.967h54.916v-30h-24.916z" opacity="1" data-original="#00a763"></path><path fill="#008475" d="M424.525 87.406 87.406 424.526l10.607 10.606 28.429-28.429v24.916h30v-54.916l24.967-24.967v24.916h30v-54.916l110.327-110.327h54.916v-30h-24.916l24.966-24.967h54.916v-30h-24.916l28.43-28.429z" opacity="1" data-original="#008475"></path><path fill="#c9da4a" d="M390.276 270.621c-25.333-25.333-73.312-30.651-109.101-30.651-3.353 0-6.483.048-9.334.124.244-9.192.198-21.286-.821-34.411-3.034-39.077-13.03-67.348-29.71-84.028-16.235-16.236-40.541-27.81-72.241-34.4-24.155-5.022-47.194-6.076-62.268-6.076-6.865 0-11.074.234-11.25.244l-13.373.756-.757 13.373c-.23 4.078-5.13 100.397 40.233 145.76 25.333 25.333 73.312 30.651 109.101 30.651 3.353 0 6.483-.048 9.334-.124-.244 9.192-.198 21.286.821 34.41 3.034 39.077 13.03 67.348 29.71 84.028 16.235 16.236 40.541 27.81 72.242 34.4 25.43 5.287 49.929 6.077 62.269 6.077 6.865 0 11.072-.234 11.248-.244l13.373-.756.757-13.372c.231-4.079 5.131-100.398-40.233-145.761" opacity="1" data-original="#c9da4a"></path><path fill="#9bda05" d="M281.176 239.97c-3.353 0-6.483.048-9.334.124v-.004l-31.751 31.751c-.244 9.191-.198 21.284.821 34.407 3.034 39.077 13.03 67.348 29.71 84.028 16.235 16.236 40.541 27.81 72.242 34.4 25.43 5.287 49.929 6.077 62.269 6.077 6.865 0 11.072-.234 11.248-.244l13.373-.756.757-13.372c.23-4.078 5.13-100.397-40.233-145.76-25.335-25.333-73.314-30.651-109.102-30.651" opacity="1" data-original="#9bda05"></path><path fill="#9bda05" d="m165.535 186.798 21.21-21.21L346.29 325.132l-21.21 21.21z" opacity="1" data-original="#9bda05"></path><path fill="#57c126" d="m245.304 266.576 21.21-21.21 79.772 79.772-21.21 21.21z" opacity="1" data-original="#57c126"></path></g></svg>