<svg xmlns="http://www.w3.org/2000/svg" version="1.1" xmlns:xlink="http://www.w3.org/1999/xlink" width="512" height="512" x="0" y="0" viewBox="0 0 511.992 511.992" xml:space="preserve"><g><path fill="#ff6c6c" d="M394.646 58.054C358.608 21.464 310.505.856 259.199.027c-53.013-.871-102.905 19.176-140.263 56.158-36.648 36.279-57.08 84.823-57.53 136.689-.354 40.881 11.832 80.107 35.243 113.437 20.736 29.524 34.111 63.27 38.678 97.589l.358 2.695a121.38 121.38 0 0 0 40.363 75.322c22.145 19.394 50.552 30.074 79.988 30.074s57.844-10.68 79.989-30.074a121.37 121.37 0 0 0 40.363-75.325l.378-2.842c4.622-34.731 17.749-68.125 37.961-96.57 23.463-33.02 35.865-71.95 35.865-112.582.001-51.42-19.868-99.913-55.946-136.544" opacity="1" data-original="#ff6c6c"></path><path fill="#ff2331" d="M394.646 58.054C358.608 21.464 310.505.856 259.199.027a190 190 0 0 0-3.203-.026v511.99h.041a121.37 121.37 0 0 0 79.989-30.074 121.37 121.37 0 0 0 40.363-75.325l.378-2.842c4.622-34.731 17.749-68.125 37.961-96.57 23.463-33.02 35.865-71.95 35.865-112.582 0-51.42-19.869-99.913-55.947-136.544" opacity="1" data-original="#ff2331"></path><path fill="#ff2331" d="M379.302 193.782c0-68.685-56.158-124.253-125.063-123.294-67.182.935-121.679 56.349-121.549 123.538.05 25.886 8.078 49.9 21.755 69.714 28.208 40.866 47.466 87.227 54.842 136.332l.146.971c3.465 23.068 23.282 40.131 46.609 40.131 23.324 0 43.14-17.059 46.608-40.124l.062-.41c7.322-48.697 25.316-95.36 53.851-135.494 14.318-20.141 22.739-44.768 22.739-71.364" opacity="1" data-original="#ff2331"></path><path fill="#bf0000" d="M255.996 70.476v370.698h.045c23.324 0 43.14-17.059 46.608-40.124l.062-.41c7.322-48.697 25.316-95.36 53.851-135.494 14.32-20.141 22.741-44.768 22.741-71.364-.001-68.1-55.207-123.306-123.307-123.306" opacity="1" data-original="#bf0000"></path><path fill="#fff5c1" d="M256.041 456.174a62.15 62.15 0 0 1-40.539-15.048 62.15 62.15 0 0 1-20.903-37.855l-.145-.962c-6.904-45.972-24.519-89.723-52.354-130.048-15.914-23.056-24.354-50.099-24.41-78.206-.147-75.357 61.016-137.517 136.34-138.565.659-.009 1.31-.014 1.966-.014 76.263 0 138.307 62.044 138.307 138.306 0 28.895-8.823 56.578-25.517 80.056-26.417 37.155-44.136 81.774-51.242 129.033l-.061.405a62.16 62.16 0 0 1-20.906 37.854 62.16 62.16 0 0 1-40.536 15.044m-.045-370.698c-.517 0-1.029.003-1.548.011-58.981.821-106.873 49.499-106.759 108.511.043 22.011 6.647 43.182 19.1 61.222 30.454 44.118 49.743 92.105 57.331 142.625l.145.962c2.383 15.862 15.746 27.368 31.776 27.368 16.028 0 29.392-11.504 31.775-27.354l.061-.404c7.804-51.899 27.327-100.986 56.46-141.961 13.062-18.372 19.966-40.043 19.966-62.672-.001-59.722-48.587-108.308-108.307-108.308" opacity="1" data-original="#fff5c1"></path><circle cx="255.996" cy="171.499" r="39.65" fill="#fff5c1" opacity="1" data-original="#fff5c1"></circle><g fill="#f9e796"><path d="M255.996 55.476v30c59.721 0 108.307 48.586 108.307 108.306 0 22.629-6.904 44.3-19.966 62.672-29.133 40.975-48.656 90.062-56.46 141.961l-.061.404c-2.384 15.85-15.747 27.354-31.775 27.354h-.045v30h.045a62.16 62.16 0 0 0 40.536-15.045 62.16 62.16 0 0 0 20.906-37.854l.061-.405c7.106-47.259 24.825-91.877 51.242-129.033 16.693-23.478 25.517-51.161 25.517-80.056-.001-76.26-62.045-138.304-138.307-138.304" fill="#eddf97" opacity="1" data-original="#000000"></path><path d="M295.645 171.499c0-21.863-17.787-39.65-39.649-39.65v79.3c21.862 0 39.649-17.787 39.649-39.65" fill="#eddf97" opacity="1" data-original="#000000"></path></g></g></svg>