<svg xmlns="http://www.w3.org/2000/svg" version="1.1" xmlns:xlink="http://www.w3.org/1999/xlink" width="512" height="512" x="0" y="0" viewBox="0 0 512 512" xml:space="preserve"><g><path fill="#fae8ac" d="m256 0-75 256 75 256c41.564 0 77.814-22.738 97.006-56.451 0 0 83.148-146.113 83.138-146.113 17.175-30.18 26.993-65.091 26.993-102.299C463.137 92.738 370.399 0 256 0" opacity="1" data-original="#fae8ac"></path><path fill="#fdf6df" d="M48.863 207.137c0 37.208 9.818 72.12 26.983 102.299 0 0 83.148 146.113 83.154 146.113C178.186 489.262 214.436 512 256 512V0C141.601 0 48.863 92.738 48.863 207.137" opacity="1" data-original="#fdf6df"></path><path fill="#fa4350" d="M256 63.734 196 256l60 192.266c17.157 0 33.104-9.292 41.618-24.248l.051-.089a46.86 46.86 0 0 0 6.132-23.172v-45.895c0-42.498 34.452-76.95 76.95-76.95 12.202-21.441 18.651-45.915 18.651-70.775 0-79.073-64.329-143.403-143.402-143.403" opacity="1" data-original="#fa4350"></path><path fill="#fc6356" d="M112.598 207.137c0 24.859 6.449 49.338 18.649 70.789 17.976 31.589 83.146 146.099 83.146 146.099 8.508 14.952 24.451 24.241 41.607 24.241V63.734c-79.073 0-143.402 64.33-143.402 143.403" opacity="1" data-original="#fc6356"></path><path fill="#e7e6e6" d="M303.801 175.27c0 26.4-21.401 47.801-47.801 47.801l-23.9-47.801 23.9-47.801c26.4 0 47.801 21.401 47.801 47.801" opacity="1" data-original="#e7e6e6"></path><path fill="#ffffff" d="M256 127.469v95.602c-26.4 0-47.801-21.401-47.801-47.801S229.6 127.469 256 127.469" opacity="1" data-original="#ffffff"></path></g></svg>