<svg xmlns="http://www.w3.org/2000/svg" version="1.1" xmlns:xlink="http://www.w3.org/1999/xlink" width="512" height="512" x="0" y="0" viewBox="0 0 512 512" xml:space="preserve"><g><path d="M470.23 279.453c-29.401-27.902-45.902-58.203-49.502-89.406-2.1-18.899-7.202-37.8-15.001-56.103C377.826 69.141 321.722 20.039 256.919 5.338 245.518 2.337 233.817.837 221.817.239c-59.104-2.701-116.706 21.5-158.41 63.202S-2.497 162.746.205 221.849c3.6 78.904 57.202 151.209 133.707 183.91 18.301 7.8 37.202 12.903 56.103 15.001 23.1 2.701 45.602 12.302 66.903 29.103 7.5 5.7 15.001 12.6 22.501 20.401 25.801 27.002 60.904 41.702 97.505 41.702 10.202 0 20.401-1.201 30.603-3.3 49.502-11.103 90.005-51.604 101.106-101.108 10.5-47.401-3.9-95.404-38.403-128.105" style="" fill="#994c0f" data-original="#994c0f"></path><path d="M508.633 407.559c-11.101 49.504-51.604 90.005-101.106 101.108-10.202 2.098-20.401 3.3-30.603 3.3-36.601 0-71.704-14.701-97.505-41.702-7.5-7.8-15.001-14.701-22.501-20.401V5.338c64.803 14.701 120.908 63.803 148.809 128.606 7.798 18.302 12.901 37.204 15.001 56.103 3.6 31.203 20.1 61.504 49.502 89.406 34.503 32.701 48.903 80.704 38.403 128.106" style="" fill="#713708" data-original="#713708"></path><path d="M428.828 322.655c-39.302-37.202-62.702-80.704-67.804-125.707-1.5-13.501-5.099-26.101-10.5-39.302-18.301-42.603-52.803-74.704-93.605-88.205-12.3-4.501-25.202-6.901-38.403-7.5-2.999.599-64.503-6.601-115.205 46.503-28.501 29.701-43.202 69.003-41.102 110.706 2.401 56.103 39.903 107.705 95.405 131.407 12.901 5.4 25.801 9 39.302 10.5 20.401 2.401 40.802 8.401 60.003 18.301 23.402 11.401 45.302 28.202 65.704 49.504 14.4 15.001 33.602 23.102 54.303 23.102 38.103 0 66.305-27.302 72.904-57.304 6-27.002-1.501-53.404-21.002-72.005M186.714 94.642c17.101-3.6 27.904-2.399 30.903-2.699 2.701.3 5.4.899 8.101 1.199l-73.504 220.812c-11.401-6.899-21.602-15.6-30.002-25.2 43.902-132.043 19.486-55.939 64.502-194.112M101.21 256.351c-19.368-46.714-7.004-94.979 24.001-127.207 7.5-7.8 15.902-14.102 24.902-19.502a1932782 1932782 0 0 1-48.903 146.709m153.609-155.709c.601.3 1.5.601 2.1.901 10.5 4.799 20.701 11.101 29.702 18.901l-71.104 213.312c-5.099-.901-10.2-1.8-15.301-2.401-6.899-.899-13.8-2.699-20.701-4.799.05-.155 72.141-216.426 75.304-225.914m2.1 246.014c-3.9-2.1-8.101-3.6-12.3-5.099l12.3-36.903 52.803-158.708c5.099 7.5 9.601 15.001 13.201 23.4 4.499 10.502 7.2 20.701 8.399 30.903.601 6 1.501 11.701 2.701 17.702l-47.704 143.407c-9.6-5.702-19.499-10.801-29.4-14.702m92.406 65.403c-1.5-1.199-3.301-2.401-4.801-3.9-10.5-11.101-21.3-20.701-32.401-29.401l37.8-113.707c8.401 17.402 18.901 34.503 31.802 50.405zm71.404-24c-3.6 16.801-19.201 33.302-42.902 33.602l27-80.704c.901 1.199 2.1 2.401 3.3 3.6 11.701 11.099 16.202 27.001 12.602 43.502" style="" fill="#bf6015" data-original="#bf6015"></path><path d="M428.828 322.655c-39.302-37.202-62.702-80.704-67.804-125.707-1.5-13.501-5.099-26.101-10.5-39.302-18.301-42.603-52.803-74.704-93.605-88.205v32.102c10.5 4.799 20.701 11.101 29.702 18.901l-29.702 89.104v95.105l52.803-158.708c5.099 7.5 9.601 15.001 13.201 23.4 4.499 10.502 7.2 20.701 8.399 30.903.601 6 1.501 11.701 2.701 17.702L286.32 361.357c-9.601-5.7-19.5-10.801-29.401-14.701v32.701c23.402 11.401 45.302 28.202 65.704 49.504 14.4 15.001 33.602 23.102 54.303 23.102 38.103 0 66.305-27.302 72.904-57.304 6-27.001-1.501-53.403-21.002-72.004m-79.503 89.404c-1.5-1.199-3.301-2.401-4.801-3.9-10.5-11.101-21.3-20.701-32.401-29.401l37.8-113.707c8.401 17.402 18.901 34.503 31.802 50.405zm71.404-24c-3.6 16.801-19.201 33.302-42.902 33.602l27-80.704c.901 1.199 2.1 2.401 3.3 3.6 11.701 11.099 16.202 27.001 12.602 43.502" style="" fill="#994c10" data-original="#994c10"></path><path d="M180.912 240.951c-16.003 0-31.192-6.185-42.767-17.416-11.76-11.41-18.236-26.534-18.236-42.587s6.476-31.178 18.236-42.587c11.576-11.231 26.763-17.416 42.767-17.416 33.086 0 60.003 26.917 60.003 60.003s-26.917 60.003-60.003 60.003" style="" fill="#fec478" data-original="#fec478"></path></g></svg>