<svg xmlns="http://www.w3.org/2000/svg" version="1.1" xmlns:xlink="http://www.w3.org/1999/xlink" width="512" height="512" x="0" y="0" viewBox="0 0 512 512" xml:space="preserve"><g><path d="M0 176v60c0 63.411 51.589 115 115 115 42.313 0 83.087 17.531 111.868 48.097C257.926 432.082 301.712 451 346.998 451H347c44.139 0 85.611-17.181 116.767-48.375C494.92 371.434 512.049 329.95 512 285.813V226z" style="" fill="#ccefff" data-original="#ccefff"></path><path d="M255.88 200.988v222.517C282.703 441.235 314.463 451 346.998 451H347c44.139 0 85.611-17.181 116.767-48.375C494.92 371.434 512.049 329.95 512 285.813V226z" style="" fill="#ace3fc" data-original="#ace3fc"></path><path d="M347 391h-.002c-45.286 0-89.072-18.918-120.13-51.903C198.087 308.531 157.313 291 115 291 51.589 291 0 239.411 0 176S51.589 61 115 61h230.564C437.226 61 511.888 134.926 512 225.794c.054 44.144-17.075 85.635-48.233 116.831C432.611 373.819 391.139 391 347 391" style="" fill="#ff6849" data-original="#ff6849"></path><path d="M345.564 61H255.88v302.505C282.703 381.235 314.463 391 346.998 391H347c44.139 0 85.611-17.181 116.767-48.375 31.158-31.196 48.288-72.688 48.233-116.831C511.888 134.926 437.226 61 345.564 61" style="" fill="#fd4b2d" data-original="#fd4b2d"></path><path d="M347 271c-24.813 0-45-20.187-45-45s20.187-45 45-45 45 20.187 45 45-20.187 45-45 45m0-60c-8.271 0-15 6.729-15 15s6.729 15 15 15 15-6.729 15-15-6.729-15-15-15" style="" fill="#e6f9ff" data-original="#e6f9ff"></path></g></svg>