<svg xmlns="http://www.w3.org/2000/svg" version="1.1" xmlns:xlink="http://www.w3.org/1999/xlink" width="512" height="512" x="0" y="0" viewBox="0 0 512 512" xml:space="preserve"><g><path fill="#642a2a" d="M196 120.667h226v270.667H196z" opacity="1" data-original="#642a2a"></path><path fill="#952c22" d="M90 120.667h166v270.667H90z" opacity="1" data-original="#952c22"></path><path fill="#dcb17f" d="M422 391.667h90v90h-90z" opacity="1" data-original="#dcb17f"></path><path fill="#edd296" d="M0 391.667h90v90H0z" opacity="1" data-original="#edd296"></path><path fill="#952c22" d="M452 361.333H256l-60 75.334L256 512h196z" opacity="1" data-original="#952c22"></path><path fill="#c62d1a" d="M60 361.333h196V512H60z" opacity="1" data-original="#c62d1a"></path><path fill="#dcb17f" d="M422 30.333h90v90h-90z" opacity="1" data-original="#dcb17f"></path><path fill="#edd296" d="M0 30.333h90v90H0z" opacity="1" data-original="#edd296"></path><path fill="#952c22" d="M452 0H256l-60 75.333 60 75.334h196z" opacity="1" data-original="#952c22"></path><path fill="#c62d1a" d="M60 0h196v150.667H60z" opacity="1" data-original="#c62d1a"></path><path fill="#dcb17f" d="M422 211h90v90h-90z" opacity="1" data-original="#dcb17f"></path><path fill="#edd296" d="M0 211h90v90H0z" opacity="1" data-original="#edd296"></path><path fill="#952c22" d="M452 180.667H256L196 256l60 75.333h196z" opacity="1" data-original="#952c22"></path><path fill="#c62d1a" d="M60 180.667h196v150.667H60z" opacity="1" data-original="#c62d1a"></path></g></svg>