<svg xmlns="http://www.w3.org/2000/svg" version="1.1" xmlns:xlink="http://www.w3.org/1999/xlink" width="512" height="512" x="0" y="0" viewBox="0 0 512 512" xml:space="preserve"><g><path d="M321.787 9.529 284.39 156.703l-19.08-4.848h-19.09l-18.589 4.723L190.234 9.404l30.386-7.722 19.707 77.563V0h31.346v79.464l19.739-77.656z" style="" fill="#00a653" data-original="#00a653"></path><path d="M321.787 9.529 284.39 156.703l-19.08-4.848h-9.3V0h15.663v79.464l19.739-77.656z" style="" fill="#008040" data-original="#008040"></path><path d="M431.491 293.512c0 85.619-64.188 133.465-111.052 168.396-25.078 18.704-48.765 36.352-48.765 50.092h-31.347c0-13.74-23.688-31.389-48.765-50.092C144.698 426.977 80.51 379.131 80.51 293.512c0-81.607 48.525-120.236 89.234-138.271 42.496-18.84 84.49-19.059 86.256-19.059h.01l.24.01c1.766.021 43.687.92 86.1 20.062 58.316 26.321 89.141 73.78 89.141 137.258" style="" fill="#b857d0" data-original="#b857d0"></path><path d="M120.2 319.205c-13.501-56.46 24.032-91.15 25.637-92.599l21.011 23.263.091-.083c-1.039.969-25.328 24.168-16.25 62.129z" style="" fill="#edcff3" data-original="#edcff3"></path><path d="M431.491 293.512c0 85.619-64.188 133.465-111.052 168.396-25.078 18.704-48.765 36.352-48.765 50.092H256.01V136.182l.24.01c1.766.021 43.687.92 86.1 20.062 58.316 26.321 89.141 73.78 89.141 137.258" style="" fill="#9331b2" data-original="#9331b2"></path></g></svg>