<svg xmlns="http://www.w3.org/2000/svg" version="1.1" xmlns:xlink="http://www.w3.org/1999/xlink" width="512" height="512" x="0" y="0" viewBox="0 0 511 511.999" xml:space="preserve"><g transform="matrix(1,0,0,1,55,0)"><path fill="#00bb64" d="M288.316 0v91.645H261c-5.355 0-11.117 3.027-11.117 9.687v56.969h-91.645v-56.969c0-27.383 10.746-52.973 30.25-72.039a102.7 102.7 0 0 1 14.942-12.086C220.258 6.012 240.137 0 261 0zm0 0" opacity="1" data-original="#00bb64"></path><path fill="#008c4a" d="M380.402 151.453c-20.379-23.676-49.988-37.25-81.226-37.25s-60.848 13.574-81.227 37.25a107.08 107.08 0 0 0-24.765 85.863l31.664 210.688a75.2 75.2 0 0 0 25.285 45.789 75.2 75.2 0 0 0 49.043 18.203 75.2 75.2 0 0 0 49.039-18.203 75.18 75.18 0 0 0 25.289-45.79l31.664-210.687a107.08 107.08 0 0 0-24.766-85.863m0 0" opacity="1" data-original="#008c4a"></path><path fill="#00bb64" d="M188.914 151.453c-20.379-23.676-49.988-37.25-81.226-37.25s-60.848 13.574-81.227 37.25a107.08 107.08 0 0 0-24.766 85.863L33.36 448.004a75.2 75.2 0 0 0 25.29 45.789c13.632 11.738 31.046 18.203 49.039 18.203s35.406-6.465 49.042-18.203a75.2 75.2 0 0 0 25.286-45.79l31.664-210.687a107.08 107.08 0 0 0-24.766-85.863m0 0" opacity="1" data-original="#00bb64"></path><path fill="#008c4a" d="M288.316 0v91.645H261c-5.355 0-11.117 3.027-11.117 9.687v56.969H203.43V17.207C220.258 6.012 240.137 0 261 0zm0 0" opacity="1" data-original="#008c4a"></path><path fill="#8adb53" d="m293.918 209.688-12.254 228.175C279.426 479.43 245.06 512 203.43 512c-41.63 0-75.992-32.57-78.23-74.137l-12.255-228.175c-1.351-25.098 7.43-48.961 24.707-67.208 17.29-18.234 40.649-28.285 65.778-28.285s48.488 10.051 65.777 28.285c17.281 18.25 26.059 42.11 24.711 67.208m0 0" opacity="1" data-original="#8adb53"></path><path fill="#5dc277" d="m293.918 209.688-12.254 228.175C279.426 479.43 245.06 512 203.43 512V114.195c25.129 0 48.492 10.051 65.777 28.285 17.281 18.25 26.059 42.11 24.711 67.208m0 0" opacity="1" data-original="#5dc277"></path></g></svg>