<svg xmlns="http://www.w3.org/2000/svg" version="1.1" xmlns:xlink="http://www.w3.org/1999/xlink" width="512" height="512" x="0" y="0" viewBox="0 0 512.009 512.009" xml:space="preserve"><g><path fill="#57c126" d="M310.48 71.399C302.268 34.52 266.437 7.704 264.916 6.58L256.005 0l-8.911 6.581c-1.521 1.124-37.353 27.94-45.564 64.819l-2.111 9.482 56.587 42.177 56.587-42.177z" opacity="1" data-original="#57c126"></path><path fill="#00a763" d="M310.48 71.399C302.268 34.52 266.437 7.704 264.916 6.58L256.005 0v123.058l56.587-42.177z" opacity="1" data-original="#00a763"></path><path fill="#6bcd00" d="M334.298 49.555c-32.769 0-61.646 16.983-78.293 42.609-16.646-25.626-45.524-42.609-78.293-42.609h-43.976v36.261c0 23.755 8.951 46.395 25.204 63.749l2.59 2.766 79.475 26.63v.149h30v-.149l79.475-26.63 2.59-2.766c16.253-17.354 25.204-39.994 25.204-63.749V49.555z" opacity="1" data-original="#6bcd00"></path><path fill="#57c126" d="M334.298 49.555c-32.769 0-61.646 16.983-78.293 42.609v86.946h15v-.149l79.475-26.63 2.59-2.766c16.253-17.354 25.204-39.994 25.204-63.749V49.555z" opacity="1" data-original="#57c126"></path><path fill="#683285" d="M322.015 349.988c-27.2 0-51.311 13.474-66.011 34.098-14.699-20.624-38.811-34.098-66.011-34.098-44.67 0-81.011 36.341-81.011 81.011s36.341 81.01 81.011 81.01c27.2 0 51.311-13.474 66.011-34.098 14.699 20.624 38.811 34.098 66.011 34.098 44.67 0 81.011-36.341 81.011-81.01s-36.341-81.011-81.011-81.011" opacity="1" data-original="#683285"></path><path fill="#5a1b6a" d="M322.015 349.988c-27.2 0-51.311 13.474-66.011 34.098v93.825c14.699 20.624 38.811 34.098 66.011 34.098 44.67 0 81.011-36.341 81.011-81.01s-36.341-81.011-81.011-81.011" opacity="1" data-original="#5a1b6a"></path><path fill="#683285" d="M322.015 121.183c-27.2 0-51.311 13.474-66.011 34.098-14.699-20.624-38.811-34.098-66.011-34.098-44.67 0-81.011 36.341-81.011 81.01s36.341 81.011 81.011 81.011c27.2 0 51.311-13.474 66.011-34.098 14.699 20.624 38.811 34.098 66.011 34.098 44.67 0 81.011-36.341 81.011-81.011s-36.341-81.01-81.011-81.01" opacity="1" data-original="#683285"></path><path fill="#5a1b6a" d="M322.015 283.204c44.67 0 81.011-36.341 81.011-81.011s-36.341-81.01-81.011-81.01c-27.2 0-51.311 13.474-66.011 34.098v93.825c14.7 20.623 38.812 34.098 66.011 34.098" opacity="1" data-original="#5a1b6a"></path><ellipse cx="388.026" cy="316.596" fill="#6e51b2" rx="81.011" ry="81.01" transform="rotate(-58.28 387.879 316.461)" opacity="1" data-original="#6e51b2"></ellipse><ellipse cx="388.026" cy="316.596" fill="#683285" rx="81.011" ry="81.01" transform="rotate(-58.28 387.879 316.461)" opacity="1" data-original="#683285"></ellipse><ellipse cx="123.983" cy="316.596" fill="#6e51b2" rx="81.01" ry="81.011" transform="rotate(-10.89 124.113 316.762)" opacity="1" data-original="#6e51b2"></ellipse><circle cx="256.005" cy="316.596" r="81.011" fill="#6e67d6" opacity="1" data-original="#6e67d6"></circle><path fill="#6e51b2" d="M337.015 316.596c0-44.669-36.341-81.01-81.011-81.01v162.021c44.671-.001 81.011-36.342 81.011-81.011" opacity="1" data-original="#6e51b2"></path></g></svg>