<svg xmlns="http://www.w3.org/2000/svg" version="1.1" xmlns:xlink="http://www.w3.org/1999/xlink" width="512" height="512" x="0" y="0" viewBox="0 0 510 510" xml:space="preserve"><g><path fill="#97de3d" d="m55.601 228.523 97.413-33.484 10.252-91.7C92.742 34.813 8.296 62.129 5.359 62.051c.075 2.492-27.527 89.146 42.959 159.631a167 167 0 0 0 7.283 6.841" opacity="1" data-original="#97de3d"></path><path fill="#59c36a" d="m161.625 198.875-9.999-11.771-62.711-62.71-21.213 21.212 52.392 52.392z" opacity="1" data-original="#59c36a"></path><path fill="#453d80" d="M153.014 195.038 254.94 237.94 285 225l15-17.535L315 120 300 15c-94.247 0-166.005 86.642-146.986 180.038" opacity="1" data-original="#453d80"></path><path fill="#383372" d="M300 15v192.465l140.233 10.852C446.712 201.348 450 183.475 450 165c0-82.71-67.29-150-150-150" opacity="1" data-original="#383372"></path><path fill="#5e54aa" d="M270 120c0 16.568 13.432 30 30 30l15-30-15-30c-16.568 0-30 13.432-30 30" opacity="1" data-original="#5e54aa"></path><path fill="#453d80" d="M300 90v60c16.568 0 30-13.432 30-30s-13.432-30-30-30" opacity="1" data-original="#453d80"></path><path fill="#5e54aa" d="M254.944 237.936v214.128C282.873 479.532 320.304 495 360 495l15-150-15-150c-39.695 0-77.127 15.468-105.056 42.936" opacity="1" data-original="#5e54aa"></path><path fill="#453d80" d="M360 195v300c82.71 0 150-67.29 150-150s-67.29-150-150-150M0 345c0 82.71 67.29 150 150 150l15-150-15-150C67.29 195 0 262.29 0 345" opacity="1" data-original="#453d80"></path><path fill="#383372" d="M150 195v300c82.71 0 150-67.29 150-150s-67.29-150-150-150" opacity="1" data-original="#383372"></path><circle cx="120" cy="375" r="30" fill="#5e54aa" opacity="1" data-original="#5e54aa"></circle><circle cx="390" cy="315" r="30" fill="#383372" opacity="1" data-original="#383372"></circle></g></svg>