<svg xmlns="http://www.w3.org/2000/svg" version="1.1" xmlns:xlink="http://www.w3.org/1999/xlink" width="512" height="512" x="0" y="0" viewBox="0 0 512 512" xml:space="preserve"><g><path fill="#a0d584" d="M256 266.855h92.964c90.043 0 163.036-72.994 163.036-163.036V11.485h-92.964C328.994 11.485 256 84.479 256 174.521z" opacity="1" data-original="#a0d584"></path><path fill="#5e54aa" d="M247.556 77.645c-68.589 0-124.389 55.801-124.389 124.39v4.87c0 68.589 55.801 124.389 124.389 124.389H256l9.435-148.094L256 77.645z" opacity="1" data-original="#5e54aa"></path><path fill="#453d80" d="M264.444 77.645H256v253.649h8.444c68.589 0 124.389-55.801 124.389-124.389v-4.87c0-68.589-55.8-124.39-124.389-124.39" opacity="1" data-original="#453d80"></path><path fill="#453d80" d="M141.277 246.866h-16.888C55.801 246.866 0 302.667 0 371.255v4.87c0 68.589 55.801 124.389 124.389 124.389h16.888c51.557 0 95.885-31.531 114.722-76.32l27.273-50.504L256 323.186c-18.837-44.789-63.165-76.32-114.723-76.32" opacity="1" data-original="#453d80"></path><path fill="#162264" d="M387.611 246.866h-16.888c-51.557 0-95.885 31.531-114.723 76.321v101.008c18.837 44.79 63.165 76.32 114.723 76.32h16.888C456.2 500.515 512 444.714 512 376.126v-4.87c0-68.589-55.801-124.39-124.389-124.39" opacity="1" data-original="#162264"></path><path fill="#7f96dc" d="M246.539 136.605a66.84 66.84 0 0 1-25.081 18.223l-13.449 5.578 7.602 12.417a66.84 66.84 0 0 1 9.58 29.485l1.149 14.514 14.159-3.393a66.6 66.6 0 0 1 15.502-1.823l9.435-37.363L256 125.538z" opacity="1" data-original="#7f96dc"></path><path fill="#5e54aa" d="M290.541 154.827a66.84 66.84 0 0 1-25.082-18.223L256 125.538v86.068c5.215 0 10.43.608 15.5 1.823l14.157 3.393 1.15-14.513a66.85 66.85 0 0 1 9.581-29.486l7.602-12.417zM170.007 337.646a66.84 66.84 0 0 1-25.082-18.223l-9.46-11.066-9.461 11.066a66.84 66.84 0 0 1-25.081 18.223l-13.449 5.578 7.602 12.417a66.84 66.84 0 0 1 9.58 29.485l1.149 14.514 14.159-3.393a66.6 66.6 0 0 1 15.502-1.823c5.215 0 10.43.608 15.5 1.823l14.157 3.393 1.15-14.513a66.85 66.85 0 0 1 9.581-29.486l7.602-12.417z" opacity="1" data-original="#5e54aa"></path><path fill="#453d80" d="M411.076 337.646a66.84 66.84 0 0 1-25.082-18.223l-9.46-11.066-9.461 11.066a66.84 66.84 0 0 1-25.081 18.223l-13.449 5.578 7.602 12.417a66.84 66.84 0 0 1 9.58 29.485l1.149 14.514 14.159-3.393a66.6 66.6 0 0 1 15.502-1.823c5.215 0 10.43.608 15.5 1.823l14.157 3.393 1.15-14.513a66.85 66.85 0 0 1 9.581-29.486l7.602-12.417z" opacity="1" data-original="#453d80"></path></g></svg>