<svg xmlns="http://www.w3.org/2000/svg" version="1.1" xmlns:xlink="http://www.w3.org/1999/xlink" width="512" height="512" x="0" y="0" viewBox="0 0 512 512" xml:space="preserve"><g><path d="M290.415 512h-68.83c-19.437 0-37.949-6.139-53.535-17.751s-26.763-27.596-32.322-46.22c-16.602-55.617-12.078-115.143 12.738-167.61L186.501 200h138.998l38.035 80.419c24.816 52.469 29.34 111.993 12.738 167.608-5.56 18.625-16.736 34.608-32.322 46.222C328.364 505.861 309.852 512 290.415 512" style="" fill="#fedbab" data-original="#fedbab" opacity="1"></path><path d="M363.534 280.419 325.499 200H256v312h34.415c19.437 0 37.949-6.139 53.535-17.751s26.763-27.597 32.322-46.222c16.602-55.615 12.079-115.139-12.738-167.608" style="" fill="#fec478" data-original="#fec478" opacity="1"></path><path d="m299.036 375.08-28.746-8.58a136.5 136.5 0 0 0-7.413-97.535l-23.437-49.552 27.119-12.826 23.437 49.552c17.61 37.234 20.821 79.474 9.04 118.941" style="" fill="#fec478" data-original="#fea832" opacity="1"></path><path d="M371.264 243.614q-.387 0-.773-.004c-30.691-.312-61.725-2.701-91.736-5.013-43.058-3.315-87.578-6.748-133.89-4.438-20.786 1.04-40.527-6.285-55.584-20.611C74.268 199.266 66 179.987 66 159.266V155C66 69.532 135.533 0 221 0h70c85.467 0 155 69.532 155 155v13.611c0 20.173-7.921 39.122-22.303 53.359-14.117 13.975-32.713 21.644-52.433 21.644" style="" fill="#994c0f" data-original="#994c0f" opacity="1"></path><path d="M187 155h-30c0-40.075 9.497-77.973 26.741-106.713C202.424 17.148 228.086 0 256 0v30c-16.96 0-33.486 11.977-46.534 33.723C194.979 87.867 187 120.284 187 155" style="" fill="#994c0f" data-original="#bf6016" opacity="1"></path><path d="M291 0h-35v236.878c7.63.556 15.216 1.139 22.754 1.719 30.012 2.312 61.045 4.701 91.736 5.013q.387.004.773.004c19.721 0 38.316-7.669 52.434-21.644C438.079 207.733 446 188.784 446 168.611V155C446 69.532 376.467 0 291 0" style="" fill="#713807" data-original="#713807"></path></g></svg>