<svg xmlns="http://www.w3.org/2000/svg" version="1.1" xmlns:xlink="http://www.w3.org/1999/xlink" width="512" height="512" x="0" y="0" viewBox="0 0 512 512" xml:space="preserve"><g><path fill="#95d528" d="M218.276 222.049h73.239v263.185h-73.239z" opacity="1" data-original="#95d528"></path><path fill="#89c627" d="M265.161 222.049h26.354v263.185h-26.354z" opacity="1" data-original="#89c627"></path><path fill="#b9ea6a" d="m411.263 263.072-46.96 41.166c-28.231 24.749-49.483 56.438-61.815 91.564a353.5 353.5 0 0 1 19.369-84.148l32.48-89.28-29.284-10.654-32.48 89.281a384.3 384.3 0 0 0-21.345 94.105l-1.669 17.12c-1.004 10.301-9.501 18.508-19.85 18.566-11.105.062-20.126-8.921-20.126-20.011v-130.5h-31.161v95.515a276 276 0 0 0-33.097-54.135l-42.276-53.981-24.533 19.213 42.276 53.981c25.941 33.125 42.988 72.62 49.297 114.216l5.349 35.263a12.834 12.834 0 0 0 12.689 10.909h94.37a12.834 12.834 0 0 0 12.665-10.755l8.703-53.015c6.97-42.457 28.626-81.46 60.981-109.823l46.96-41.166z" opacity="1" data-original="#b9ea6a"></path><path fill="#a1e42c" d="m411.263 263.072-46.96 41.166c-28.231 24.749-49.483 56.438-61.815 91.564a354 354 0 0 1 7.028-42.321c-18.911 24.382-31.648 53.291-36.691 84.012l-8.703 53.015a12.834 12.834 0 0 1-12.665 10.755h51.04a12.834 12.834 0 0 0 12.665-10.755l8.703-53.015c6.97-42.457 28.626-81.46 60.981-109.823l46.959-41.166z" opacity="1" data-original="#a1e42c"></path><path fill="#118e5e" d="M430.526 150.353a84 84 0 0 0-8.889.332c-11.716 1.065-21.91-7.778-22.627-19.52a73 73 0 0 0-.053-.81c-2.884-40.848-35.818-73.768-76.668-76.617a83.5 83.5 0 0 0-20.576 1.093c-7.953 1.426-16.003-1.933-20.62-8.563-14.993-21.528-39.936-35.597-68.157-35.53-28.223.066-53.114 14.247-68.009 35.846-4.29 6.221-11.746 9.599-19.243 8.651a83 83 0 0 0-10.572-.653c-45.724.107-82.705 37.261-82.597 82.985.012 5.28.525 10.44 1.486 15.441 1.37 7.123-1.057 14.458-6.458 19.301C10.325 187.748-.391 210.283.014 235.308c.704 43.587 35.76 79.583 79.316 81.358 21.412.873 41.093-6.395 56.234-18.947 7.417-6.149 18.023-6.13 25.473-.021 14.895 12.213 34.117 19.334 55.016 18.693 42.099-1.291 76.865-34.609 79.971-76.613q.07-.955.119-1.908c.543-10.658 9.528-18.761 20.199-18.756h.231a84 84 0 0 0 8.31-.432c11.194-1.145 21.077 7.486 21.646 18.724q.047.904.111 1.813c2.965 41.181 36.454 74.195 77.674 76.565 48.947 2.814 89.301-36.893 87.64-85.543-1.499-43.807-37.601-79.207-81.428-79.888" opacity="1" data-original="#118e5e"></path><path fill="#017b4f" d="M511.951 230.241c-.396-11.59-3.234-22.581-7.977-32.508-13.886 29.459-44.636 49.418-79.829 47.395-41.219-2.37-74.709-35.384-77.674-76.565a80 80 0 0 1-.111-1.813c-.569-11.238-10.451-19.869-21.646-18.724a84 84 0 0 1-8.31.432h-.231c-10.672-.005-19.656 8.098-20.199 18.756a83 83 0 0 1-.119 1.908c-3.105 42.004-37.872 75.322-79.971 76.613-20.899.641-40.122-6.48-55.016-18.693-7.451-6.109-18.056-6.128-25.473.021-15.141 12.552-34.822 19.82-56.234 18.947-31.433-1.281-58.432-20.388-71.295-47.305-5.224 11.078-8.067 23.498-7.855 36.603.704 43.586 35.76 79.583 79.316 81.358 21.412.873 41.093-6.395 56.234-18.947 7.417-6.149 18.023-6.13 25.473-.021 14.895 12.213 34.117 19.334 55.016 18.693 42.099-1.291 76.865-34.609 79.971-76.613q.07-.956.119-1.908c.543-10.658 9.528-18.761 20.199-18.756h.23a84 84 0 0 0 8.31-.432c11.194-1.144 21.077 7.486 21.646 18.724q.046.904.111 1.813c2.965 41.181 36.454 74.195 77.674 76.565 48.947 2.815 89.301-36.892 87.641-85.543" opacity="1" data-original="#017b4f"></path><circle cx="139.516" cy="134.701" r="10.245" fill="#017b4f" opacity="1" data-original="#017b4f"></circle><circle cx="169.417" cy="107.824" r="10.245" fill="#017b4f" opacity="1" data-original="#017b4f"></circle><circle cx="179.662" cy="179.588" r="10.245" fill="#017b4f" opacity="1" data-original="#017b4f"></circle><circle cx="206.696" cy="179.588" r="10.245" fill="#017b4f" opacity="1" data-original="#017b4f"></circle><circle cx="251.458" cy="141.37" r="10.245" fill="#017b4f" opacity="1" data-original="#017b4f"></circle><circle cx="443.868" cy="202.26" r="10.245" fill="#017b4f" opacity="1" data-original="#017b4f"></circle><circle cx="55.953" cy="202.26" r="10.245" fill="#017b4f" opacity="1" data-original="#017b4f"></circle><circle cx="98.516" cy="269.192" r="10.245" fill="#118e5e" opacity="1" data-original="#118e5e"></circle></g></svg>