<svg xmlns="http://www.w3.org/2000/svg" version="1.1" xmlns:xlink="http://www.w3.org/1999/xlink" width="512" height="512" x="0" y="0" viewBox="0 0 512 512" xml:space="preserve"><g><path fill="#a2e62e" d="M292.071 125.065c7.578 2.278 15.355 7.845 20.003 11.181 1.688 1.212 3.022 2.169 3.938 2.692 1.383.79 2.82 1.19 4.272 1.19 9.102 0 19.832-15.903 22.865-60.354-19.1-26.386-50.149-43.555-85.213-43.555-9.182 0-18.087 1.18-26.577 3.392 33.331 16.309 56.279 48.637 60.712 85.454" opacity="1" data-original="#a2e62e"></path><path fill="#8bc727" d="M292.071 125.065c3.695 1.111 7.43 2.994 10.833 5.033-2.327-11.097.8-23.12 9.399-31.718a7.5 7.5 0 0 0-10.607-10.607 49.4 49.4 0 0 0-12.68 21.687 109 109 0 0 1 3.055 15.605" opacity="1" data-original="#8bc727"></path><path fill="#97d729" d="M285.113 97.765c-1.774-10.686 1.443-22.046 9.67-30.272a7.5 7.5 0 0 0-10.607-10.607 49.4 49.4 0 0 0-11.477 17.962 110.3 110.3 0 0 1 12.414 22.917" opacity="1" data-original="#97d729"></path><path fill="#bbec6c" d="M212.881 169.979c12.361 12.362 25.83 23.029 39.935 31.761 8.5-14.334 15.258-31.125 16.301-49.199 1.092-18.916 6.719-28.508 16.725-28.508 2.346 0 4.812.518 7.282 1.356-4.86-42.399-33.68-77.512-72.589-91.446a5.12 5.12 0 0 0-3.445 0c-24.204 8.668-44.5 25.535-57.56 47.249 8.664 31.538 27.528 62.965 53.351 88.787" opacity="1" data-original="#bbec6c"></path><path fill="#97d729" d="M181.114 129.927c-3.367-13.129 1.32-29.232 13.328-41.239a7.5 7.5 0 0 0-10.606-10.607c-7.761 7.761-13.143 16.897-16.083 26.33 3.751 8.658 8.226 17.202 13.361 25.516M212.806 169.904c-7.66-13.911-3.95-33.709 10.041-47.7a7.5 7.5 0 0 0-10.606-10.607c-10.682 10.683-16.746 24.051-18.026 37.209a224 224 0 0 0 18.591 21.098" opacity="1" data-original="#97d729"></path><path fill="#a2e62e" d="M218.929 243.084c8.28-7.645 23.007-22.706 34.401-42.221-13.855-8.57-27.279-19.127-39.742-31.59-27.572-27.573-45.834-59.84-53.827-91.1-1.13-4.42-7.038-5.314-9.385-1.401-10.425 17.377-16.333 37.771-16.097 59.565.56 51.525 35.969 95.128 83.625 108.227a4.14 4.14 0 0 1 1.025-1.48" opacity="1" data-original="#a2e62e"></path><path fill="#97d729" d="M218.929 243.084a193 193 0 0 0 4.98-4.774c-36.856-18.515-62.428-56.537-62.903-100.262a113.4 113.4 0 0 1 6.039-37.86c-2.979-7.345-5.416-14.707-7.284-22.015-1.13-4.42-7.038-5.314-9.385-1.401-10.425 17.377-16.333 37.771-16.097 59.565.56 51.525 35.969 95.128 83.625 108.227a4.14 4.14 0 0 1 1.025-1.48M234.096 237.551c33.059-.001 62.479-12.392 85.084-35.833 42.394-43.965 42.323-96.346 28.91-129.837a59 59 0 0 0-2.713-3.809l.013-.034c-1.678 1.845-2.816 5.209-3.142 10.316-3.089 48.39-15.745 65.427-25.74 59.716-7.207-4.118-45.302-39.124-48.39 14.414-2.098 36.361-27.464 67.495-43.526 83.732 1.114.405 2.356.805 3.701 1.195 1.945.083 3.886.14 5.803.14" opacity="1" data-original="#97d729"></path><path fill="#8bc727" d="M289.5 212.704c0 4.864-1.402 9.514-4.009 13.497a114 114 0 0 0 18.958-11.486q.05-1.002.05-2.011c0-10.61-4.136-20.589-11.647-28.1a7.5 7.5 0 0 0-10.606.001 7.5 7.5 0 0 0 .001 10.606c4.677 4.678 7.253 10.89 7.253 17.493M320.5 191.112c0 4.66-1.288 9.122-3.687 12.99q1.196-1.173 2.367-2.385c5.959-6.18 11.072-12.526 15.434-18.963-1.583-7.422-5.263-14.245-10.76-19.742a7.5 7.5 0 0 0-10.607 10.607c4.677 4.678 7.253 10.891 7.253 17.493" opacity="1" data-original="#8bc727"></path><path fill="#a2e62e" d="M345.377 68.072c13.536 29.684 18.962 85.372-26.918 132.952-30.862 32.005-67.434 37.044-93.867 35.192a196 196 0 0 1-6.342 6.134c-2.975 2.747-1.74 7.678 2.166 8.743 21.351 5.818 76.864 14.91 120.802-30.655 71.541-74.191 18.351-168.105 4.159-152.366" opacity="1" data-original="#a2e62e"></path><path fill="#8bc727" d="M197.076 163.318c4.107-.533 7.96-.289 11.402.677a224 224 0 0 1-13.307-15.556l-.023.002c-12.348 1.602-24.509 7.844-34.244 17.578a7.5 7.5 0 0 0 10.606 10.607c7.406-7.404 16.486-12.131 25.566-13.308" opacity="1" data-original="#8bc727"></path><path fill="#a2e62e" d="M426.343 347.455c7.578 2.278 15.355 7.845 20.003 11.181 1.688 1.212 3.022 2.169 3.938 2.692 1.383.79 2.82 1.19 4.272 1.19 9.102 0 19.832-15.903 22.865-60.354-19.1-26.386-50.149-43.555-85.213-43.555-9.182 0-18.087 1.18-26.577 3.392 33.331 16.309 56.279 48.637 60.712 85.454" opacity="1" data-original="#a2e62e"></path><path fill="#8bc727" d="M426.343 347.455c3.695 1.111 7.43 2.994 10.833 5.033-2.327-11.097.8-23.12 9.399-31.718a7.5 7.5 0 0 0-10.607-10.607 49.4 49.4 0 0 0-12.68 21.687 109 109 0 0 1 3.055 15.605" opacity="1" data-original="#8bc727"></path><path fill="#97d729" d="M419.385 320.155c-1.774-10.686 1.443-22.046 9.67-30.272a7.5 7.5 0 0 0-10.607-10.607 49.4 49.4 0 0 0-11.477 17.962 110.3 110.3 0 0 1 12.414 22.917" opacity="1" data-original="#97d729"></path><path fill="#bbec6c" d="M347.153 392.37c12.361 12.362 25.83 23.029 39.935 31.761 8.5-14.334 15.258-31.125 16.301-49.199 1.092-18.916 6.719-28.508 16.725-28.508 2.346 0 4.812.518 7.282 1.356-4.86-42.399-33.68-77.512-72.589-91.446a5.12 5.12 0 0 0-3.445 0c-24.204 8.668-44.5 25.535-57.56 47.249 8.665 31.537 27.528 62.964 53.351 88.787" opacity="1" data-original="#bbec6c"></path><path fill="#97d729" d="M315.386 352.317c-3.367-13.129 1.32-29.232 13.328-41.24a7.5 7.5 0 0 0-10.606-10.607c-7.761 7.761-13.143 16.897-16.083 26.33 3.751 8.659 8.227 17.203 13.361 25.517M347.079 392.294c-7.66-13.911-3.95-33.709 10.041-47.7a7.5 7.5 0 0 0-10.606-10.607c-10.682 10.683-16.746 24.051-18.026 37.209a224 224 0 0 0 18.591 21.098" opacity="1" data-original="#97d729"></path><path fill="#a2e62e" d="M353.201 465.474c8.28-7.645 23.007-22.706 34.401-42.221-13.855-8.57-27.279-19.127-39.742-31.59-27.572-27.573-45.834-59.84-53.827-91.1-1.13-4.42-7.038-5.314-9.385-1.401-10.425 17.377-16.333 37.771-16.097 59.565.56 51.525 35.969 95.128 83.625 108.227a4.14 4.14 0 0 1 1.025-1.48" opacity="1" data-original="#a2e62e"></path><path fill="#97d729" d="M353.201 465.474a193 193 0 0 0 4.98-4.774c-36.856-18.515-62.428-56.537-62.903-100.262a113.4 113.4 0 0 1 6.039-37.86c-2.979-7.345-5.416-14.707-7.284-22.015-1.13-4.42-7.038-5.314-9.385-1.401-10.425 17.377-16.333 37.771-16.097 59.565.56 51.525 35.969 95.128 83.625 108.227a4.14 4.14 0 0 1 1.025-1.48M368.368 459.941c33.059-.001 62.479-12.392 85.084-35.833 42.394-43.965 42.323-96.346 28.91-129.837a59 59 0 0 0-2.713-3.809l.013-.034c-1.678 1.845-2.816 5.209-3.142 10.316-3.089 48.39-15.745 65.427-25.74 59.716-7.207-4.118-45.302-39.124-48.39 14.414-2.098 36.361-27.464 67.495-43.526 83.732 1.114.405 2.356.805 3.701 1.195 1.946.083 3.887.14 5.803.14" opacity="1" data-original="#97d729"></path><path fill="#8bc727" d="M423.772 435.094c0 4.864-1.402 9.514-4.009 13.497a114 114 0 0 0 18.958-11.486q.05-1.002.05-2.011c0-10.61-4.136-20.589-11.647-28.1a7.5 7.5 0 0 0-10.606.001 7.5 7.5 0 0 0 .001 10.606c4.677 4.678 7.253 10.89 7.253 17.493M454.772 413.502c0 4.66-1.288 9.122-3.687 12.99q1.195-1.173 2.367-2.385c5.959-6.18 11.072-12.526 15.434-18.963-1.583-7.422-5.263-14.245-10.76-19.742a7.5 7.5 0 0 0-10.607 10.607c4.677 4.678 7.253 10.891 7.253 17.493" opacity="1" data-original="#8bc727"></path><path fill="#a2e62e" d="M479.65 290.462c13.536 29.684 18.962 85.372-26.918 132.952-30.862 32.005-67.434 37.044-93.867 35.192a196 196 0 0 1-6.342 6.134c-2.975 2.747-1.74 7.678 2.166 8.743 21.351 5.818 76.864 14.91 120.802-30.655 71.541-74.191 18.351-168.105 4.159-152.366" opacity="1" data-original="#a2e62e"></path><path fill="#8bc727" d="M331.349 385.708c4.107-.533 7.96-.289 11.402.677a224 224 0 0 1-13.307-15.556l-.023.002c-12.348 1.602-24.509 7.844-34.244 17.578a7.5 7.5 0 0 0 10.606 10.607c7.405-7.404 16.485-12.131 25.566-13.308" opacity="1" data-original="#8bc727"></path><path fill="#a2e62e" d="M157.798 347.455c7.578 2.278 15.355 7.845 20.003 11.181 1.688 1.212 3.022 2.169 3.938 2.692 1.383.79 2.82 1.19 4.272 1.19 9.102 0 19.832-15.903 22.865-60.354-19.1-26.386-50.149-43.555-85.213-43.555-9.182 0-18.087 1.18-26.577 3.392 33.331 16.309 56.28 48.637 60.712 85.454" opacity="1" data-original="#a2e62e"></path><path fill="#8bc727" d="M157.798 347.455c3.695 1.111 7.43 2.994 10.833 5.033-2.327-11.097.8-23.12 9.399-31.718a7.5 7.5 0 0 0-10.607-10.607 49.4 49.4 0 0 0-12.68 21.687 109 109 0 0 1 3.055 15.605" opacity="1" data-original="#8bc727"></path><path fill="#97d729" d="M150.84 320.155c-1.774-10.686 1.443-22.046 9.67-30.272a7.5 7.5 0 0 0-10.607-10.607 49.4 49.4 0 0 0-11.477 17.962 110.2 110.2 0 0 1 12.414 22.917" opacity="1" data-original="#97d729"></path><path fill="#bbec6c" d="M78.608 392.37c12.361 12.362 25.83 23.029 39.935 31.761 8.5-14.334 15.258-31.125 16.301-49.199 1.092-18.916 6.719-28.508 16.725-28.508 2.346 0 4.812.518 7.282 1.356-4.86-42.399-33.68-77.512-72.589-91.446a5.12 5.12 0 0 0-3.445 0c-24.204 8.668-44.5 25.535-57.56 47.249 8.665 31.537 27.528 62.964 53.351 88.787" opacity="1" data-original="#bbec6c"></path><path fill="#97d729" d="M46.842 352.317c-3.367-13.129 1.32-29.232 13.328-41.24a7.5 7.5 0 0 0-10.606-10.607c-7.761 7.761-13.143 16.897-16.083 26.33 3.751 8.659 8.226 17.203 13.361 25.517M78.534 392.294c-7.66-13.911-3.95-33.709 10.041-47.7a7.5 7.5 0 0 0-10.606-10.607c-10.682 10.683-16.746 24.051-18.026 37.209a224 224 0 0 0 18.591 21.098" opacity="1" data-original="#97d729"></path><path fill="#a2e62e" d="M84.656 465.474c8.28-7.645 23.007-22.706 34.401-42.221-13.855-8.57-27.279-19.127-39.742-31.59-27.572-27.573-45.834-59.84-53.827-91.1-1.13-4.42-7.038-5.314-9.385-1.401C5.679 316.538-.23 336.933.007 358.726c.56 51.525 35.969 95.128 83.625 108.227a4.1 4.1 0 0 1 1.024-1.479" opacity="1" data-original="#a2e62e"></path><path fill="#97d729" d="M84.656 465.474a193 193 0 0 0 4.98-4.774c-36.856-18.515-62.428-56.537-62.903-100.262a113.4 113.4 0 0 1 6.039-37.86c-2.979-7.345-5.416-14.707-7.284-22.015-1.13-4.42-7.038-5.314-9.385-1.401C5.679 316.538-.23 336.933.007 358.726c.56 51.525 35.969 95.128 83.625 108.227a4.1 4.1 0 0 1 1.024-1.479M99.823 459.941c33.059-.001 62.479-12.392 85.084-35.833 42.394-43.965 42.323-96.346 28.91-129.837a59 59 0 0 0-2.713-3.809l.013-.034c-1.678 1.845-2.816 5.209-3.142 10.316-3.089 48.39-15.745 65.427-25.74 59.716-7.207-4.118-45.302-39.124-48.39 14.414-2.098 36.361-27.463 67.495-43.526 83.732 1.114.405 2.356.805 3.701 1.195 1.946.083 3.887.14 5.803.14" opacity="1" data-original="#97d729"></path><path fill="#8bc727" d="M155.228 435.094c0 4.864-1.402 9.514-4.009 13.497a114 114 0 0 0 18.958-11.486q.05-1.002.05-2.011c0-10.61-4.136-20.589-11.647-28.1a7.5 7.5 0 0 0-10.606.001 7.5 7.5 0 0 0 .001 10.606c4.676 4.678 7.253 10.89 7.253 17.493M186.228 413.502c0 4.66-1.288 9.122-3.687 12.99q1.195-1.173 2.367-2.385c5.959-6.18 11.072-12.526 15.434-18.963-1.583-7.422-5.263-14.245-10.76-19.742a7.5 7.5 0 0 0-10.607 10.607c4.676 4.678 7.253 10.891 7.253 17.493" opacity="1" data-original="#8bc727"></path><path fill="#a2e62e" d="M211.105 290.462c13.536 29.684 18.962 85.372-26.918 132.952-30.862 32.005-67.434 37.044-93.867 35.192a196 196 0 0 1-6.342 6.134c-2.975 2.747-1.74 7.678 2.166 8.743 21.351 5.818 76.864 14.91 120.802-30.655 71.541-74.191 18.351-168.105 4.159-152.366" opacity="1" data-original="#a2e62e"></path><path fill="#8bc727" d="M62.804 385.708c4.107-.533 7.96-.289 11.402.677a224 224 0 0 1-13.307-15.556l-.023.002c-12.348 1.602-24.509 7.844-34.244 17.578a7.5 7.5 0 0 0 10.606 10.607c7.406-7.404 16.485-12.131 25.566-13.308" opacity="1" data-original="#8bc727"></path></g></svg>