<svg xmlns="http://www.w3.org/2000/svg" version="1.1" xmlns:xlink="http://www.w3.org/1999/xlink" width="512" height="512" x="0" y="0" viewBox="0 0 512 512" xml:space="preserve"><g><path fill="#edf5ff" d="M482 346H30L0 361c22.046 0 41.851 12.246 51.709 31.963L65.728 421h380.544l14.019-28.037C470.149 373.246 489.954 361 512 361z" opacity="1" data-original="#edf5ff"></path><path fill="#d5e8fe" d="M460.291 392.963C470.149 373.246 489.954 361 512 361l-30-15H256v75h190.272z" opacity="1" data-original="#d5e8fe"></path><path fill="#ffd237" d="m301 91-30 30H121L91 91H30v255h452V91z" opacity="1" data-original="#ffd237"></path><path fill="#ffb037" d="M482 91H301l-30 30h-15v225h226z" opacity="1" data-original="#ffb037"></path><path fill="#ffeb95" d="M256 91H91v105c0 24.814 20.186 45 45 45s45-20.186 45-45c0-8.276 6.724-15 15-15s15 6.724 15 15v30c0 24.814 20.186 45 45 45s45-20.186 45-45V91z" opacity="1" data-original="#ffeb95"></path><path fill="#ffd237" d="M301 226V91h-45v180c24.814 0 45-20.186 45-45" opacity="1" data-original="#ffd237"></path><path fill="#d5e8fe" d="M256 331H0v30h512v-30z" opacity="1" data-original="#d5e8fe"></path><path fill="#b5dbff" d="M256 331h256v30H256z" opacity="1" data-original="#b5dbff"></path></g></svg>