<svg xmlns="http://www.w3.org/2000/svg" version="1.1" xmlns:xlink="http://www.w3.org/1999/xlink" width="512" height="512" x="0" y="0" viewBox="0 0 512 512" xml:space="preserve"><g><path fill="#6ad3ad" d="m512 82.955-5.08 12.92-5.9 15c-.22-.08-21.94-8.33-49.26-6.52-28.78 1.91-52.88 13.94-71.87 35.83 4.11-1.61 8.75-3.06 13.86-4.09 19.43-3.95 49.44-2.61 82.07 26.22l-19.91 22.47c-18.33-16.2-36.83-22.77-54.96-19.53-13.03 2.33-21.69 9.1-22.72 9.92l-21.38-20.58-36.73-35.37c43.26-45.15 31.49-96.49 30.96-98.66l29.16-7.25c.61 2.45 12.9 53.58-20.92 104.82 29.91-33 65.35-42.28 91.78-43.79 33.69-1.93 59.81 8.18 60.9 8.61" opacity="1" data-original="#6ad3ad"></path><path fill="#49b2a3" d="M379.89 140.185c4.11-1.61 8.75-3.06 13.86-4.09 19.43-3.95 49.44-2.61 82.07 26.22l-19.91 22.47c-18.33-16.2-36.83-22.77-54.96-19.53-13.03 2.33-21.69 9.1-22.72 9.92l-21.38-20.58c5.53-12.89 8.93-20.78 8.93-20.78 24.299-24.338 66.105-60.077 141.14-37.94l-5.9 15c-.22-.08-21.94-8.33-49.26-6.52-28.78 1.91-52.88 13.94-71.87 35.83" opacity="1" data-original="#49b2a3"></path><path fill="#f28b44" d="M408.53 232.875c0 25.15-7.67 48.63-21.85 67.53-2.99 4-6.28 7.8-9.85 11.36q-5.205 5.19-10.86 10.35c-33.06 30.18-77.64 59.61-132.77 87.62l-4.58 2.33-30.91-5.88-2.95 22.11-7.63 3.42c-84.77 38-158.22 58.83-161.31 59.7L0 498.685l7.29-25.78c1.34-4.76 26.15-91.48 70.61-184.12 4.5-9.4 9.22-18.85 14.13-28.3 10.39-19.98 21.67-39.88 33.8-58.94l3.75-5.91 47.54-6.32-8.78-45.97 4.91-5.52c4.82-5.41 9.58-10.47 14.16-15.04 46.13-46.01 126.14-41.06 178.37 11.03 27.17 27.1 42.75 63.2 42.75 99.06" opacity="1" data-original="#f28b44"></path><path fill="#f76937" d="M408.53 232.875c0 30.48-11.26 58.5-31.7 78.89-33.89 33.8-82.21 66.76-143.63 97.97l-4.58 2.33-30.91-5.88-2.95 22.11-7.63 3.42c-84.77 38-158.22 58.83-161.31 59.7L0 498.685l365.78-364.87c27.17 27.1 42.75 63.2 42.75 99.06" opacity="1" data-original="#f76937"></path><path fill="#ce3858" d="M386.68 300.405c-2.99 4-6.28 7.8-9.85 11.36q-5.205 5.19-10.86 10.35l-56.99-56.98 21.22-21.22z" opacity="1" data-original="#ce3858"></path><path fill="#f76937" d="m139.66 308.115-21.22 21.22-40.54-40.55c4.5-9.4 9.22-18.85 14.13-28.3z" opacity="1" data-original="#f76937"></path></g></svg>