<svg xmlns="http://www.w3.org/2000/svg" version="1.1" xmlns:xlink="http://www.w3.org/1999/xlink" width="512" height="512" x="0" y="0" viewBox="0 0 511.999 511.999" xml:space="preserve"><g><path fill="#f5e9d5" d="M489.097 258.572c0-32.655-18.664-62.311-46.963-76.962a87 87 0 0 0 4.12-26.467c0-23.123-9.004-44.862-25.354-61.214s-38.09-25.355-61.214-25.355a87.1 87.1 0 0 0-26.469 4.121c-14.651-28.299-44.305-46.962-76.961-46.962s-62.309 18.663-76.959 46.962a87 87 0 0 0-26.469-4.121c-23.12 0-44.859 9.004-61.218 25.356-23.098 23.103-30.862 57.284-21.194 87.663-28.318 14.646-46.999 44.31-46.999 76.979v59.735l230.916 34.635 234.764-34.726z" opacity="1" data-original="#f5e9d5"></path><path fill="#edd8b6" d="M284.194 248.635c-10.685-10.685-24.891-16.568-40.002-16.568-9.623 0-19.088 2.43-27.37 7.025l-16.469 9.14-5.222-18.097c-6.95-24.087-29.308-40.909-54.369-40.909v-30c32.656 0 62.311 18.663 76.962 46.962a87 87 0 0 1 26.468-4.121c23.124 0 44.864 9.005 61.215 25.355z" opacity="1" data-original="#edd8b6"></path><path fill="#edd8b6" d="M489.097 258.572c0-32.655-18.664-62.311-46.963-76.962a87 87 0 0 0 4.12-26.467c0-23.123-9.004-44.862-25.354-61.214s-38.09-25.355-61.214-25.355a87.1 87.1 0 0 0-26.469 4.121c-14.651-28.299-44.305-46.962-76.961-46.962q-.129.002-.256.005v326.959l233.097-34.479z" opacity="1" data-original="#edd8b6"></path><path fill="#e6c897" d="m387.112 235.228-29.061-7.445c2.351-9.176 2.306-18.946-.129-28.258-3.822-14.62-13.108-26.875-26.146-34.509l15.156-25.889c19.954 11.682 34.165 30.437 40.014 52.809 3.721 14.225 3.779 29.196.166 43.292M305.407 227.422C291.874 213.89 274.645 205.408 256 202.88v30.427c10.605 2.241 20.35 7.485 28.194 15.329z" opacity="1" data-original="#e6c897"></path><path fill="#00a66c" d="M432.999 397.26H342.43l4.569-30 71.383-64h93.617v15c0 43.56-35.439 79-79 79" opacity="1" data-original="#00a66c"></path><path fill="#59c36a" d="M168.991 397.26H79c-43.561 0-79-35.438-79-78.999v-15l94.193-.001 70.807 64z" opacity="1" data-original="#59c36a"></path><path fill="#00a66c" d="M317.49 486.266H195.023l-27.502-119.002h177.471z" opacity="1" data-original="#00a66c"></path><path fill="#008455" d="m317.49 486.266 27.502-119.002H256v119.002z" opacity="1" data-original="#008455"></path><path fill="#97de3d" d="M333.806 285.26c-38.927 0-71.345 28.308-77.807 65.414-6.462-37.106-38.88-65.414-77.807-65.414H90.359v33.001c0 43.561 35.439 78.999 79 78.999h173.28c43.561 0 79-35.438 79-78.999V285.26z" opacity="1" data-original="#97de3d"></path><path fill="#59c36a" d="M333.806 285.26c-38.926 0-71.345 28.308-77.807 65.414v46.586h86.64c43.561 0 79-35.438 79-78.999V285.26z" opacity="1" data-original="#59c36a"></path></g></svg>