<svg xmlns="http://www.w3.org/2000/svg" version="1.1" xmlns:xlink="http://www.w3.org/1999/xlink" width="512" height="512" x="0" y="0" viewBox="0 0 512 512" xml:space="preserve"><g><path fill="#5be167" d="M294.874 512h-9.149l-23.713-131.177 23.713-165.895 57.004-82.896h72.45l-72.005 104.131V463.7c0 26.675-21.625 48.3-48.3 48.3" opacity="1" data-original="#5be167"></path><path fill="#8df730" d="M217.126 512h9.149L256 410.557l-29.725-195.629-57.004-82.896h-72.45l72.005 104.131V463.7c0 26.675 21.625 48.3 48.3 48.3" opacity="1" data-original="#8df730"></path><path fill="#19a68f" d="M118.427 189.521c-36.058 0-65.394-29.336-65.394-65.394s29.336-65.394 65.394-65.394 65.394 29.336 65.394 65.394-29.336 65.394-65.394 65.394" opacity="1" data-original="#19a68f"></path><path fill="#108476" d="M393.573 189.521c-36.058 0-65.394-29.336-65.394-65.394s29.336-65.394 65.394-65.394 65.394 29.336 65.394 65.394-29.336 65.394-65.394 65.394" opacity="1" data-original="#108476"></path><path fill="#c2f973" d="M226.275 102.03V512H256l12.618-187.886L256 102.03z" opacity="1" data-original="#c2f973"></path><path fill="#8df730" d="M256 102.03h29.725V512H256z" opacity="1" data-original="#8df730"></path><path fill="#22d683" d="M216.22 0c-36.401 0-66.015 29.614-66.015 66.015s29.614 66.015 66.015 66.015c14.529 0 28.431-4.744 39.78-13.328l18.141-53.698L256 13.328C244.651 4.744 230.749 0 216.22 0" opacity="1" data-original="#22d683"></path><path fill="#19a68f" d="M295.781 0C281.252 0 267.349 4.744 256 13.328v105.373c11.349 8.585 25.252 13.328 39.781 13.328 36.401 0 66.015-29.614 66.015-66.015S332.181 0 295.781 0" opacity="1" data-original="#19a68f"></path></g></svg>