<svg xmlns="http://www.w3.org/2000/svg" version="1.1" xmlns:xlink="http://www.w3.org/1999/xlink" width="512" height="512" x="0" y="0" viewBox="0 0 512.425 512.425" xml:space="preserve"><g><path fill="#d8f469" d="m176.166 414.573-77.729-77.72-37.361-63.427c-37.025 28.348-51.71 71.584-45.189 117.773l2.365 16.767 86.803 86.792 16.756 2.365a129 129 0 0 0 18.043 1.268c39.921 0 74.845-14.263 99.493-46.456z" opacity="1" data-original="#d8f469"></path><path fill="#b8dc38" d="M137.299 375.71 61.65 451.359l43.404 43.399 16.756 2.365a129 129 0 0 0 18.043 1.268c39.921 0 74.845-14.263 99.493-46.456l-63.18-37.362z" opacity="1" data-original="#b8dc38"></path><path fill="#d8f469" d="m120.502 229.735 3.355-53.146 29.94 1.89-3.355 53.146z" opacity="1" data-original="#d8f469"></path><path fill="#b8dc38" d="m246.425 407.312 55.665-4.244 2.28 29.91-55.665 4.244zM149.367 61.996l-8.855-6.766-9.034 6.525c-3.854 2.784-37.676 28.218-38.148 63.373s32.652 61.488 36.432 64.375l8.855 6.766 9.034-6.525c3.854-2.784 37.676-28.218 38.148-63.373s-32.652-61.488-36.432-64.375" opacity="1" data-original="#b8dc38"></path><path fill="#6bc900" d="M418.997 407.444c-2.866-3.752-28.846-36.436-63.629-36.436-.246 0-.499.002-.745.005-35.155.472-60.589 34.293-63.374 38.148l-6.525 9.035 6.767 8.855c2.866 3.752 28.846 36.435 63.63 36.435.246 0 .499-.001.745-.005 35.154-.472 60.588-34.293 63.373-38.148l6.525-9.035z" opacity="1" data-original="#6bc900"></path><path fill="#b8dc38" d="M292.71 94.918 61.075 273.663l24.288 71.329 82.665 82.655 71.318 24.288 178.825-231.781z" opacity="1" data-original="#b8dc38"></path><path fill="#6bc900" d="m126.692 386.316 41.336 41.331 71.318 24.288 178.825-231.781-62.714-62.602z" opacity="1" data-original="#6bc900"></path><path fill="#ede9e8" d="M88.975 424.034 51.99 371.008c-35.152 30.903-31.687 27.845-31.967 28.124-25.869 25.87-25.869 67.971 0 93.853 12.536 12.536 29.204 19.44 46.932 19.44 17.713 0 34.366-6.892 46.898-19.407.451-.443-1.892 2.248 28.228-32.01z" opacity="1" data-original="#ede9e8"></path><path fill="#e1d5ce" d="M20.024 492.985c12.536 12.536 29.204 19.44 46.932 19.44 17.713 0 34.366-6.892 46.898-19.407.451-.443-1.892 2.248 28.228-32.01l-53.107-36.974z" opacity="1" data-original="#e1d5ce"></path><path fill="#6bc900" d="M506.945 176.455c-.825-.669-18.313-14.68-41.603-20.766a36.6 36.6 0 0 0 1.446-10.209c-.011-10.63-4.694-20.742-13.064-28.603 17.562-27.74 13.763-63.705 13.568-65.332l-.581-5.248-6.294-1.044c-1.623-.195-37.494-4.479-65.233 13.077-7.856-8.341-17.953-13.008-28.556-13.019h-.072c-3.455 0-6.837.477-10.121 1.423-6.097-23.253-20.078-40.712-20.746-41.537L331.476 0l-5.644 3.595c-.3.191-7.456 4.771-16.676 12.517-29.606 24.868-37.75 67.735-19.362 101.932 3.03 5.628 4.718 12.12 4.879 18.717l.011.631c.312 12.697-4.976 24.777-14.51 33.145-49.246 43.224-165.582 145.371-224.258 196.953l-3.945 3.469 25.485 64.594 64.625 25.455 3.479-3.957C192.291 403.9 279.6 304.456 326.505 251.03l16.029-18.256a42.61 42.61 0 0 1 33.046-14.521l.556.01c6.626.148 13.176 1.889 19.471 5.176 17.372 9.061 37.505 11.609 56.694 7.174a82.48 82.48 0 0 0 48.183-31.931c5.293-7.298 8.197-12.581 8.318-12.802l3.001-5.487z" opacity="1" data-original="#6bc900"></path><path fill="#00a600" d="M506.945 176.455c-.825-.669-18.313-14.68-41.603-20.766a36.6 36.6 0 0 0 1.446-10.209c-.011-10.63-4.694-20.742-13.064-28.603 17.562-27.74 13.763-63.705 13.568-65.332l-.581-5.248L77.456 435.553l64.625 25.455 3.479-3.957C192.291 403.9 279.6 304.456 326.505 251.03l16.029-18.256a42.61 42.61 0 0 1 33.046-14.521l.556.01c6.626.148 13.176 1.889 19.471 5.176 17.372 9.061 37.505 11.609 56.694 7.174a82.48 82.48 0 0 0 48.183-31.931c5.293-7.298 8.197-12.581 8.318-12.802l3.001-5.487z" opacity="1" data-original="#00a600"></path></g></svg>