<svg xmlns="http://www.w3.org/2000/svg" version="1.1" xmlns:xlink="http://www.w3.org/1999/xlink" width="512" height="512" x="0" y="0" viewBox="0 0 512.195 512.195" xml:space="preserve"><g><path fill="#ffecd2" d="M512.194 197.407c-.004-34.368-11.954-67.975-33.65-94.629S426.367 57.6 392.715 50.622l-14.438-2.994a603 603 0 0 0-122.188-12.536 603 603 0 0 0-122.206 12.54l-14.407 2.988c-33.654 6.98-64.137 25.505-85.832 52.163C11.948 129.44 0 163.05 0 197.42v6.664c0 67.828 55.183 123.01 123.011 123.01h39.302v150.01h187.569v-150.01h39.303c32.859 0 63.752-12.797 86.986-36.033s36.027-54.129 36.024-86.989z" opacity="1" data-original="#ffecd2"></path><path fill="#ffe0b8" d="M512.194 197.407c-.004-34.368-11.954-67.975-33.65-94.629S426.367 57.6 392.715 50.622l-14.438-2.994a603 603 0 0 0-122.18-12.536v442.012h93.784v-150.01h39.303c32.859 0 63.752-12.797 86.986-36.033s36.027-54.129 36.024-86.989z" opacity="1" data-original="#ffe0b8"></path><path fill="#814f2b" d="M389.185 203.771h-39.303v123.323h39.303c34.001 0 61.662-27.661 61.662-61.662s-27.661-61.661-61.662-61.661M61.349 265.433c0 34 27.661 61.661 61.662 61.661h39.302V203.771h-39.302c-34.001 0-61.662 27.661-61.662 61.662" opacity="1" data-original="#814f2b"></path><path fill="#5c3629" d="M389.185 203.771h-39.303v123.323h39.303c34.001 0 61.662-27.661 61.662-61.662s-27.661-61.661-61.662-61.661" opacity="1" data-original="#5c3629"></path></g></svg>