<svg xmlns="http://www.w3.org/2000/svg" version="1.1" xmlns:xlink="http://www.w3.org/1999/xlink" width="512" height="512" x="0" y="0" viewBox="0 0 511 511" xml:space="preserve"><g><path fill="#00a600" d="M445.76 160.63c-3.59-7.192-6.979-13.985-8.675-20.203-1.941-7.12-2.67-15.188-3.441-23.728-1.382-15.284-2.81-31.089-11.563-44.479-10.533-16.109-26.927-23.677-41.392-30.354-6.014-2.776-11.693-5.397-16.271-8.336-4.489-2.881-9.075-6.55-13.931-10.435C336.957 12.27 321.622 0 301.5 0c-20.12 0-35.453 12.268-48.982 23.092a444 444 0 0 1-6.177 4.884l-.002 355.224c2.027 1.562 4.042 3.176 6.176 4.883 13.529 10.825 28.864 23.095 48.985 23.095 20.122 0 35.457-12.271 48.987-23.096 4.854-3.885 9.44-7.555 13.928-10.434 4.579-2.938 10.259-5.561 16.272-8.336 14.465-6.678 30.859-14.245 41.394-30.355 8.753-13.39 10.181-29.194 11.562-44.479.771-8.541 1.5-16.608 3.441-23.729 1.695-6.218 5.085-13.011 8.675-20.203 6.512-13.048 13.892-27.837 13.892-44.958s-7.379-31.91-13.891-44.958" opacity="1" data-original="#00a600"></path><path fill="#ff3997" d="M286.5 313.529h30V511h-30z" opacity="1" data-original="#ff3997"></path><path fill="#b8dc38" d="M353.76 160.63c-3.59-7.192-6.979-13.985-8.675-20.203-1.941-7.12-2.67-15.188-3.441-23.728-1.382-15.284-2.81-31.089-11.563-44.479-10.533-16.109-26.927-23.677-41.392-30.354-6.014-2.776-11.693-5.397-16.271-8.336-4.489-2.881-9.075-6.55-13.931-10.435C244.957 12.27 229.622 0 209.5 0c-20.121 0-35.456 12.27-48.986 23.095-4.855 3.886-9.442 7.555-13.93 10.436-4.579 2.938-10.259 5.56-16.272 8.336-14.465 6.675-30.859 14.243-41.392 30.354-8.754 13.39-10.182 29.194-11.563 44.479-.772 8.54-1.501 16.607-3.442 23.727-1.695 6.218-5.085 13.011-8.674 20.202-6.512 13.048-13.893 27.838-13.893 44.959s7.381 31.911 13.893 44.96c3.589 7.191 6.979 13.984 8.674 20.202 1.941 7.12 2.67 15.188 3.442 23.728 1.381 15.284 2.809 31.089 11.562 44.478 10.533 16.11 26.926 23.678 41.391 30.354 6.014 2.776 11.694 5.398 16.273 8.337 4.489 2.881 9.076 6.551 13.932 10.436 13.529 10.825 28.864 23.095 48.985 23.095 20.122 0 35.457-12.271 48.986-23.096 4.855-3.885 9.441-7.554 13.929-10.434 4.579-2.938 10.259-5.561 16.272-8.336 14.465-6.678 30.859-14.245 41.394-30.355 8.753-13.39 10.181-29.194 11.562-44.479.771-8.541 1.5-16.608 3.441-23.729 1.695-6.218 5.085-13.011 8.675-20.203 6.512-13.048 13.892-27.837 13.892-44.958s-7.379-31.91-13.891-44.958" opacity="1" data-original="#b8dc38"></path><path fill="#6bc900" d="M353.76 160.63c-3.59-7.192-6.979-13.985-8.675-20.203-1.941-7.12-2.67-15.188-3.441-23.728-1.382-15.284-2.81-31.089-11.563-44.479-10.533-16.109-26.927-23.677-41.392-30.354-6.014-2.776-11.693-5.397-16.271-8.336-4.489-2.881-9.075-6.55-13.931-10.435C244.957 12.27 229.622 0 209.5 0v411.177c20.122 0 35.457-12.271 48.986-23.096 4.855-3.885 9.441-7.554 13.929-10.434 4.579-2.938 10.259-5.561 16.272-8.336 14.465-6.678 30.859-14.245 41.394-30.355 8.753-13.39 10.181-29.194 11.562-44.479.771-8.541 1.5-16.608 3.441-23.729 1.695-6.218 5.085-13.011 8.675-20.203 6.512-13.048 13.892-27.837 13.892-44.958s-7.379-31.909-13.891-44.957" opacity="1" data-original="#6bc900"></path><path fill="#ff7cb8" d="m298.055 237.158-21.213-21.213-52.342 52.342V214.41l53.804-53.804-21.213-21.212-32.591 32.59V105h-30v66.984l-32.591-32.59-21.212 21.212L194.5 214.41v53.877l-52.342-52.342-21.212 21.213 73.554 73.555V511h30V310.713z" opacity="1" data-original="#ff7cb8"></path><path fill="#ff3997" d="M276.842 215.945 224.5 268.287V214.41l53.804-53.804-21.213-21.212-32.591 32.59V105h-15v406h15V310.713l73.555-73.555z" opacity="1" data-original="#ff3997"></path></g></svg>