<svg xmlns="http://www.w3.org/2000/svg" version="1.1" xmlns:xlink="http://www.w3.org/1999/xlink" width="512" height="512" x="0" y="0" viewBox="0 0 512 512" xml:space="preserve"><g><path d="M314.923 364.518c0 81.326-66.157 147.482-147.482 147.482-81.316 0-147.472-66.156-147.472-147.482 0-81.316 66.157-147.472 147.472-147.472 81.326-.001 147.482 66.157 147.482 147.472" style="" fill="#e70020" data-original="#e70020"></path><path d="M314.923 364.518c0 81.326-66.157 147.482-147.482 147.482V217.046c81.326-.001 147.482 66.157 147.482 147.472" style="" fill="#990013" data-original="#990013"></path><path d="M492.032 364.518C492.032 445.844 425.875 512 344.55 512c-81.316 0-147.472-66.156-147.472-147.482 0-81.316 66.157-147.472 147.472-147.472 81.325-.001 147.482 66.157 147.482 147.472" style="" fill="#e70020" data-original="#e70020"></path><path d="M492.032 364.518C492.032 445.844 425.875 512 344.55 512V217.046c81.325-.001 147.482 66.157 147.482 147.472" style="" fill="#990013" data-original="#990013"></path><path d="M345.829 106.11c17.187-5.005 35.491-8.715 54.916-11.086l-3.636-29.777c-51.642 6.307-97.04 21.681-134.934 45.697-30.558 19.366-56.253 44.311-76.37 74.139-34.259 50.797-40.411 98.056-40.656 100.044l29.772 3.672c.051-.415 5.472-42.043 35.753-86.941 24.57-36.43 57.561-63.944 98.561-82.353-14.012 47.397-9.699 88.165-2.574 115.935 9.461 36.873 25.701 59.419 26.388 60.361l24.239-17.675c-.541-.746-52.621-74.017-11.459-172.016" style="" fill="#a17852" data-original="#a17852"></path><path d="m269.14 130.591-1.33 6.9-6.15 3.4c-19.509 10.779-38.248 16.179-56.047 16.179-12.399 0-24.319-2.62-35.738-7.85-62.167-28.529-83.106-125.954-83.966-130.094l-3.37-16.169 16.419-1.8c4.19-.46 103.315-10.699 149.682 39.578 20.75 22.489 27.649 52.728 20.5 89.856" style="" fill="#008c48" data-original="#008c48"></path><path d="m269.14 130.591-1.33 6.9L82.539 2.956l16.419-1.8c4.19-.46 103.315-10.699 149.682 39.578 20.75 22.49 27.649 52.729 20.5 89.857" style="" fill="#00743a" data-original="#00743a"></path></g></svg>