<svg xmlns="http://www.w3.org/2000/svg" version="1.1" xmlns:xlink="http://www.w3.org/1999/xlink" width="512" height="512" x="0" y="0" viewBox="0 0 512.022 512.022" xml:space="preserve"><g><path fill="#24b3b3" d="M101.958 30.023C45.738 30.023 0 75.761 0 131.98v18.598h124.042C180.262 150.578 226 104.84 226 48.621V30.023z" opacity="1" data-original="#24b3b3"></path><path fill="#24b3b3" d="M299.392 211.432c-18.606-18.606-33.146-40.367-43.216-64.678S241 96.774 241 70.46V.023h-15l-10 304.073h25v-120.2c10.111 17.796 22.551 34.121 37.179 48.749l33.791 33.791 21.213-21.213z" opacity="1" data-original="#24b3b3"></path><path fill="#2ee6a8" d="M211 .023h15v304.073h-15z" opacity="1" data-original="#2ee6a8"></path><path fill="#d10050" d="M399.454 196.595c-39.749-1.129-67.206 26.482-74.675 34.973a294 294 0 0 1-26.464 26.464c-8.489 7.472-36.103 34.927-34.973 74.675.822 28.922 16.598 55.624 46.89 79.361 34.738 27.222 67.889 37.786 98.532 31.401 33.57-6.996 52.939-32.446 59.26-42.191 3.856-2.501 10.167-7.042 16.824-13.7 10.168-10.169 21.139-25.273 25.367-45.561 6.386-30.643-4.178-63.794-31.4-98.531-23.737-30.293-50.438-46.07-79.361-46.891" opacity="1" data-original="#d10050"></path><path fill="#b40042" d="M322.246 316.571c-27.308-28.905-66.248-28.796-77.533-28.073-6.2.397-12.456.595-18.712.595l-10 111.574 10 109.123c4.496.958 12.169 2.21 21.583 2.209 14.38 0 32.818-2.923 50.154-14.279 26.183-17.152 42.154-48.063 47.469-91.875 4.634-38.206-3.091-68.242-22.961-89.274" opacity="1" data-original="#b40042"></path><path fill="#d10050" d="M207.287 288.497c-11.286-.72-50.226-.832-77.533 28.073-19.87 21.032-27.595 51.068-22.96 89.273 5.314 43.812 21.286 74.724 47.469 91.876 28.685 18.791 60.376 14.491 71.737 12.07V289.093c-6.256 0-12.512-.199-18.713-.596" opacity="1" data-original="#d10050"></path></g></svg>