<svg xmlns="http://www.w3.org/2000/svg" version="1.1" xmlns:xlink="http://www.w3.org/1999/xlink" width="512" height="512" x="0" y="0" viewBox="0 0 512 512" xml:space="preserve"><g><path fill="#f3f5f9" d="M60.066 494.671c-7.646-7.617-13.008-16.948-15.732-27.07-10.225-2.739-19.482-8.159-26.865-15.82-22.81-22.389-23.836-60.569.205-84.609 19.57-19.57 49.717-22.676 72.803-9.199l60.887-61.238 63.457 63.882-60.711 61.018c13.503 22.603 10.814 52.816-9.346 72.949-23.276 23.273-61.265 23.141-84.698.087" opacity="1" data-original="#f3f5f9"></path><path fill="#e1e6f0" d="m154.109 421.634 60.711-61.018-31.798-32.01L44.333 467.601c2.725 10.122 8.086 19.453 15.732 27.07 23.434 23.053 61.423 23.187 84.697-.088 20.161-20.134 22.849-50.347 9.347-72.949" opacity="1" data-original="#e1e6f0"></path><path fill="#ffbd86" d="m214.966 402.671-106.201-106.04 10.723-10.605c25.4-25.122 40.459-58.916 42.393-95.127 2.344-49.746 25.605-100.063 63.779-137.959 72.754-73.033 165.448-68.12 233.32.073 70.693 70.679 70.693 162.246 0 233.262l-.059.059c-38.525 38.188-88.798 61.406-137.958 63.735-35.713 1.626-69.609 16.611-95.479 42.188z" opacity="1" data-original="#ffca80"></path><path fill="#fed2a4" d="M458.79 52.837 161.921 349.706l53.046 52.965 10.518-10.415c25.869-25.576 59.766-40.562 95.479-42.188 49.16-2.329 99.434-25.547 137.959-63.735l.059-.059c70.693-71.016 70.693-162.583 0-233.262-.064-.061-.13-.113-.192-.175" opacity="1" data-original="#ff9f40"></path><path fill="#ffbd86" d="M419.546 122.988h30v30h-30zM389.546 182.988h30v30h-30zM359.546 242.988h30v30h-30z" opacity="1" data-original="#ffca80"></path><path fill="#f8e5ca" d="M359.546 122.988h30v30h-30zM359.546 62.988h30v30h-30z" opacity="1" data-original="#fff2b3"></path><path fill="#ffbd86" d="M389.546 122.988h-.908l-29.092 29.092v.908h30z" opacity="1" data-original="#ffca80"></path></g></svg>