<svg xmlns="http://www.w3.org/2000/svg" version="1.1" xmlns:xlink="http://www.w3.org/1999/xlink" width="512" height="512" x="0" y="0" viewBox="0 0 508 508" xml:space="preserve"><g><path fill="#f6f2f1" d="M404.082 0H103.918C78.231 0 57.333 20.898 57.333 46.585v414.83c0 25.687 20.898 46.585 46.585 46.585h300.164c25.687 0 46.585-20.898 46.585-46.585V46.585C450.667 20.898 429.769 0 404.082 0" opacity="1" data-original="#f6f2f1"></path><path fill="#e6e6e9" d="M404.082 0H254v508h150.081c25.687 0 46.585-20.898 46.585-46.585V46.585C450.667 20.898 429.769 0 404.082 0" opacity="1" data-original="#e6e6e9"></path><path fill="#ffbd86" d="M319.399 70.939c-15.475-.794-30.623 3.543-43.809 12.524-11.386 7.755-21.776 14.335-31.766 20.116-10.556 6.108-21.659 12.95-34.939 21.531-9.656 6.239-24.629 13.519-41.158 12.823-13.822-.587-27.586 4.446-37.726 13.818-10.022 9.264-15.81 21.81-16.297 35.337q-.038 1.07-.038 2.15c0 15.508 6.033 30.129 16.555 40.133l2.093 2.035 255.88-35.996.938-2.694c3.401-10.119 5.151-20.792 5.202-31.72.222-48.348-32.693-87.907-74.935-90.057" opacity="1" data-original="#ffc3d2"></path><path fill="#ea9b58" d="M319.399 70.939c-15.475-.794-30.623 3.543-43.809 12.524-7.581 5.164-14.715 9.797-21.59 14.03V214.29l134.194-18.878.938-2.694c3.401-10.119 5.151-20.792 5.202-31.72.222-48.35-32.693-87.909-74.935-90.059" opacity="1" data-original="#ff96b4"></path><path fill="#fed2a4" d="M319.399 140.997c-15.475-.792-30.623 3.543-43.809 12.524-8.814 6.004-13.698-.736-21.59 4.031-2.307 1.393-7.918 4.779-10.176 6.086-10.546 6.102-21.649 12.944-34.94 21.532-9.655 6.238-24.634 13.525-41.157 12.823-13.834-.589-27.587 4.446-37.726 13.818-10.022 9.264-15.81 21.81-16.297 35.337q-.038 1.07-.038 2.151c0 14.975 5.697 29.273 15.572 39.171l2.839 2.877 256.626-36.493 1.104-4.165c2.957-9.498 4.479-19.465 4.526-29.632.223-48.352-32.692-77.911-74.934-80.06" opacity="1" data-original="#ffe1e6"></path><path fill="#ffbd86" d="M319.399 130.997c-15.475-.792-30.623 3.543-43.809 12.524-7.583 5.165-14.718 9.799-21.59 14.031v116.456l134.703-19.155 1.104-4.165c2.957-9.498 4.479-19.465 4.526-29.632.223-48.351-32.692-87.91-74.934-90.059" opacity="1" data-original="#ffc3d2"></path><path fill="#ffbd86" d="M319.399 191.053c-15.475-.791-30.623 3.543-43.809 12.524-8.613 5.867-16.654 11.059-24.382 15.741a421 421 0 0 1-7.385 4.375c-10.556 6.108-21.659 12.95-34.939 21.531-9.656 6.239-24.629 13.525-41.158 12.823-13.771-.593-27.511 4.469-37.684 13.871-10.051 9.291-15.854 21.818-16.339 35.284q-.038 1.07-.038 2.15c0 15.225 5.856 29.681 16.067 39.663l3.093 2.807 254.832-35.555a63 63 0 0 0 2.898-8.048c2.463-8.733 3.734-17.854 3.778-27.108.223-48.349-32.692-87.908-74.934-90.058" opacity="1" data-original="#ffc3d2"></path><path fill="#ea9b58" d="M319.399 191.053c-15.475-.791-30.623 3.543-43.809 12.524-7.583 5.165-14.717 9.799-21.59 14.03v117.308l133.658-18.648a63 63 0 0 0 2.898-8.048c2.463-8.733 3.734-17.854 3.778-27.108.222-48.349-32.693-87.908-74.935-90.058" opacity="1" data-original="#ff96b4"></path><path fill="#fed2a4" d="M348.96 267.727c-14.043-5.959-29.648-7.189-44.593-4.128-9.677 1.982-21.723 5.23-28.777 10.035-8.577 5.842-13.893-.636-21.59 4.031-2.525 1.531-7.71 4.659-10.176 6.086-10.546 6.102-21.649 12.944-34.94 21.532-9.655 6.238-24.634 13.531-41.157 12.823-13.834-.592-27.587 4.446-37.726 13.818-10.022 9.264-15.81 21.81-16.297 35.337q-.038 1.07-.038 2.151c0 28.128 19.653 51.212 44.743 52.552l156.607 8.368.8.021c21.361 0 41.319-9.584 56.199-26.986 14.284-16.706 22.209-38.794 22.318-62.198.168-36.263-18.305-61.955-45.373-73.442" opacity="1" data-original="#ffe1e6"></path><path fill="#ffbd86" d="M319.4 251.11c-15.476-.789-30.624 3.542-43.81 12.524-7.583 5.165-14.718 9.799-21.59 14.031V427.07l61.016 3.26.8.021c21.361 0 41.319-9.584 56.199-26.986 14.284-16.706 22.209-38.794 22.318-62.198.223-48.349-32.692-87.907-74.933-90.057" opacity="1" data-original="#ffc3d2"></path></g></svg>