<svg xmlns="http://www.w3.org/2000/svg" version="1.1" xmlns:xlink="http://www.w3.org/1999/xlink" width="512" height="512" x="0" y="0" viewBox="0 0 512 512" xml:space="preserve"><g><path d="M334.701 157.299C365.9 186.4 452.3 243.699 476 331c3.9 14.099 6 29.099 6 45 0 65.7-224.2 90-346 90C61.601 466 0 405.399 0 331c0-78.3 51.4-135 121-135 11.7 0 14.399-6.601 16.8-10.8 7.8-9.302 31-136.5 171.099-139.2C412.4 46.901 512 67 512 91c0 31.199-174.3 65.4-177.299 66.299" style="" fill="#fed2a4" data-original="#fed2a4"></path><path d="M482 376c0 65.7-224.2 90-346 90C61.601 466 0 405.399 0 331h476c3.9 14.099 6 29.099 6 45" style="" fill="#ffbd86" data-original="#ffbd86"></path><path d="M121 316h30v30h-30zM151 256h30v30h-30z" style="" fill="#ffbd86" data-original="#ffbd86"></path><path d="M151 376h30v30h-30z" style="" fill="#f6a96c" data-original="#f6a96c"></path><path d="M181 316h30v30h-30z" style="" fill="#ffbd86" data-original="#ffbd86"></path><path d="M211 376h30v30h-30z" style="" fill="#f6a96c" data-original="#f6a96c"></path><path d="M91 256h30v30H91zM61 316h30v30H61z" style="" fill="#ffbd86" data-original="#ffbd86"></path><path d="M91 376h30v30H91zM61 331h30v15H61zM121 331h30v15h-30zM181 331h30v15h-30z" style="" fill="#f6a96c" data-original="#f6a96c"></path></g></svg>