<svg xmlns="http://www.w3.org/2000/svg" version="1.1" xmlns:xlink="http://www.w3.org/1999/xlink" width="512" height="512" x="0" y="0" viewBox="0 0 512 512" xml:space="preserve"><g><path fill="#fed2a4" d="m9.935 174.856 104.922 291.815c3.947 10.977 10.241 20.136 18.024 27.281l10.014-245.847L132.881 0C42.414 0-20.674 89.725 9.935 174.856" opacity="1" data-original="#ffb366"></path><path fill="#ffbd86" d="M482.15 225.838c-4.556-42.417-47.173-66.317-83.947-53.751l-10.021 11.242-15.754 4.714-27.115 22.272-2.69 20.449-20.526-1.381-26.443 21.72-19.221 25.802-21.848 7.931 8.716-146.42C267.771 63.338 208.091 0 132.881 0v493.953c25.515 23.428 67.033 25.215 94.34-1.557l142.11-139.329 18.56 2.927-1.696 22.612 50.706 76.793a63.83 63.83 0 0 0 53.268 28.66h19.714z" opacity="1" data-original="#ff9933"></path><path fill="#ea9b58" d="m378.168 183.328-5.739 4.714 43.137 52.518 23.215-19.068-40.574-49.398c-6.993 2.387-13.772 6.086-20.039 11.234" opacity="1" data-original="#cc7a29"></path><path fill="#ffbd86" d="M70.079 94.201h30.043v30.043H70.079z" opacity="1" data-original="#ff9933"></path><path fill="#ea9b58" d="M165.117 111.164h30.043v30.043h-30.043zM153.415 260.685h30.043v30.043h-30.043z" opacity="1" data-original="#cc7a29"></path><path fill="#ffbd86" d="M97.384 189.406h30.043v30.043H97.384z" opacity="1" data-original="#ff9933"></path><g fill="#cc7a29"><path d="m322.245 229.34 23.223-19.077 38.585 46.97-23.223 19.077zM338.222 302.925l-42.567-51.823-41.054 33.72-3.594 60.389 29.989 1.786 3.686-61.922 30.326 36.919z" fill="#ea9b58" opacity="1" data-original="#000000"></path></g><path fill="#ea9b58" d="m369.331 353.067 16.863 25.539 34.026-33.361-21.032-21.452z" opacity="1" data-original="#cc7a29"></path></g></svg>