<svg xmlns="http://www.w3.org/2000/svg" version="1.1" xmlns:xlink="http://www.w3.org/1999/xlink" width="512" height="512" x="0" y="0" viewBox="0 0 512 512" xml:space="preserve"><g><path d="M346.481 144.254c11.794-11.425 19.071-27.396 19.071-44.734 0-30.9-22.63-56.62-52.18-61.46-9.6-22.6-32.16-38.06-57.37-38.06s-47.77 15.46-57.37 38.06c-29.55 4.84-52.18 30.56-52.18 61.46 0 17.338 7.277 33.309 19.071 44.734z" style="" fill="#11a892" data-original="#11a892"></path><path d="M346.481 144.254c11.794-11.425 19.071-27.396 19.071-44.734 0-30.9-22.63-56.62-52.18-61.46-9.6-22.6-32.16-38.06-57.37-38.06v144.254z" style="" fill="#0f9887" data-original="#0f9887"></path><path d="m390.762 233.811-134.76-116.59-134.76 116.59c-51.239-2.908-77.098-62.825-44.44-101.97-7.52-23.38-.58-49.83 18.49-66.32 19.06-16.5 46.24-19.57 68.29-8.76 34.906-21.442 81.271-3.709 92.42 36.15 11.122-39.761 57.444-57.635 92.42-36.15 22.05-10.81 49.23-7.74 68.29 8.76 19.07 16.49 26.01 42.94 18.49 66.32 32.611 39.089 6.887 99.057-44.44 101.97" style="" fill="#83e46f" data-original="#83e46f"></path><path d="m390.762 233.811-134.76-116.59v-24.31c11.122-39.761 57.444-57.635 92.42-36.15 22.05-10.81 49.23-7.74 68.29 8.76 19.07 16.49 26.01 42.94 18.49 66.32 32.611 39.089 6.887 99.057-44.44 101.97" style="" fill="#2dd729" data-original="#2dd729"></path><path d="M256.002 87.88c-37.12 0-72.29 14.11-99.52 40.05-28.48 27.14-44.43 63.58-44.9 102.6-.325 25.27 3.632 26.274 13.59 90.06L152.565 512h206.874c31.884-215.648 27.111-198.916 37.873-249.69 18.959-89.859-49.422-174.43-141.31-174.43" style="" fill="#bdf052" data-original="#bdf052"></path><path d="M256.002 87.88V512h103.437c31.884-215.648 27.111-198.916 37.873-249.69 18.959-89.859-49.422-174.43-141.31-174.43" style="" fill="#92d700" data-original="#92d700"></path><path d="M241.002 315.66c-47.61-17.86-49.56-18.3-50.65-18.55l-6.68 29.24c-.17-.03-.45-.1-.84-.22 3.46 1.1 35.35 13 58.17 21.58V512h30V347.71c22.82-8.58 54.71-20.48 58.17-21.58-.39.12-.67.19-.84.22l-6.68-29.24c-1.09.25-3.04.69-50.65 18.55v-35.03c30.71-11.19 74.84-27.17 80.63-29q-.27.06-.42.09l-6.46-29.3c-1.1.25-3.9.87-73.75 26.28v-35.97c21.18-7.94 46.17-17.26 50.25-18.62-.25.07-.44.11-.56.14l-6.68-29.25c-1.04.23-2.83.65-43.01 15.69v-31.24h-30v31.24c-40.18-15.04-41.97-15.46-43.01-15.69l-6.68 29.25c-.12-.03-.31-.07-.56-.14 4.08 1.36 29.07 10.68 50.25 18.62v35.97c-69.85-25.41-72.65-26.03-73.75-26.28l-6.46 29.3q-.15-.03-.42-.09c5.79 1.83 49.92 17.81 80.63 29z" style="" fill="#f0e7df" data-original="#f0e7df"></path><path d="M271.002 512V347.71c22.82-8.58 54.71-20.48 58.17-21.58-.39.12-.67.19-.84.22l-6.68-29.24c-1.09.25-3.04.69-50.65 18.55v-35.03c30.71-11.19 74.84-27.17 80.63-29q-.27.06-.42.09l-6.46-29.3c-1.1.25-3.9.87-73.75 26.28v-35.97c21.18-7.94 46.17-17.26 50.25-18.62-.25.07-.44.11-.56.14l-6.68-29.25c-1.04.23-2.83.65-43.01 15.69v-31.24h-15V512z" style="" fill="#dfcdbd" data-original="#dfcdbd"></path></g></svg>