<svg xmlns="http://www.w3.org/2000/svg" version="1.1" xmlns:xlink="http://www.w3.org/1999/xlink" width="512" height="512" x="0" y="0" viewBox="0 0 682.667 682.667" xml:space="preserve"><g><defs><clipPath id="a" clipPathUnits="userSpaceOnUse"><path d="M0 512h512V0H0Z" fill="#000000" opacity="1" data-original="#000000"></path></clipPath></defs><g clip-path="url(#a)" transform="matrix(1.33333 0 0 -1.33333 0 682.667)"><path d="m0 0-5.333 12.658L-15 15v-199.955c-20.249 6.081-38.73 16.849-54.152 31.711l-18.409 17.735-21.048-21.378 18.64-17.961C-68.904-195.145-43.191-209.24-15-216.057v-94.619H0l7 163.334z" style="fill-opacity:1;fill-rule:nonzero;stroke:none" transform="translate(255 312.676)" fill="#c4ed65" data-original="#c4ed65"></path><path d="m0 0-18.409-17.736c-15.422-14.862-33.902-25.63-54.151-31.711v199.955l-11.167-3.676-3.833-11.324v-310.676h15v94.619c28.192 6.817 53.904 20.912 74.966 41.209l18.642 17.961z" style="fill-opacity:1;fill-rule:nonzero;stroke:none" transform="translate(342.56 177.168)" fill="#a0de3a" data-original="#a0de3a"></path><path d="M0 0h-116.203c-28.252 0-51.236 22.984-51.236 51.235 0 11.767 3.976 22.949 11.16 31.932-5.547 20.335.054 42.495 15.336 57.776s37.439 20.884 57.776 15.336c8.983 7.183 20.165 11.16 31.931 11.16C-22.984 167.439 0 144.455 0 116.203Z" style="fill-opacity:1;fill-rule:nonzero;stroke:none" transform="translate(167.44 155.79)" fill="#bedf37" data-original="#bedf37"></path><path d="M0 0h-116.203v116.203c0 28.252 22.984 51.236 51.235 51.236 11.767 0 22.948-3.976 31.932-11.16 20.338 5.548 42.494-.054 57.776-15.336 15.281-15.282 20.883-37.441 15.337-57.776 7.183-8.983 11.159-20.165 11.159-31.932C51.236 22.984 28.252 0 0 0" style="fill-opacity:1;fill-rule:nonzero;stroke:none" transform="translate(458.764 155.79)" fill="#98c100" data-original="#98c100"></path><path d="M0 0c-19.221-2.143-29.868-14.264-30.47-14.688-19.976-19.976-19.975-52.481 0-72.458l82.169-82.168 9.333 94.324-9.333 105C30.088 30.01 10.457 18.301 0 0" style="fill-opacity:1;fill-rule:nonzero;stroke:none" transform="translate(203.3 481.99)" fill="#daf466" data-original="#daf466"></path><path d="M0 0c-8.32 8.321-19.037 13.415-30.47 14.689-10.457 18.299-30.087 30.008-51.698 30.008v-199.324L0-72.459C20.022-52.438 20.026-20.025 0 0" style="fill-opacity:1;fill-rule:nonzero;stroke:none" transform="translate(337.168 467.303)" fill="#bedf37" data-original="#bedf37"></path></g></g></svg>