<svg xmlns="http://www.w3.org/2000/svg" version="1.1" xmlns:xlink="http://www.w3.org/1999/xlink" width="512" height="512" x="0" y="0" viewBox="0 0 511.972 511.972" xml:space="preserve"><g><path fill="#0cba68" d="M400.333 239.146v124.283a89 89 0 0 0 17.706 1.804c36.2 0 70.376-22.088 83.945-57.895l9.831-25.943z" opacity="1" data-original="#0cba68"></path><path fill="#0dca71" d="m368.645 158.606 119.038-65.089 13.311 24.343c23.72 43.381 7.725 97.971-35.656 121.692L416 266.529z" opacity="1" data-original="#0dca71"></path><path fill="#7fe680" d="m303.827 115.939 65.037-95.508 22.932 15.616h-.001c19.798 13.481 33.16 33.864 37.626 57.395 4.466 23.53-.499 47.392-13.98 67.189l-13.148 19.308z" opacity="1" data-original="#7fe680"></path><path fill="#c57a44" d="m212.333 216.208-9.667 149.025 9.667 126.308c117.081 0 212.333-95.252 212.333-212.333v-63z" opacity="1" data-original="#c57a44"></path><path fill="#d88a55" d="M0 216.208v63c0 117.081 95.252 212.333 212.333 212.333V216.208z" opacity="1" data-original="#d88a55"></path><path fill="#f7f0eb" d="m212.333 103.208-9.667 119.398 9.667 115.269c108.984 0 197.333-52.532 197.333-117.333.001-64.803-88.348-117.334-197.333-117.334" opacity="1" data-original="#f7f0eb"></path><path fill="#fffbf5" d="M15 220.541c0 64.801 88.349 117.333 197.333 117.333V103.208C103.349 103.208 15 155.74 15 220.541" opacity="1" data-original="#fffbf5"></path><path fill="#ae6f41" d="M359.536 124.681c-39.557-23.52-91.834-36.473-147.202-36.473l-9.667 17.065 9.667 12.935c50.051 0 96.883 11.457 131.869 32.259 32.542 19.35 50.464 44.235 50.464 70.074s-17.922 50.725-50.464 70.074c-34.985 20.803-81.818 32.259-131.869 32.259l-9.667 17.065 9.667 12.935c55.368 0 107.646-12.953 147.202-36.473 42-24.973 65.131-59.017 65.131-95.86s-23.131-70.887-65.131-95.86" opacity="1" data-original="#ae6f41"></path><path fill="#c57a44" d="M80.464 290.615C47.922 271.266 30 246.38 30 220.541s17.922-50.725 50.464-70.074c34.986-20.803 81.818-32.259 131.869-32.259v-30c-55.368 0-107.645 12.953-147.202 36.473C23.131 149.654 0 183.698 0 220.541s23.131 70.887 65.131 95.86c39.557 23.52 91.834 36.473 147.202 36.473v-30c-50.051 0-96.883-11.457-131.869-32.259" opacity="1" data-original="#c57a44"></path><path fill="#e6d9d4" d="M328.871 176.253c-29.976-17.823-72.451-28.045-116.537-28.045h-.001l-9.667 74.397 9.667 70.269h.001c44.084 0 86.56-10.222 116.538-28.045 22.413-13.328 35.795-29.885 35.795-44.288 0-14.405-13.382-30.96-35.796-44.288" opacity="1" data-original="#e6d9d4"></path><path fill="#efe2dd" d="M95.796 176.253C73.382 189.58 60 206.136 60 220.541s13.382 30.96 35.796 44.289c29.975 17.823 72.451 28.044 116.536 28.044V148.208c-44.085 0-86.561 10.222-116.536 28.045" opacity="1" data-original="#efe2dd"></path></g></svg>