<svg xmlns="http://www.w3.org/2000/svg" version="1.1" xmlns:xlink="http://www.w3.org/1999/xlink" width="512" height="512" x="0" y="0" viewBox="0 0 512 511" xml:space="preserve"><g><path fill="#ffda2d" d="M496.621 15.875c-28.086-28.086-78.855-12.336-114.883 4.883a370 370 0 0 0-5.039 2.457v19.98l-27.347-4.898c-24.098 14.52-49.047 32.648-73.727 53.547l7.691 28.676-30.199-8.758c-7.281 6.699-14.5 13.64-21.64 20.777a722 722 0 0 0-10.43 10.64L176.78 335.72l192.54-44.266a764 764 0 0 0 10.64-10.43c22.027-22.03 42.125-44.847 59.656-67.609l-4.64-22.226 22.558-2.282c13.719-19.886 25.277-39.469 34.207-58.144 17.192-35.961 32.988-86.778 4.88-114.887m0 0" opacity="1" data-original="#ffda2d"></path><path fill="#ffb64c" d="m496.621 15.875-319.84 319.844 192.54-44.266a764 764 0 0 0 10.64-10.43c22.027-22.03 42.125-44.847 59.656-67.609l-4.64-22.226 22.558-2.282c13.719-19.886 25.278-39.469 34.207-58.144 17.192-35.961 32.988-86.778 4.88-114.887m0 0" opacity="1" data-original="#ffb64c"></path><path fill="#90cc1c" d="M117.484 458.652 63.637 512.5 0 448.863l53.848-53.847 31.816 31.82zm0 0" opacity="1" data-original="#90cc1c"></path><path fill="#66bb00" d="m31.816 480.68 53.844-53.848 31.82 31.82-53.847 53.844zm0 0" opacity="1" data-original="#66bb00"></path><path fill="#ffb64c" d="m422.387 68.902-21.219 21.211-51.816-51.816c9.27-5.57 18.398-10.61 27.347-15.082zm0 0" opacity="1" data-original="#ffb64c"></path><path fill="#ff9100" d="M457.535 188.906a588 588 0 0 1-17.918 24.508l-59.656-59.664 21.207-21.21zm0 0" opacity="1" data-original="#ff9100"></path><path fill="#ffb64c" d="m337.531 153.75-21.207 21.219-63.207-63.207a688 688 0 0 1 22.508-19.918zm0 0" opacity="1" data-original="#ffb64c"></path><path fill="#ff9100" d="m295.113 238.598 37.04 37.039-21.216 21.21-37.039-37.038zm0 0" opacity="1" data-original="#ff9100"></path><path fill="#b9dd39" d="m489.422 271.023-41.277 24.758a960.7 960.7 0 0 0-184.848 144.332c-52.637 52.637-138.285 52.637-190.91 0-52.77-52.765-52.746-138.164 0-190.91A960.7 960.7 0 0 0 216.719 64.355l24.758-41.257 4.91 44.144c6.82 61.43-.38 124.727-20.84 183.051-8.168 23.281-18.477 45.86-30.707 67.367 21.508-12.23 44.086-22.539 67.367-30.707 58.324-20.46 121.621-27.66 183.047-20.84zm0 0" opacity="1" data-original="#b9dd39"></path><path fill="#90cc1c" d="M445.254 266.113c-61.426-6.82-124.723.38-183.047 20.84-23.281 8.168-45.86 18.477-67.367 30.707L72.387 440.113c52.625 52.637 138.273 52.637 190.91 0a960.7 960.7 0 0 1 184.848-144.332l41.277-24.758zm0 0" opacity="1" data-original="#90cc1c"></path></g></svg>