<svg xmlns="http://www.w3.org/2000/svg" version="1.1" xmlns:xlink="http://www.w3.org/1999/xlink" width="512" height="512" x="0" y="0" viewBox="0 0 512.703 512.703" xml:space="preserve"><g><path fill="#a0d584" d="M511.97.733 474.42.04a231.066 231.066 0 0 0-235.298 235.298l.694 37.55 184.489-114.463z" opacity="1" data-original="#a0d584"></path><path fill="#1eb989" d="M511.97.734 239.816 272.887l37.55.694A231.066 231.066 0 0 0 512.662 38.284z" opacity="1" data-original="#1eb989"></path><path fill="#dce487" d="M303.669 151.768c0-49.495-23.319-96.861-64.596-131.207L214.375.01l-24.699 20.552c-41.277 34.346-64.596 81.711-64.596 131.206s23.319 96.861 64.596 131.206L209.702 303l51.354-24.785 22.768-49.336c12.933-23.907 19.845-50.191 19.845-77.111" opacity="1" data-original="#dce487"></path><path fill="#a0d584" d="M360.935 209.034c-26.92 0-53.204 6.912-77.111 19.846l-74.122 74.122 20.026 20.026c34.346 41.276 81.711 64.596 131.206 64.596s96.861-23.319 131.206-64.596l20.552-24.699-20.552-24.699c-34.344-41.277-81.71-64.596-131.205-64.596" opacity="1" data-original="#a0d584"></path><path fill="#d90058" d="m197.337 448.213 6.304 6.304c39.712 39.712 104.329 39.712 144.041 0l2.82-2.82c39.712-39.712 39.712-104.329 0-144.041l-6.304-6.304c-29.851-29.851-73.773-37.261-110.613-22.235l-45.032 13.451-13.45 45.032c-15.026 36.84-7.617 80.762 22.234 110.613" opacity="1" data-original="#d90058"></path><path fill="#ff3b63" d="m58.186 309.062 6.304 6.304c29.851 29.851 73.773 37.261 110.613 22.234l58.483-58.483c15.026-36.84 7.617-80.761-22.235-110.613l-6.304-6.304c-39.712-39.712-104.329-39.712-144.041 0l-2.82 2.82c-39.712 39.713-39.712 104.329 0 144.042" opacity="1" data-original="#ff3b63"></path><path fill="#d90058" d="M112.245 261.979c-6.493-6.493-15.457-10.514-25.343-10.514-19.772 0-35.857 16.085-35.857 35.857 0 9.886 4.021 18.85 10.514 25.343s15.457 10.514 25.343 10.514c19.772 0 35.857-16.085 35.857-35.858 0-9.885-4.022-18.849-10.514-25.342" opacity="1" data-original="#d90058"></path><path fill="#aa005b" d="M250.962 400.662c-6.493-6.493-15.457-10.514-25.343-10.514-19.772 0-35.857 16.085-35.857 35.857 0 9.886 4.021 18.85 10.514 25.343s15.457 10.514 25.343 10.514c19.772 0 35.857-16.085 35.857-35.858 0-9.884-4.021-18.849-10.514-25.342" opacity="1" data-original="#aa005b"></path><path fill="#ff3b63" d="M36.088 482.919c39.712 39.712 104.329 39.712 144.041 0l2.82-2.82c39.712-39.712 39.712-104.329 0-144.041l-3.152-3.152-89.472 82.02-57.39 64.842z" opacity="1" data-original="#ff3b63"></path><path fill="#ff8679" d="m29.784 476.615 3.152 3.152 50.235-50.236 96.626-96.626-3.152-3.152c-39.712-39.712-104.329-39.712-144.041 0l-2.82 2.82c-39.712 39.713-39.712 104.329 0 144.042" opacity="1" data-original="#ff8679"></path><path fill="#ff3b63" d="M58.274 418.572c-19.772 0-35.857 16.085-35.857 35.857 0 9.886 4.021 18.851 10.514 25.343l39.359-11.458 11.328-39.229c-6.494-6.492-15.458-10.513-25.344-10.513" opacity="1" data-original="#ff3b63"></path><path fill="#d90058" d="M32.931 479.772c6.493 6.493 15.457 10.514 25.343 10.514 19.772 0 35.857-16.085 35.857-35.858 0-9.886-4.021-18.85-10.514-25.343z" opacity="1" data-original="#d90058"></path></g></svg>