<svg xmlns="http://www.w3.org/2000/svg" version="1.1" xmlns:xlink="http://www.w3.org/1999/xlink" width="512" height="512" x="0" y="0" viewBox="0 0 512 512" xml:space="preserve"><g><path fill="#a0d584" d="m165.647 288.643-13.111-7.217C74.064 238.231 45.365 139.249 88.56 60.777l25.92-47.089 13.111 7.217c78.472 43.195 107.171 142.178 63.976 220.649z" opacity="1" data-original="#a0d584"></path><path fill="#1eb989" d="M320.433 241.554C277.238 163.083 305.938 64.1 384.409 20.905l13.111-7.217 25.92 47.089c43.195 78.472 14.495 177.454-63.976 220.649l-13.111 7.217z" opacity="1" data-original="#1eb989"></path><path fill="#a0d584" d="M349.551 316.626h-14.966v-53.751c0-89.575 72.874-162.448 162.449-162.448H512v53.751c0 89.574-72.874 162.448-162.449 162.448" opacity="1" data-original="#a0d584"></path><path fill="#dce487" d="M177.414 316.626h-14.966C72.874 316.626 0 243.752 0 154.177v-53.751h14.966c89.575 0 162.448 72.874 162.448 162.448z" opacity="1" data-original="#dce487"></path><path fill="#ff3b63" d="M260.441 153.349c55.952 0 101.473 45.521 101.472 101.473v3.973c0 55.952-45.52 101.473-101.473 101.473H256l-30.273-120.81L256 153.349z" opacity="1" data-original="#ff3b63"></path><path fill="#ff8679" d="M251.559 153.349H256v206.919h-4.441c-55.952 0-101.472-45.52-101.472-101.473v-3.973c-.001-55.953 45.52-101.473 101.472-101.473" opacity="1" data-original="#ff8679"></path><path fill="#d90058" d="M349.587 291.393h8.882c55.952 0 101.472 45.521 101.472 101.473v3.973c0 55.952-45.52 101.473-101.473 101.473h-8.882c-42.059 0-78.22-25.722-93.587-62.26l-22.248-41.2L256 353.653c15.367-36.538 51.528-62.26 93.587-62.26" opacity="1" data-original="#d90058"></path><path fill="#ff3b63" d="M153.531 291.393h8.882c42.059 0 78.22 25.722 93.587 62.26v82.399c-15.367 36.538-51.528 62.26-93.587 62.26h-8.882c-55.952 0-101.473-45.52-101.472-101.473v-3.973c-.001-55.952 45.52-101.473 101.472-101.473" opacity="1" data-original="#ff3b63"></path><path fill="#ff8679" d="M158.355 381.956c-10.468 0-20.937-2.905-30.273-8.714l15.813-25.414c8.92 5.55 20.001 5.55 28.921 0l15.813 25.414c-9.338 5.809-19.806 8.714-30.274 8.714" opacity="1" data-original="#ff8679"></path><path fill="#ff3b63" d="M349.551 381.956c-10.468 0-20.937-2.905-30.274-8.714l15.813-25.414c8.921 5.55 20.001 5.55 28.922 0l15.813 25.414c-9.337 5.809-19.806 8.714-30.274 8.714" opacity="1" data-original="#ff3b63"></path><path fill="#d90058" d="m270.461 206.875 15.813 25.414c-9.338 5.81-19.804 8.714-30.273 8.714l-7.282-17.064L256 211.037c5.001 0 10.001-1.387 14.461-4.162" opacity="1" data-original="#d90058"></path><path fill="#ff3b63" d="m225.727 232.289 15.813-25.414c4.46 2.774 9.46 4.162 14.461 4.162v29.966c-10.468 0-20.938-2.906-30.274-8.714" opacity="1" data-original="#ff3b63"></path></g></svg>