<svg xmlns="http://www.w3.org/2000/svg" version="1.1" xmlns:xlink="http://www.w3.org/1999/xlink" width="512" height="512" x="0" y="0" viewBox="0 0 511.999 511.999" xml:space="preserve"><g><path fill="#5a5555" d="M430.168 9.334c-12.445-12.445-32.622-12.445-45.067 0L232.337 162.097l45.067 45.067L430.168 54.401c12.445-12.445 12.445-32.622 0-45.067" opacity="1" data-original="#5a5555"></path><path fill="#ff5b5b" d="M68.065 130.247v143.075l10 47.801-10 47.801v113.075c0 16.569 13.431 30 30 30h157.934l20-195.999-20-185.753z" opacity="1" data-original="#ff5b5b"></path><path fill="#c83c50" d="M255.999 130.247v381.752h157.934c16.569 0 30-13.431 30-30V368.923l-10-42.424 10-53.177V130.247z" opacity="1" data-original="#c83c50"></path><path fill="#fff5f5" d="M255.999 145.246H5.311v-30h250.688l10 15.001z" opacity="1" data-original="#fff5f5"></path><path fill="#ebe1dc" d="M255.999 115.246h250.688v30H255.999z" opacity="1" data-original="#ebe1dc"></path><path fill="#fff5f5" d="M168.162 273.322H68.065v95.601h100.097c16.955 31.089 49.932 52.183 87.837 52.183l10-90.844-10-109.124c-37.905.001-70.882 21.095-87.837 52.184" opacity="1" data-original="#fff5f5"></path><path fill="#ebe1dc" d="M343.836 273.322c-16.955-31.089-49.932-52.183-87.837-52.183v199.968c37.905 0 70.882-21.094 87.837-52.183h100.097v-95.601z" opacity="1" data-original="#ebe1dc"></path></g></svg>