<svg xmlns="http://www.w3.org/2000/svg" version="1.1" xmlns:xlink="http://www.w3.org/1999/xlink" width="512" height="512" x="0" y="0" viewBox="0 0 512 512" xml:space="preserve"><g><path fill="#5ab267" d="M317.093 317.13C471.101 163.122 516.921 71.48 465.585 20.145S322.608 14.629 168.6 168.637C51.08 286.158-3.438 367.405.168 421.923l41.154-19.94-30.759 51.973c6.103 8.916 12.262 15.087 21.213 21.213l51.973-30.759-19.94 41.154c54.516 3.604 135.763-50.914 253.284-168.434" opacity="1" data-original="#5ab267"></path><path fill="#3d995b" d="m31.775 475.168 51.973-30.759-19.94 41.154c54.518 3.606 135.765-50.912 253.286-168.433C471.101 163.122 516.921 71.48 465.585 20.145L20.113 465.617c3.418 3.418 7.193 6.49 11.662 9.551" opacity="1" data-original="#3d995b"></path><path fill="#5ab267" d="M232.24 317.13 63.807 485.562c-11.879-.848-22.486-4.243-32.032-10.394l179.252-179.252z" opacity="1" data-original="#5ab267"></path><path fill="#8cd96b" d="m348.864 115.63 21.21-21.21 21.21 21.21-21.21 21.21z" opacity="1" data-original="#8cd96b"></path><path fill="#5ab267" d="m359.468 126.237 21.21-21.21 10.605 10.605-21.21 21.21zM306.433 200.47l21.21-21.21 21.21 21.21-21.21 21.21z" opacity="1" data-original="#5ab267"></path><path fill="#8cd96b" d="m264.016 158.045 21.21-21.21 21.21 21.21-21.21 21.21zM200.376 221.67l21.21-21.21 21.21 21.21-21.21 21.21zM189.814 274.703 10.562 453.955c-6.151-9.546-9.546-20.153-10.394-32.032L168.601 253.49z" opacity="1" data-original="#8cd96b"></path><path fill="#5ab267" d="m242.794 264.097 21.21-21.21 21.21 21.21-21.21 21.21z" opacity="1" data-original="#5ab267"></path><path fill="#c6f243" d="M332.806 481.299c-40.935-40.935-40.935-107.558 0-148.492s107.558-40.935 148.492 0 40.935 107.558 0 148.492-107.557 40.935-148.492 0" opacity="1" data-original="#c6f243"></path><path fill="#8cd96b" d="M481.299 481.299c40.935-40.935 40.935-107.558 0-148.492L332.806 481.299c40.935 40.935 107.558 40.935 148.493 0" opacity="1" data-original="#8cd96b"></path><path fill="#8cd96b" d="m406.968 385.843 21.21-21.21 21.21 21.21-21.21 21.21z" opacity="1" data-original="#8cd96b"></path><path fill="#5ab267" d="m417.574 396.45 21.21-21.21 10.605 10.605-21.21 21.21z" opacity="1" data-original="#5ab267"></path><path fill="#8cd96b" d="m364.546 385.839 21.21-21.21 21.21 21.21-21.21 21.21z" opacity="1" data-original="#8cd96b"></path><path fill="#5ab267" d="m406.964 428.266 21.21-21.21 21.21 21.21-21.21 21.21z" opacity="1" data-original="#5ab267"></path><path fill="#8cd96b" d="m364.542 428.262 21.21-21.21 21.21 21.21-21.21 21.21z" opacity="1" data-original="#8cd96b"></path><path fill="#5ab267" d="m375.147 438.867 21.21-21.21 10.605 10.605-21.21 21.21z" opacity="1" data-original="#5ab267"></path></g></svg>