<svg xmlns="http://www.w3.org/2000/svg" version="1.1" xmlns:xlink="http://www.w3.org/1999/xlink" width="512" height="512" x="0" y="0" viewBox="0 0 512 512" xml:space="preserve"><g><path fill="#a0d584" d="M241.11 0v142.427c-.248 20.983-13.889 39.6-33.359 47.547l-56.82 23.189C119.948 225.807 99.93 255.6 99.93 289.062h29.946c0-21.238 12.707-40.148 32.371-48.173l56.82-23.189c7.747-3.162 15.809-7.396 22.043-12.491v50.333H256l7.228-81.724L256 0z" opacity="1" data-original="#a0d584"></path><path fill="#1eb989" d="m359.235 213.162-56.82-23.189c-19.469-7.946-31.111-26.564-31.359-47.547L271.067.945h-.011V0H256v255.541h15.056v-50.333c6.235 5.095 12.296 9.329 20.043 12.491l56.82 23.189c19.664 8.026 32.371 26.935 32.371 48.173v.176h29.946v-.176c0-33.462-20.019-63.254-51.001-75.899" opacity="1" data-original="#1eb989"></path><circle cx="396.057" cy="396.057" r="115.943" fill="#d90058" opacity="1" data-original="#d90058"></circle><circle cx="115.943" cy="396.057" r="115.943" fill="#ff3b63" opacity="1" data-original="#ff3b63"></circle><path fill="#ff8679" d="M140.057 368.348c0 64.034 51.91 115.943 115.943 115.943l27.518-109.736L256 252.404c-64.034 0-115.943 51.91-115.943 115.944" opacity="1" data-original="#ff8679"></path><path fill="#ff3b63" d="M256 252.404v231.887c64.034 0 115.943-51.91 115.943-115.943S320.034 252.404 256 252.404" opacity="1" data-original="#ff3b63"></path><path fill="#ff3b63" d="m232.35 298.869-15.819 25.427c11.89 7.398 25.22 11.096 38.552 11.096.306 0 .612-.012.917-.016l14.056-15.673L256 305.38c-8.166.177-16.366-1.979-23.65-6.511" opacity="1" data-original="#ff3b63"></path><path fill="#d90058" d="M277.815 298.869c-6.738 4.193-14.262 6.348-21.815 6.512v29.996c13.025-.166 26.018-3.852 37.635-11.08z" opacity="1" data-original="#d90058"></path><path fill="#dce487" d="M256 137.806H155.834c-48.59 0-87.98-39.39-87.98-87.98V0H168.02C216.61 0 256 39.39 256 87.98l14.981 26.89z" opacity="1" data-original="#dce487"></path><path fill="#a0d584" d="M256 137.806h100.166c48.59 0 87.98-39.39 87.98-87.98V0H343.98C295.39 0 256 39.39 256 87.98z" opacity="1" data-original="#a0d584"></path></g></svg>