<svg xmlns="http://www.w3.org/2000/svg" version="1.1" xmlns:xlink="http://www.w3.org/1999/xlink" width="512" height="512" x="0" y="0" viewBox="0 0 464.004 464.004" xml:space="preserve"><g><path fill="#9ceb63" d="M449.724 137.471c35.01 37.8.47 80.69-47.69 85.96-2 19.2-52.699 65.746-109.06 42.28-95.774-39.875 32.711-153.777 137.93-160.7 9.3 6.35 16.21 17 18.82 32.46" opacity="1" data-original="#9ceb63"></path><path fill="#befa91" d="M405.444 58.561c-11.469-21.242-29.125-28.448-46.745-25.404.098-.017.197-.039.295-.056-6.35-9.3-17-16.21-32.46-18.82-37.8-35.01-80.69-.47-85.96 47.69-19.2 2-65.94 52.78-42.28 109.06-16.472 52.457 45.848 93.365 87.47 57.69 36.38 7.58 72.35-1.979 82.76-38.69 14.49-4.96 22.96-19.57 19.5-34.73 44.626-20.847 62.216-72.553 17.42-96.74" opacity="1" data-original="#befa91"></path><path fill="#daffbf" d="M405.054 57.871c-25.24-9.2-56.31 8.93-71.35 41.11-15.16-3.46-29.77 5.01-34.73 19.5-33.78 9.58-44.57 40.79-40.17 74.06a94.1 94.1 0 0 0-23.52-14.29c-7.58-36.38 1.98-72.36 38.69-82.77 4.96-14.49 19.57-22.96 34.73-19.5 20.74-44.4 72.02-62.04 96.35-18.11" opacity="1" data-original="#daffbf"></path><path fill="#daffbf" d="M323.984 12.031c-30.27-7.01-58.22 22.67-62.41 60.94-18.1 1.89-60.68 47.13-45.67 99.46a89.4 89.4 0 0 0-17.61-1.4c-23.66-56.28 23.08-107.06 42.28-109.06 5.15-47.08 46.26-81.14 83.41-49.94" opacity="1" data-original="#daffbf"></path><path fill="#9ceb63" d="M362.164 135.011a8.01 8.01 0 0 1-9.47 6.19c-9.42-1.97-19.4 1.06-26.7 8.12-65.275 65.302-53.608 53.607-55.2 55.2a93.4 93.4 0 0 0-11.3-11.31c.111-.143 2.297-2.307 36.74-36.75 9.77-10.09 11.47-24.68 4.25-36.29-2.34-3.75-1.19-8.69 2.56-11.02 3.76-2.34 8.69-1.19 11.02 2.56 3.94 6.33 6.17 13.22 6.75 20.16l29.03-29.03a8.015 8.015 0 0 1 11.32 0 8.015 8.015 0 0 1 0 11.32l-10.6 10.6c1.81.15 3.61.4 5.41.78 4.32.91 7.1 5.15 6.19 9.47" opacity="1" data-original="#9ceb63"></path><path fill="#ffebd2" d="M282.074 307.561c-40.952 82.641-159.226 143.123-258.53 156.26-13.55 1.79-25.15-9.81-23.36-23.36 14.112-106.471 79.829-224.59 161.84-261.16 77.388-34.47 161.039 45.829 120.05 128.26" opacity="1" data-original="#ffebd2"></path><path fill="#fff3e4" d="M292.344 273.111c-22.86-37.13-71.2-57.35-117.32-36.81-73.47 32.76-133.87 130.98-155.78 227.63-11.6-.85-20.66-11.38-19.06-23.47 14.11-106.47 79.83-224.59 161.84-261.16 66.47-29.61 137.56 25.45 130.32 93.81" opacity="1" data-original="#fff3e4"></path><g fill="#ffd9ad"><path d="M39.644 427.681c-3.194 2.986-8.265 2.867-11.31-.39-8.11-8.68-15.09-17.97-20.51-27.23a396 396 0 0 1 5.15-19.07c7.578 2.164 4.114 10.814 27.06 35.38a8.01 8.01 0 0 1-.39 11.31M164.384 417.451c-5.706 3.121-16.671 8.63-16.89 8.63-16.68-6.93-35.42-19.4-53.57-35.75-3.29-2.95-3.55-8.01-.59-11.29 2.95-3.29 8.01-3.55 11.29-.59 38.811 34.926 55.989 31.986 59.76 39M71.114 355.031c-3.515 2.685-8.548 1.973-11.2-1.54-9.7-12.79-17.21-25.42-22-36.98 2.962-6.167 6.252-12.522 8.63-16.87 6.907 3.69 1.618 11.872 26.11 44.19a7.99 7.99 0 0 1-1.54 11.2M188.106 351.281a365 365 0 0 1-16.688-13.437 8 8 0 0 1-.887-11.279 8.004 8.004 0 0 1 11.279-.887 349 349 0 0 0 15.952 12.845 8 8 0 0 1-9.656 12.758M153.054 310.011c-3.177 3.055-8.251 2.966-11.31-.23-24.06-25.09-42.77-50.64-53.06-72.39 3.63-4.238 7.374-8.427 11.23-12.43 4.149 3.825 9.874 28.391 53.37 73.74 3.06 3.19 2.96 8.26-.23 11.31M288.264 292.771c-1.725 5.237-3.784 9.951-6.19 14.79-20.85-7.24-45.33-23.62-69.03-46.21-3.2-3.05-3.32-8.11-.27-11.31s8.11-3.32 11.31-.27c18.06 17.214 40.614 34.535 64.18 43M190.379 232.572a7.99 7.99 0 0 1-6.311-3.076 247 247 0 0 1-6.759-9.064 8 8 0 0 1 1.894-11.153 7.997 7.997 0 0 1 11.154 1.894 234 234 0 0 0 6.321 8.477c4.142 5.3.258 12.922-6.299 12.922" fill="#f6dcbb" opacity="1" data-original="#000000"></path></g></g></svg>