<svg xmlns="http://www.w3.org/2000/svg" version="1.1" xmlns:xlink="http://www.w3.org/1999/xlink" width="512" height="512" x="0" y="0" viewBox="0 0 512 512" xml:space="preserve"><g><path fill="#ffe3cb" d="M376 120.822q-.15 0-.302-.006l-52.098-1.492c-4.264-.163-7.587-3.753-7.424-8.017s3.707-7.608 8.018-7.424l52.098 1.492a7.726 7.726 0 0 1-.292 15.447M274.32 329.457q-.135 0-.27-.004a7.727 7.727 0 0 1-7.457-7.987l1.757-51.3c.146-4.264 3.732-7.615 7.986-7.458a7.727 7.727 0 0 1 7.457 7.987l-1.757 51.3a7.725 7.725 0 0 1-7.716 7.462" opacity="1" data-original="#ffe3cb"></path><path fill="#ffe3cb" d="M166.052 367.709a7.727 7.727 0 0 1-5.463-13.191l95.78-95.78a7.727 7.727 0 1 1 10.927 10.928l-95.78 95.78a7.7 7.7 0 0 1-5.464 2.263M400.859 208.366a7.728 7.728 0 0 1-5.595-13.055l19.539-20.521a14.54 14.54 0 0 0 4.026-10.066V73.3a7.726 7.726 0 1 1 15.452 0v91.423c0 7.75-2.943 15.11-8.287 20.722l-19.539 20.521a7.7 7.7 0 0 1-5.596 2.4" opacity="1" data-original="#ffe3cb"></path><g fill="#d6694b"><path d="m305.095 481.181-13.33 20.195c-8.457 12.811-26.686 14.299-37.108 3.029a94.3 94.3 0 0 1-25.066-64.023v-84.105c0-19.08 15.467-34.547 34.547-34.547h22.011c19.08 0 34.547 15.467 34.547 34.547v72.956a94.3 94.3 0 0 1-15.601 51.948M171.114 413.906l-51.581 51.591a94.3 94.3 0 0 1-47.769 25.693l-15.082 3.091-8.623 1.772a23.3 23.3 0 0 1-7.716.288c-11.754-1.463-21.16-11.734-20.665-24.395a94.3 94.3 0 0 1 7.829-34.099 94.5 94.5 0 0 1 19.718-28.896l59.472-59.462c13.495-13.495 35.366-13.495 48.851 0l15.566 15.556c13.495 13.495 13.495 35.365 0 48.861M446.408 230.565v72.947a94.28 94.28 0 0 1-15.597 51.952l-8.55 12.949-4.78 7.242a23.8 23.8 0 0 1-5.233 5.666c-9.354 7.283-23.272 6.665-31.874-2.637a94.26 94.26 0 0 1-25.064-64.015v-84.104c0-19.089 15.463-34.552 34.542-34.552h22.015c19.078 0 34.541 15.463 34.541 34.552" fill="#d6694b" opacity="1" data-original="#000000"></path></g><path fill="#c4573a" d="M286.148 321.731h-22.011c-2.409 0-4.76.248-7.029.717 15.708 3.247 27.517 17.159 27.517 33.829v72.956a94.3 94.3 0 0 1-15.599 51.948l-13.331 20.195a24 24 0 0 1-1.702 2.276c.225.248.436.507.664.753 10.422 11.27 28.652 9.782 37.108-3.029l13.33-20.195a94.3 94.3 0 0 0 15.599-51.948v-72.956c0-19.079-15.467-34.546-34.546-34.546M171.117 365.048l-15.564-15.564c-11.523-11.523-29.156-13.195-42.463-5.035a34.6 34.6 0 0 1 6.393 5.035l15.564 15.564c13.491 13.491 13.491 35.365 0 48.856l-51.588 51.588a94.3 94.3 0 0 1-47.763 25.702l-5.765 1.18c5.057 3.479 11.485 5.034 18.129 3.673l23.706-4.854a94.3 94.3 0 0 0 47.763-25.702l51.588-51.588c13.491-13.49 13.491-35.364 0-48.855M411.865 196.014h-22.011c-2.409 0-4.76.248-7.029.717 15.708 3.247 27.517 17.159 27.517 33.829v72.956a94.3 94.3 0 0 1-15.599 51.948l-13.33 20.195a24 24 0 0 1-1.702 2.276c.225.248.436.507.664.753 10.422 11.27 28.652 9.782 37.108-3.029l13.33-20.195a94.3 94.3 0 0 0 15.599-51.948V230.56c0-19.079-15.467-34.546-34.547-34.546" opacity="1" data-original="#c4573a"></path><path fill="#d6694b" d="m89.461 223.965-20.195 13.33c-12.811 8.457-14.299 26.686-3.029 37.108a94.3 94.3 0 0 0 64.023 25.066h84.105c19.079 0 34.546-15.467 34.546-34.547v-22.011c0-19.079-15.467-34.546-34.546-34.546h-72.956a94.3 94.3 0 0 0-51.948 15.6M164.446 81.173l-20.195 13.33c-12.811 8.457-14.299 26.686-3.029 37.108a94.3 94.3 0 0 0 64.023 25.066h84.105c19.079 0 34.547-15.467 34.547-34.546V100.12c0-19.08-15.467-34.546-34.547-34.546h-72.956a94.3 94.3 0 0 0-51.948 15.599" opacity="1" data-original="#d6694b"></path><path fill="#c4573a" d="M214.365 208.366h-36.07c19.079 0 34.546 15.467 34.546 34.546v22.011c0 19.079-15.467 34.546-34.546 34.546h36.07c19.079 0 34.546-15.467 34.546-34.546v-22.011c0-19.079-15.467-34.546-34.546-34.546" opacity="1" data-original="#c4573a"></path><path fill="#dd7f66" d="M232.749 256a7.73 7.73 0 0 1-7.726 7.726h-48.789c-4.265 0-7.726-3.461-7.726-7.726s3.461-7.726 7.726-7.726h48.789a7.73 7.73 0 0 1 7.726 7.726" opacity="1" data-original="#dd7f66"></path><path fill="#d6694b" d="M232.749 256a7.73 7.73 0 0 1-7.726 7.726h-12.177v-15.453h12.177a7.73 7.73 0 0 1 7.726 7.727" opacity="1" data-original="#d6694b"></path><path fill="#c4573a" d="M289.35 65.574h-36.07c19.08 0 34.546 15.467 34.546 34.547v22.011c0 19.08-15.467 34.547-34.546 34.547h36.07c19.079 0 34.546-15.467 34.546-34.547v-22.011c0-19.08-15.467-34.547-34.546-34.547" opacity="1" data-original="#c4573a"></path><path fill="#ffead8" d="M229.168 266.229c-8.989-8.375-2.351-24.935 10.147-24.497h36.756c8.491 0 16.473-3.306 22.477-9.31l47.9-47.9c6.004-6.004 9.311-13.987 9.311-22.478v-20.703c0-16.157 6.292-31.347 17.716-42.771l94.262-94.262c13.334-13.213 33.502 6.97 20.294 20.294l-94.262 94.262c-6.004 6.004-9.311 13.987-9.311 22.478v20.703c0 16.156-6.291 31.346-17.716 42.771l-47.9 47.9c-11.424 11.424-26.614 17.716-42.771 17.716h-36.756c-3.962 0-7.55-1.606-10.147-4.203" opacity="1" data-original="#ffead8"></path><path fill="#ffe3cb" d="m488.036 24.603-19.429 19.429c8.736-12.146-7.376-28.021-19.882-20.707l19.017-19.017c13.33-13.217 33.501 6.974 20.294 20.295" opacity="1" data-original="#ffe3cb"></path><path fill="#ffead8" d="M468.607 44.032c-.494.69-1.061 1.37-1.72 2.029l-75.594 75.594a32 32 0 0 1 2.472-2.792z" opacity="1" data-original="#ffead8"></path><path fill="#dd7f66" d="M404.336 354.93c-1.483 2.236-8.272-1.527-8.272-1.527l-6.027-10.673a56.97 56.97 0 0 1-7.335-27.938v-72.566a7.72 7.72 0 0 1 7.726-7.726 7.73 7.73 0 0 1 7.726 7.726v72.566a41.5 41.5 0 0 0 5.336 20.346l.845 1.494z" opacity="1" data-original="#dd7f66"></path><path fill="#d6694b" d="m422.261 368.413-4.78 7.242a23.8 23.8 0 0 1-5.233 5.666 7.4 7.4 0 0 1-1.494-1.865l-14.69-26.053a94 94 0 0 0 8.272-16.771z" opacity="1" data-original="#d6694b"></path><path fill="#dd7f66" d="M268.361 447.719a7.727 7.727 0 0 1-6.876-11.241l8.029-15.727a21.84 21.84 0 0 0 2.377-9.883v-42.715a7.726 7.726 0 1 1 15.452 0v42.715a37.4 37.4 0 0 1-4.065 16.908l-8.029 15.728a7.73 7.73 0 0 1-6.888 4.215M92.975 437.878 70.96 459.882a31.2 31.2 0 0 0-7.747 12.918l-2.946 9.684-10.45 9.664-7.897-2.452 6.511-21.387a46.6 46.6 0 0 1 11.61-19.357l22.005-22.005a7.73 7.73 0 0 1 10.93 0 7.75 7.75 0 0 1-.001 10.931" opacity="1" data-original="#dd7f66"></path><path fill="#d6694b" d="m60.267 482.484-3.585 11.796-8.623 1.772a23.3 23.3 0 0 1-7.716.288c-.031-.845.072-1.7.33-2.545l1.247-4.1a94 94 0 0 0 18.347-7.211" opacity="1" data-original="#d6694b"></path><path fill="#dd7f66" d="M276.074 118.853a7.7 7.7 0 0 1-5.809-2.628l-5.411-6.162a14.43 14.43 0 0 0-10.848-4.911h-39.855a7.726 7.726 0 1 1 0-15.452h39.855a29.9 29.9 0 0 1 22.459 10.167l5.411 6.162a7.727 7.727 0 0 1-5.802 12.824" opacity="1" data-original="#dd7f66"></path></g></svg>