<svg xmlns="http://www.w3.org/2000/svg" version="1.1" xmlns:xlink="http://www.w3.org/1999/xlink" width="512" height="512" x="0" y="0" viewBox="0 0 512 512" xml:space="preserve"><g><path fill="#b9dd39" d="m406.83 337.38-30.08 30.08c18.89 14.44 42.48 23.03 68.04 23.03v30c-33.84 0-64.95-11.88-89.39-31.67L271 473.21V512h-30v-38.79l-84.4-84.39c-24.44 19.79-55.55 31.67-89.39 31.67v-30c25.56 0 49.15-8.59 68.04-23.03l-30.08-30.08C88.6 349.61 68.13 356.85 46 356.85v-30c13.84 0 26.74-4.06 37.61-11.03l-27-27 21.21-21.21 27 27c6.97-10.87 11.03-23.77 11.03-37.61h30c0 22.13-7.24 42.6-19.47 59.17l30.08 30.08c14.44-18.89 23.03-42.48 23.03-68.04h30c0 33.84-11.88 64.95-31.67 89.39L241 430.79V263.21l-75.83-75.83c-16.57 12.23-37.04 19.47-59.17 19.47v-30c13.84 0 26.74-4.06 37.61-11.03l-27-27 21.21-21.21 27 27c6.97-10.87 11.03-23.77 11.03-37.61h30c0 22.13-7.24 42.6-19.47 59.17L241 220.79V85.74c-20.98-3.14-40.33-12.86-55.61-28.13l21.22-21.22c9.58 9.59 21.46 16.02 34.39 18.84V0h30v55.23c12.93-2.82 24.81-9.25 34.39-18.84l21.22 21.22C311.33 72.88 291.98 82.6 271 85.74v135.05l54.62-54.62c-12.23-16.57-19.47-37.04-19.47-59.17h30c0 13.84 4.06 26.74 11.03 37.61l27-27 21.21 21.21-27 27c10.87 6.97 23.77 11.03 37.61 11.03v30c-22.13 0-42.6-7.24-59.17-19.47L271 263.21v167.58l63.18-63.19c-19.79-24.44-31.67-55.55-31.67-89.39h30c0 25.56 8.59 49.15 23.03 68.04l30.08-30.08c-12.23-16.57-19.47-37.04-19.47-59.17h30c0 13.84 4.06 26.74 11.03 37.61l27-27 21.21 21.21-27 27c10.87 6.97 23.77 11.03 37.61 11.03v30c-22.13 0-42.6-7.24-59.17-19.47" opacity="1" data-original="#b9dd39"></path><path fill="#90cc1c" d="m406.83 337.38-30.08 30.08c18.89 14.44 42.48 23.03 68.04 23.03v30c-33.84 0-64.95-11.88-89.39-31.67L271 473.21V512h-15V0h15v55.23c12.93-2.82 24.81-9.25 34.39-18.84l21.22 21.22C311.33 72.88 291.98 82.6 271 85.74v135.05l54.62-54.62c-12.23-16.57-19.47-37.04-19.47-59.17h30c0 13.84 4.06 26.74 11.03 37.61l27-27 21.21 21.21-27 27c10.87 6.97 23.77 11.03 37.61 11.03v30c-22.13 0-42.6-7.24-59.17-19.47L271 263.21v167.58l63.18-63.19c-19.79-24.44-31.67-55.55-31.67-89.39h30c0 25.56 8.59 49.15 23.03 68.04l30.08-30.08c-12.23-16.57-19.47-37.04-19.47-59.17h30c0 13.84 4.06 26.74 11.03 37.61l27-27 21.21 21.21-27 27c10.87 6.97 23.77 11.03 37.61 11.03v30c-22.13 0-42.6-7.24-59.17-19.47" opacity="1" data-original="#90cc1c"></path></g></svg>