<svg xmlns="http://www.w3.org/2000/svg" version="1.1" xmlns:xlink="http://www.w3.org/1999/xlink" width="512" height="512" x="0" y="0" viewBox="0 0 512 512" xml:space="preserve"><g><path fill="#ffea7a" d="M460.682 152.579c17.481 0 31.652-14.171 31.652-31.652s-14.171-31.652-31.652-31.652-31.652 14.171-31.652 31.652h-73.304v63.304h73.304c0 17.481 14.171 31.652 31.652 31.652s31.652-14.171 31.652-31.652c-.001-17.481-14.172-31.652-31.652-31.652" opacity="1" data-original="#ffea7a"></path><path fill="#e79fac" d="M231.991 116.759h-98.002c-63.139 0-114.323 51.184-114.323 114.323S70.85 345.405 133.989 345.405h98.002c8.236 0 16.266-.879 24.009-2.533l11-102.596-11-120.983a114.7 114.7 0 0 0-24.009-2.534" opacity="1" data-original="#c86b15"></path><path fill="#e07286" d="M256 119.293v223.579c51.61-11.031 90.314-56.887 90.314-111.789S307.61 130.324 256 119.293" opacity="1" data-original="#8f4c0b"></path><path fill="#e07286" d="M235.564 84.147c-37.794 0-68.432 30.638-68.432 68.432s30.638 68.432 68.432 68.432H256l10-68.432-10-68.432z" opacity="1" data-original="#8f4c0b"></path><path fill="#c81535" d="M306.858 84.147H256v136.865h50.858c37.794 0 68.432-30.638 68.432-68.432 0-37.795-30.638-68.433-68.432-68.433" opacity="1" data-original="#552a04"></path><path fill="#beebfa" d="M0 341.123v30h26.485v26.731c0 16.569 13.431 30 30 30H256l20-30.55-20-56.181z" opacity="1" data-original="#beebfa"></path><path fill="#96c8ef" d="M256 341.123v86.731h199.515c16.569 0 30-13.431 30-30v-26.731H512v-30z" opacity="1" data-original="#96c8ef"></path></g></svg>