<svg xmlns="http://www.w3.org/2000/svg" version="1.1" xmlns:xlink="http://www.w3.org/1999/xlink" width="512" height="512" x="0" y="0" viewBox="0 0 509.741 509.741" xml:space="preserve"><g><path fill="#ba63ea" d="M351.529 72.723c-16.604 11.911-32.915 31.061-41.075 51.18-23.456 57.834-45.611 112.464-159.401 102.396-11.712-1.035-22.885-.722-33.213.934-25.086 4.022-48.669 14.97-68.201 31.661-20.043 17.127-34.893 39.588-42.943 64.958-23.377 73.661 16.438 152.259 88.799 175.224 0 0 .221.07.619.189a136.3 136.3 0 0 0 23.527 5.11c8.864 1.42 22.13 2.915 38.7 2.915 18.157 0 40.281-1.795 64.92-7.448 51.677-11.857 99.837-37.067 143.144-74.931 93.488-81.74 123.614-224.202 128.704-251.931l.101-.547c4.298-21.298-.162-45.65-8.669-63.929-10.94-23.503-131.802-38.084-135.012-35.781" opacity="1" data-original="#ba63ea"></path><path fill="#a82ee6" d="m495.208 172.433-.1.55c-5.09 27.72-35.22 170.19-128.71 251.93-43.3 37.86-91.46 63.07-143.14 74.93-24.64 5.65-46.76 7.45-64.92 7.45-16.57 0-29.83-1.5-38.7-2.92-7.93-.99-15.84-2.71-23.53-5.11l-.62-.19c-56.66-17.98-93.36-70.07-95.39-127.19.05-1.59.13-3.16.24-4.69h120.05c58.86 0 115.88-18.09 163.25-50.88 47.36-32.79 85.08-80.28 105.31-139.07l34.15-94.88h.03c29.65 6.27 58.34 15.25 63.41 26.14 8.511 18.28 12.971 42.63 8.67 63.93" opacity="1" data-original="#a82ee6"></path><path fill="#00a600" d="m440.503 79.958-28.594-9.075 5.414-17.06c5.946-18.739 18.835-34.041 36.291-43.086 17.454-9.045 37.389-10.751 56.127-4.804l-9.074 28.595c-11.104-3.523-22.911-2.513-33.251 2.846-10.341 5.359-17.976 14.423-21.499 25.524z" opacity="1" data-original="#00a600"></path><path fill="#b8dc38" d="m486.539 108.503-97.59 68.74-37.42-104.52c2.27-1.51 4.6-2.93 6.98-4.24 22.46-12.4 48.12-15.01 72.23-7.36 25 7.93 44.56 25.39 55.8 47.38" opacity="1" data-original="#b8dc38"></path><path fill="#6bc900" d="m430.739 61.123-41.79 116.12 97.59-68.74c-11.24-21.99-30.8-39.45-55.8-47.38" opacity="1" data-original="#6bc900"></path></g></svg>