<svg xmlns="http://www.w3.org/2000/svg" version="1.1" xmlns:xlink="http://www.w3.org/1999/xlink" width="512" height="512" x="0" y="0" viewBox="0 0 512 512" xml:space="preserve"><g><path fill="#008575" d="M425.86 73.224h-38.621l35.112-35.113-21.213-21.213-35.113 35.113V13.388h-30v68.623l-62.732 62.733 21.364 21.212 62.582-62.732h68.621z" opacity="1" data-original="#008575"></path><path fill="#25ae7f" d="M394.64 145.493h-31.219v56.582l31.219 21.911 17.806-43.438z" opacity="1" data-original="#25ae7f"></path><path fill="#008575" d="M394.64 145.493v78.493l31.22-21.911v-56.582z" opacity="1" data-original="#008575"></path><path fill="#97ce7e" d="M148.367 71.194h-31.376l-18.69 36.146 18.69 117.069 31.376-22.334z" opacity="1" data-original="#97ce7e"></path><path fill="#d7e183" d="M257.092 0h-30.115v165.956l30.115 26.842 18.783-104.697z" opacity="1" data-original="#d7e183"></path><path fill="#97ce7e" d="M226.977 165.956v1.535a191.5 191.5 0 0 1-41.127 118.58v137.258h71.243l29.595-152.852-29.595-104.521z" opacity="1" data-original="#97ce7e"></path><path fill="#97ce7e" d="M288.805 119.017V0h-31.713v192.798l37.565-26.842a191.5 191.5 0 0 1-5.852-46.939" opacity="1" data-original="#97ce7e"></path><path fill="#25ae7f" d="M338.655 247.892a191.5 191.5 0 0 1-43.998-81.935h-37.565V423.33h91.265l4.508-161.277z" opacity="1" data-original="#25ae7f"></path><path fill="#97ce7e" d="m412.446 292.447-17.806-90.372h-31.22c0 62.57-43.758 113.231-106.328 113.231l2.243 70.56h24.081c61.428 0 129.03-31.991 129.03-93.419" opacity="1" data-original="#97ce7e"></path><path fill="#25ae7f" d="M394.64 274.642c0 61.427-49.797 111.224-111.224 111.224h-24.081L285.967 512h8.999c72.291 0 130.894-58.603 130.894-130.894V202.075h-31.22z" opacity="1" data-original="#25ae7f"></path><path fill="#fff6d6" d="m148.367 202.075-28.028 97.07c0 48.162 38.937 87.204 87.098 87.204l49.655 49.655 46.396-56.66-46.396-64.084c-60.362-2.505-108.725-52.217-108.725-113.185" opacity="1" data-original="#fff6d6"></path><path fill="#d7e183" d="M116.991 71.194H86.14v130.881l30.851 22.334zM269.433 315.261h-12.341V512h29.426c49.58 0 89.773-40.193 89.773-89.773 0-59.017-47.842-106.966-106.858-106.966" opacity="1" data-original="#d7e183"></path><path fill="#ffe5b4" d="M253.956 358.324c-6.117-.002-12.328-.003-18.49-.003-48.103 0-87.098-38.995-87.098-87.098v-69.148h-31.376l-12.447 157.218c0 53.735 43.56 97.295 97.295 97.295l55.253-21.102 29.595-38.541-29.595-38.541a70 70 0 0 0-3.137-.08" opacity="1" data-original="#ffe5b4"></path><path fill="#e6ba7d" d="M322.883 427.283c.002-37.021-29.175-67.228-65.791-68.879v77.082l29.595 21.102 36.195-21.102z" opacity="1" data-original="#e6ba7d"></path><path fill="#fff6d6" d="M214.286 435.486c-53.735 0-97.295-43.56-97.295-97.295V202.075H86.14v179.031C86.14 453.397 144.743 512 217.034 512h40.058l27.359-38.297-27.359-38.217z" opacity="1" data-original="#fff6d6"></path><path fill="#ffe5b4" d="M257.092 435.486V512c40.557 0 65.723-31.875 65.777-68.854l.013-7.661z" opacity="1" data-original="#ffe5b4"></path></g></svg>