<svg xmlns="http://www.w3.org/2000/svg" version="1.1" xmlns:xlink="http://www.w3.org/1999/xlink" width="512" height="512" x="0" y="0" viewBox="0 0 509.802 509.802" xml:space="preserve"><g><path fill="#b8dc38" d="M193.45 97.972h-30V76.206c0-16.15-13.139-29.29-29.29-29.29h-12.088v-30h12.088c32.692 0 59.29 26.597 59.29 59.29z" opacity="1" data-original="#b8dc38"></path><path fill="#d8f469" d="M346.9 97.972h-30V76.206c0-16.15-13.14-29.29-29.29-29.29h-12.088v-30h12.088c32.692 0 59.29 26.597 59.29 59.29z" opacity="1" data-original="#d8f469"></path><path fill="#a82ee6" d="m269.547 160.031-5.895-4.47c-28.304-21.46-39.875-33.155-60.879-54.386a3566 3566 0 0 0-13.716-13.81l-10.881-10.881-17.824 17.825c-26.029 26.029-55.925 52.076-91.396 79.63C47.7 190.45 30.188 211.896 18.311 235.96 5.837 261.233-.32 288.444.013 316.838c.553 47.299 19.616 91.705 53.677 125.039 33.653 32.934 77.802 51.009 124.491 51.009.557 0 1.118-.003 1.675-.008 24.58-.228 57.849-8.279 82.784-20.036l8.657-4.082z" opacity="1" data-original="#a82ee6"></path><path fill="#d98ff8" d="M490.571 234.124c-12.162-23.94-29.931-45.192-51.385-61.458-31.671-24.013-63.295-51.915-96.68-85.3l-10.881-10.881-17.824 17.825c-26.032 26.032-55.928 52.079-91.396 79.63-21.255 16.51-38.768 37.957-50.645 62.021-12.474 25.273-18.63 52.485-18.298 80.879.554 47.299 19.617 91.705 53.678 125.038 33.652 32.934 77.801 51.009 124.491 51.009q.837 0 1.675-.008c47.241-.437 91.584-19.164 124.86-52.732 33.298-33.589 51.636-78.136 51.636-125.436 0-28.357-6.47-55.47-19.231-80.587" opacity="1" data-original="#d98ff8"></path><path fill="#ba63ea" d="M490.571 234.124c-12.162-23.94-29.931-45.192-51.385-61.458-31.671-24.013-63.295-51.915-96.68-85.3l-10.881-10.881v416.401h.005q.837 0 1.675-.008c47.241-.437 91.584-19.164 124.86-52.732 33.298-33.589 51.636-78.136 51.636-125.436.001-28.356-6.469-55.469-19.23-80.586" opacity="1" data-original="#ba63ea"></path><path fill="#ff8066" d="M394.454 231.631c-22.195-16.863-62.828-55.433-62.828-55.433l-8.599 8.599c-16.938 16.938-35.261 32.39-54.319 46.902-25.239 19.219-41.422 49.72-41.021 83.985.45 38.5 22.114 72.056 53.689 89.638 16.631 9.26 37.44 5.916 50.25-8.163l.557.591c12.666 13.456 32.848 16.872 49.078 8.036 32.355-17.615 54.312-51.915 54.312-91.346-.001-33.799-16.134-63.826-41.119-82.809" opacity="1" data-original="#ff8066"></path><path fill="#ff3636" d="M394.454 231.631c-22.195-16.863-62.828-55.433-62.828-55.433v220.961l.557.591c12.666 13.455 32.848 16.872 49.078 8.036 32.354-17.615 54.312-51.915 54.312-91.347-.001-33.798-16.134-63.825-41.119-82.808" opacity="1" data-original="#ff3636"></path><path fill="#fff3e1" d="M362.03 425.676a55.97 55.97 0 0 1-30.414-8.999c-17.036 11.003-39.047 12.046-57.537 1.75-37.371-20.808-60.895-60.11-61.392-102.567-.438-37.459 17.107-73.382 46.933-96.094 20.382-15.52 37.653-30.428 52.801-45.575l19.205-19.206 10.781 10.782c20.893 20.908 40.884 38.545 61.122 53.921h-.001c29.897 22.715 47.044 57.251 47.044 94.752 0 43.603-23.811 83.653-62.141 104.521a55.1 55.1 0 0 1-26.401 6.715m-30.404-50.4 11.479 12.193c8.065 8.57 20.81 10.684 30.982 5.144 28.674-15.611 46.485-45.564 46.485-78.172 0-28.042-12.827-53.872-35.192-70.865h-.001c-17.888-13.592-35.629-28.719-53.753-46.176-15.639 15.45-33.215 30.536-53.831 46.234-22.645 17.245-35.442 43.442-35.109 71.875.372 31.727 17.993 61.12 45.987 76.708 10.619 5.912 23.72 3.793 31.858-5.152z" opacity="1" data-original="#fff3e1"></path><path fill="#fff3e1" d="M362.03 425.676a55.97 55.97 0 0 1-30.414-8.999c-17.036 11.003-39.047 12.046-57.537 1.75-37.371-20.808-60.895-60.11-61.392-102.567-.438-37.459 17.107-73.382 46.933-96.094 20.382-15.52 37.653-30.428 52.801-45.575l19.205-19.206 10.781 10.782c20.893 20.908 40.884 38.545 61.122 53.921h-.001c29.897 22.715 47.044 57.251 47.044 94.752 0 43.603-23.811 83.653-62.141 104.521a55.1 55.1 0 0 1-26.401 6.715m-30.404-50.4 11.479 12.193c8.065 8.57 20.81 10.684 30.982 5.144 28.674-15.611 46.485-45.564 46.485-78.172 0-28.042-12.827-53.872-35.192-70.865h-.001c-17.888-13.592-35.629-28.719-53.753-46.176-15.639 15.45-33.215 30.536-53.831 46.234-22.645 17.245-35.442 43.442-35.109 71.875.372 31.727 17.993 61.12 45.987 76.708 10.619 5.912 23.72 3.793 31.858-5.152z" opacity="1" data-original="#fff3e1"></path><path fill="#ede9e8" d="m278.135 274.41 22.68-19.62 20.278 23.441-22.68 19.62zM268.397 336.02l22.68-19.62 20.28 23.442-22.68 19.62z" opacity="1" data-original="#ede9e8"></path><path fill="#e1d5ce" d="m341.225 278.329 20.28-23.442 22.68 19.62-20.28 23.442zM350.932 339.947l20.28-23.442 22.68 19.62-20.28 23.442z" opacity="1" data-original="#e1d5ce"></path><path fill="#ede9e8" d="M403.528 219.688c-20.237-15.376-40.229-33.013-61.121-53.921l-10.781-10.782v42.414c18.124 17.457 35.865 32.584 53.753 46.176h.001c22.365 16.993 35.192 42.822 35.192 70.865 0 32.608-17.812 62.562-46.485 78.172-10.173 5.541-22.917 3.426-30.982-5.144l-11.479-12.193v41.407a55.96 55.96 0 0 0 30.404 8.992 55.1 55.1 0 0 0 26.401-6.715c38.33-20.868 62.141-60.917 62.141-104.521 0-37.499-17.146-72.035-47.044-94.75" opacity="1" data-original="#ede9e8"></path></g></svg>