<svg xmlns="http://www.w3.org/2000/svg" version="1.1" xmlns:xlink="http://www.w3.org/1999/xlink" width="512" height="512" x="0" y="0" viewBox="0 0 512 512" xml:space="preserve"><g><path fill="#2d5177" d="M511.82 63.888h-19.15c-30.353 0-56.882 20.054-65.789 46.87C417.018 101.921 338.156 0 219.741 0c-25.601 0-48.633 3.753-69.181 9.816v120.507l207.412 11.608 153.847-11.608z" opacity="1" data-original="#2d5177"></path><path fill="#32405d" d="m150.56 130.323-7.276 130.454s63.243 21.602 143.679 1.323c69.664-17.563 119.017-88.765 139.217-114.515 8.121 27.961 35.275 49.174 66.49 49.174h19.15v-66.436z" opacity="1" data-original="#32405d"></path><path fill="#afd1fd" d="M308.047 194.179c-87.624 0-158.91 71.287-158.91 158.911S220.423 512 308.047 512l24.33-159.548z" opacity="1" data-original="#afd1fd"></path><path fill="#8abcfd" d="M466.958 353.09c0-87.624-71.287-158.91-158.911-158.911V512c87.624 0 158.911-71.287 158.911-158.91" opacity="1" data-original="#8abcfd"></path><path fill="#f2f6fc" d="M308.047 365.552c-6.713 0-12.175-5.462-12.175-12.175s5.461-12.175 12.175-12.175l8.45-45.389-8.45-50.738h-14.984v31.1L272.18 255.28l-21.236 21.224 38.821 38.843a42.47 42.47 0 0 0-19.144 18.57l-38.151-38.093-21.214 21.246 21.162 21.13H200.03v30.024h32.165l-20.87 20.902 21.245 21.214 37.845-37.903a42.47 42.47 0 0 0 18.207 18.384l-37.814 37.872 21.247 21.214 21.007-21.039v32.236h14.984l13.214-50.425z" opacity="1" data-original="#f2f6fc"></path><path fill="#e9edf5" d="M416.062 338.2h-31.194l21.017-21.004-21.224-21.236-38.779 38.756a42.47 42.47 0 0 0-19.548-19.365l38.866-38.842-21.224-21.237-20.889 20.877v-31.073h-15.04v96.127c6.713 0 12.176 5.462 12.176 12.175s-5.462 12.175-12.176 12.175v95.552h15.04v-32.259l21.024 20.992 21.214-21.246-37.838-37.78a42.48 42.48 0 0 0 18.604-19.186l38.566 38.589 21.235-21.224-20.755-20.767h30.923V338.2z" opacity="1" data-original="#e9edf5"></path><path fill="#32405d" d="M287.149 89.728c-7.4-3.121-15.562-5.091-24.376-5.091-29.863 0-48.219 16.637-57.383 28.213v17.45l55.482 15.543 52.914-15.543c.192-16.509-8.752-33.028-26.637-40.572" opacity="1" data-original="#32405d"></path><path fill="#28344c" d="M205.39 130.3v17.497c9.164 11.576 27.52 28.213 57.383 28.213 9.55 0 18.685-2.855 27.016-7.139 15.897-8.173 23.819-23.368 23.996-38.572H205.39z" opacity="1" data-original="#28344c"></path><path fill="#2d6994" d="M150.71 9.771C108.012 22.34 76.085 44.939 54.512 64.956 20.03 96.952.18 130.262.18 130.262l.028.061 119.966 34.728 96.44-34.728c.001-50.612-26.263-95.09-65.904-120.552" opacity="1" data-original="#2d6994"></path><g fill="#2d5177"><path d="M114.575 70.15h29.552v29.552h-29.552zM143.294 260.779c40.321-25.327 73.321-79.325 73.321-130.456H.209c45.984 96.108 143.085 130.456 143.085 130.456" fill="#2d5177" opacity="1" data-original="#000000"></path></g></g></svg>