<svg xmlns="http://www.w3.org/2000/svg" version="1.1" xmlns:xlink="http://www.w3.org/1999/xlink" width="512" height="512" x="0" y="0" viewBox="0 0 511.814 511.814" xml:space="preserve"><g><path fill="#ea9b58" d="m217.01 511.814-16.641-24.962a32.84 32.84 0 0 0 14.654-27.38v-22.138h30v22.138a62.78 62.78 0 0 1-28.013 52.342" opacity="1" data-original="#ea9b58"></path><path fill="#d88a55" d="M294.805 511.814a62.78 62.78 0 0 1-28.014-52.342v-22.138h30v22.138a32.84 32.84 0 0 0 14.654 27.38z" opacity="1" data-original="#d88a55"></path><path fill="#dcd2cd" d="M484.111 300.324c-12.455-41.62-47.313-66.526-78.075-88.508-52.049-37.205-99.315-70.992-99.315-166.723L287.907 441.46l95.738-1.702c34.719-.434 66.172-16.957 86.297-45.332 19.7-27.777 24.859-62.062 14.169-94.102" opacity="1" data-original="#dcd2cd"></path><path fill="#efe2dd" d="M205.094 45.093c0 95.73-47.267 129.518-99.315 166.723-30.763 21.982-65.62 46.889-78.075 88.508-10.69 32.04-5.531 66.325 14.169 94.103 20.125 28.375 51.578 44.897 86.297 45.332l95.738 1.702zM378.381 285.429c-46.211-51.987-71.66-118.924-71.66-188.481V0h-50.813L245.24 234.667l10.667 217.666h42.123c57.452 0 104.193-46.741 104.193-104.193a94.3 94.3 0 0 0-23.842-62.711" opacity="1" data-original="#efe2dd"></path><path fill="#f7f0eb" d="M205.094 0v96.948c0 69.556-25.449 136.493-71.66 188.481a94.3 94.3 0 0 0-23.843 62.711c0 57.453 46.741 104.193 104.193 104.193h42.123V0z" opacity="1" data-original="#f7f0eb"></path></g></svg>