<svg xmlns="http://www.w3.org/2000/svg" version="1.1" xmlns:xlink="http://www.w3.org/1999/xlink" width="512" height="512" x="0" y="0" viewBox="0 0 682.667 682.667" xml:space="preserve"><g><defs><clipPath id="a" clipPathUnits="userSpaceOnUse"><path d="M0 512h512V0H0Z" fill="#000000" opacity="1" data-original="#000000"></path></clipPath></defs><g clip-path="url(#a)" transform="matrix(1.33333 0 0 -1.33333 0 682.667)"><path d="M0 0c-13.18 6.725-16.834 6.704-23.535 10.912l-19.361 5.187.612 18.466a44.6 44.6 0 0 0-2.445 14.534c0 24.813-20.187 45-45 45s-45-20.187-45-45c.516-5.642-3.072-32.594 12.346-64.587l19.654-8.413-3.46-16.854a124.16 124.16 0 0 1 51.564-36.951c-2.862-12.228-9.396-29.493-13.186-68.194l10.332-16.251-12.343-13.75c-.897-23.421-.384-48.461 1.595-73.92-29.278 5.487-51.502 31.24-51.502 62.087v11.833c0 33.084-26.916 60-60 60-33.083 0-60-26.916-60-60v-30c0-34.992 10.949-67.473 29.6-94.201l20.068-8.782 1.03-15.906c26.291-25.286 60.921-41.96 99.301-45.436l15.001 11.325 15-12h14.323c11.965-23.545 34.636-39.938 60.677-44.005l15 224.005-15 194.443A73.5 73.5 0 0 1 0 0" style="fill-opacity:1;fill-rule:nonzero;stroke:none" transform="translate(240.728 416.901)" fill="#fed2a4" data-original="#fed2a4"></path><path d="m0 0 14.324 15C8.102 83.738-40.459 140.444-104.999 158.764l-14.764-4.54-15.236 10.1c-11.081 1.003-17.956.572-28.832.676 1.002 8.557 2.28 16.486 3.824 23.699l1.134 7.998c10.029 48.763-30.516 93.931-81.127 87.746v-418.448c58.892-9.198 107.5 45.225 92.197 102.537-.979 3.762-2.612 9.398-4.802 19.039l-15.562 10.762 9.852 18.697a608 608 0 0 0-3.88 27.69c20.172-1.9 37.615-13.327 47.769-29.72L-90-.003-105.078-15c.132-2.666.056-3.736.078-15 0-33.084 26.916-60 60-60s60 26.916 60 60v15z" style="fill-opacity:1;fill-rule:nonzero;stroke:none" transform="translate(496 136)" fill="#ffbd86" data-original="#ffbd86"></path><path d="M0 0h-128.746a62.7 62.7 0 0 0 9.354-30H.69C.573-17.909 1.035-11.433 0 0" style="fill-opacity:1;fill-rule:nonzero;stroke:none" transform="translate(510.31 151)" fill="#f6a96c" data-original="#f6a96c"></path><path d="M0 0v53.763a164 164 0 0 1-30 5.547V0Z" style="fill-opacity:1;fill-rule:nonzero;stroke:none" transform="translate(391 241)" fill="#f6a96c" data-original="#f6a96c"></path><path d="M0 0v-59.311c11.457-1.038 17.928-.573 30-.689V0Z" style="fill-opacity:1;fill-rule:nonzero;stroke:none" transform="translate(151 106)" fill="#ffbd86" data-original="#ffbd86"></path><path d="m0 0-68.102-24.316a166.3 166.3 0 0 1 20.89-24.397l57.3 20.459z" style="fill-opacity:1;fill-rule:nonzero;stroke:none" transform="translate(98.916 140.827)" fill="#ffbd86" data-original="#ffbd86"></path><path d="m0 0-80.09-50.058a124.5 124.5 0 0 1 16.194-25.257l82.641 51.654C9.967-18.149 3.352-9.721 0 0" style="fill-opacity:1;fill-rule:nonzero;stroke:none" transform="translate(198.45 451.474)" fill="#ffbd86" data-original="#ffbd86"></path><path d="M0 0h-68.077c-.943-9.615-1.613-19.648-2.01-30H0Z" style="fill-opacity:1;fill-rule:nonzero;stroke:none" transform="translate(241 271)" fill="#ffbd86" data-original="#ffbd86"></path><path d="m0 0 6.586-29.268 69.108 15.549c-2.103 9.256-4.022 19.153-5.715 29.464z" style="fill-opacity:1;fill-rule:nonzero;stroke:none" transform="translate(267.707 137.285)" fill="#f6a96c" data-original="#f6a96c"></path></g></g></svg>