<svg xmlns="http://www.w3.org/2000/svg" version="1.1" xmlns:xlink="http://www.w3.org/1999/xlink" width="512" height="512" x="0" y="0" viewBox="0 0 512 512" xml:space="preserve"><g><path fill="#90e36a" d="m342.293 190.918-31.82-31.82c-40.934-40.934-40.934-107.559 0-148.493L321.082 0l31.82 31.82c40.934 40.934 40.934 107.559 0 148.493zm0 0" opacity="1" data-original="#90e36a"></path><path fill="#99503d" d="M458.965 180.313c-17.547-17.547-46.09-17.547-63.637 0s-17.547 46.093 0 63.64c17.543 17.543 46.09 17.543 63.637 0 17.547-17.547 17.547-46.094 0-63.64m-21.211 42.425c-3.805 3.805-8.281 4.375-10.606 4.375-2.328 0-6.804-.57-10.609-4.375-5.848-5.847-5.848-15.367 0-21.215 3.805-3.804 8.281-4.37 10.61-4.37 2.324 0 6.8.566 10.605 4.37s4.371 8.282 4.371 10.61-.566 6.8-4.371 10.605m0 0" opacity="1" data-original="#99503d"></path><path fill="#b35f49" d="m512 233.344-21.215 21.215-63.637-63.641c-23.335-23.332-61.52-23.336-84.855 0l-55.172 55.176-21.215-21.215 55.176-55.176c12.938-12.937 29.059-21 45.82-24.605 28.426-5.516 59.395 2.547 81.457 24.605zm0 0" opacity="1" data-original="#b35f49"></path><path fill="#99503d" d="m512 233.344-21.215 21.215-63.637-63.641c-23.335-23.332-61.52-23.336-84.855 0l-55.172 55.176-10.61-10.61 90.391-90.386c28.422-5.516 59.395 2.547 81.457 24.605zm0 0" opacity="1" data-original="#99503d"></path><path fill="#b760ea" d="M106.809 235.484c-29.243-29.238-29.243-76.824 0-106.062 29.242-29.242 76.824-29.242 106.066 0 29.242 29.238 29.242 76.824 0 106.062-29.242 29.243-76.828 29.243-106.066 0m0 0" opacity="1" data-original="#b760ea"></path><path fill="#a24bdb" d="M276.512 405.191c-29.239-29.242-29.239-76.824 0-106.066 29.242-29.242 76.828-29.242 106.066 0 29.242 29.242 29.242 76.824 0 106.066-29.238 29.243-76.824 29.243-106.066 0m0 0" opacity="1" data-original="#a24bdb"></path><path fill="#b760ea" d="M128.023 383.977c-29.277-29.274-76.793-29.274-106.066 0-29.277 29.277-29.277 76.793 0 106.066 29.273 29.273 76.79 29.273 106.066 0 29.274-29.273 29.274-76.79 0-106.066m0 0" opacity="1" data-original="#b760ea"></path><path fill="#a24bdb" d="M128.023 490.043c-29.277 29.273-76.793 29.273-106.066 0l106.066-106.066c29.274 29.277 29.274 76.793 0 106.066m0 0" opacity="1" data-original="#a24bdb"></path><path fill="#cb75f6" d="M255.3 447.617c-29.273 29.274-76.792 29.274-106.066 0-17.394-17.394-24.183-41.152-20.789-64.062-22.91 3.394-46.668-3.395-64.062-20.79-29.274-29.273-29.274-76.792 0-106.066 29.273-29.273 76.789-29.273 106.066 0 17.395 17.395 24.18 41.153 20.79 64.063 22.91-3.395 46.667 3.394 64.062 20.789 29.273 29.273 29.273 76.793 0 106.066m0 0" opacity="1" data-original="#cb75f6"></path><path fill="#b760ea" d="M255.3 447.617c-29.273 29.274-76.792 29.274-106.066 0-17.394-17.394-24.183-41.152-20.789-64.062l62.793-62.793c22.91-3.395 46.668 3.394 64.063 20.789 29.273 29.273 29.273 76.793 0 106.066m0 0" opacity="1" data-original="#b760ea"></path><path fill="#da90f8" d="M297.727 214.273c-29.274-29.273-76.793-29.273-106.067 0-29.273 29.274-29.273 76.793 0 106.067 29.274 29.273 76.793 29.273 106.067 0 29.273-29.274 29.273-76.793 0-106.067m0 0" opacity="1" data-original="#da90f8"></path><path fill="#cb75f6" d="M297.727 320.34c-29.274 29.273-76.793 29.273-106.067 0l106.067-106.067c29.273 29.274 29.273 76.79 0 106.067m0 0" opacity="1" data-original="#cb75f6"></path></g></svg>