<svg xmlns="http://www.w3.org/2000/svg" version="1.1" xmlns:xlink="http://www.w3.org/1999/xlink" width="512" height="512" x="0" y="0" viewBox="0 0 510 510" xml:space="preserve"><g><path fill="#abe751" d="M165 0H60v60c0 30.31 18.072 56.478 44.008 68.294L211.333 105 225 50.971l1.625-10.221L225 30.053C211.306 11.818 189.508 0 165 0" opacity="1" data-original="#abe751"></path><path fill="#60d64d" d="M225 30.053v20.918l5.167-3.638 1.666-6.344A75 75 0 0 0 225 30.053" opacity="1" data-original="#60d64d"></path><path fill="#8f6d67" d="m211.006 90.449 6.997 3.468L225 90l10-14.833-10-24.196a104.3 104.3 0 0 0-13.994 39.478" opacity="1" data-original="#8f6d67"></path><path fill="#6f534e" d="M315 0c-38.151 0-71.611 20.455-90 50.971V90l7.917 3.917 8.464-3.286C248.102 56.126 278.558 30 315 30h15V0z" opacity="1" data-original="#6f534e"></path><path fill="#ffbf00" d="M15 300c0 116.065 93.918 210 210 210l10-183.5L225 90C108.936 90 15 183.918 15 300" opacity="1" data-original="#ffbf00"></path><path fill="#ff9100" d="M225 90v420c15.8 0 31.528-1.76 46.811-5.236 1.241-.283 113.457-340.48 113.457-340.48C345.228 117.025 287.033 90 225 90" opacity="1" data-original="#ff9100"></path><path fill="#ffda00" d="M135 330c0 99.252 80.748 180 180 180l10-173-10-187c-99.252 0-180 80.748-180 180" opacity="1" data-original="#ffda00"></path><path fill="#ffbf00" d="M315 150v360c99.252 0 180-80.748 180-180s-80.748-180-180-180" opacity="1" data-original="#ffbf00"></path><path fill="#ff8e8e" d="M165 330c0 82.71 67.29 150 150 150l10-150-10-150c-82.71 0-150 67.289-150 150" opacity="1" data-original="#ff8e8e"></path><path fill="#ff637d" d="M315 180v300c82.71 0 150-67.29 150-150 0-82.711-67.29-150-150-150" opacity="1" data-original="#ff637d"></path><path fill="#ff637d" d="M195 330c0 66.168 53.832 120 120 120l10-115-10-125c-66.168 0-120 53.832-120 120m46.667-52.12 37.12 37.12h-52.53a89.54 89.54 0 0 1 15.41-37.12M226.257 345h52.53l-37.12 37.12a89.54 89.54 0 0 1-15.41-37.12M300 418.743a89.54 89.54 0 0 1-37.12-15.41l37.12-37.12zm0-124.956-37.12-37.12a89.54 89.54 0 0 1 37.12-15.41z" opacity="1" data-original="#ff637d"></path><path fill="#ff3650" d="M315 210v240c66.168 0 120-53.832 120-120s-53.832-120-120-120m88.743 105h-52.53l37.12-37.12a89.54 89.54 0 0 1 15.41 37.12M330 241.257a89.54 89.54 0 0 1 37.12 15.41L330 293.787zm0 177.486v-52.53l37.12 37.12a89.5 89.5 0 0 1-37.12 15.41m58.333-36.623L351.213 345h52.53a89.54 89.54 0 0 1-15.41 37.12" opacity="1" data-original="#ff3650"></path></g></svg>