<svg xmlns="http://www.w3.org/2000/svg" version="1.1" xmlns:xlink="http://www.w3.org/1999/xlink" width="512" height="512" x="0" y="0" viewBox="0 0 510.309 510.309" xml:space="preserve"><g><path fill="#73ca7a" d="m0 510.309.155-15.307c.022-2.242.757-55.733 18.079-126.361C63.176 185.404 169.767 67.011 368.641 18.234 439.269.912 492.76.178 495.002.156L510.309 0l-5.887 10.331c-.023 2.243-2.097 53.638-19.419 124.267-20.848 85.003-59.122 167.488-121.021 229.385q.151 0 0 0c-61.886 61.886-144.356 100.166-229.386 121.021-70.627 17.322-124.119 18.057-126.361 18.078z" opacity="1" data-original="#73ca7a"></path><path fill="#5fa794" d="M510.153 15.307 510.309 0 0 510.309l15.307-.154c2.242-.023 55.733-.758 126.361-18.08 85.03-20.855 167.499-59.135 229.386-121.022 61.898-61.896 100.172-144.381 121.021-229.385 17.322-70.627 18.056-124.119 18.078-126.361" opacity="1" data-original="#5fa794"></path><path fill="#b9e68b" d="M479.369 30.94c-20.536 1.434-59.031 5.445-104.329 16.615-61.553 15.178-148.745 47.088-214.571 112.914-65.827 65.827-97.738 153.018-112.914 214.572-11.169 45.293-15.183 83.789-16.615 104.328 20.536-1.433 59.031-5.445 104.329-16.615 61.554-15.176 148.745-47.087 214.572-112.914 65.826-65.826 97.736-153.018 112.914-214.571 11.168-45.294 15.182-83.79 16.614-104.329" opacity="1" data-original="#b9e68b"></path><path fill="#73ca7a" d="M462.755 135.269c11.168-45.294 15.182-83.79 16.614-104.329L30.939 479.37c20.536-1.432 59.031-5.445 104.329-16.615 61.554-15.176 148.745-47.086 214.572-112.914 65.827-65.827 97.737-153.019 112.915-214.572" opacity="1" data-original="#73ca7a"></path><g fill-rule="evenodd" clip-rule="evenodd"><path fill="#73ca7a" d="M384.953 123.614c15.162 14.282 15.881 38.153 1.603 53.312-14.281 15.169-38.14 15.882-53.312 1.605-15.158-14.277-15.884-38.143-1.6-53.31 14.273-15.161 38.143-15.875 53.309-1.607M171.689 336.879c15.162 14.279 15.881 38.152 1.604 53.311-14.281 15.169-38.14 15.882-53.312 1.605-15.159-14.277-15.884-38.143-1.601-53.309 14.274-15.163 38.144-15.879 53.309-1.607" opacity="1" data-original="#73ca7a"></path><path fill="#73ca7a" d="M331.271 176.49c22.742 21.418 23.821 57.225 2.41 79.967-21.414 22.737-57.212 23.815-79.968 2.401-22.737-21.414-23.823-57.212-2.401-79.959 21.411-22.741 57.208-23.818 79.959-2.409" opacity="1" data-original="#73ca7a"></path><path fill="#73ca7a" d="M251.27 256.49c22.755 21.414 23.834 57.219 2.419 79.959-21.419 22.75-57.221 23.824-79.964 2.404-22.744-21.418-23.824-57.211-2.414-79.953 21.418-22.751 57.222-23.826 79.959-2.41" opacity="1" data-original="#73ca7a"></path><path fill="#5fa794" d="M386.557 176.927c13.974-14.837 13.573-38.015-.667-52.384l-53.32 53.319c15.209 15.044 39.561 14.388 53.987-.935" opacity="1" data-original="#5fa794"></path><path fill="#5fa794" d="M333.682 256.457c20.977-22.281 20.352-57.094-1.068-78.638l-79.975 79.974c22.754 22.599 59.364 21.684 81.043-1.336M253.69 336.449c20.98-22.279 20.355-57.09-1.077-78.631l-79.966 79.967c22.766 22.612 59.362 21.693 81.043-1.336M173.294 390.19c13.974-14.838 13.573-38.017-.668-52.384l-53.319 53.319c15.208 15.045 39.56 14.389 53.987-.935" opacity="1" data-original="#5fa794"></path></g></g></svg>