<svg xmlns="http://www.w3.org/2000/svg" version="1.1" xmlns:xlink="http://www.w3.org/1999/xlink" width="512" height="512" x="0" y="0" viewBox="0 0 510 510" xml:space="preserve"><g><path fill="#00a66c" d="M76.722 510h53.333c76.467 0 147.152-30.992 198.294-82.136l99.516-99.516C481.935 274.279 510 202.382 510 130.055V76.721z" opacity="1" data-original="#00a66c"></path><path fill="#bded69" d="M322.543 53.695c-42.219 12.52-72.81 49.775-76.541 94.124-52.336 4.405-93.78 45.889-98.183 98.183-44.326 3.732-81.598 34.299-94.124 76.541C19.974 349.154 0 390.147 0 433.278V510l268-239.152L510 0h-76.722c-43.131 0-84.124 19.975-110.735 53.695" opacity="1" data-original="#bded69"></path><path fill="#97de3d" d="M76.722 510c43.133 0 84.125-19.975 110.735-53.696 42.22-12.517 72.81-49.775 76.542-94.123 52.329-4.404 93.78-45.889 98.182-98.182 44.403-3.737 81.622-34.381 94.124-76.542C490.026 160.847 510 119.854 510 76.721V0L0 510z" opacity="1" data-original="#97de3d"></path><path fill="#97de3d" d="m343.522 75.673-3.247 4.46-5.363 1.293c-36.174 8.724-61.504 42.36-59.138 80.26l1.06 16.965-16.965-1.059c-46.713-2.908-85.18 35.77-82.277 82.276l1.06 16.965-16.965-1.06c-22.223-1.385-43.991 6.835-59.715 22.561-18.67 18.668-20.849 39.256-21.838 41.94l-4.46 3.247C47.073 364.342 30 397.896 30 433.278V480l238-209.152L480 30h-46.722c-35.382 0-68.936 17.074-89.756 45.673" opacity="1" data-original="#97de3d"></path><path fill="#59c36a" d="M76.722 480c35.383 0 68.937-17.074 89.758-45.673l3.246-4.461 5.364-1.293c36.246-8.741 61.498-42.433 59.138-80.259l-1.059-16.964 16.965 1.059c46.536 2.901 85.188-35.602 82.276-82.276l-1.059-16.965 16.964 1.059c22.232 1.384 43.991-6.836 59.716-22.561 18.668-18.668 20.861-39.295 21.836-41.94l4.461-3.247C462.926 145.658 480 112.104 480 76.721V30L30 480z" opacity="1" data-original="#59c36a"></path><path fill="#59c36a" d="M331.363 135c-12.05 12.05-12.05 31.586 0 43.637l30.97-10.304L375 135c-12.05-12.05-31.586-12.05-43.637 0" opacity="1" data-original="#59c36a"></path><path fill="#00a66c" d="M331.363 178.637c12.051 12.05 31.587 12.05 43.637 0s12.05-31.587 0-43.637z" opacity="1" data-original="#00a66c"></path><path fill="#59c36a" d="M233.182 233.182c-12.05 12.05-12.05 31.587 0 43.637L265 266.333l11.818-33.151c-12.049-12.05-31.587-12.05-43.636 0" opacity="1" data-original="#59c36a"></path><path fill="#00a66c" d="M276.818 276.818c12.05-12.05 12.05-31.587 0-43.637l-43.637 43.637c12.05 12.05 31.588 12.05 43.637 0" opacity="1" data-original="#00a66c"></path><path fill="#59c36a" d="M135 331.363c-12.05 12.051-12.05 31.587 0 43.637l32-8.667 11.637-34.97c-12.051-12.049-31.587-12.049-43.637 0" opacity="1" data-original="#59c36a"></path><path fill="#00a66c" d="M178.637 375c12.05-12.05 12.05-31.586 0-43.637L135 375c12.05 12.05 31.586 12.05 43.637 0" opacity="1" data-original="#00a66c"></path></g></svg>