<svg xmlns="http://www.w3.org/2000/svg" version="1.1" xmlns:xlink="http://www.w3.org/1999/xlink" width="512" height="512" x="0" y="0" viewBox="0 0 512.01 512.01" xml:space="preserve"><g><path fill="#ede9e8" d="M60.142 434.58H.122v30h45.02v47.43h30v-62.43z" opacity="1" data-original="#ede9e8"></path><path fill="#e1d5ce" d="M45.14 464.58h.002v47.43h30v-62.43l-7.501-7.501z" opacity="1" data-original="#e1d5ce"></path><path fill="#6bc900" d="m268.64 210.167-29.971-1.313c2.77-63.224 28.939-122.688 73.689-167.438L353.775 0l21.213 21.213-41.416 41.416c-39.431 39.432-62.49 91.828-64.932 147.538" opacity="1" data-original="#6bc900"></path><path fill="#00a600" d="M352.568 224.073q-2.281 0-4.565-.047l-1.041-.021.619-29.993 1.041.021c52.896 1.083 104.656-19.734 142.054-57.131l21.213 21.213c-42.07 42.068-99.909 65.958-159.321 65.958" opacity="1" data-original="#00a600"></path><path fill="#b8dc38" d="M395.507 46.445 222.041 219.913c-11.882 11.881-14.146 14.97-27.336 25.234l25.642 44.227 44.245 25.661c10.314-13.261 13.438-15.571 25.33-27.463l173.355-173.355z" opacity="1" data-original="#b8dc38"></path><path fill="#6bc900" d="m220.347 289.373 44.245 25.661c10.314-13.261 13.438-15.571 25.33-27.463l173.355-173.355-33.887-33.887z" opacity="1" data-original="#6bc900"></path><path fill="#fff3e1" d="m194.705 245.146-10.454 8.145a410 410 0 0 1-25.078 18.056c-11.291 7.496-24.387 11.566-37.872 11.771-27.105.411-52.592 11.195-71.763 30.366-17.966 17.965-23.752 47.814-17.2 88.719 2.622 16.37 7.516 33.685 10.564 43.406 2.211 7.051 13.137 18.73 21.22 21.21 9.697 2.976 27.995 8.099 43.399 10.567 10.88 1.743 20.977 2.612 30.276 2.612 25.664 0 45.255-6.625 58.441-19.812 18.881-18.881 29.658-43.965 30.346-70.63.352-13.595 4.411-26.718 11.741-37.951 7.512-11.51 13.777-20.541 18.122-26.117l8.145-10.454z" opacity="1" data-original="#fff3e1"></path><path fill="#ede9e8" d="M51.554 458.167c3.967 4.006 8.606 7.435 12.567 8.651 9.697 2.976 27.995 8.099 43.399 10.567 10.88 1.743 20.977 2.612 30.276 2.612 25.664 0 45.255-6.625 58.441-19.812 18.881-18.881 29.658-43.965 30.346-70.63.352-13.595 4.411-26.718 11.741-37.951 7.512-11.51 13.777-20.541 18.122-26.117l8.145-10.454-34.952-34.952z" opacity="1" data-original="#ede9e8"></path><path fill="#ede9e8" d="m104.812 426.128-40.69 40.69c-5.56-1.8-8.96-3.08-9.32-3.22l-6.28-2.4-2.39-6.27c-.14-.37-1.43-3.77-3.23-9.32l40.69-40.7z" opacity="1" data-original="#ede9e8"></path><path fill="#e1d5ce" d="m48.522 461.198 6.28 2.4c.36.14 3.76 1.42 9.32 3.22l40.69-40.69-10.61-10.61z" opacity="1" data-original="#e1d5ce"></path></g></svg>