<svg xmlns="http://www.w3.org/2000/svg" version="1.1" xmlns:xlink="http://www.w3.org/1999/xlink" width="512" height="512" x="0" y="0" viewBox="0 0 128 128" xml:space="preserve"><g><path fill="#f4a86c" d="M109.244 57.949c0-.039.006-.077.006-.116a8.294 8.294 0 0 0-9.757-8.2 8.31 8.31 0 0 0-10.353-1.04 8.32 8.32 0 0 0-9.255-4.85 8.256 8.256 0 0 0-8.907-4.707 8.324 8.324 0 0 0-13.956 0 8.256 8.256 0 0 0-8.907 4.707 8.32 8.32 0 0 0-9.255 4.85 8.31 8.31 0 0 0-10.353 1.037 8.294 8.294 0 0 0-9.757 8.2q-.002.058.006.116A8.328 8.328 0 0 0 20.083 74.5h87.834a8.328 8.328 0 0 0 1.327-16.551" opacity="1" data-original="#f4a86c"></path><path fill="#d8d8d8" d="M12.922 81.917h102.155V92.75H12.922z" opacity="1" data-original="#d8d8d8"></path><path fill="#eaeaf0" d="M6.5 69.058h115v5.692a12 12 0 0 1-12 12h-91a12 12 0 0 1-12-12z" opacity="1" data-original="#eaeaf0"></path><path fill="#d8d8d8" d="M98.75 82.5h-8.125a1.75 1.75 0 0 1 0-3.5h8.125a1.75 1.75 0 0 1 0 3.5" opacity="1" data-original="#d8d8d8"></path><g fill="#d78759"><path d="M78.5 58.837a1.75 1.75 0 0 1-1.75-1.75 3 3 0 0 0-3-3 1.75 1.75 0 0 1 0-3.5 6.51 6.51 0 0 1 6.5 6.5 1.75 1.75 0 0 1-1.75 1.75M96.286 61.947a1.75 1.75 0 0 1-1.75-1.75 1.45 1.45 0 0 0-1.447-1.447 1.75 1.75 0 0 1 0-3.5 4.954 4.954 0 0 1 4.947 4.95 1.75 1.75 0 0 1-1.75 1.747M32.912 64.634a1.753 1.753 0 0 1-1.681-2.234 4.946 4.946 0 0 1 6.134-3.367 1.75 1.75 0 0 1-.98 3.36 1.45 1.45 0 0 0-1.794.985 1.75 1.75 0 0 1-1.679 1.256M47 57.974a1.75 1.75 0 0 1-1.63-2.387 6.507 6.507 0 0 1 8.416-3.687 1.75 1.75 0 1 1-1.273 3.26 3 3 0 0 0-3.886 1.7A1.75 1.75 0 0 1 47 57.974" fill="#dc8c4d" opacity="1" data-original="#000000"></path></g></g></svg>