<svg xmlns="http://www.w3.org/2000/svg" version="1.1" xmlns:xlink="http://www.w3.org/1999/xlink" width="512" height="512" x="0" y="0" viewBox="0 0 511.998 511.998" xml:space="preserve"><g><path fill="#ff6c6c" d="M457.159 226.771a51.55 51.55 0 0 0-33.176-20.227c-8.138-13.06-21.875-21.95-37.244-23.918-9.532-13.434-25.142-21.718-41.968-21.718q-1.25 0-2.5.061a51.42 51.42 0 0 0-51.615-16.222c-9.37-8.552-21.675-13.429-34.659-13.429s-25.289 4.877-34.659 13.429a51.428 51.428 0 0 0-51.615 16.222 52 52 0 0 0-2.5-.061c-16.826 0-32.436 8.284-41.967 21.718-15.371 1.967-29.106 10.856-37.244 23.918a51.55 51.55 0 0 0-33.176 20.227c-20.148 7.311-33.732 26.346-33.732 48.299a51.3 51.3 0 0 0 13.495 34.724l4.459 4.869h433.875l4.459-4.869a51.3 51.3 0 0 0 13.495-34.724c.004-21.954-13.58-40.989-33.728-48.299" opacity="1" data-original="#ff6c6c"></path><path fill="#ff2331" d="M457.159 226.771a51.55 51.55 0 0 0-33.176-20.227c-8.138-13.06-21.875-21.95-37.244-23.918-9.532-13.434-25.142-21.718-41.968-21.718q-1.25 0-2.5.061a51.42 51.42 0 0 0-51.615-16.222 51.36 51.36 0 0 0-34.659-13.429v183.345h216.938l4.459-4.869a51.3 51.3 0 0 0 13.495-34.724c.002-21.954-13.582-40.989-33.73-48.299" opacity="1" data-original="#ff2331"></path><path fill="#fff5f5" d="M0 284.663v15c0 44.673 36.344 81.018 81.018 81.018H430.98c44.673 0 81.018-36.345 81.018-81.018v-15z" opacity="1" data-original="#fff5f5"></path><path fill="#ffa785" d="M240.999 191.172h30v30.002h-30zM180.995 221.174h30v30.002h-30zM301.003 221.174h30v30.002h-30z" opacity="1" data-original="#ffa785"></path><path fill="#ff6c6c" d="M301.003 221.174h30v30.002h-30z" opacity="1" data-original="#ff6c6c"></path><path fill="#e1ebf0" d="M255.999 284.663v96.018H430.98c44.673 0 81.018-36.345 81.018-81.018v-15z" opacity="1" data-original="#e1ebf0"></path><path fill="#ff6c6c" d="M255.999 191.172h15v30.002h-15z" opacity="1" data-original="#ff6c6c"></path></g></svg>