<svg xmlns="http://www.w3.org/2000/svg" version="1.1" xmlns:xlink="http://www.w3.org/1999/xlink" width="512" height="512" x="0" y="0" viewBox="0 0 511.99 511.99" xml:space="preserve"><g><path d="M159.654 255.995c0-8.643.859-17.084 2.484-25.249H71.24c-.962-18.826-16.531-33.795-35.596-33.795C15.958 196.951 0 212.909 0 232.595c0 8.958 3.312 17.138 8.769 23.4C3.312 262.257 0 270.437 0 279.395c0 19.685 15.958 35.644 35.644 35.644 19.065 0 34.634-14.969 35.596-33.795h90.898a129 129 0 0 1-2.484-25.249" style="" fill="#ffeeba" data-original="#ffeeba"></path><path d="M383.375 127.37H258.254c-71.038 0-128.625 57.587-128.625 128.625S187.216 384.62 258.254 384.62h125.121z" style="" fill="#ff8891" data-original="#ff8891"></path><circle cx="383.37" cy="255.995" r="128.62" style="" fill="#ff515e" data-original="#ff515e"></circle><circle cx="383.37" cy="255.995" r="30.89" style="" fill="#ffeeba" data-original="#ffeeba"></circle></g></svg>