<svg xmlns="http://www.w3.org/2000/svg" version="1.1" xmlns:xlink="http://www.w3.org/1999/xlink" width="512" height="512" x="0" y="0" viewBox="0 0 247.95 290" xml:space="preserve"><g><path fill="#d8bfb2" d="M99.27 75.11c.46-1.36 13.06.8 13.79-.49 2.39-4.22 1.31-25.25 6.08-27-7.55-1-33.95-5.56-47.44-7.8 1.3 2.44 10.19 22.4 10.54 25.52 7.37 1.72 11.91 6.08 17.03 9.77" opacity="1" data-original="#d8bfb2"></path><path fill="#d8bfb2" d="M130.4 117c0-7.73-5.35-22.05-7-29-.83-.26-4.07-9.44-5.76-10-3.9-1.2-15.51-6.8-15.84-6.93L84.04 94.12c1.95 4.35 3.43 26.42 4.14 32.23 0 .24 5.92 11.89 5.78 12.07 8.51 6.66 22.95 32.15 28 43.33.05-.77 8.39-24 8.45-24.91.77-11.53-.01-31.49-.01-39.84" opacity="1" data-original="#d8bfb2"></path><path fill="#eaddd4" d="M214.53 189.68a40 40 0 0 1-13.39 3.32c-3.56.33-4.17-5.39-7.27-6.45l-2.32-3 8.29-29.95c1.49-2.57 3-5.14 4.6-7.68 3.84-6.31 7.79-12.8 10.32-18.89 4.13-10.03 9.22-31.15 11.22-40.61-1.36.38-4-.25-5.2 0-7.67 1.62-21.56 1.28-29.9 0 0 4.34-.64 16.94-3.14 25.95-1.43 5.18-5.31 12.58-9.41 20.42-7.6 14.53-16.22 31-17.36 46.35a3.5 3.5 0 0 0 0 .52c.72 9.5-3.11 35.93-9.09 49.09.15 1.41-3.87 15-3.68 16.68 1.77 15.6 10.74 24 3.7 37.85 5.84 4.21 14.71 6.71 22.89 6.71a60.2 60.2 0 0 0 22.42-4.74 3.47 3.47 0 0 0 1.53-1.37c3.77-6.27 14.2-56.77 13.68-69.87-.29-7.25 1.19-17.08 2.6-24.53z" opacity="1" data-original="#eaddd4"></path><path fill="#a57a6a" d="M247.87 68.32c-1.3-10.51-13.53-15-23.57-16.93-2.9-.56-6-1.23-9.3-1.94-12.49-2.71-26.64-5.79-38.38-4.32-.56 0-14 1.58-14 14.22l12.36 25.43c3.07.78 13.06 4.09 14.88 4.66 8.05 1.27 22.64 3.14 30.34 1.5 1.59-.34 3.26-.76 5.08-1.3l9.54-3.79c8.94-4.66 13.83-11.22 13.05-17.53" opacity="1" data-original="#a57a6a"></path><path fill="#e5d0c3" d="M85.78 96.18c-.35-.68-8.84-16.43-24.26-9.75-5.32 2.3-10.05 4-12.56 5.15-.85.4-1.94 5.61-2.57 5.9l9.5 16.68 27 11.48c3.85 2.14 11.08 8.23 16 11.91-1.4-7.09-12.84-40.77-13.11-41.37" opacity="1" data-original="#e5d0c3"></path><path fill="#77594b" d="M44.76 159.27c-2.66-11-9.76-19.79-19.48-24-6.47-2.8-13.24-3.13-17.27-.84a13 13 0 0 0-2.41 1.79l-.15.11c-7.54 5.91-7.42 18.95 1.36 31.5l24.43 9.41c-3.22 11.44 3.56 18.45 5.25 19 .67.2 1.72-.27 2.81-1.29 4.43-4.18 9.83-17.53 5.46-35.68" opacity="1" data-original="#77594b"></path><path fill="#e5d0c3" d="M73.53 127.16a33.4 33.4 0 0 0-5.3 9.1c-.77.38-4.44 5.24-5.2 5.44.37 5.89 1.72 19.93 4.67 29.76 4.1 13.67 0 33.55-3.93 52.77-.5 2.41-1 4.78-1.44 7.09a1 1 0 0 1 0 .09l-.18.92c-11.37-3.33-31.17-12.43-37.76-23.9-4.26-7.47-7.8-17.64-5-23.76 2.28-4.91 5.56-6.64 7.91-7.23a10.3 10.3 0 0 1 3.89-.21c.11-.78.23-1.5.37-2.15.85-3.82-4-15.91-12.71-22.16a5 5 0 0 1-1 .41c-.41.13-7.38 2.46-11 14.17a.9.9 0 0 1-.1.32c-1.5 5.18-2.41 12.28-1.77 21.77 2.13 33.6 31.57 67.44 46.86 78.09 1.65 1.15 3.12 2.2 4.44 3.16l1.38 1c6.56 4.81 20.32 13.7 28.15 13.92-1.37-8.23 2.16-36.59 11.27-68.27 11.71-40.85.77-78.97-23.55-90.33M154.24 228.48c-.2-1.75-.38-3.37-.54-4.85-.47-3.71-1-7.4-1.44-11-1.56-11.73-3-22.81-3.31-30.68l-.07-2c-.85-24.06-1.52-43.06 3-60.28 2.08-8 8-21.86 10.82-28.09-.31 0-1.1-.32-1.47-.28-2.41.24-5.94-1.19-10.88-1.19-8.55 0-16.39-1.6-25.23-3.68l-4.44 1.08c1.64 7 4.46 20.39 4.46 28 0 8.42-1.44 29.92-2.22 41.47-.19 2.84-.44 15.24-.51 16.34 0 15.83 6.36 15-4.86 49.84-7.4 23-5.8 48.73-2.55 58.27l7.49 3.4c3.13 2 8.7 3.3 12.75 3.3a34.74 34.74 0 0 0 16.64-4.81c7.1-13.32 4.1-39.32 2.36-54.84" opacity="1" data-original="#e5d0c3"></path><path fill="#eaddd4" d="M118.98 228.84c11.1-34.46 6.75-51.8 1.81-65.35-7.17-19.59-29.22-35.74-40.65-42.14-1.51 4.94-3.7 12.79-7.57 17.15 24.84 11.88 33.21 38.15 21.26 79.71-9.22 32.07-9.51 60.21-8.06 67.59a78.7 78.7 0 0 0 15.21 1.2c7.22 0 14.5-.54 19.33-1a6.2 6.2 0 0 0 2.3-.69l-.16-.48c-3.28-9.74-11.02-32.47-3.47-55.99" opacity="1" data-original="#eaddd4"></path><path fill="#8e6e5e" d="M97.53 66.69c-10.71-11.48-38.55-12.84-50.45-6.91-12.59 6.3-18.73 15.44-17.3 25.76.81 5.85 10.54 16 14 16.54 2.38.36 2.68.22 7.7-2.12 2.38-1.11 6-2.79 11.32-5.1 15-6.49 22.87 4.31 24.59 7.07a31.7 31.7 0 0 0 5.75-2.51c8.34-4.54 8.06-24 7.86-25.54-1.2-2.49-2.09-5.71-3.47-7.19" opacity="1" data-original="#8e6e5e"></path><path fill="#8e6e5e" d="M100.98 73.85c.44.89.74 1.51.77 1.52z" opacity="1" data-original="#8e6e5e"></path><g fill="#a57a6a"><path d="m135.05 50.94-1.1.14c.54-.08.9-.08 1.1-.14M159.78 28.62c-2-11.26-10.67-19.17-23.11-21.18-2.63-.42-5.73-1-9.21-1.63C112.78 3.1 92.67-.61 73.58.09c-.32-.03-22.54-1.5-29.6 14.21-2.57 5.75-2.82 11-.75 15.52 2.39 5.24 8.14 9.69 15.38 11.89 9.53 2.9 55.43 9 58.28 9.4h9c.05 0 10.93-.5 9.09-.17 4.14-.57 16.45-2.78 21.91-9.32 2.89-3.38 3.84-7.75 2.89-13M133.98 51.08h-.3z" fill="#a57a6a" opacity="1" data-original="#000000"></path></g><path fill="#77594b" d="M121.98 51.92a26 26 0 0 0-4.75.91c-3.74 1.07-12.75 4.11-15.6 9.15-2.72 4.8-3.43 10.29-1.9 14.7 1.42 4.11 4.69 7.23 9.71 9.28.33.13 3.88 1.23 6.48 2s4.44 1.37 4.85 1.51l2.71.63c8.74 2.05 17 4 25.34 4a110 110 0 0 0 11.16-.61c1.16-.12 2-.19 2.47-.2 7.29-2 13.15-5.9 15.71-10.49a11.76 11.76 0 0 0 1-9.43c-2.09-7-7.88-12.57-16.3-16.36l-.19-.08c-10.32-4.59-24.53-6.51-40.69-5.01M72.57 138.48a38.2 38.2 0 0 0 9.05-15.66v-.06c1-3 .35-9.18.35-9.24a14.6 14.6 0 0 0-1.2-3.39c-.16-.4-3-7.72-12.06-6a25.52 25.52 0 0 0-14.45 7.88 1 1 0 0 1-.12.13 18.47 18.47 0 0 0-4.47 13.19c.4 8.87 1.67 13.48 4.52 16.47a.6.6 0 0 0 .12.16c.1.16 2.26 3.68 8 3.48a10.4 10.4 0 0 0 2.66-.93 18.77 18.77 0 0 0 7.6-6.03" opacity="1" data-original="#77594b"></path><path fill="#e5d0c3" d="M190.84 186.3s-.79 19.46.59 27.3 1 29.52-1.74 37.07c0 0-6.1 26.73 11.17 27.43 0 0 11.21-34 11.53-63 0 0 .54-19.28 3.79-31.63z" opacity="1" data-original="#e5d0c3"></path><path fill="#8e6e5e" d="M200.81 154.62c-8.56 0-14.78 2.31-18.48 6.85-4.9 6-3.83 14.16-3.15 17.38.31 1.44 6.61 9.8 11.81 9.8h.08a.8.8 0 0 1 .28.06c3.22 1.14 6.66 2.23 10.27 1.88a38.4 38.4 0 0 0 12.87-3.15 11 11 0 0 1 1.92-.71 17.07 17.07 0 0 0 1.95-25.9 19.6 19.6 0 0 0-8.33-5l-9.1-1.24z" opacity="1" data-original="#8e6e5e"></path><path fill="#966556" d="M86.36 12a1.5 1.5 0 0 0-.76 2.83c3.2 1.6 7.08 3.66 8.51 4.9 2.6 2.25 6.42 8.31 18.54 4.73a66.7 66.7 0 0 0 9.85-3.63 1.49 1.49 0 0 0-.67-2.84c-5.55.06-14-.13-17.85-1.66-4.45-1.76-11.8-4-17.62-4.33M196.77 59.62a.53.53 0 0 0-.28 1 19.9 19.9 0 0 1 4.49 4.75c3.06 4.38 11.21 8 17.75 1.4 0 0 2.31-2.91 5.14-3.37a.53.53 0 0 0 .16-1c-1.68-.87-4.24-1.83-6.57-1.24-3.9 1-8.88 2.26-13.86 0a16 16 0 0 0-6.83-1.54" opacity="1" data-original="#966556"></path><path fill="#6b4c40" d="M125.77 65.27s5.28 1.18 7.45 5.1 8.44 5.63 14.94 3.48 6-4.81 12-3.48c0 0-2-2.92-9.16-2.21s-11.26 1.15-16.46-1.88-8.77-1.01-8.77-1.01" opacity="1" data-original="#6b4c40"></path><path fill="#bc9082" d="M93.91 35.13c-3.3-2-.88-7.1 2.74-5.75a28.6 28.6 0 0 0 13.58 1.43c10.18-1.3 27.94-3.47 28.81-9.32s12.78-1.39 8.88 4.83S135.78 40.56 111.74 39c-9.47-.55-14.93-2.1-17.83-3.87" opacity="1" data-original="#bc9082"></path><path fill="#8c6b5e" d="M131.46 79.38a3.64 3.64 0 0 1 3.87-.87c2.31.77 7 1.78 14.21.76 10.69-1.5 16.44-7.74 18.44-6.5s4.91 5.29 0 8.18-16.18 7.66-26.28 5.42c-8.39-1.88-12.57-4.37-10.24-6.99" opacity="1" data-original="#8c6b5e"></path><path fill="#ba8e80" d="M196.87 74.71a3.64 3.64 0 0 1 3.87-.87c2.31.77 7 1.78 14.21.76 10.69-1.51 16.46-7.75 18.49-6.51s4.91 5.29 0 8.18-16.18 7.66-26.28 5.42c-8.43-1.86-12.61-4.39-10.29-6.98" opacity="1" data-original="#ba8e80"></path><path fill="#a38172" d="M39.5 83a3.92 3.92 0 0 0 3.48-.44c3.24-2 13.19-7.48 23-7.18 11.94.36 9.65-6 6.6-7.44s-14.11-4.38-26.2 2.43C36.3 76.06 36.14 81.62 39.5 83" opacity="1" data-original="#a38172"></path><path fill="#d8beaf" d="M62.13 232.33a28.18 28.18 0 0 1 15.2 20.19s-4.62-23.4-6.07-28.88-2.28-29.76-2.28-29.76-6.45 28.37-6.85 38.45" opacity="1" data-original="#d8beaf"></path></g></svg>