<svg xmlns="http://www.w3.org/2000/svg" version="1.1" xmlns:xlink="http://www.w3.org/1999/xlink" width="512" height="512" x="0" y="0" viewBox="0 0 100 100" xml:space="preserve"><g><path fill="#69b64b" d="M80.2 28.449c-9.76 21.88-20.325 16.05-22.89 14.45 0 0-10.81-14.45-7.42-31.13.71-.51 1.52-.91 2.4-1.21 3.86-1.29 10.67.2 13.71 6.29 3.92-2.19 12.94-.13 14.18 11.07z" opacity="1" data-original="#69b64b"></path><path fill="#4ea33f" d="M57.31 42.899c.19 6.926-3.19 8.72-3.19 8.72-1.21-.72-13.1 7.54-34.57-23.09 1.25-11.2 10.31-13.87 14.23-11.68 3.04-6.09 9.85-7.58 13.71-6.29.88.3 1.69.7 2.4 1.21 2.35 1.63 3.74 4.33 3.77 7.89.03 2.87-.76 5.47-1.77 9.24 0 0 9.09 2.56 5.42 14" opacity="1" data-original="#4ea33f"></path><path fill="#69b64b" d="M50 64.949s-6.998 24.527-21.35 20.68v.01c-14.1-6.34-19.05-17.88-15.79-21.02-5.93-3.59-7.84-13.28-1.72-16.17-2.31-6.21-1-18.09 7.4-19.76.34-.07.68-.12 1.01-.16 6.88-.72 10.06 5.9 12.64 13.25 0 0 .74-.46 1.86-.87 1.72-.64 4.37-1.17 6.65.21.25.15.49.31.72.49 3.93 2.99 5.08 9.17 5.08 9.17 7 3.095 3.5 14.17 3.5 14.17" opacity="1" data-original="#69b64b"></path><path fill="#89cb63" d="M87.14 64.619c4.56 4.39-6.96 25.25-37.14 25.25-4.47 0-8.53-.45-12.19-1.25-.26-.05-.51-.11-.76-.17-1.5-.35-2.92-.75-4.28-1.21a41 41 0 0 1-3.07-1.15c-.35-.14-.7-.3-1.05-.45v-.01c6.04.31 9.47-2.28 11.35-6.01.41-.82.75-1.68 1.02-2.59 1.45-4.76 1.14-10.51.69-14.53-.56-4.91 1.08-10.06 4.79-11.72.95-.43 2.04-.63 3.27-.53 1.4.11 3.14.65 4.35 1.37 0 0 .46-5.34 3.19-8.72.56-.7 1.22-1.31 1.99-1.78 3.76-2.28 8.51.66 8.51.66 2.42-6.92 6.38-13.32 12.39-13.33.67 0 1.37.07 2.09.24 8.88 2.03 8.88 13.55 6.57 19.76 6.12 2.89 4.21 12.58-1.72 16.17" opacity="1" data-original="#89cb63"></path><path fill="#59a94b" d="M75.87 59.839c-1.49 3.1-3.42 6.44-5.87 9.72 1.45.39 4.07.75 7.55-.03.73-.17 1.45.29 1.61 1.02.17.73-.29 1.44-1.02 1.61-1.62.36-3.1.52-4.39.54-2.68.03-4.58-.51-5.55-.86a49.3 49.3 0 0 1-8.26 7.86c-.03.03-.05.07-.08.11-.13.12-.28.21-.45.28-5.65 4.09-12.74 7.28-21.6 8.53-.26-.05-.51-.11-.76-.17-1.5-.35-2.459-.598-3.819-1.058 3.975-.902 8.109-1.621 13.269-3.351 4.02-1.35 7.43-3.341 10.52-5.441-1.5-1.97-4.31-6.39-4.95-12.45-.07-.74.46-1.41 1.21-1.49.73-.08 1.4.46 1.48 1.2.58 5.47 3.17 9.47 4.45 11.16 6.82-5.27 11.26-11.91 14.1-17.75-1.04-1.12-2.97-3.58-3.87-7.32-.17-.73.28-1.45 1-1.62s1.45.27 1.63 1c.56 2.36 1.64 4.13 2.49 5.23 2.53-5.96 3.37-10.57 3.46-11.1.12-.74.82-1.23 1.56-1.11.73.12 1.23.82 1.1 1.55-.02.16-1.06 5.95-4.49 13.27-.04.22-.11.44-.27.63-.02.02-.03.03-.05.04" opacity="1" data-original="#59a94b"></path><path fill="#4a993a" d="M41.02 77.029c-.27.91-.61 1.77-1.02 2.59l-.09-.05c-.05-.03-.1-.06-.15-.1a49 49 0 0 1-7.99-7.46c-1 .37-2.86.9-5.46.9-1.29 0-2.76-.14-4.38-.48-.73-.16-1.2-.88-1.04-1.61s.88-1.19 1.6-1.03c3.43.73 5.99.37 7.46-.02-8.53-11.09-10.77-22.92-10.88-23.57-.14-.73.35-1.43 1.09-1.56.72-.14 1.43.35 1.56 1.09.02.09.92 4.8 3.67 10.96.82-1.12 1.83-2.86 2.35-5.17.17-.73.89-1.19 1.62-1.02.73.16 1.18.88 1.02 1.61-.83 3.66-2.66 6.12-3.71 7.29 2.95 5.82 7.5 12.45 14.35 17.63" opacity="1" data-original="#4a993a"></path><path fill="#3b923f" d="M48.46 39.319c-2.06 1.29-4.68 1.95-7.04 2.29a7 7 0 0 0-.72-.49c-2.28-1.38-4.93-.85-6.65-.21l.06-.48c.02-.25.35-3.72 1.63-8.36-2.2-1.91-3.8-4.1-4.78-5.66-.4-.64-.21-1.47.42-1.87.63-.39 1.47-.2 1.86.43.75 1.18 1.88 2.75 3.37 4.23 1.25-3.73 3.09-7.89 5.79-11.63.43-.61 1.28-.75 1.88-.31.61.44.74 1.28.31 1.88-5.28 7.32-7.08 16.59-7.61 20.11 2.36-.03 7.06-.36 10.05-2.22.64-.39 1.47-.2 1.86.43.4.64.2 1.47-.43 1.86" opacity="1" data-original="#3b923f"></path><path fill="#4a993a" d="M71.47 25.209c-.03.12-.56 2.86-2.99 5.71 1.08 1.71 1.88 3.23 2.36 4.2-.57.96-1.11 1.99-1.59 3.06l-.36-.87c-.02-.05-3.59-8.1-9.1-12.48-.58-.47-.68-1.32-.21-1.9a1.36 1.36 0 0 1 1.9-.22c2.11 1.69 3.93 3.81 5.42 5.87 1.54-2.04 1.91-3.84 1.91-3.87.14-.73.85-1.21 1.58-1.07s1.21.84 1.08 1.57" opacity="1" data-original="#4a993a"></path></g></svg>