<svg xmlns="http://www.w3.org/2000/svg" version="1.1" xmlns:xlink="http://www.w3.org/1999/xlink" width="512" height="512" x="0" y="0" viewBox="0 0 330 330" xml:space="preserve"><g><path d="M200 120V46s-69.667.016-70 .025V120l-39 60v116c0 18.777 15.223 34 34 34h80c18.777 0 34-15.223 34-34V179z" style="" fill="#ff5023" data-original="#ff5023"></path><path d="M165 46.008c-21.789.005-34.816.012-35 .018V120l-39 60v116c0 18.777 15.223 34 34 34h40z" style="" fill="#bd3c1a" data-original="#bd3c1a"></path><path d="M215 215c0 .416-20 75-20 75h-60l-20-75s12.5-25 50-25 50 24.584 50 25" style="" fill="#ffffff" data-original="#ffffff"></path><path d="M165 190c-37.5 0-50 25-50 25l20 75h30z" style="" fill="#ffe98f" data-original="#ffe98f"></path><path d="M130 0h70v50h-70z" style="" fill="#dedde0" data-original="#dedde0"></path><path d="M130 0h35v50h-35z" style="" fill="#cdcdd0" data-original="#cdcdd0"></path><path d="M130 15h70v20h-70z" style="" fill="#acabb1" data-original="#acabb1"></path><circle cx="165" cy="84.834" r="20" style="" fill="#ffffff" data-original="#ffffff"></circle><path d="M165 104.834c-11.046 0-20-8.955-20-20 0-11.047 8.954-20 20-20" style="" fill="#ffe98f" data-original="#ffe98f"></path></g></svg>