<svg xmlns="http://www.w3.org/2000/svg" version="1.1" xmlns:xlink="http://www.w3.org/1999/xlink" width="512" height="512" x="0" y="0" viewBox="0 0 512.148 512.148" xml:space="preserve"><g><path fill="#814f2b" d="M474.018 233.754H54.911v53.842h-16.78v30h17.312a209 209 0 0 0 3.224 24.614l-16.706 4.476 7.764 28.979 16.714-4.478c8.826 25.41 22.414 48.612 39.689 68.533l-12.312 12.312 21.213 21.213 12.312-12.312c36.778 31.893 84.737 51.216 137.124 51.216s100.346-19.323 137.123-51.216l12.312 12.312 21.213-21.213-12.312-12.312a211 211 0 0 0 15.119-19.659l15.055 8.692 15-25.98-15.013-8.668c13.484-27.664 21.055-58.719 21.055-91.509z" opacity="1" data-original="#814f2b"></path><path fill="#5c3629" d="M474.018 233.754H264.465v278.395c52.387 0 100.346-19.323 137.123-51.216l12.312 12.312 21.213-21.213-12.312-12.312a211 211 0 0 0 15.119-19.659l15.055 8.692 15-25.98-15.013-8.668c13.484-27.664 21.055-58.719 21.055-91.509z" opacity="1" data-original="#5c3629"></path><path fill="#9bda05" d="M264.465 15c-107.45 0-194.554 87.104-194.554 194.553v24.201c0 107.449 87.104 194.553 194.553 194.553s194.553-87.104 194.553-194.553v-24.201C459.018 102.104 371.913 15 264.465 15" opacity="1" data-original="#9bda05"></path><path fill="#6bcd00" d="M264.465 15v413.308c107.448 0 194.553-87.105 194.553-194.553v-24.201C459.018 102.104 371.913 15 264.465 15" opacity="1" data-original="#6bcd00"></path><path fill="#b46e3d" d="M264.465 443.308c-115.548 0-209.554-94.006-209.554-209.554v-24.201C54.911 94.005 148.916 0 264.464 0s209.554 94.005 209.554 209.553v24.201c0 115.548-94.005 209.554-209.553 209.554m0-413.308c-99.006 0-179.554 80.547-179.554 179.553v24.201c0 99.006 80.547 179.554 179.553 179.554h.001c99.006 0 179.553-80.548 179.553-179.554v-24.201C444.018 110.547 363.471 30 264.465 30" opacity="1" data-original="#b46e3d"></path><path fill="#814f2b" d="M264.465 0v30c99.006 0 179.553 80.547 179.553 179.553v24.201c0 99.006-80.547 179.554-179.553 179.554v30c115.548 0 209.553-94.006 209.553-209.554v-24.201C474.018 94.005 380.012 0 264.465 0" opacity="1" data-original="#814f2b"></path><path fill="#d0ea59" d="M264.465 156.827c-35.746 0-64.827 29.081-64.827 64.826 0 35.746 29.081 64.827 64.827 64.827s64.826-29.081 64.826-64.827-29.081-64.826-64.826-64.826" opacity="1" data-original="#d0ea59"></path><path fill="#814f2b" d="M249.465 85.552h30v40.867h-30zM183.418 111.285l25.98-15 20.434 35.391-25.98 15zM139.093 166.598l15-25.98 35.392 20.434-15 25.98zM128.362 206.653h40.867v30h-40.867zM139.092 276.708l35.392-20.434 15 25.98-35.392 20.434zM183.414 332.024l20.434-35.391 25.98 15-20.434 35.39zM249.465 316.888h30v40.867h-30zM299.083 311.623l25.98-15 20.434 35.39-25.98 15zM339.434 282.272l15-25.98 35.392 20.434-15 25.98zM359.699 206.653h40.867v30h-40.867zM339.43 161.043l35.392-20.434 15 25.98-35.392 20.434zM299.088 131.685l20.433-35.39 25.98 15-20.433 35.39z" opacity="1" data-original="#814f2b"></path><path fill="#5c3629" d="m299.083 311.623 25.98-15 20.434 35.39-25.98 15zM339.434 282.272l15-25.98 35.392 20.434-15 25.98zM359.699 206.653h40.867v30h-40.867zM339.43 161.043l35.392-20.434 15 25.98-35.392 20.434zM299.088 131.685l20.433-35.39 25.98 15-20.433 35.39z" opacity="1" data-original="#5c3629"></path><path fill="#9bda05" d="M329.291 221.653c0-35.745-29.081-64.826-64.826-64.826V286.48c35.745 0 64.826-29.081 64.826-64.827" opacity="1" data-original="#9bda05"></path><g fill="#5c3629"><path d="M264.465 85.552h15v40.867h-15zM264.465 316.888h15v40.867h-15z" fill="#000000" opacity="1" data-original="#000000"></path></g></g></svg>