<svg xmlns="http://www.w3.org/2000/svg" version="1.1" xmlns:xlink="http://www.w3.org/1999/xlink" width="512" height="512" x="0" y="0" viewBox="0 0 512 512" xml:space="preserve"><g><path fill="#00d363" d="M437.02 66.939c-24.646-24.635-64.738-24.634-89.374.002-10.2 10.2-13.869 17.423-17.106 23.796-3.959 7.795-8.417 16.573-32.032 37.796H213.5c-23.615-21.223-28.073-30.001-32.032-37.796-3.237-6.373-6.906-13.596-17.108-23.798-24.642-24.632-64.737-24.631-89.384.004-24.632 24.642-24.632 64.737.005 89.384 11.932 11.927 28.142 19.09 39.504 22.974-.147 8.319 1.413 18.679 8.03 27.525 5.45 7.287 16.309 15.974 37.089 15.974 66.926 0 81.077 34.945 82.1 37.74 1.794 6.372 7.494 10.586 14.124 10.694l.235.002c6.567 0 12.321-4.506 14.27-10.799.117-.376 13.571-37.637 82.071-37.637 20.78 0 31.639-8.687 37.088-15.974 6.615-8.846 8.174-19.206 8.026-27.525 11.364-3.884 27.577-11.049 39.506-22.978 24.632-24.642 24.632-64.738-.004-89.384" opacity="1" data-original="#00d363"></path><path fill="#00c087" d="M270.332 260.437c.117-.376 13.571-37.637 82.071-37.637 20.78 0 31.639-8.687 37.088-15.974 6.615-8.846 8.174-19.206 8.026-27.525 11.364-3.884 27.577-11.049 39.506-22.978 24.632-24.642 24.632-64.737-.004-89.384-24.646-24.635-64.738-24.634-89.374.002-10.2 10.2-13.869 17.423-17.106 23.796-3.959 7.795-8.417 16.573-32.032 37.796h-42.504l.059 142.703c6.567-.001 12.322-4.507 14.27-10.799" opacity="1" data-original="#00c087"></path><path fill="#6be433" d="M256.004 271c-8.284 0-15-6.716-15-15 0-19.1-9.778-32.137-21.1-47.233-12.703-16.937-27.1-36.133-27.1-65.233 0-16.798 6.156-28.02 11.32-34.475q.373-.465.746-.908c-5.357-10.755-12.066-27.674-12.066-44.95 0-34.849 28.352-63.2 63.2-63.2s63.2 28.352 63.2 63.2c0 17.276-6.709 34.195-12.066 44.95q.373.443.746.908c5.164 6.455 11.32 17.676 11.32 34.475 0 29.1-14.397 48.297-27.1 65.233-11.322 15.096-21.1 28.133-21.1 47.233 0 8.284-6.716 15-15 15" opacity="1" data-original="#6be433"></path><path fill="#00d363" d="M256.004 0c34.849 0 63.2 28.352 63.2 63.2 0 17.276-6.709 34.195-12.066 44.95q.373.444.746.908c5.164 6.455 11.32 17.676 11.32 34.475 0 29.1-14.397 48.297-27.1 65.233-11.322 15.096-21.1 28.133-21.1 47.233 0 8.284-6.716 15-15 15z" opacity="1" data-original="#00d363"></path><path fill="#eeef4c" d="M256.004 512c-11.423 0-18.566-5.051-23.781-8.739-5.561-3.932-10.363-7.328-24.419-7.328-70.285 0-127.466-57.181-127.466-127.466C80.337 298.181 137.519 241 207.804 241h96.4c70.285 0 127.466 57.181 127.466 127.467 0 70.285-57.181 127.466-127.466 127.466-14.056 0-18.858 3.396-24.419 7.328-5.215 3.688-12.358 8.739-23.781 8.739" opacity="1" data-original="#eeef4c"></path><path fill="#baec00" d="M304.204 495.933c70.285 0 127.466-57.181 127.466-127.466C431.67 298.181 374.489 241 304.204 241h-48.2v271c11.423 0 18.566-5.051 23.781-8.739 5.561-3.932 10.363-7.328 24.419-7.328M143.533 369.533c-24.058 0-36.409-10.61-37.664-11.747-2.824-2.967-6.43-4.647-10.533-4.647s-7.708 1.68-10.533 4.647c-.381.345-1.791 1.566-4.235 3.095a129 129 0 0 0-.232 7.585c0 8.442.833 16.693 2.407 24.68 4.996-1.943 9.203-4.101 12.593-6.142 9.598 5.781 25.607 12.528 48.196 12.528 8.284 0 15-6.716 15-15s-6.715-14.999-14.999-14.999" opacity="1" data-original="#baec00"></path><path fill="#6be433" d="M416.663 353.139c-4.103 0-7.708 1.68-10.533 4.647-1.254 1.137-13.605 11.747-37.664 11.747-8.284 0-15 6.716-15 15s6.716 15 15 15c22.589 0 38.598-6.747 48.196-12.528 3.391 2.043 7.6 4.201 12.6 6.145a127.6 127.6 0 0 0 2.407-24.683c0-2.545-.084-5.071-.232-7.58-2.449-1.532-3.862-2.755-4.243-3.1-2.822-2.968-6.428-4.648-10.531-4.648" opacity="1" data-original="#6be433"></path><path fill="#baec00" d="M304.196 321.333c-24.058 0-36.409-10.61-37.664-11.747-2.824-2.967-6.43-4.647-10.533-4.647s-7.708 1.68-10.533 4.647c-1.254 1.137-13.605 11.747-37.664 11.747-8.284 0-15 6.716-15 15s6.716 15 15 15c22.589 0 38.598-6.747 48.196-12.528 9.598 5.781 25.607 12.528 48.196 12.528 8.284 0 15-6.716 15-15s-6.714-15-14.998-15" opacity="1" data-original="#baec00"></path><path fill="#6be433" d="M256 338.805c9.598 5.781 25.607 12.528 48.196 12.528 8.284 0 15-6.716 15-15s-6.716-15-15-15c-24.058 0-36.409-10.61-37.664-11.747-2.824-2.967-6.43-4.647-10.533-4.647z" opacity="1" data-original="#6be433"></path></g></svg>