<svg xmlns="http://www.w3.org/2000/svg" version="1.1" xmlns:xlink="http://www.w3.org/1999/xlink" width="512" height="512" x="0" y="0" viewBox="0 0 512 512" xml:space="preserve"><g><path d="M0 216h256v80H0z" style="" fill="#fff0bc" data-original="#fff0bc"></path><path d="M256 216h256v80H256z" style="" fill="#ffe17a" data-original="#ffe17a"></path><path d="M452 231v50c0 33.084-26.916 60-60 60l-136 40-30-120 30-130 136 40c33.084 0 60 26.916 60 60" style="" fill="#8a3931" data-original="#8a3931"></path><path d="M256 131v250l-136-40c-33.084 0-60-26.916-60-60v-50c0-33.084 26.916-60 60-60z" style="" fill="#995149" data-original="#995149"></path><path d="M0 386h256v80H0z" style="" fill="#ffe17a" data-original="#ffe17a"></path><path d="M256 386h256v80H256z" style="" fill="#ddb699" data-original="#ddb699"></path><path d="M452 401v50c0 33.084-26.916 60-60 60H256l-30-80 30-90h136c33.084 0 60 26.916 60 60" style="" fill="#751f17" data-original="#751f17"></path><path d="M256 341v170H120c-33.084 0-60-26.916-60-60v-50c0-33.084 26.916-60 60-60z" style="" fill="#8a3931" data-original="#8a3931"></path><path d="M0 46h256v80H0z" style="" fill="#ffe17a" data-original="#ffe17a"></path><path d="M256 46h256v80H256z" style="" fill="#ddb699" data-original="#ddb699"></path><path d="M452 61v50c0 33.084-26.916 60-60 60H256l-30-80 30-90h136c33.084 0 60 26.916 60 60" style="" fill="#751f17" data-original="#751f17"></path><path d="M256 1v170H120c-33.084 0-60-26.916-60-60V61c0-33.084 26.916-60 60-60z" style="" fill="#8a3931" data-original="#8a3931"></path></g></svg>