<svg xmlns="http://www.w3.org/2000/svg" version="1.1" xmlns:xlink="http://www.w3.org/1999/xlink" width="512" height="512" x="0" y="0" viewBox="0 0 511.991 511.991" xml:space="preserve"><g><path fill="#fff5c1" d="m161.336 0-23.451 127.359H225.8L249.251 0z" opacity="1" data-original="#fff5c1"></path><path fill="#f9e796" d="M249.251 0h-55.683v127.359H225.8z" opacity="1" data-original="#f9e796"></path><path fill="#ff6c6c" d="M431.729 307.082c-15.061-21.903-36.141-38.509-60.96-48.023-39.229-15.038-70.917-45.938-86.938-84.775L252.1 97.359H121.321L61.52 336.548c-10.619 42.476-1.256 86.629 25.688 121.14 26.945 34.51 67.509 54.303 111.292 54.303h125.451c72.123 0 130.799-58.676 130.799-130.799 0-26.582-7.96-52.208-23.021-74.11" opacity="1" data-original="#ff6c6c"></path><path fill="#ff2331" d="M431.729 307.082c-15.061-21.903-36.141-38.509-60.96-48.023-39.229-15.038-70.917-45.938-86.938-84.775L252.1 97.359h-58.531v414.547q2.459.084 4.931.084h125.451c72.123 0 130.799-58.676 130.799-130.799 0-26.581-7.96-52.207-23.021-74.109" opacity="1" data-original="#ff2331"></path><path fill="#ff2331" d="M175.577 171.637h34.925l7.413 18.895a239.13 239.13 0 0 0 115.87 126.652l14.824 7.394a62.87 62.87 0 0 1 34.808 56.262c0 34.724-28.149 62.873-62.873 62.873H213.287c-53.707 0-93.115-50.473-80.088-102.576z" opacity="1" data-original="#ff2331"></path><path fill="#bf0000" d="m348.608 324.578-14.823-7.394a239.13 239.13 0 0 1-115.87-126.652l-7.413-18.895h-16.934v269.727a83.2 83.2 0 0 0 19.719 2.349h107.256c34.724 0 62.873-28.149 62.873-62.873a62.87 62.87 0 0 0-34.808-56.262" opacity="1" data-original="#bf0000"></path><path fill="#ffa785" d="m355.305 311.156-14.824-7.395c-49.735-24.809-88.304-66.966-108.602-118.707l-11.149-28.417h-56.865l-45.218 180.862c-7.337 29.347-.868 59.853 17.748 83.696s46.642 37.518 76.892 37.518h107.257c42.939 0 77.873-34.934 77.873-77.874 0-29.716-16.52-56.418-43.112-69.683M187.288 186.637h12.986l3.677 9.374c23.015 58.666 66.746 106.466 123.138 134.596l14.824 7.395a48.05 48.05 0 0 1 14.805 11.421h-44.961c-24.221 0-46.991-9.432-64.117-26.558-22.792-22.793-53.097-35.345-85.331-35.345h-.243zm133.256 242.076H213.287c-20.947 0-40.354-9.47-53.246-25.98s-17.371-37.636-12.29-57.958l6.815-27.257h7.743c24.221 0 46.991 9.432 64.117 26.558 22.792 22.792 53.096 35.345 85.331 35.345h56.639q.021.707.021 1.418c0 26.398-21.476 47.874-47.873 47.874" opacity="1" data-original="#ffa785"></path><path fill="#ff6c6c" d="m355.305 311.156-14.824-7.395c-49.735-24.809-88.304-66.966-108.602-118.707l-11.149-28.417h-27.161v30h6.705l3.677 9.374c23.015 58.666 66.746 106.466 123.138 134.596l14.824 7.395a48.05 48.05 0 0 1 14.805 11.421h-44.961c-24.221 0-46.991-9.432-64.117-26.558-15.226-15.226-33.805-25.882-54.071-31.279v31.442c12.205 4.472 23.393 11.586 32.858 21.051 22.792 22.792 53.096 35.345 85.331 35.345h56.639q.021.707.021 1.418c0 26.397-21.476 47.874-47.873 47.874H213.287a68 68 0 0 1-19.719-2.904v30.924a98.7 98.7 0 0 0 19.719 1.98h107.257c42.939 0 77.873-34.934 77.873-77.874 0-29.719-16.52-56.421-43.112-69.686" opacity="1" data-original="#ff6c6c"></path></g></svg>