<svg xmlns="http://www.w3.org/2000/svg" version="1.1" xmlns:xlink="http://www.w3.org/1999/xlink" width="512" height="512" x="0" y="0" viewBox="0 0 512.037 512.037" xml:space="preserve"><g><path fill="#00a66c" d="m268.841 285.329-14.778-24.449 189.638-155.925 51.72 51.718z" opacity="1" data-original="#00a66c"></path><path fill="#59c36a" d="m271.138 218.209-44.286 25.095L372.13.901l50.888 51.07z" opacity="1" data-original="#59c36a"></path><path fill="#f5e9d5" d="M8.779 460.972c-11.682 11.682-11.681 30.622 0 42.304 11.682 11.682 30.624 11.682 42.305-.001l218.319-218.346-42.295-42.295z" opacity="1" data-original="#f5e9d5"></path><path fill="#edd8b6" d="m8.771 503.266.009.01c11.682 11.682 30.624 11.682 42.305-.001l218.319-218.346-21.148-21.148z" opacity="1" data-original="#edd8b6"></path><path fill="#97de3d" d="M469.734 0 226.305 243.438l42.295 42.295L512.018 42.285z" opacity="1" data-original="#97de3d"></path><path fill="#59c36a" d="m247.452 264.585 21.148 21.148L512.018 42.285l-21.133-21.133z" opacity="1" data-original="#59c36a"></path></g></svg>