<svg xmlns="http://www.w3.org/2000/svg" version="1.1" xmlns:xlink="http://www.w3.org/1999/xlink" width="512" height="512" x="0" y="0" viewBox="0 0 512 512" xml:space="preserve"><g><path fill="#efbeaa" d="M318.449 168.128 255.401 0h-32.864l-9.452 85.631 9.452 82.497z" opacity="1" data-original="#efbeaa"></path><path fill="#f2cdbe" d="M222.537 168.128V0h-73.843l63.048 168.128z" opacity="1" data-original="#f2cdbe"></path><path fill="#dcd2cd" d="M391.657 263.28C370.752 211.667 346.743 162 346.743 162h-67.012l-14.084 350h57.302c57.466 0 104.218-46.752 104.218-104.218-.001-54.11-14.605-92.889-35.51-144.502" opacity="1" data-original="#dcd2cd"></path><path fill="#efe2dd" d="M324.657 263.28C303.752 211.667 279.743 162 279.743 162h-57.206l-9.452 190.001L222.537 512h33.412c57.466 0 104.218-46.752 104.218-104.218-.001-54.11-14.605-92.889-35.51-144.502" opacity="1" data-original="#efe2dd"></path><path fill="#faeee5" d="m182.394 162-6.777 61.554c-2.865 26.014-16.426 49.955-37.245 65.789a114.1 114.1 0 0 0-39.079 41.022 114.1 114.1 0 0 0-14.46 55.521v12.3C84.833 460.943 135.89 512 198.647 512h23.89V162z" opacity="1" data-original="#faeee5"></path><path fill="#fc3636" d="M296.851 274.542c-13.023-32.153-27.425-63.854-36.122-82.542h-38.192l-9.452 192.001L222.537 482h33.412c40.924 0 74.218-33.294 74.218-74.218-.001-47.553-12.587-82.06-33.316-133.24" opacity="1" data-original="#fc3636"></path><path fill="#fc5b3f" d="m209.272 192-3.835 34.838c-3.757 34.118-21.582 65.604-48.903 86.383l-1.1.836-1.172.732a84.06 84.06 0 0 0-28.779 30.209 84 84 0 0 0-10.649 40.887v12.3c0 46.215 37.599 83.813 83.813 83.813h23.89V192z" opacity="1" data-original="#fc5b3f"></path><path fill="#f7f0eb" d="M263.768 383.111c0-22.89-18.411-41.47-41.231-41.764l-20.119 43.746 20.119 39.782c22.82-.294 41.231-18.874 41.231-41.764" opacity="1" data-original="#f7f0eb"></path><path fill="#fffbf5" d="M221.99 341.333c-23.073 0-41.778 18.704-41.778 41.778s18.704 41.778 41.778 41.778c.183 0 .364-.012.547-.014v-83.528c-.183-.002-.363-.014-.547-.014" opacity="1" data-original="#fffbf5"></path></g></svg>