<svg xmlns="http://www.w3.org/2000/svg" version="1.1" xmlns:xlink="http://www.w3.org/1999/xlink" width="512" height="512" x="0" y="0" viewBox="0 0 512 512" xml:space="preserve"><g><path fill="#fed330" d="m358.194 117.971-74.027-58.675c-3.949-11.058-8.383-20.748-13.18-28.802C262.701 16.582 248.591 0 228.425 0c-15.687 0-37.633 10.118-54.944 57.097-32.707 13.41-61.892 39.015-82.754 72.78C68.074 166.542 56.1 210.295 56.1 256.404c0 46.185 12.01 89.993 34.73 126.689 20.934 33.812 50.205 59.408 83.005 72.758C191.106 502.047 212.878 512 228.425 512s37.319-9.954 54.591-56.148c32.8-13.35 62.071-38.946 83.005-72.758 22.721-36.696 34.73-80.505 34.73-126.689 0-51.001-15.114-100.164-42.557-138.434" opacity="1" data-original="#fed330"></path><path fill="#fdbf00" d="m358.194 117.971-74.027-58.675c-3.949-11.058-8.383-20.748-13.18-28.802C262.701 16.582 248.591 0 228.426 0v512c15.547 0 37.319-9.954 54.591-56.148 32.8-13.35 62.071-38.946 83.005-72.758 22.721-36.696 34.73-80.505 34.73-126.689-.001-51.001-15.115-100.164-42.558-138.434" opacity="1" data-original="#fdbf00"></path><path fill="#97de3d" d="M341.619 142.44c-43.43 0-84.94-25.095-103.688-67.27l-.357-.879-9.147-24.673 66.878-29.73c57.082-25.375 124.169.421 149.544 57.505l11.053 24.863-68.425 30.419c-14.911 6.628-30.506 9.765-45.858 9.765" opacity="1" data-original="#97de3d"></path><path fill="#59c36a" d="M341.619 142.44c-43.43 0-84.94-25.095-103.688-67.27l-.357-.879-9.147-24.673L455.9 102.257l-68.425 30.419c-14.909 6.627-30.504 9.764-45.856 9.764" opacity="1" data-original="#59c36a"></path></g></svg>