<svg xmlns="http://www.w3.org/2000/svg" version="1.1" xmlns:xlink="http://www.w3.org/1999/xlink" width="512" height="512" x="0" y="0" viewBox="0 0 512 512" xml:space="preserve"><g><path fill="#97d729" d="M461.741 251.436c1.467-17.166-4.164-33.295-14.448-45.509-4.821-5.726-6.186-13.544-3.432-20.504a62.4 62.4 0 0 0 4.143-17.672c2.288-26.775-12.678-51.042-35.656-61.84.167-1.27.316-2.547.426-3.837 3.915-45.812-30.049-86.123-75.861-90.039s-86.124 30.049-90.039 75.861a84 84 0 0 0-.231 3.854c-24.476 6.743-43.344 28.118-45.632 54.894a62.4 62.4 0 0 0 1.085 18.118c1.532 7.326-1.139 14.8-6.862 19.624-12.208 10.292-20.494 25.231-21.961 42.398-1.77 20.708 6.784 39.908 21.382 52.542 9.34 8.083 14.313 20.03 13.146 32.326q-.028.294-.053.589c-1.695 19.832 6.08 38.281 19.563 50.904 8.543 7.998 14.478 18.348 17.824 29.562 7.118 23.858 28.208 42.116 54.519 44.364 25.917 2.215 49.476-11.739 60.748-33.476 5.685-10.962 14.382-20.053 24.726-26.797 15.547-10.136 26.434-27.066 28.137-46.993q.026-.295.048-.59c.937-12.316 7.865-23.246 18.441-29.627 16.529-9.973 28.217-27.444 29.987-48.152" opacity="1" data-original="#97d729"></path><path fill="#8bc727" d="M429.897 227.902c0-19.918-6.323-38.868-18.019-54.561-3.077-4.129-4.491-9.303-3.75-14.399.636-4.374.956-8.801.956-13.252 0-28.637-13.542-55.228-35.426-72.305-3.825-2.985-6.456-7.206-7.397-11.966-3.58-18.104-11.524-34.657-22.682-48.52a85 85 0 0 0-6.665-.864c-45.812-3.915-86.123 30.049-90.039 75.861a84 84 0 0 0-.231 3.854c-24.477 6.743-43.344 28.118-45.632 54.894a62.4 62.4 0 0 0 1.085 18.119c1.532 7.326-1.139 14.8-6.862 19.624-12.207 10.292-20.494 25.231-21.961 42.398-1.77 20.708 6.784 39.908 21.382 52.542 9.34 8.083 14.313 20.03 13.146 32.326q-.028.295-.053.589c-1.695 19.832 6.08 38.281 19.563 50.904 8.543 7.998 14.478 18.348 17.824 29.562 7.118 23.858 28.208 42.116 54.519 44.365a62.7 62.7 0 0 0 11.019-.035c12.538-9.583 22.647-22.451 28.988-37.739 2.631-6.345 7.256-12.225 13.372-17.001 22.394-17.487 35.238-43.797 35.238-72.183l-.003-.865c-.026-2.811 1.372-5.45 3.836-7.24 23.664-17.188 37.792-44.891 37.792-74.108" opacity="1" data-original="#8bc727"></path><path fill="#97d729" d="M80.246 299.588c10.576 6.381 17.504 17.311 18.441 29.627l.048.59c1.703 19.927 12.59 36.856 28.137 46.993 10.344 6.744 19.041 15.836 24.726 26.797 11.272 21.737 34.831 35.691 60.748 33.476 26.311-2.249 47.401-20.506 54.519-44.364 3.346-11.214 9.281-21.564 17.824-29.562 13.483-12.623 21.258-31.072 19.563-50.904l-.053-.589c-1.167-12.296 3.806-24.243 13.146-32.326 14.597-12.633 23.151-31.834 21.382-52.542-1.467-17.166-9.753-32.106-21.961-42.398-5.723-4.825-8.394-12.298-6.862-19.624a62.4 62.4 0 0 0 1.085-18.118c-2.288-26.775-21.155-48.15-45.632-54.894a85 85 0 0 0-.231-3.854c-3.915-45.812-44.227-79.776-90.039-75.861s-79.776 44.227-75.861 90.039c.11 1.29.259 2.567.426 3.837-22.977 10.799-37.944 35.065-35.656 61.84a62.4 62.4 0 0 0 4.143 17.672c2.753 6.96 1.389 14.778-3.432 20.504-10.284 12.214-15.915 28.343-14.448 45.509 1.77 20.708 13.458 38.179 29.987 48.152" opacity="1" data-original="#97d729"></path><path fill="#8bc727" d="M82.103 227.902c0-19.918 6.323-38.868 18.019-54.561 3.077-4.129 4.491-9.303 3.75-14.399a92 92 0 0 1-.956-13.252c0-28.637 13.542-55.228 35.426-72.305 3.825-2.985 6.456-7.206 7.397-11.966 3.58-18.104 11.524-34.657 22.682-48.52a85 85 0 0 1 6.665-.864c45.812-3.915 86.123 30.049 90.039 75.861.11 1.29.181 2.573.231 3.854 24.477 6.743 43.344 28.118 45.632 54.894a62.4 62.4 0 0 1-1.085 18.119c-1.532 7.326 1.139 14.8 6.862 19.624 12.207 10.292 20.494 25.231 21.961 42.398 1.77 20.708-6.784 39.908-21.382 52.542-9.34 8.083-14.313 20.03-13.146 32.326q.028.295.053.589c1.695 19.832-6.08 38.281-19.563 50.904-8.543 7.998-14.478 18.348-17.824 29.562-7.118 23.858-28.208 42.116-54.519 44.365a62.7 62.7 0 0 1-11.019-.035c-12.538-9.583-22.647-22.451-28.988-37.739-2.631-6.345-7.256-12.225-13.372-17.001-22.394-17.487-35.238-43.797-35.238-72.183l.003-.865c.026-2.811-1.372-5.45-3.836-7.24-23.664-17.188-37.792-44.891-37.792-74.108" opacity="1" data-original="#8bc727"></path><path fill="#d1f19e" d="M256 512c-28.737 0-52.033-23.296-52.033-52.033v-25.165c0-14.776-2.935-29.404-8.635-43.037l-10.644-25.457h142.623l-10.644 25.457a111.6 111.6 0 0 0-8.635 43.037v25.165C308.033 488.704 284.737 512 256 512" opacity="1" data-original="#d1f19e"></path><path fill="#bbec6c" d="m298.173 366.309-10.644 25.457a111.6 111.6 0 0 0-8.635 43.037v25.165c0 23.677-15.821 43.647-37.463 49.95A52 52 0 0 0 256 512.001c28.737 0 52.033-23.296 52.033-52.033v-25.165c0-14.776 2.935-29.404 8.635-43.037l10.644-25.457z" opacity="1" data-original="#bbec6c"></path><path fill="#97d729" d="M283.848 455.206a7.724 7.724 0 0 1-7.718-7.493l-1.213-40.1a7.727 7.727 0 0 1 7.49-7.957c4.274-.112 7.827 3.224 7.956 7.49l1.213 40.1a7.727 7.727 0 0 1-7.728 7.96" opacity="1" data-original="#97d729"></path><path fill="#a2e62e" d="M228.152 455.206a7.724 7.724 0 0 0 7.718-7.493l1.213-40.1a7.727 7.727 0 0 0-7.49-7.957c-4.274-.112-7.827 3.224-7.956 7.49l-1.213 40.1a7.727 7.727 0 0 0 7.728 7.96" opacity="1" data-original="#a2e62e"></path><path fill="#a2e62e" d="M400.759 227.902c0-17.229-6.984-32.82-18.271-44.114-5.291-5.294-7.316-12.968-5.166-20.137a62.4 62.4 0 0 0 2.624-17.96c0-26.873-16.979-49.777-40.792-58.58.058-1.28.098-2.565.098-3.859C339.252 37.273 301.979 0 256 0s-83.252 37.273-83.252 83.252c0 1.294.039 2.579.098 3.859-23.813 8.803-40.792 31.707-40.792 58.58a62.4 62.4 0 0 0 2.624 17.96c2.151 7.169.125 14.843-5.166 20.137-11.287 11.294-18.271 26.885-18.271 44.114 0 20.783 10.158 39.186 25.778 50.53 9.994 7.258 15.966 18.738 15.851 31.09q-.003.295-.003.592c0 19.904 9.318 37.624 23.827 49.053 9.193 7.241 15.988 17.048 20.276 27.937 9.124 23.165 31.692 39.561 58.099 39.561 26.012 0 48.296-15.909 57.677-38.527 4.731-11.406 12.622-21.205 22.354-28.805 14.628-11.423 24.034-29.219 24.034-49.218q0-.296-.003-.592c-.116-12.351 5.857-23.831 15.851-31.09 15.619-11.345 25.777-29.747 25.777-50.531" opacity="1" data-original="#a2e62e"></path><path fill="#97d729" d="M382.488 183.789c-5.291-5.294-7.316-12.968-5.166-20.137a62.4 62.4 0 0 0 2.624-17.961c0-26.873-16.979-49.777-40.792-58.58.058-1.28.098-2.565.098-3.859C339.252 37.273 301.979 0 256 0a83.6 83.6 0 0 0-15.61 1.483c38.514 7.309 67.642 41.128 67.642 81.769v.039a5.7 5.7 0 0 0 3.408 5.239c21.957 9.675 37.287 31.626 37.287 57.161 0 6.243-.917 12.272-2.624 17.961-2.151 7.169-.125 14.843 5.166 20.137 11.287 11.294 18.271 26.885 18.271 44.114 0 20.783-10.158 39.185-25.778 50.53-9.994 7.259-15.967 18.739-15.851 31.09l.003.591c0 19.901-9.314 37.619-23.818 49.049-9.784 7.71-17.81 17.531-22.594 29.032-7.445 17.901-22.98 31.581-42.042 36.491a62.5 62.5 0 0 0 15.608 1.979c26.012 0 48.296-15.91 57.677-38.527 4.731-11.406 12.622-21.205 22.354-28.805 14.628-11.424 24.034-29.219 24.034-49.218q0-.296-.003-.591c-.116-12.351 5.857-23.831 15.851-31.09 15.62-11.344 25.778-29.747 25.778-50.53 0-17.231-6.984-32.821-18.271-44.115" opacity="1" data-original="#97d729"></path><path fill="#d1f19e" d="M334.978 197.523c-3.785-1.963-8.451-.48-10.412 3.31l-14.86 28.706a30.5 30.5 0 0 1-9.296 10.74l-29.951 21.45-1.637-54.018 20.857-14.962a64.8 64.8 0 0 0 14.792-14.752l29.87-12.167a7.726 7.726 0 0 0 4.241-10.07c-1.611-3.952-6.12-5.852-10.07-4.241l-13.823 5.631 7.52-20.416a7.727 7.727 0 0 0-14.501-5.343l-9.483 25.746a49.2 49.2 0 0 1-17.554 23.056l-12.413 8.905-2.316-76.427a9.947 9.947 0 0 0-19.884 0l-2.316 76.427-12.413-8.905a49.2 49.2 0 0 1-17.553-23.056l-9.484-25.746a7.727 7.727 0 1 0-14.501 5.343l7.521 20.417-13.824-5.631a7.727 7.727 0 0 0-5.829 14.311l29.871 12.167a64.7 64.7 0 0 0 14.791 14.752l20.857 14.962-1.637 54.018-29.95-21.449a30.6 30.6 0 0 1-9.298-10.741l-14.859-28.706c-1.961-3.791-6.626-5.276-10.412-3.31a7.724 7.724 0 0 0-3.31 10.412l14.858 28.706a46.1 46.1 0 0 0 14.022 16.201l7.83 5.608a14.17 14.17 0 0 1-11.07 2.325l-14.275-2.972c-4.176-.874-8.269 1.811-9.139 5.99a7.727 7.727 0 0 0 5.99 9.139l14.275 2.972c1.988.413 3.997.617 5.996.617 7.305 0 14.465-2.71 19.953-7.713l1.202-1.096 17.622 12.621-1.649 54.426-12.676-17a52.54 52.54 0 0 0-22.626-17.385l-11.318-4.524a7.727 7.727 0 0 0-5.736 14.348l11.318 4.524a37.1 37.1 0 0 1 14.948 10.994H201.28a7.726 7.726 0 1 0 0 15.452h23.551l12.876 17.269c.265.356.563.671.874.968l-2.669 88.075h40.176l-2.669-88.075c.311-.296.609-.612.874-.968l12.876-17.269h23.551a7.726 7.726 0 1 0 0-15.452h-11.959a37.1 37.1 0 0 1 14.948-10.994l11.318-4.524a7.725 7.725 0 0 0 4.306-10.042 7.726 7.726 0 0 0-10.042-4.306l-11.318 4.524a52.55 52.55 0 0 0-22.626 17.385l-12.676 17-1.649-54.426 17.622-12.62 1.201 1.095c5.489 5.003 12.648 7.713 19.954 7.713 1.998 0 4.008-.203 5.996-.617l14.275-2.972a7.727 7.727 0 0 0-3.149-15.129l-14.275 2.972a14.16 14.16 0 0 1-11.071-2.324l7.832-5.609a46.06 46.06 0 0 0 14.02-16.2l14.859-28.706a7.724 7.724 0 0 0-3.308-10.414" opacity="1" data-original="#d1f19e"></path></g></svg>