<svg xmlns="http://www.w3.org/2000/svg" version="1.1" xmlns:xlink="http://www.w3.org/1999/xlink" width="512" height="512" x="0" y="0" viewBox="0 0 510 510" xml:space="preserve"><g><path fill="#00c97d" d="M103.803 70.109 93.101 95.795c-6.007 14.435-16.093 26.617-28.474 36.036-8.996 6.806-16.691 14.181-22.873 21.921C14.439 187.967 0 227.722 0 268.72v10.48c0 51.811 23.165 101.534 65.219 140.006 1.394 1.277 2.439 2.636 3.026 3.935 6.746 14.917 17.547 27.31 31.237 35.839 14.4 8.972 31.396 13.521 50.517 13.521l9.091-204L150 37.5c-20.544 0-38.212 13.437-46.197 32.609" opacity="1" data-original="#00c97d"></path><path fill="#00a88d" d="M258.245 153.75c-6.179-7.737-13.874-15.112-22.872-21.919-12.323-9.378-22.437-21.53-28.476-36.041l-10.699-25.677C187.948 50.301 169.814 37.5 150 37.5v435c30.866 0 57.209-12.887 73.471-34.99L300 262.5c0-40.997-14.438-74.533-41.755-108.75" opacity="1" data-original="#00a88d"></path><path fill="#abe751" d="M150 262.5v30c0 99.252 80.748 180 180 180l19.5-105-19.5-105z" opacity="1" data-original="#abe751"></path><path fill="#60d64d" d="M330 262.5v210c99.252 0 180-80.748 180-180v-30z" opacity="1" data-original="#60d64d"></path><path fill="#60d64d" d="M210 262.5v30c0 66.168 53.832 120 120 120l10-77.107-10-72.893zm30 30h53.787l-42.893 42.893C243.949 322.635 240 308.02 240 292.5m75 88.743c-17.31-2.917-32.958-10.786-45.428-22.103L315 313.713z" opacity="1" data-original="#60d64d"></path><path fill="#00c97d" d="M330 262.5v150c66.168 0 120-53.832 120-120v-30zm15 118.743v-67.53l45.428 45.428c-12.47 11.316-28.118 19.185-45.428 22.102m64.105-45.85L366.213 292.5H420c0 15.52-3.949 30.135-10.895 42.893" opacity="1" data-original="#00c97d"></path></g></svg>