<svg xmlns="http://www.w3.org/2000/svg" version="1.1" xmlns:xlink="http://www.w3.org/1999/xlink" width="512" height="512" x="0" y="0" viewBox="0 0 512 512" xml:space="preserve"><g><path d="M353.622 94.799c-30.174 30.174-77.45 30.832-79.448 30.845l-15.35.102.102-15.35c.013-1.998.671-49.274 30.845-79.448S367.221.115 369.22.102L384.569 0l-.102 15.35c-.013 1.998-.671 49.274-30.845 79.449" style="" fill="#8adb53" data-original="#8adb53"></path><path d="M353.622 94.799c-30.174 30.174-77.45 30.832-79.448 30.845l-15.35.102L384.569 0l-.102 15.35c-.013 1.998-.671 49.274-30.845 79.449" style="" fill="#4fc16e" data-original="#4fc16e"></path><path d="M241 0h30v130.88h-30z" style="" fill="#ba7400" data-original="#ba7400"></path><path d="M256 0h15v130.88h-15z" style="" fill="#804d00" data-original="#804d00"></path><path d="M0 305.804C0 419.683 92.317 512 206.196 512h99.609C419.683 512 512 419.683 512 305.804S419.683 99.608 305.804 99.608h-99.609C92.317 99.608 0 191.925 0 305.804" style="" fill="#f7ba35" data-original="#f7ba35"></path><path d="M256 512h49.804C419.683 512 512 419.683 512 305.804S419.683 99.608 305.804 99.608H256z" style="" fill="#fd9702" data-original="#fd9702"></path><circle cx="187.22" cy="271" r="15" style="" fill="#fde888" data-original="#fde888"></circle><circle cx="118.6" cy="271" r="15" style="" fill="#fde888" data-original="#fde888"></circle><circle cx="152.91" cy="223.01" r="15" style="" fill="#fde888" data-original="#fde888"></circle></g></svg>