<svg xmlns="http://www.w3.org/2000/svg" version="1.1" xmlns:xlink="http://www.w3.org/1999/xlink" width="512" height="512" x="0" y="0" viewBox="0 0 512 512" xml:space="preserve"><g><path d="m381.35 156.407-22.97-19.387 11.485 9.694-11.528-9.642c1.317-1.59 31.934-39.371 4.145-76.666l24.103-17.959c17.524 23.519 22.114 50.837 13.274 79.001-6.329 20.164-17.282 33.504-18.509 34.959" style="" fill="#c27b48" data-original="#c27b48"></path><path d="M419.111 248.436c0 40.147-13.376 80.615-39.035 113.328-18.957 24.157-43.524 46.279-71.047 63.963-27.062 17.393-56.409 30.158-84.873 36.921-19.518 4.629-39.145 6.903-58.372 6.903-39.446 0-77.189-9.548-108.89-27.824a183 183 0 0 1-23.255-15.851C11.566 408.174-7.992 378.827 3.3 349.541 8.199 336.816 17.718 328 25.373 320.926c32.933-30.479 51.239-55.828 63.172-87.499 15.871-42.131 35.649-73.712 60.446-96.546 29.126-26.812 65.386-41.119 107.768-42.532 32.122-1.062 62.23 5.37 87.078 18.616 13.256 7.064 24.868 15.871 34.777 26.331a113 113 0 0 1 4.95 5.511c8.627 10.2 15.79 21.802 21.451 34.787 9.477 21.742 14.096 45.237 14.096 68.842" style="" fill="#ffb13b" data-original="#ffb13b"></path><path d="M419.111 248.436c0 40.147-13.376 80.615-39.035 113.328-18.957 24.157-43.524 46.279-71.047 63.963-27.062 17.393-56.409 30.158-84.873 36.921-19.518 4.629-39.145 6.903-58.372 6.903-39.446 0-77.189-9.548-108.89-27.824l321.72-302.432 4.95 5.511c8.627 10.2 15.79 21.802 21.451 34.787 9.477 21.743 14.096 45.238 14.096 68.843" style="" fill="#ff9500" data-original="#ff9500"></path><path d="M512 92.357c-36.155 47.506-81.267 50.139-122.068.374 38.384-47.483 81.22-49.52 122.068-.374" style="" fill="#11a892" data-original="#11a892"></path><path d="M512 92.357c-36.155 47.506-81.267 50.139-122.068.374z" style="" fill="#0f9887" data-original="#0f9887"></path></g></svg>