<svg xmlns="http://www.w3.org/2000/svg" version="1.1" xmlns:xlink="http://www.w3.org/1999/xlink" width="512" height="512" x="0" y="0" viewBox="0 0 366.37 366.37" xml:space="preserve"><g><path d="M349.091 95.092c0 31.508-8.779 60.956-24.015 86.049a166.8 166.8 0 0 1-21.153 27.72c-30.25 32.103-73.15 52.135-120.737 52.135S92.7 240.963 62.45 208.861a166.8 166.8 0 0 1-21.153-27.72C26.061 156.048 17.282 126.6 17.282 95.092" style="" fill="#ffe165" data-original="#ffe165"></path><path d="M349.09 91.592c0 31.508-8.779 60.956-24.015 86.049a166.8 166.8 0 0 1-21.153 27.72c-30.25 32.103-73.15 52.135-120.737 52.135s-90.487-20.033-120.737-52.135a166.8 166.8 0 0 1-21.153-27.72C26.059 152.548 17.28 123.1 17.28 91.592z" style="" fill="#ffe165" data-original="#ffe165"></path><path d="M183.186 274.777c-50.251 0-98.842-20.982-133.315-57.565a184.3 184.3 0 0 1-23.332-30.578C9.172 158.031 0 125.174 0 91.592h34.563c0 27.255 7.437 53.909 21.505 77.08a149.8 149.8 0 0 0 18.945 24.823c28.393 30.132 66.804 46.719 108.172 46.719s79.779-16.587 108.159-46.705a150 150 0 0 0 18.973-24.861c14.053-23.147 21.49-49.801 21.49-77.056h34.563c0 33.582-9.172 66.439-26.525 95.018a184.4 184.4 0 0 1-23.36 30.616c-34.457 36.57-83.048 57.551-133.299 57.551" style="" fill="#ffa250" data-original="#ffa250"></path><path d="M183.187 147.496c-30.866 0-59.529-12.378-80.709-34.854a112.2 112.2 0 0 1-14.216-18.624q-.73-1.204-1.43-2.426H279.54q-.72 1.261-1.476 2.505a111.6 111.6 0 0 1-14.128 18.5c-21.211 22.511-49.883 34.899-80.749 34.899" style="" fill="#ffa250" data-original="#ffa250"></path><circle cx="142.936" cy="108.092" r="13" style="" fill="#fffeb9" data-original="#fffeb9"></circle><circle cx="223.436" cy="108.092" r="13" style="" fill="#fffeb9" data-original="#fffeb9"></circle><circle cx="183.186" cy="123.185" r="13" style="" fill="#fffeb9" data-original="#fffeb9"></circle></g></svg>