<svg xmlns="http://www.w3.org/2000/svg" version="1.1" xmlns:xlink="http://www.w3.org/1999/xlink" width="512" height="512" x="0" y="0" viewBox="0 0 512 512" xml:space="preserve"><g><path fill="#fd9d8c" d="M484.333 293.937c0-35.152-24.95-64.586-58.071-71.524v-7.881c0-33.166-26.399-60.266-59.286-61.431-.509-35.406-29.452-64.056-64.976-64.056h-46l-10.667 145.622 10.667 96h228.333z" opacity="1" data-original="#fd9d8c"></path><path fill="#feb4a8" d="M210 89.045c-35.525 0-64.467 28.65-64.976 64.056-32.886 1.165-59.285 28.265-59.285 61.431v7.881c-33.122 6.938-58.072 36.372-58.072 71.524v36.73H256V89.045z" opacity="1" data-original="#feb4a8"></path><path fill="#f28572" d="M367.001 324.334h-30v-42.667c0-31.797 25.869-57.667 57.666-57.667v30c-15.255 0-27.666 12.411-27.666 27.667z" opacity="1" data-original="#f28572"></path><path fill="#fd9d8c" d="M228.334 256h-30c0-15.255-12.411-27.666-27.667-27.666v-30c31.798 0 57.667 25.869 57.667 57.666" opacity="1" data-original="#fd9d8c"></path><path fill="#f28572" d="M283.667 217.667h30c0-15.255 12.411-27.667 27.667-27.667v-30c-31.798 0-57.667 25.869-57.667 57.667" opacity="1" data-original="#f28572"></path><path fill="#fd9d8c" d="M87.334 256h30v70h-30z" opacity="1" data-original="#fd9d8c"></path><path fill="#e7e7e7" d="m256 306.198-10.667 56.469L256 422.955h185.102l14.733-7.902A106.34 106.34 0 0 0 512 321.198v-15z" opacity="1" data-original="#e7e7e7"></path><path fill="#f0f0f0" d="M0 306.198v15a106.34 106.34 0 0 0 56.166 93.855l14.733 7.902H256V306.198z" opacity="1" data-original="#f0f0f0"></path><path fill="#fd9d8c" d="M194 130h30v30h-30z" opacity="1" data-original="#fd9d8c"></path></g></svg>