<svg xmlns="http://www.w3.org/2000/svg" version="1.1" xmlns:xlink="http://www.w3.org/1999/xlink" width="512" height="512" x="0" y="0" viewBox="0 0 512 512" xml:space="preserve"><g><path fill="#ff8080" d="M221.846 138.146c-11.513-1.617-23.594-.291-35.112 4.48s-20.998 12.375-27.996 21.66c-11.256 2.912-21.909 8.76-30.725 17.576s-14.664 19.469-17.576 30.725c-9.285 6.998-16.889 16.477-21.66 27.996s-6.097 23.599-4.48 35.112A67.1 67.1 0 0 0 75 309.848h181l20-87.451-20-93.549a67.1 67.1 0 0 0-34.154 9.298" opacity="1" data-original="#ff8080"></path><path fill="#ff5b5b" d="M427.702 275.695c1.617-11.513.291-23.594-4.48-35.112s-12.375-20.998-21.66-27.996c-2.912-11.256-8.76-21.909-17.576-30.725s-19.469-14.664-30.725-17.576a67.07 67.07 0 0 0-27.996-21.66 67.1 67.1 0 0 0-35.112-4.48 67.1 67.1 0 0 0-34.154-9.298v181h181a67.07 67.07 0 0 0-9.297-34.153" opacity="1" data-original="#ff5b5b"></path><path fill="#c83c50" d="M370.242 309.848h-30a21.93 21.93 0 0 0-3.023-11.116l-2.657-4.512.729-5.186a21.9 21.9 0 0 0-1.461-11.424 21.9 21.9 0 0 0-7.046-9.112l-4.182-3.151-1.312-5.07c-.977-3.773-2.955-7.23-5.722-9.997s-6.224-4.745-9.997-5.722l7.514-29.043a51.93 51.93 0 0 1 23.696 13.552 52 52 0 0 1 12.015 18.777 51.96 51.96 0 0 1 16.664 40.231 52 52 0 0 1 4.782 21.773" opacity="1" data-original="#c83c50"></path><path fill="#ff5b5b" d="m179.027 252.472-29.043-7.516a57.365 57.365 0 0 1 36.192-39.606 57.4 57.4 0 0 1 20.546-14.469 57.4 57.4 0 0 1 24.758-4.297 57.4 57.4 0 0 1 24.52-5.505v30a27.3 27.3 0 0 0-13.854 3.77l-4.514 2.658-5.187-.729c-4.811-.677-9.736-.047-14.242 1.819s-8.433 4.904-11.358 8.785l-3.152 4.183-5.07 1.312a27.3 27.3 0 0 0-12.462 7.131 27.34 27.34 0 0 0-7.134 12.464" opacity="1" data-original="#ff5b5b"></path><path fill="#beebfa" d="M0 294.973v30h30.609v28.178c0 16.569 13.431 30 30 30H256l10-46.895-10-41.284z" opacity="1" data-original="#beebfa"></path><path fill="#96c8ef" d="M256 294.973v88.178h195.391c16.569 0 30-13.431 30-30v-28.178H512v-30z" opacity="1" data-original="#96c8ef"></path></g></svg>