<svg xmlns="http://www.w3.org/2000/svg" version="1.1" xmlns:xlink="http://www.w3.org/1999/xlink" width="512" height="512" x="0" y="0" viewBox="0 0 510.041 510.041" xml:space="preserve"><g><path fill="#e4e4ff" d="m255.016 360.009-123.673-15-123.673 15a137 137 0 0 0 5.63 13.687c2.878 6.045 5.856 11.219 9.21 16.313l116.253 15 116.253-15 15-15z" opacity="1" data-original="#e4e4ff"></path><path fill="#d0cef1" d="m255.016 390.009 116.253 15 116.253-15a135.4 135.4 0 0 0 14.84-30l-123.673-15-123.673 15z" opacity="1" data-original="#d0cef1"></path><path fill="#ff6c6c" d="M212.474 83.619c-28.967-22.743-73.428-5.625-76.739 29.76-36.205-10.689-70.108 21.222-58.734 54.97-37.86 3.102-56.082 44.718-31.798 71.83-23.67 11.527-31.857 38.775-19.522 59.83l114.167 15 115.167-15 15-119.984-15-119.983c-18.643-.367-34.635 9.374-42.541 23.577" opacity="1" data-original="#b56028"></path><path fill="#ffa785" d="M255.016 254.009h-30v-30h30l15 15z" opacity="1" data-original="#c97a45"></path><path fill="#ff2331" d="M462.829 240.179c24.257-27.081 6.112-68.724-31.798-71.83 11.4-33.823-22.621-65.632-58.734-54.97-3.298-35.248-47.643-52.605-76.739-29.76-7.663-13.765-22.896-23.229-40.542-23.577v239.967l113.667 15 113.667-15c12.44-21.233 3.975-48.388-19.521-59.83" opacity="1" data-original="#8f4c1f"></path><path fill="#ffa785" d="M150.016 254.009c-24.812 0-45-20.186-45-45h30c0 8.271 6.729 15 15 15s15-6.729 15-15h30c0 24.812-20.186 45-45 45" opacity="1" data-original="#c97a45"></path><path fill="#ff6c6c" d="M375.016 209.009h-30c0-8.271-6.728-15-15-15s-15 6.728-15 15h-30c0-24.812 20.186-45 45-45 24.813 0 45 20.186 45 45" opacity="1" data-original="#b56028"></path><path fill="#ffa785" d="M225.016 179.009h-30v-30h30z" opacity="1" data-original="#c97a45"></path><path fill="#f4f1f1" d="M22.51 390.009c25.277 38.38 59.52 49.417 65.923 53.478l13.042 6.522h153.541l15-30-15-30z" opacity="1" data-original="#f4f1f1"></path><path fill="#e4e4ff" d="M255.016 450.009h153.541l13.042-6.522c6.479-4.108 40.636-15.083 65.923-53.478H255.016z" opacity="1" data-original="#e4e4ff"></path><path fill="#f4f1f1" d="M255.016 300.009h-255c0 19.465-.736 36.012 7.653 60h247.347l15-30z" opacity="1" data-original="#f4f1f1"></path><path fill="#e4e4ff" d="M255.016 300.009v60h247.347c8.518-24.355 7.653-41.531 7.653-60z" opacity="1" data-original="#e4e4ff"></path></g></svg>