<svg xmlns="http://www.w3.org/2000/svg" version="1.1" xmlns:xlink="http://www.w3.org/1999/xlink" width="512" height="512" x="0" y="0" viewBox="0 0 512.021 512.021" xml:space="preserve"><g><path fill="#25ae7f" d="M341.227 2.699s-17.244 18.97-2.225 43.891c0 0-82.738-10.632-82.866-10.573-23.15 10.725-36.11 35.805-31.776 60.948q.176 1.02.356 2.038c-15.653-2.779-52.995-6.472-55.639-6.755-33.391 33.391-28.51 83.478-27.252 90.562 0 0-30.111-4.493-45.213-5.783-33.942 33.942-11.769 115.501-11.769 115.501-11.303-2.007-22.866-3.563-34.412-4.763a372.2 372.2 0 0 0-8.323 122.252c1.198 12.27 2.093 27.585 2.583 39.73l21.413-3.888L273.1 310.434 505.706 6.254S378.525-4.872 341.227 2.699" opacity="1" data-original="#25ae7f"></path><path fill="#008575" d="m66.102 445.859 3.745-.68-6.495 22.072c11.49.506 26.896 1.367 38.486 2.498a372.2 372.2 0 0 0 122.252-8.323c-1.201-11.546-2.757-23.109-4.763-34.412 0 0 82.99 20.742 115.5-11.769-1.29-15.102-3.15-30.381-5.783-45.213s56.695 6.615 90.562-27.252c-.283-2.644-3.976-39.986-6.755-55.639q1.017.18 2.038.357c25.143 4.333 50.224-8.626 60.948-31.777l-10.573-82.866c23.475 13.573 43.891-2.225 43.891-2.225 8.063-37.298-3.45-145.941-3.45-164.374z" opacity="1" data-original="#008575"></path><path fill="#97ce7e" d="m349.445 141.345-32.643 32.643c-.633-24.85-10.608-48.119-28.253-65.763l-21.172 21.172c12.585 12.585 19.516 29.318 19.516 47.115 0 16.355-5.867 31.801-16.582 43.966l-20.599 20.599c-.577-23.941-9.954-47.708-28.185-65.939l-21.172 21.172c25.265 25.265 25.952 65.934 2.077 92.047l-19.739 19.739c-.552-23.977-9.929-47.787-28.187-66.044l-21.172 21.172c25.979 25.979 25.979 68.251.001 94.23L0 490.79l10.585 10.585 139.189-125.82L360.03 151.93z" opacity="1" data-original="#97ce7e"></path><path fill="#25ae7f" d="M370.617 162.516 360.03 151.93 10.585 501.375l10.586 10.586 133.444-133.227c12.585-12.585 29.317-19.516 47.115-19.516s34.53 6.931 47.115 19.516l21.172-21.172c-17.745-17.745-41.179-27.731-66.188-28.26l17.698-17.589c25.98-25.979 68.251-25.979 94.232 0l21.172-21.172c-18.285-18.284-42.138-27.663-66.15-28.19 0 0 19.359-19.18 20.133-20.01 12.264-11.094 27.986-17.166 44.642-17.166 17.798 0 34.531 6.931 47.116 19.516l21.172-21.172c-17.693-17.694-41.044-27.676-65.974-28.258z" opacity="1" data-original="#25ae7f"></path></g></svg>