<svg xmlns="http://www.w3.org/2000/svg" version="1.1" xmlns:xlink="http://www.w3.org/1999/xlink" width="512" height="512" x="0" y="0" viewBox="0 0 511.945 511.945" xml:space="preserve"><g><path fill="#814f2b" d="M240.973 23.904h30v57.747h-30z" opacity="1" data-original="#814f2b"></path><path fill="#5c3629" d="M255.973 23.904h15v57.747h-15z" opacity="1" data-original="#5c3629"></path><path fill="#fff68e" d="M15 220.802c0 218.179 240.973 252.091 240.973 252.091s240.973-33.912 240.973-252.091c0-88.724-71.925-160.648-160.648-160.648-29.262 0-56.694 7.828-80.324 21.497-23.63-13.67-51.062-21.497-80.324-21.497C86.925 60.154 15 132.078 15 220.802" opacity="1" data-original="#fff68e"></path><path fill="#ffda44" d="M336.297 60.154c-29.262 0-56.694 7.827-80.324 21.497v391.243s240.973-33.912 240.973-252.091c-.001-88.725-71.926-160.649-160.649-160.649" opacity="1" data-original="#ffda44"></path><path fill="#ff9b73" d="m255.973 488.042-2.09-.294c-2.582-.363-63.936-9.321-126.051-46.182-36.922-21.912-66.415-49.165-87.657-81.004C13.517 320.605 0 273.583 0 220.802 0 123.949 78.795 45.154 175.648 45.154c28.002 0 55.593 6.689 80.324 19.412 24.731-12.723 52.322-19.412 80.324-19.412 96.853 0 175.648 78.795 175.648 175.648 0 52.781-13.517 99.803-40.174 139.759-21.242 31.839-50.734 59.092-87.657 81.004-62.116 36.861-123.47 45.819-126.051 46.182zM175.648 75.154C95.337 75.154 30 140.491 30 220.802c0 46.75 11.819 88.17 35.13 123.109 18.732 28.076 44.979 52.251 78.011 71.854 50.836 30.168 101.956 40.087 112.819 41.936 10.926-1.877 62.749-11.996 113.639-42.41 32.831-19.621 58.908-43.784 77.508-71.819 23.117-34.843 34.838-76.116 34.838-122.671 0-80.311-65.337-145.648-145.648-145.648-25.604 0-50.782 6.736-72.813 19.481l-7.511 4.345-7.511-4.345c-22.031-12.744-47.21-19.48-72.814-19.48" opacity="1" data-original="#ff9b73"></path><path fill="#ff6b6b" d="M336.297 45.154c-28.002 0-55.593 6.689-80.324 19.412V98.98l7.511-4.345c22.031-12.745 47.209-19.481 72.813-19.481 80.311 0 145.648 65.337 145.648 145.648 0 46.555-11.721 87.828-34.838 122.671-18.6 28.035-44.677 52.198-77.508 71.819-50.871 30.403-102.675 40.525-113.626 42.408v30.342l2.09-.294c2.582-.363 63.936-9.321 126.051-46.182 36.922-21.912 66.415-49.165 87.657-81.004 26.658-39.956 40.174-86.978 40.174-139.759 0-96.854-78.795-175.649-175.648-175.649" opacity="1" data-original="#ff6b6b"></path><path fill="#814f2b" d="m263.828 178.477-7.855-4.828-7.855 4.828c-2.62 1.61-64.153 40.021-64.153 91.047s61.534 89.438 64.153 91.047l7.855 4.828 7.855-4.828c2.62-1.61 64.153-40.021 64.153-91.047s-61.534-89.438-64.153-91.047" opacity="1" data-original="#814f2b"></path><path fill="#5c3629" d="m263.828 178.477-7.855-4.828V365.4l7.855-4.828c2.62-1.61 64.153-40.021 64.153-91.047s-61.534-89.439-64.153-91.048" opacity="1" data-original="#5c3629"></path></g></svg>