<svg xmlns="http://www.w3.org/2000/svg" version="1.1" xmlns:xlink="http://www.w3.org/1999/xlink" width="512" height="512" x="0" y="0" viewBox="0 0 512 512" xml:space="preserve"><g><path fill="#784d5d" d="M324.86 482v30h-34.43c-13.38 0-25.52-5.35-34.43-14.01-8.91 8.66-21.05 14.01-34.43 14.01h-34.43v-30h34.43c10.71 0 19.43-8.72 19.43-19.43h30c0 10.71 8.72 19.43 19.43 19.43z" opacity="1" data-original="#784d5d"></path><path fill="#623557" d="M324.86 482v30h-34.43c-13.38 0-25.52-5.35-34.43-14.01v-35.42h15c0 10.71 8.72 19.43 19.43 19.43z" opacity="1" data-original="#623557"></path><path fill="#96de3d" d="M270 123.85h-86.51v-87.6H256z" opacity="1" data-original="#96de3d"></path><path fill="#5ac36b" d="M256 0h72.51v123.85H256z" opacity="1" data-original="#5ac36b"></path><circle cx="256" cy="290.03" r="181.27" fill="#ffe88d" opacity="1" data-original="#ffe88d"></circle><path fill="#fdca75" d="M437.27 290.03c0 100.12-81.16 181.27-181.27 181.27V108.76c100.11 0 181.27 81.16 181.27 181.27" opacity="1" data-original="#fdca75"></path><ellipse cx="256" cy="290.03" fill="#fdca75" rx="124.186" ry="181.27" opacity="1" data-original="#fdca75"></ellipse><path fill="#fba65e" d="M380.186 290.03c0 100.12-55.596 181.27-124.186 181.27V108.76c68.59 0 124.186 81.16 124.186 181.27" opacity="1" data-original="#fba65e"></path><ellipse cx="256" cy="290.03" fill="#ffe88d" rx="54.38" ry="181.27" opacity="1" data-original="#ffe88d"></ellipse><path fill="#fdca75" d="M310.38 290.03c0 100.12-24.347 181.27-54.38 181.27V108.76c30.033 0 54.38 81.16 54.38 181.27" opacity="1" data-original="#fdca75"></path></g></svg>