<svg xmlns="http://www.w3.org/2000/svg" version="1.1" xmlns:xlink="http://www.w3.org/1999/xlink" width="512" height="512" x="0" y="0" viewBox="0 0 512 512" xml:space="preserve"><g><path fill="#66bb00" d="M316.003 0C290.127 0 265.266 9.496 246 26.74L271.003 137h30v-17c0-49.626 40.374-90 90-90V0z" opacity="1" data-original="#66bb00"></path><path fill="#b9dd39" d="M301.003 105v32l-45 12-45-12v-17c0-49.63-40.37-90-90-90V0h75c22.29 0 42.99 6.99 60 18.89 27.19 18.98 45 50.5 45 86.11" opacity="1" data-original="#b9dd39"></path><path fill="#90cc1c" d="M301.003 105v32l-45 12V18.89c27.19 18.98 45 50.5 45 86.11" opacity="1" data-original="#90cc1c"></path><path fill="#efb9ff" d="M450.483 390.3c-2.87 36.71-21.79 69.14-49.9 91.28h-144.58l-144.59-.01c-28.11-22.13-47.02-54.56-49.89-91.27-2.99-38.34 6.85-79.79 27.71-116.73 21.21-37.54 51.54-66.22 85.41-80.76 22.09-9.49 36.36-31.39 36.36-55.81h90v.02c0 24.4 14.27 46.3 36.36 55.79 71.26 30.59 119.2 119.67 113.12 197.49" opacity="1" data-original="#efb9ff"></path><path fill="#da90f8" d="M450.483 390.3c-2.87 36.71-21.79 69.14-49.9 91.28h-144.58V137h45v.02c0 24.4 14.27 46.3 36.36 55.79 71.26 30.59 119.2 119.67 113.12 197.49" opacity="1" data-original="#da90f8"></path><path fill="#da90f8" d="M400.583 481.58c-20.18 15.9-45.11 26.48-72.24 29.52l2.66-74.1c0-50.64-37.47-86.79-44.97-93.52l-30.03-26.88-30.02 26.88c-7.51 6.73-44.98 42.88-44.98 93.52l2.67 74.1c-27.15-3.04-52.08-13.63-72.26-29.53-25.27-104.83 45.23-176.68 64.51-193.94l80.08-71.7 80.05 71.67c19.32 17.3 89.8 89.15 64.53 193.98" opacity="1" data-original="#da90f8"></path><path fill="#b760ea" d="M400.583 481.58c-20.18 15.9-45.11 26.48-72.24 29.52l2.66-74.1c0-50.64-37.47-86.79-44.97-93.52l-30.03-26.88V215.93l80.05 71.67c19.32 17.3 89.8 89.15 64.53 193.98" opacity="1" data-original="#b760ea"></path><path fill="#b760ea" d="m296.033 332.31-40.03-35.85-40.03 35.85c-8.34 7.47-49.97 47.63-49.97 104.69 0 28.68 6.44 54.11 17.67 74.1 5.3.59 10.69.9 16.15.9h112.36c5.46 0 10.85-.31 16.16-.9 11.22-19.99 17.66-45.42 17.66-74.1 0-57.06-41.63-97.22-49.97-104.69" opacity="1" data-original="#b760ea"></path><path fill="#8b3cba" d="M346.003 437c0 28.68-6.44 54.11-17.66 74.1-5.31.59-10.7.9-16.16.9h-56.18V296.46l40.03 35.85c8.34 7.47 49.97 47.63 49.97 104.69" opacity="1" data-original="#8b3cba"></path></g></svg>