<svg xmlns="http://www.w3.org/2000/svg" version="1.1" xmlns:xlink="http://www.w3.org/1999/xlink" width="512" height="512" x="0" y="0" viewBox="0 0 512 512" xml:space="preserve"><g><path fill="#ff7c48" d="m256 77.418-20.488 217.291L256 512c120.007 0 217.291-97.285 217.291-217.291S376.007 77.418 256 77.418" opacity="1" data-original="#ff7c48"></path><path fill="#ffb655" d="M38.709 294.709C38.709 414.715 135.993 512 256 512V77.418c-120.007 0-217.291 97.284-217.291 217.291" opacity="1" data-original="#ffb655"></path><path fill="#ff7c48" d="M131.556 375.248h31.893v30h-31.893zM99.664 311.462h31.893v30H99.664z" opacity="1" data-original="#ff7c48"></path><path fill="#00cc76" d="M313.578 0C287.948 0 265.899 15.277 256 37.215L235.984 64 256 97.434h53.06c34.88 0 63.155-28.276 63.155-63.155V0z" opacity="1" data-original="#00cc76"></path><path fill="#a5e887" d="M198.422 0h-58.637v34.278c0 34.88 28.276 63.155 63.155 63.155H256V37.215C246.1 15.277 224.052 0 198.422 0" opacity="1" data-original="#a5e887"></path></g></svg>