<svg xmlns="http://www.w3.org/2000/svg" version="1.1" xmlns:xlink="http://www.w3.org/1999/xlink" width="512" height="512" x="0" y="0" viewBox="0 0 512 512" xml:space="preserve"><g><path fill="#d7e183" d="m256 256-62.423 38.133L139.433 256C62.426 256 0 193.574 0 116.567V0h116.567C193.574 0 256 62.426 256 139.433l42.336 55.626z" opacity="1" data-original="#d7e183"></path><path fill="#97ce7e" d="m256 256 62.423 38.133L372.567 256C449.574 256 512 193.574 512 116.567V0H395.433C318.426 0 256 62.426 256 139.433z" opacity="1" data-original="#97ce7e"></path><path fill="#d7e183" d="M0 512h116.567C193.574 512 256 449.574 256 372.567l30.465-50.395L256 256H139.433C62.426 256 0 318.426 0 395.433z" opacity="1" data-original="#d7e183"></path><path fill="#97ce7e" d="M512 512H395.433C318.426 512 256 449.574 256 372.567V256h116.567C449.574 256 512 318.426 512 395.433zM201.49 71.083c-36.011 36.011-36.011 94.396 0 130.407l7.487 43.151L256 256l42.336-93.849L256 16.572z" opacity="1" data-original="#97ce7e"></path><path fill="#25ae7f" d="M310.51 71.083 256 16.572V256l48.296-8.7 6.215-45.81c36.01-36.011 36.01-94.396-.001-130.407" opacity="1" data-original="#25ae7f"></path><path fill="#008575" d="m256 256 11.359 47.023 43.151 7.487c36.011 36.011 94.396 36.011 130.407 0l54.51-54.51-54.51-54.51c-36.011-36.011-94.396-36.011-130.407 0z" opacity="1" data-original="#008575"></path><path fill="#25ae7f" d="m16.572 256 54.51 54.51c36.011 36.011 94.396 36.011 130.407 0l37.813-9.32L256 256l-54.51-54.51c-36.011-36.011-94.396-36.011-130.407 0z" opacity="1" data-original="#25ae7f"></path><path fill="#97ce7e" d="M201.49 310.51c-36.011 36.011-36.011 94.396 0 130.407l54.51 54.51 34.564-139.236L256 256z" opacity="1" data-original="#97ce7e"></path><path fill="#25ae7f" d="M310.51 310.51 256 256v239.428l54.51-54.51c36.011-36.012 36.011-94.397 0-130.408" opacity="1" data-original="#25ae7f"></path><path fill="#d7e183" d="M241 271v114.147h15l7.5-67.107L256 256l-10.133 2.591zM256 126.853h-15V241l3.763 12.286L256 256l7.5-58.62z" opacity="1" data-original="#d7e183"></path><g fill="#97ce7e"><path d="m256 256-15-15H126.853v30H241zM256 256l15-2.702V126.853h-15zM256 256v129.147h15V262.341z" fill="#97ce7e" opacity="1" data-original="#000000"></path></g><path fill="#25ae7f" d="M385.147 241H271l-15 15 15 15h114.147z" opacity="1" data-original="#25ae7f"></path></g></svg>