<svg xmlns="http://www.w3.org/2000/svg" version="1.1" xmlns:xlink="http://www.w3.org/1999/xlink" width="512" height="512" x="0" y="0" viewBox="0 0 512.002 512.002" xml:space="preserve"><g><path fill="#4dba5a" d="M503.284 0c0 6.49-.67 12.89-1.97 19.1-3.63 17.44-12.25 33.46-25.15 46.36l-6.52 6.52-10.6-10.6-10.61-10.61 6.52-6.52c11.82-11.82 18.33-27.54 18.33-44.25z" opacity="1" data-original="#4dba5a"></path><path fill="#fa851b" d="M471.164 203.11c-42.57 39.2-74.51 93.42-83.06 151.6-6.16 40.47-25.46 78.97-56.72 110.23-106.93 106.93-274.11-1.8-274.11-1.8s-108.73-167.18-1.8-274.11c31.26-31.26 69.76-50.56 110.23-56.72 58.18-8.55 112.4-40.49 151.6-83.06 42.87-42.86 111.46-43.61 153.85.01 43.62 42.39 42.87 110.98.01 153.85" opacity="1" data-original="#fa851b"></path><path fill="#f84c1b" d="M471.164 203.11c-42.57 39.2-74.51 93.42-83.06 151.6-6.16 40.47-25.46 78.97-56.72 110.23-106.93 106.93-274.11-1.8-274.11-1.8l413.88-413.88c43.62 42.39 42.87 110.98.01 153.85" opacity="1" data-original="#f84c1b"></path><path fill="#ffbf66" d="M355.704 200.92c-7.89 23.66-17.52 52.56-27.15 81.45-16.08 48.24-23.8 85.06-49.25 110.51-58.46 58.46-163.57 11.8-163.57 11.8s-46.66-105.11 11.8-163.57c25.45-25.45 62.27-33.17 110.51-49.25 28.89-9.63 57.79-19.26 81.45-27.15 11.19-3.73 22.11-.27 29.3 6.91 7.181 7.19 10.64 18.11 6.91 29.3" opacity="1" data-original="#ffbf66"></path><path fill="#ff974d" d="M355.704 200.92c-7.89 23.66-17.52 52.56-27.15 81.45-16.08 48.24-23.8 85.06-49.25 110.51-58.46 58.46-163.57 11.8-163.57 11.8l233.06-233.06c7.181 7.19 10.64 18.11 6.91 29.3" opacity="1" data-original="#ff974d"></path><path fill="#814c59" d="m161.397 295.143 21.21-21.21 21.21 21.21-21.21 21.21zM199.76 256.786l21.21-21.21 21.21 21.21-21.21 21.21z" opacity="1" data-original="#814c59"></path><path fill="#673351" d="m242.353 299.381 21.21-21.21 21.21 21.21-21.21 21.21zM203.994 337.733l21.21-21.21 21.21 21.21-21.21 21.21z" opacity="1" data-original="#673351"></path><path fill="#814c59" d="m260.932 238.225 21.207-21.207 21.206 21.207-21.206 21.206zM185.494 356.13l-21.21 21.21-10.6-10.6-10.61-10.61 21.21-21.21z" opacity="1" data-original="#814c59"></path><g fill="#673351"><path d="m153.63 366.722 21.206-21.206 10.598 10.598-21.206 21.207zM271.54 248.834l21.207-21.206 10.598 10.598-21.206 21.207z" fill="#000000" opacity="1" data-original="#000000"></path></g></g></svg>