<svg xmlns="http://www.w3.org/2000/svg" version="1.1" xmlns:xlink="http://www.w3.org/1999/xlink" width="512" height="512" x="0" y="0" viewBox="0 0 68 68" xml:space="preserve"><g><path fill="#77e244" d="M61.771 27.447 48.733 30.91l-2.09-4.585 11.162-7.575a4.848 4.848 0 1 1 3.967 8.697" opacity="1" data-original="#77e244"></path><path fill="#62d333" d="M62.557 27.172c-.25.114-.514.2-.783.273l-13.043 3.46-2.087-4.576 2.602-1.775a4.24 4.24 0 0 0 4.943 2.337l9.584-2.543a5 5 0 0 0 .783-.273 5 5 0 0 0 .747-.425 4.85 4.85 0 0 1-2.746 3.521" opacity="1" data-original="#62d333"></path><path fill="#57c624" d="M47.688 29.367a.751.751 0 0 1-.311-1.432l9.55-4.356a.75.75 0 0 1 .622 1.365L48 29.3a.75.75 0 0 1-.31.067" opacity="1" data-original="#57c624"></path><path fill="#77e244" d="M42.397 8.073 38.934 21.11l4.585 2.09 7.575-11.162a4.848 4.848 0 1 0-8.697-3.967" opacity="1" data-original="#77e244"></path><path fill="#62d333" d="M42.673 7.287c-.115.25-.201.514-.273.783l-3.462 13.043 4.577 2.087 1.775-2.602a4.24 4.24 0 0 1-2.337-4.943l2.543-9.584c.073-.27.159-.532.273-.783a5 5 0 0 1 .425-.747 4.85 4.85 0 0 0-3.521 2.746" opacity="1" data-original="#62d333"></path><path fill="#57c624" d="M41.226 22.906a.75.75 0 0 1-.682-1.062l4.356-9.55a.75.75 0 0 1 1.365.623l-4.356 9.55a.75.75 0 0 1-.683.44" opacity="1" data-original="#57c624"></path><path fill="#77e244" d="m59.62 17.743-12.246 8.688-3.965-3.965 8.688-12.246c1.933-2.726 5.854-3.056 8.217-.694 2.362 2.363 2.032 6.284-.694 8.217" opacity="1" data-original="#77e244"></path><path fill="#62d333" d="M60.332 17.15a5.6 5.6 0 0 1-.71.59L47.37 26.427l-3.96-3.96 2.023-2.863a4.72 4.72 0 0 0 6.064.512l9.002-6.385c.253-.18.493-.373.71-.59.229-.228.433-.48.614-.734a5.4 5.4 0 0 1-1.492 4.742" opacity="1" data-original="#62d333"></path><path fill="#57c624" d="M45.391 25.198a.75.75 0 0 1-.53-1.28l8.262-8.262a.75.75 0 1 1 1.06 1.06l-8.261 8.262a.75.75 0 0 1-.53.22" opacity="1" data-original="#57c624"></path><path fill="#ffeaa9" d="M39.286 17.903c-2.742-.564-5.607.495-7.402 2.644-5.523 6.61-6.436 14.057-15.96 23.088-6.49 6.155-11.608 11.583-13.22 17.358-.49 1.75 1.45 3.214 2.968 2.216 15.766-10.37 36.902-7.597 46.941-27.082 1.241-2.409 1.238-5.274-.077-7.643-3.06-5.513-7.264-9.35-13.25-10.581" opacity="1" data-original="#ffeaa9"></path><path fill="#f9da93" d="M52.619 36.13C42.579 55.62 21.43 52.847 5.665 63.216c-1.51.984-3.445-.476-2.97-2.231.296-1.034.706-2.051 1.198-3.085.542.23 1.198.214 1.772-.18C21.431 47.35 42.578 50.124 52.62 30.65c.164-.328.311-.672.426-1.017.771 2.1.607 4.463-.426 6.497" opacity="1" data-original="#f9da93"></path><path fill="#f2cc81" d="M15.486 49.342c.31.27.34.74.07 1.05a.757.757 0 0 1-1.06.08l-2.92-2.56-.01-.01c.35-.35.7-.71 1.06-1.06zM15.486 57.482c.23.2.31.51.21.79-.36.13-.73.27-1.09.42a.5.5 0 0 1-.11-.08l-2.92-2.56a.735.735 0 0 1-.07-1.05c.27-.32.74-.35 1.05-.07zM24.406 49.852c.31.27.35.75.07 1.06-.14.17-.35.25-.56.25-.18 0-.35-.06-.5-.18l-2.92-2.56a.744.744 0 0 1-.07-1.05c.27-.32.74-.35 1.06-.07zM24.406 40.592c.31.27.35.75.07 1.06-.14.17-.35.26-.56.26-.18 0-.35-.06-.49-.19l-2.93-2.55a.7.7 0 0 1-.19-.26v-.01c.29-.35.56-.7.82-1.04.13.02.26.08.36.18zM32.376 51.892c.21.18.29.46.24.71-.4.14-.81.29-1.21.44-.01-.01-.01-.02-.02-.02l-2.92-2.55a.756.756 0 0 1-.07-1.06c.27-.32.74-.35 1.06-.07zM30.776 30.652a.756.756 0 0 1-.07-1.06c.27-.31.75-.35 1.06-.07l2.92 2.55c.31.27.35.75.07 1.06-.14.17-.35.26-.56.26-.18 0-.35-.06-.49-.19zM34.316 23.662l-2.91-2.53c.16-.2.32-.39.48-.59.16-.19.33-.37.5-.55l2.92 2.54a.757.757 0 0 1-.5 1.32c-.17 0-.35-.06-.49-.19M36.766 40.592a.756.756 0 0 1-.5 1.32.72.72 0 0 1-.49-.19l-2.92-2.55a.748.748 0 1 1 .98-1.13zM41.366 47.652c.17.15.26.37.25.58-.35.23-.71.45-1.07.66a1 1 0 0 1-.17-.11l-2.92-2.56a.736.736 0 0 1-.08-1.05c.28-.32.75-.35 1.06-.08zM47.636 31.472l-2.93-2.55a.756.756 0 0 1-.07-1.06c.27-.31.75-.35 1.06-.07l2.92 2.55c.31.28.35.75.07 1.06-.14.17-.35.26-.56.26-.18 0-.35-.06-.49-.19M50.696 39.382c-.27.41-.55.81-.83 1.19a.56.56 0 0 1-.22-.13l-2.93-2.55a.756.756 0 0 1-.07-1.06c.27-.31.75-.34 1.06-.07l2.93 2.56z" opacity="1" data-original="#f2cc81"></path></g></svg>