<svg xmlns="http://www.w3.org/2000/svg" version="1.1" xmlns:xlink="http://www.w3.org/1999/xlink" width="512" height="512" x="0" y="0" viewBox="0 0 512 512" xml:space="preserve"><g><path fill="#2bb300" d="m380.576 237.91-45.877 45.877A554.4 554.4 0 0 0 271 360.141V79.667h-30v280.475a554.4 554.4 0 0 0-63.699-76.354l-50.544-50.544-21.213 21.213L156.088 305a524.4 524.4 0 0 1 66.018 80.713L241 414.194V512h30v-97.806l18.895-28.48a524.4 524.4 0 0 1 66.018-80.713l45.877-45.878z" opacity="1" data-original="#2bb300"></path><path fill="#b9e600" d="M243.619 12.381a74.1 74.1 0 0 0-15.771 23.302c-.642-.692-1.283-1.384-1.956-2.057L213.51 21.245l-12.381 12.381a74 74 0 0 0-1.542 1.588c-19.131 20.284-19.456 51.911-1.433 73.186L256 176.686l20-97.019L256 0z" opacity="1" data-original="#b9e600"></path><path fill="#77cc00" d="M312.413 35.214a79 79 0 0 0-1.542-1.588L298.49 21.245l-12.381 12.381c-.673.673-1.314 1.365-1.956 2.057a74.1 74.1 0 0 0-15.771-23.302L256 0v176.686l57.847-68.286c18.022-21.274 17.697-52.902-1.434-73.186" opacity="1" data-original="#77cc00"></path><path fill="#b9e600" d="M15.022 142.722v17.51a74.1 74.1 0 0 0 5.325 27.629c-.943-.035-1.886-.072-2.838-.072H-.001v17.51q0 1.11.032 2.213c.814 27.871 22.949 50.465 50.737 52.764l89.189 7.381-39.475-69.475z" opacity="1" data-original="#b9e600"></path><path fill="#77cc00" d="m139.958 267.658-7.381-89.189c-2.3-27.787-24.894-49.922-52.764-50.737a74 74 0 0 0-2.213-.032H60.09v17.51c0 .952.036 1.895.072 2.838a74.1 74.1 0 0 0-27.629-5.325h-17.51z" opacity="1" data-original="#77cc00"></path><path fill="#b9e600" d="M496.978 142.722h-17.51a74.1 74.1 0 0 0-27.629 5.325c.035-.943.072-1.886.072-2.838v-17.51h-17.51q-1.11 0-2.213.032c-27.87.815-50.464 22.95-52.764 50.737l-7.381 89.189 70.563-50.563z" opacity="1" data-original="#b9e600"></path><path fill="#77cc00" d="M491.652 187.86a74.1 74.1 0 0 0 5.325-27.629v-17.51L372.042 267.658l89.189-7.381c27.787-2.3 49.922-24.894 50.737-52.764q.032-1.103.032-2.213v-17.51h-17.51c-.951-.001-1.895.035-2.838.07" opacity="1" data-original="#77cc00"></path></g></svg>