<svg xmlns="http://www.w3.org/2000/svg" version="1.1" xmlns:xlink="http://www.w3.org/1999/xlink" width="512" height="512" x="0" y="0" viewBox="0 0 512.001 512.001" xml:space="preserve"><g><path fill="#5c2866" d="m196.161 82.756-9.984 82.07 9.984 320.133c99.687 0 180.5-90.036 180.5-201.102 0-111.065-80.813-201.101-180.5-201.101" opacity="1" data-original="#5c2866"></path><path fill="#754080" d="M15.661 283.857c0 111.065 80.813 201.102 180.5 201.102V82.756c-99.688 0-180.5 90.036-180.5 201.101M483.69 410.142c16.866-40.718 16.866-85.567 0-126.285s-48.579-72.431-89.297-89.298l-72.382 148.613-53.903 156.268c20.583 8.525 41.921 12.561 62.928 12.56 64.776.001 126.363-38.385 152.654-101.858" opacity="1" data-original="#754080"></path><path fill="#926ba6" d="M394.393 194.559c-84.054-34.815-180.766 5.242-215.582 89.298-16.866 40.718-16.866 85.568 0 126.285 16.866 40.719 48.579 72.432 89.297 89.298zq0 .002 0 0" opacity="1" data-original="#926ba6"></path><path fill="#f2ece6" d="M455.974 295.338c-13.799-33.315-39.746-59.263-73.061-73.061l-60.901 120.897-42.423 128.55c16.836 6.974 34.304 10.276 51.486 10.277 53.004.004 103.387-31.402 124.899-83.339 13.8-33.314 13.8-70.01 0-103.324" opacity="1" data-original="#f2ece6"></path><path fill="#fff5f5" d="M382.913 222.276c-16.836-6.974-34.304-10.277-51.486-10.277-53.004 0-103.387 31.402-124.899 83.339-13.8 33.315-13.8 70.01 0 103.324 13.799 33.315 39.747 59.263 73.062 73.061z" opacity="1" data-original="#fff5f5"></path><path fill="#ffbf80" d="M428.257 387.181c10.733-25.911 10.733-54.452 0-80.363s-30.914-46.093-56.825-56.826l-49.421 93.181-30.943 100.835c13.098 5.425 26.677 7.993 40.044 7.993 41.223 0 80.415-24.428 97.145-64.82" opacity="1" data-original="#ffbf80"></path><path fill="#ffe14d" d="M371.432 249.992c-53.492-22.154-115.033 3.337-137.189 56.826-10.733 25.911-10.733 54.452-.001 80.363s30.914 46.093 56.826 56.826z" opacity="1" data-original="#ffe14d"></path><path fill="#ffe14d" d="M400.541 318.299c-7.666-18.509-22.081-32.924-40.59-40.59l-37.94 65.464-19.462 73.118a74.6 74.6 0 0 0 28.603 5.71c29.447.002 57.437-17.446 69.389-46.3 7.667-18.508 7.667-38.894 0-57.402" opacity="1" data-original="#ffe14d"></path><path fill="#ffff80" d="M359.952 277.709a74.6 74.6 0 0 0-28.603-5.71c-29.447 0-57.438 17.446-69.389 46.3-7.667 18.508-7.667 38.895 0 57.402 7.667 18.509 22.082 32.924 40.59 40.59z" opacity="1" data-original="#ffff80"></path><path fill="#2d2d2d" d="m339.52 366.668 11.49-27.72 27.72 11.49-11.49 27.72z" opacity="1" data-original="#2d2d2d"></path><path fill="#4b5055" d="m284.066 343.706 11.49-27.72 27.72 11.49-11.49 27.72z" opacity="1" data-original="#4b5055"></path><path fill="#2d2d2d" d="m362.33 311.165-13.858-5.74-14.98 10.031 3.499 17.686 13.858 5.74zM339.369 366.598l-13.859-5.74-14.979 10.032 3.499 17.685 13.858 5.74z" opacity="1" data-original="#2d2d2d"></path><path fill="#4b5055" d="m323.273 327.463 11.49-27.72 13.86 5.745-11.49 27.72zM300.31 382.916l11.49-27.72 13.86 5.745-11.49 27.72z" opacity="1" data-original="#4b5055"></path><path fill="#00aa95" d="M234.649 0a69.56 69.56 0 0 0-38.488 11.557l-10 49.12 10 49.12h68.488c38.604 0 69.898-31.294 69.898-69.898V0z" opacity="1" data-original="#00aa95"></path><path fill="#00dd80" d="M164.75 69.898v39.898h31.41V11.557c-18.92 12.508-31.41 33.962-31.41 58.341" opacity="1" data-original="#00dd80"></path></g></svg>