<svg xmlns="http://www.w3.org/2000/svg" version="1.1" xmlns:xlink="http://www.w3.org/1999/xlink" width="512" height="512" x="0" y="0" viewBox="0 0 512.061 512.061" xml:space="preserve"><g><path fill="#ff8859" d="M329.869 249.792c-2.534-49.53-19.048-85.019-49.083-105.481-34.039-23.19-76.302-20.306-100.667-15.815l-24.997 13.42 10 304.96 10.019-8.993c6.934-6.224 20.958-11.582 35.804-17.256 25.064-9.577 56.257-21.496 80.515-46.559 28.611-29.56 41.176-70.211 38.409-124.276" opacity="1" data-original="#ff8859"></path><path fill="#ffb655" d="M49.457 144.311C19.421 164.773 2.908 200.262.374 249.792c-2.767 54.065 9.798 94.717 38.409 124.276 24.259 25.064 55.452 36.982 80.516 46.559 14.846 5.673 28.87 11.032 35.804 17.256l10.019 8.993v-304.96l-15.002-13.422c-24.367-4.49-66.627-7.372-100.663 15.817" opacity="1" data-original="#ffb655"></path><path fill="#ff8859" d="M492.272 213.371c-20.057-42.184-47.259-67.121-80.852-74.118-47.723-9.939-91.857 20.52-104.974 30.712l38.75 119.68L420.07 444.28l5.815-12.144c3.687-7.699 13.823-17.29 24.556-27.443 18.302-17.314 41.078-38.862 53.149-69.405 14.25-36.049 10.548-75.928-11.318-121.917" opacity="1" data-original="#ff8859"></path><path fill="#ffb655" d="M210.501 222.477c-18.806 28.701-20.408 65.569-4.762 109.581 17.059 47.979 42.64 78.797 78.206 94.213 30.132 13.061 61.474 12.193 86.658 11.495 14.771-.409 28.719-.796 36.769 2.041l12.699 4.475-113.624-274.316c-16.483 2.068-69.229 11.737-95.946 52.511" opacity="1" data-original="#ffb655"></path><path fill="#ffda44" d="m331.24 229.821-13.859 5.74-14.367-34.687c-17.072 3.139-50.703 12.41-67.493 38.157-6.004 9.207-9.444 20.021-10.226 32.14-.953 14.793 1.979 31.896 8.712 50.837 14.117 39.71 34.355 64.811 61.869 76.737 24.024 10.414 50.52 9.68 73.896 9.031 5.592-.155 10.954-.303 16.081-.303 6.911 0 13.396.27 19.451 1.158z" opacity="1" data-original="#ffda44"></path><path fill="#ffb655" d="M465.179 226.253c-8.631-18.154-18.653-32.321-29.787-42.107-9.122-8.017-19.2-13.231-29.957-15.496-30.071-6.336-60.4 10.881-74.704 20.743l14.367 34.687-13.858 5.74 13.957 59.825 60.108 118.985c6.362-8.551 14.977-16.701 24.52-25.73 16.987-16.071 36.242-34.287 45.866-58.639 11.023-27.887 7.584-59.946-10.512-98.008" opacity="1" data-original="#ffb655"></path><path fill="#895140" d="M416.264 316.603c4.785-17.216 3.307-36.631-4.165-54.669s-20.154-32.812-35.712-41.602c-16.758-9.467-34.828-11.02-50.887-4.37l19.697 73.683 38.174 66.03c16.057-6.65 27.738-20.526 32.893-39.072" opacity="1" data-original="#895140"></path><path fill="#c9885b" d="M325.5 215.962q0 .002 0 0c-16.057 6.651-27.739 20.527-32.894 39.073-4.785 17.216-3.307 36.631 4.165 54.669s20.154 32.812 35.712 41.602c9.917 5.603 20.291 8.433 30.438 8.433 7 0 13.894-1.349 20.449-4.063z" opacity="1" data-original="#c9885b"></path><path fill="#ff415b" d="m165.122 131.916-10 31.253 10 34.674h14.998v-69.346c-6.383 1.176-11.542 2.462-14.998 3.419" opacity="1" data-original="#ff415b"></path><path fill="#ff8859" d="M165.122 197.842v-65.927c-3.457-.957-8.617-2.244-15.002-3.421v69.347h15.002z" opacity="1" data-original="#ff8859"></path><path fill="#24b3b3" d="m165.122 131.916-55.25 16.107C63.324 161.593 14.588 134.859 1.017 88.31L0 84.823l55.25-16.107c46.549-13.57 95.285 13.164 108.855 59.713z" opacity="1" data-original="#24b3b3"></path><path fill="#5b362a" d="M387.36 308.568c3-10.792 1.942-23.276-2.978-35.154-7.819-18.878-24.005-31.456-38.551-31.456-3.053 0-6.035.554-8.851 1.721l8.216 45.967 26.694 38.313c7.346-3.043 12.84-9.929 15.47-19.391" opacity="1" data-original="#5b362a"></path><path fill="#895140" d="M336.981 243.679q0 .001 0 0c-7.347 3.043-12.841 9.93-15.471 19.391-3 10.792-1.942 23.276 2.978 35.154 9.462 22.842 31.173 36.461 47.402 29.735z" opacity="1" data-original="#895140"></path></g></svg>