<svg xmlns="http://www.w3.org/2000/svg" version="1.1" xmlns:xlink="http://www.w3.org/1999/xlink" width="512" height="512" x="0" y="0" viewBox="0 0 511.986 511.986" xml:space="preserve"><g><path fill="#814f2b" d="M270.993 61.007h-30V50.816c0-11.478-9.338-20.816-20.816-20.816V0c28.02 0 50.816 22.796 50.816 50.816z" opacity="1" data-original="#814f2b"></path><path fill="#5c3629" d="M270.993 50.816c0-14.061-5.74-26.805-15-36.015v46.206h15z" opacity="1" data-original="#5c3629"></path><path fill="#ffefd7" d="M101.902 348.765c0-31.054 9.754-61.324 27.884-86.536l11.54-16.047a178.18 178.18 0 0 0 33.52-104.026c0-44.817 36.331-81.148 81.148-81.148s81.148 36.331 81.148 81.148a178.18 178.18 0 0 0 33.52 104.026l11.54 16.047a148.22 148.22 0 0 1 27.884 86.535c0 81.86-66.361 148.221-148.221 148.221h-11.741c-81.861.002-148.222-66.359-148.222-148.22" opacity="1" data-original="#ffefd7"></path><path fill="#ffe0b8" d="m382.201 262.23-11.54-16.047a178.18 178.18 0 0 1-33.52-104.026c0-44.817-36.331-81.149-81.148-81.149v435.979h5.87c81.86 0 148.221-66.361 148.221-148.221a148.2 148.2 0 0 0-27.883-86.536" opacity="1" data-original="#ffe0b8"></path><path fill="#9bda05" d="M261.864 511.986h-11.741c-90 0-163.221-73.221-163.221-163.221 0-34.407 10.618-67.359 30.705-95.293l11.54-16.048c20.083-27.927 30.698-60.871 30.698-95.269 0-53.017 43.132-96.149 96.148-96.149s96.148 43.132 96.148 96.148c0 34.398 10.615 67.342 30.698 95.269l11.54 16.048c20.087 27.934 30.705 60.886 30.705 95.292 0 90.003-73.22 163.223-163.22 163.223m-5.871-435.979c-36.474 0-66.148 29.674-66.148 66.148 0 40.722-12.567 79.722-36.341 112.784l-11.54 16.048c-16.396 22.8-25.062 49.695-25.062 77.778 0 73.458 59.763 133.221 133.221 133.221h11.741c73.458 0 133.221-59.763 133.221-133.221 0-28.083-8.666-54.979-25.062-77.778l-11.54-16.048c-23.774-33.062-36.341-72.061-36.341-112.783 0-36.474-29.675-66.149-66.149-66.149" opacity="1" data-original="#9bda05"></path><path fill="#6bcd00" d="m394.379 253.473-11.54-16.048c-20.083-27.927-30.698-60.871-30.698-95.269 0-53.017-43.132-96.148-96.148-96.148v30c36.474 0 66.148 29.674 66.148 66.149 0 40.722 12.567 79.722 36.341 112.783l11.54 16.048c16.396 22.8 25.062 49.695 25.062 77.778 0 73.458-59.763 133.221-133.221 133.221h-5.871v30h5.871c90 0 163.221-73.221 163.221-163.221 0-34.408-10.617-67.359-30.705-95.293" opacity="1" data-original="#6bcd00"></path><path fill="#814f2b" d="M210.991 327h30v40.003h-30zM270.995 327h30v40.003h-30z" opacity="1" data-original="#814f2b"></path><path fill="#5c3629" d="M270.995 327h30v40.003h-30z" opacity="1" data-original="#5c3629"></path></g></svg>