<svg xmlns="http://www.w3.org/2000/svg" version="1.1" xmlns:xlink="http://www.w3.org/1999/xlink" width="512" height="512" x="0" y="0" viewBox="0 0 512.033 512.033" xml:space="preserve"><g><path fill="#57c126" d="m375.596 105.575 3.332-4.852c8.758-12.751 13.387-27.683 13.387-43.181V22.589h-74.942c-25.112 0-47.431 12.186-61.355 30.954-13.925-18.768-36.244-30.954-61.355-30.954h-74.942v34.953c0 15.498 4.629 30.429 13.386 43.181l3.333 4.852z" opacity="1" data-original="#57c126"></path><path fill="#00a763" d="M317.372 22.589c-25.112 0-47.431 12.186-61.355 30.954v52.032h119.579l3.332-4.852c8.758-12.751 13.387-27.683 13.387-43.181V22.589z" opacity="1" data-original="#00a763"></path><path fill="#ffda44" d="M379.733 93.768c-26.786-4.723-53.526.098-77.995 12.439-28.734 14.492-62.709 14.492-91.443 0-24.469-12.341-51.209-17.162-77.995-12.439C51.167 108.074.352 204.489 18.8 309.116s99.175 177.848 180.308 163.542a117.2 117.2 0 0 0 23.036-6.542c21.705-8.64 46.038-8.64 67.744 0a117.2 117.2 0 0 0 23.036 6.542c81.133 14.306 161.859-58.914 180.308-163.542 18.449-104.627-32.366-201.042-113.499-215.348" opacity="1" data-original="#ffda44"></path><path fill="#ffb655" d="M379.733 93.768c-26.786-4.723-53.526.098-77.995 12.439a101.5 101.5 0 0 1-45.721 10.869v342.56c11.51 0 23.019 2.16 33.872 6.48a117.2 117.2 0 0 0 23.036 6.542c81.133 14.306 161.859-58.914 180.308-163.542 18.448-104.627-32.367-201.042-113.5-215.348" opacity="1" data-original="#ffb655"></path><path fill="#ffb655" d="M333.336 489.444h-.017a133 133 0 0 1-22.999-2.014 132.7 132.7 0 0 1-25.979-7.378c-9.029-3.593-18.559-5.416-28.324-5.416s-19.295 1.823-28.325 5.417a132.7 132.7 0 0 1-25.979 7.378 133 133 0 0 1-23.001 2.014c-40.018 0-79.812-18.201-112.052-51.25-31.746-32.542-53.989-77.458-62.631-126.474-9.498-53.863-2.072-107.54 20.909-151.143 23.647-44.867 60.851-73.84 104.758-81.582a133 133 0 0 1 22.994-2.013c21.878 0 43.532 5.326 64.36 15.831 12.014 6.06 25.489 9.262 38.967 9.262 13.479 0 26.953-3.203 38.967-9.262 20.827-10.504 42.481-15.831 64.36-15.831 7.684 0 15.42.677 22.994 2.013 43.907 7.742 81.111 36.715 104.758 81.582 22.981 43.603 30.406 97.28 20.909 151.143-8.644 49.019-30.886 93.937-62.63 126.479-32.234 33.044-72.027 51.244-112.039 51.244m-77.32-44.808c13.581 0 26.844 2.538 39.419 7.543a102.7 102.7 0 0 0 20.095 5.707 103 103 0 0 0 17.793 1.558h.013c67.362 0 129.751-65.744 145.124-152.932 8.349-47.342 1.99-94.202-17.903-131.946-19.228-36.481-48.856-59.929-83.428-66.025a102.7 102.7 0 0 0-17.785-1.557c-17.144 0-34.252 4.245-50.851 12.617-16.184 8.162-34.329 12.476-52.477 12.476s-36.293-4.314-52.476-12.476c-16.6-8.372-33.708-12.617-50.851-12.617-5.941 0-11.925.524-17.785 1.557-34.572 6.096-64.201 29.544-83.428 66.025-19.893 37.745-26.251 84.604-17.904 131.946 15.373 87.186 77.769 152.933 145.139 152.933 5.944 0 11.93-.524 17.792-1.558a102.6 102.6 0 0 0 20.093-5.707c12.576-5.006 25.838-7.544 39.42-7.544" opacity="1" data-original="#ffb655"></path><path fill="#ff8755" d="M487.096 160.578c-23.646-44.867-60.851-73.84-104.758-81.582a133 133 0 0 0-22.994-2.013c-21.879 0-43.533 5.326-64.36 15.831-12.014 6.059-25.488 9.262-38.967 9.262v30c18.147 0 36.293-4.314 52.477-12.476 16.599-8.372 33.707-12.617 50.851-12.617 5.941 0 11.925.524 17.785 1.557 34.571 6.096 64.2 29.544 83.428 66.025 19.894 37.745 26.252 84.604 17.903 131.946-15.373 87.188-77.762 152.932-145.124 152.932h-.013a103 103 0 0 1-17.793-1.558 102.7 102.7 0 0 1-20.095-5.707c-12.575-5.005-25.838-7.543-39.419-7.543v30a76.3 76.3 0 0 1 28.324 5.416 132.7 132.7 0 0 0 25.979 7.378 133 133 0 0 0 22.999 2.014h.017c40.013 0 79.806-18.2 112.039-51.244 31.744-32.542 53.986-77.46 62.63-126.479 9.497-53.862 2.072-107.539-20.909-151.142" opacity="1" data-original="#ff8755"></path><path fill="#ffb655" d="M390.762 214.72c-14.088-26.73-36.362-44.011-62.719-48.658-11-1.941-22.386-1.536-33.45 1.186-25.234 6.206-51.917 6.206-77.152 0-11.065-2.721-22.449-3.126-33.452-1.186-26.357 4.647-48.631 21.928-62.719 48.658-13.479 25.575-17.847 56.99-12.298 88.457 5.047 28.624 18.072 54.89 36.676 73.961 19.15 19.631 42.891 30.441 66.85 30.441 4.632 0 9.297-.408 13.841-1.209l.457-.082a163.8 163.8 0 0 1 58.431-.002l.444.079a80 80 0 0 0 13.864 1.213c23.959 0 47.702-10.812 66.85-30.44 18.603-19.07 31.628-45.337 36.676-73.962 5.549-31.466 1.181-62.881-12.299-88.456" opacity="1" data-original="#ffb655"></path><path fill="#ff8755" d="M390.762 214.72c-14.088-26.73-36.362-44.011-62.719-48.658-11-1.941-22.386-1.536-33.45 1.186a161.7 161.7 0 0 1-38.576 4.654v231.759c9.798 0 19.594.875 29.211 2.626l.444.079a80 80 0 0 0 13.864 1.213c23.959 0 47.703-10.812 66.85-30.44 18.603-19.07 31.628-45.337 36.676-73.962 5.548-31.467 1.18-62.882-12.3-88.457" opacity="1" data-original="#ff8755"></path><path fill="#ffda44" d="m177.796 229.178 21.21-21.21 21.212 21.212-21.21 21.21zM160.457 271.146h30.002v30h-30.002zM177.785 343.095l21.21-21.211 21.21 21.21-21.21 21.211zM291.699 343.111l21.21-21.21 21.211 21.212-21.21 21.21zM321.574 271.146h30.002v30h-30.002zM291.71 229.184l21.211-21.212 21.21 21.21-21.211 21.212z" opacity="1" data-original="#ffda44"></path><path fill="#ffb655" d="m291.699 343.111 21.21-21.21 21.211 21.212-21.21 21.21zM321.574 271.146h30.002v30h-30.002zM291.71 229.184l21.211-21.212 21.21 21.21-21.211 21.212z" opacity="1" data-original="#ffb655"></path></g></svg>