<svg xmlns="http://www.w3.org/2000/svg" version="1.1" xmlns:xlink="http://www.w3.org/1999/xlink" width="512" height="512" x="0" y="0" viewBox="0 0 511.762 511.762" xml:space="preserve"><g><path fill="#ffcd00" d="M255.881 121.502c-82.71 0-150 67.29-150 150v90.259c0 82.71 67.29 150 150 150s150-67.29 150-150v-90.259c0-82.71-67.29-150-150-150" opacity="1" data-original="#ffcd00"></path><path fill="#ffb100" d="M255.876 511.762c82.71 0 150-67.29 150-150v-90.259c0-82.71-67.29-150-150-150z" opacity="1" data-original="#ffb100"></path><path fill="#ffdc4c" d="m405.551 297.422-53.35-53.17 38.49-38.49a150 150 0 0 0-16.3-26.12l-43.42 43.42-54.3-54.31 36.04-36.08a149 149 0 0 0-33.13-9.3l-23.7 23.73-.43.43-24.04-24.03a148.6 148.6 0 0 0-32.98 9.43l35.83 35.83-53.05 53.19-43.17-43.17a149.6 149.6 0 0 0-16.47 25.96l38.44 38.44-54.13 54.21v42.59l53.98 54.18-36.96 36.96c4.76 9.1 10.43 17.66 16.89 25.54l41.27-41.27 53.12 53.12-32.95 32.95c10.66 4.18 21.92 7.18 33.6 8.83l20.56-20.56.49.49 20.18 20.18c11.74-1.58 23.05-4.52 33.76-8.67l-33.22-33.22 54.37-54.37 41.69 41.68a150.7 150.7 0 0 0 16.72-25.7l-37.18-37.18 53.34-53.16.34.34v-43.03zm-150.08-107.44.41.41 53.88 53.88-53.12 53.12-.76-.76-53.46-53.47zm-128.46 128.7 54.22-54.28 54.19 54.2-54.34 54.34zm128.87 128.13-.49.49-53.12-53.12 53.61-53.6.76-.76 53.12 53.1zm75.11-75.08-53.14-53.13 53.14-53.13 53.31 53.13z" opacity="1" data-original="#ffdc4c"></path><path fill="#ffcd00" d="m405.551 297.422-53.35-53.17 38.49-38.49a150 150 0 0 0-16.3-26.12l-43.42 43.42-54.3-54.31 36.04-36.08a149 149 0 0 0-33.13-9.3l-23.7 23.73v43.29l53.88 53.88-53.12 53.12-.76-.76v43.95l.76-.76 53.12 53.1-53.88 53.89v43.41l20.18 20.18c11.74-1.58 23.05-4.52 33.76-8.67l-33.22-33.22 54.37-54.37 41.69 41.68a150.7 150.7 0 0 0 16.72-25.7l-37.18-37.18 53.34-53.16.34.34v-43.03zm-74.56 74.31-53.14-53.13 53.14-53.13 53.31 53.13z" opacity="1" data-original="#ffcd00"></path><path fill="#90cc1c" d="m388.563 7.304-74.337 74.371c-26.365 9.144-47.636 29.237-58.35 54.827l-.112-60.673v-.011c0-.011.011-.011.011-.011v-.011c3.994-17.232 12.722-33.612 26.163-47.053C310.77-.078 353.055-7.225 388.563 7.304" opacity="1" data-original="#90cc1c"></path><path fill="#b9dd39" d="M255.875 136.502c-10.714-25.591-32.084-45.684-58.448-54.827L123.089 7.304c35.508-14.529 77.793-7.382 106.626 21.44 13.44 13.44 22.054 29.82 26.048 47.053z" opacity="1" data-original="#b9dd39"></path><path fill="#d1f05a" d="M255.875 136.502H74.878c14.809-35.374 49.756-60.224 90.493-60.224a98 98 0 0 1 32.199 5.408c26.353 9.155 47.591 29.237 58.305 54.816" opacity="1" data-original="#d1f05a"></path><path fill="#66bb00" d="M436.883 136.502H255.875c10.714-25.591 31.986-45.684 58.35-54.827 10.075-3.5 20.89-5.396 32.154-5.396 40.748 0 75.695 24.85 90.504 60.223" opacity="1" data-original="#66bb00"></path></g></svg>