<svg xmlns="http://www.w3.org/2000/svg" version="1.1" xmlns:xlink="http://www.w3.org/1999/xlink" width="512" height="512" x="0" y="0" viewBox="0 0 512 512" xml:space="preserve"><g><path d="M271 0h-15l-10 60h25z" style="" fill="#365f2c" data-original="#365f2c"></path><path d="M241 0h15v60h-15z" style="" fill="#44702a" data-original="#44702a"></path><path d="M196 30c-90.981 0-165 74.019-165 165 0 88.057 22.836 168.525 64.301 226.585C136.941 479.89 194.013 512 256 512V41.277C236.888 33.8 216.738 30 196 30" style="" fill="#ba1b77" data-original="#ba1b77"></path><path d="M316 30c-21.168 0-41.403 3.991-60 11.254l-30 235.373L256 512c61.987 0 119.059-32.11 160.699-90.415C458.164 363.525 481 283.057 481 195c0-90.981-74.019-165-165-165" style="" fill="#6e259b" data-original="#6e259b"></path><path d="M151 195c0 88.057 10.657 168.525 30.007 226.585C200.439 479.89 227.073 512 256 512V41.254C194.541 65.257 151 125.042 151 195" style="" fill="#9c11a9" data-original="#9c11a9"></path></g></svg>