<svg xmlns="http://www.w3.org/2000/svg" version="1.1" xmlns:xlink="http://www.w3.org/1999/xlink" width="512" height="512" x="0" y="0" viewBox="0 0 509.863 509.863" xml:space="preserve"><g><path fill="#f84e57" d="m227.954 82.744 26.977 2.909 10-33.033-10-52.242-44.492 49.682z" opacity="1" data-original="#f84e57"></path><path fill="#d9185a" d="m255.269 0-.338.378v85.275l26.383-2.147 16.961-32.525zM159.725 9.488l15.841 110.882C96.853 152.461 44.931 229.155 44.931 314.863c0 114.458 92.314 195 210 195l10-212.105-10-212.105z" opacity="1" data-original="#d9185a"></path><path fill="#b10042" d="M464.931 314.863c0-85.686-51.901-162.394-130.635-194.492L350.137 9.489l-95.206 76.165v424.21c117.325-.001 210-80.239 210-195.001M134.931 359.863h30v30h-30zM119.931 299.863h30v30h-30z" opacity="1" data-original="#b10042"></path></g></svg>