<svg xmlns="http://www.w3.org/2000/svg" version="1.1" xmlns:xlink="http://www.w3.org/1999/xlink" width="512" height="512" x="0" y="0" viewBox="0 0 512 512" xml:space="preserve"><g><path fill="#ffb3b3" d="M206.509 77.177 98.477 185.209c-20.584 20.584-35.139 44.911-43.687 70.787H0v177.382h77.038L273.667 258.33l184.91-204.911C381.305.703 275.072 8.614 206.509 77.177" opacity="1" data-original="#ffb3b3"></path><path fill="#ff8080" d="M487.243 77.177a199.5 199.5 0 0 0-28.666-23.758L78.618 433.378l23.42-10 4.99 24.798c70.809 62.271 178.778 59.598 246.396-8.02l63.042-63.043a122.38 122.38 0 0 0 33.623-109.741 122.38 122.38 0 0 1 33.623-109.741l18.598-18.598c12.92-12.92 12.92-33.869 0-46.789z" opacity="1" data-original="#ff8080"></path><path fill="#ff8080" d="M187.488 321.752c-9.301 0-16.867-7.566-16.867-16.867v-39.04c0-13.018 5.069-25.256 14.274-34.461l115.701-115.701-21.213-21.213-115.701 115.701c-14.871 14.87-23.061 34.643-23.061 55.674v39.04c0 17.963 10.163 33.589 25.037 41.454l22.009-12.009 2.577-12.577z" opacity="1" data-original="#ff8080"></path><path fill="#ff5b5b" d="M196.515 321.752h-6.271l-24.587 24.587a46.56 46.56 0 0 0 21.831 5.413h9.027c9.301 0 16.867 7.566 16.867 16.867v53.087h30v-53.087c0-25.843-21.025-46.867-46.867-46.867" opacity="1" data-original="#ff5b5b"></path><path fill="#ff8080" d="M77.038 352.129v81.249h1.58l25.257-15.257 3.163-13.163v-52.829z" opacity="1" data-original="#ff8080"></path><path fill="#ff5b5b" d="M92.038 433.378a183 183 0 0 0 6.44 6.778 183 183 0 0 0 8.56 8.01v-43.207l-28.419 28.419z" opacity="1" data-original="#ff5b5b"></path></g></svg>