<svg xmlns="http://www.w3.org/2000/svg" version="1.1" xmlns:xlink="http://www.w3.org/1999/xlink" width="512" height="512" x="0" y="0" viewBox="0 0 511.86 511.86" xml:space="preserve"><g><path fill="#7c2e31" d="M467.996 313.271c58.485-58.485 58.485-153.647 0-212.132l-28.638-28.638-267.862 253.72 141.775 141.775z" opacity="1" data-original="#7c2e31"></path><path fill="#93544a" d="M410.72 43.864c-58.485-58.485-153.647-58.485-212.132 0L43.864 198.588l134.704 134.704 260.79-260.79z" opacity="1" data-original="#93544a"></path><path fill="#93544a" d="m313.271 255.864-28.638-28.638-113.137 98.995-98.994 113.137 28.638 28.638c58.485 58.485 153.647 58.485 212.132 0s58.484-153.647-.001-212.132" opacity="1" data-original="#93544a"></path><path fill="#ad7369" d="M255.996 198.588c-58.485-58.485-153.647-58.485-212.132 0s-58.485 153.647 0 212.132l28.638 28.638 212.132-212.132z" opacity="1" data-original="#ad7369"></path><path fill="#ffbaa5" d="m292.058 277.077-28.638-28.638-91.924 77.782-77.782 91.924 28.638 28.638c46.788 46.788 122.917 46.788 169.706 0s46.788-122.918 0-169.706" opacity="1" data-original="#ffbaa5"></path><path fill="#ffdccc" d="M234.783 219.801c-46.788-46.788-122.917-46.788-169.706 0s-46.788 122.918 0 169.706l28.638 28.638L263.42 248.439z" opacity="1" data-original="#ffdccc"></path><path fill="#ffa188" d="M260.238 308.897 231.6 280.259l-60.104 45.962-45.962 60.104 28.638 28.638c29.243 29.243 76.824 29.242 106.066 0s29.243-76.823 0-106.066" opacity="1" data-original="#ffa188"></path><path fill="#ffbaa5" d="M202.963 251.621c-29.243-29.243-76.824-29.242-106.066 0s-29.243 76.823 0 106.066l28.638 28.638 106.066-106.066z" opacity="1" data-original="#ffbaa5"></path><path fill="#ffbaa5" d="m239.025 330.11-28.638-28.638-38.891 24.749-24.749 38.891 28.638 28.638c17.546 17.546 46.094 17.545 63.64 0s17.546-46.094 0-63.64" opacity="1" data-original="#ffbaa5"></path><path fill="#ffdccc" d="M181.75 272.834c-17.546-17.546-46.094-17.545-63.64 0s-17.546 46.094 0 63.64l28.638 28.638 63.64-63.64z" opacity="1" data-original="#ffdccc"></path><path fill="#e4ebf2" d="m217.812 351.323-28.638-28.638-17.678 3.536-3.535 17.678 28.638 28.637z" opacity="1" data-original="#e4ebf2"></path><path fill="#93544a" d="m354.447 199.8 21.21-21.21 21.21 21.21-21.21 21.21zM375.65 263.434l21.21-21.21 21.21 21.21-21.21 21.21z" opacity="1" data-original="#93544a"></path><path fill="#fff4f4" d="m139.275 315.244 21.21-21.21 28.634 28.634-21.21 21.21z" opacity="1" data-original="#fff4f4"></path></g></svg>