<svg xmlns="http://www.w3.org/2000/svg" version="1.1" xmlns:xlink="http://www.w3.org/1999/xlink" width="512" height="512" x="0" y="0" viewBox="0 0 511.996 511.996" xml:space="preserve"><g><path fill="#ffa785" d="M375.432 123.498H201.243l71.419 265h176.327c34.742 0 63.007-28.265 63.007-63.006v-65.429c0-75.302-61.263-136.565-136.564-136.565" opacity="1" data-original="#ffa785"></path><path fill="#ff6c6c" d="M375.432 123.498H201.243l71.419 265h176.327c34.742 0 63.007-28.265 63.007-63.006v-65.429c0-75.302-61.263-136.565-136.564-136.565" opacity="1" data-original="#ff6c6c"></path><path fill="#ffa785" d="M237.985 233.838c-28.62 0-56.972 7.346-81.99 21.244a139.2 139.2 0 0 1-67.422 17.469H15v59.614c0 22.828 18.505 41.333 41.333 41.333h227.821c22.828 0 41.333-18.506 41.333-41.333v-88.999q-.002-4.716-.41-9.327z" opacity="1" data-original="#ffa785"></path><path fill="#ff6c6c" d="M325.078 233.838h-87.092c-23.311 0-46.443 4.874-67.742 14.191v125.469h113.911c22.828 0 41.333-18.506 41.333-41.333v-88.999q-.002-4.717-.41-9.328" opacity="1" data-original="#ff6c6c"></path><path fill="#ffbea4" d="M170.563 281.307a139.17 139.17 0 0 1 67.422-17.469h87.502v-20.673c0-57.806-46.861-104.667-104.667-104.667H119.667C61.861 138.498 15 185.359 15 243.165v59.386h73.573c28.619 0 56.971-7.346 81.99-21.244" opacity="1" data-original="#ffbea4"></path><path fill="#ffa785" d="M220.821 138.498h-50.577v142.986l.32-.177a139.17 139.17 0 0 1 67.422-17.469h87.502v-20.673c0-57.806-46.861-104.667-104.667-104.667" opacity="1" data-original="#ffa785"></path><path fill="#fff5c1" d="M284.154 388.498H56.334C25.271 388.498 0 363.227 0 332.164v-89c0-65.984 53.683-119.667 119.667-119.667h101.154c65.984 0 119.666 53.682 119.666 119.667v89c0 31.063-25.27 56.334-56.333 56.334m-164.487-235C70.225 153.498 30 193.722 30 243.165v89c0 14.521 11.813 26.333 26.334 26.333h227.82c14.521 0 26.333-11.813 26.333-26.333v-89c0-49.442-40.224-89.667-89.666-89.667z" opacity="1" data-original="#fff5c1"></path><path fill="#ffbea4" d="M220.821 123.498h-50.578v30h50.578c49.442 0 89.666 40.224 89.666 89.667v89c0 14.521-11.812 26.333-26.333 26.333h-113.91v30h113.911c31.062 0 56.333-25.271 56.333-56.333v-89c-.001-65.985-53.682-119.667-119.667-119.667" opacity="1" data-original="#ffbea4"></path></g></svg>