<svg xmlns="http://www.w3.org/2000/svg" version="1.1" xmlns:xlink="http://www.w3.org/1999/xlink" width="512" height="512" x="0" y="0" viewBox="0 0 512.001 512.001" xml:space="preserve"><g><path fill="#ffc578" d="M412.138 230.274a249.6 249.6 0 0 1-15.433-86.544v-3.027C396.705 63.12 333.585 0 256 0S115.296 63.12 115.296 140.704v3.027c0 29.626-5.192 58.744-15.433 86.544-11.468 31.131-17.283 63.738-17.283 96.915v11.392c0 95.625 77.796 173.42 173.42 173.42s173.42-77.796 173.42-173.42V327.19c.001-33.178-5.814-65.784-17.282-96.916" opacity="1" data-original="#ffc578"></path><path fill="#ecac80" d="M412.138 230.274a249.6 249.6 0 0 1-15.433-86.544v-3.027C396.705 63.12 333.585 0 256 0v512.001c95.625 0 173.42-77.796 173.42-173.42v-11.392c.001-33.177-5.814-65.783-17.282-96.915M210.999 96h30v30.002h-30z" opacity="1" data-original="#ecac80"></path><path fill="#ecac80" d="M241 327.668h30v30.002h-30zM301.004 277.666h30v30.002h-30zM301.004 377.672h30v30.002h-30zM175.997 151.004h30v30.002h-30z" opacity="1" data-original="#ecac80"></path><path fill="#e48945" d="M301.004 277.666h30v30.002h-30zM301.004 377.672h30v30.002h-30zM256 327.668h15v30.002h-15z" opacity="1" data-original="#e48945"></path></g></svg>