<svg xmlns="http://www.w3.org/2000/svg" version="1.1" xmlns:xlink="http://www.w3.org/1999/xlink" width="512" height="512" x="0" y="0" viewBox="0 0 512.001 512.001" xml:space="preserve"><g><path d="M344.198 387.634c22.058-4.327 43.112-15.032 60.202-32.121 45.766-45.766 35.344-119.967-10.422-165.733a109 109 0 0 0-1.892-1.844c27.668-47.923 43.015-110.238 2.025-151.228-48.944-48.944-128.299-48.944-177.242 0-24.528 24.528-36.761 56.692-36.706 88.84-30.415-.329-60.935 11.103-84.141 34.309-45.766 45.766-45.766 119.967 0 165.733a121 121 0 0 0 2.884 2.778c-19.514 48.188-9.734 105.465 29.342 144.541 52.122 52.122 136.63 52.122 188.752 0 23.744-23.746 25.087-54.212 27.198-85.275" style="" fill="#561f59" data-original="#561f59"></path><path d="M170.229 501.324c48.641 20.736 107.09 11.265 146.77-28.416 23.745-23.745 36.668-54.21 38.778-85.274 22.058-4.327 43.112-15.032 60.202-32.121 45.766-45.766 45.766-119.967 0-165.733a109 109 0 0 0-1.892-1.844c27.668-47.923 21.015-110.238-19.975-151.228-15.638-15.638-34.38-26.278-54.241-31.924z" style="" fill="#431447" data-original="#431447"></path><path d="M275.096 140.633h34.735v77.378h-34.735z" style="" transform="rotate(-120.378 292.464 179.323)" fill="#ab74af" data-original="#ab74af"></path><path d="M226.767 290.243h34.735v77.377h-34.735z" style="" transform="rotate(-120.378 244.135 328.933)" fill="#ab74af" data-original="#ab74af"></path></g></svg>