<svg xmlns="http://www.w3.org/2000/svg" version="1.1" xmlns:xlink="http://www.w3.org/1999/xlink" width="512" height="512" x="0" y="0" viewBox="0 0 512 512" xml:space="preserve"><g><path fill="#fe9738" d="M124.337 495.775c-41.328 0-80.296-25.568-99.912-61.549-21.941-40.245-27.346-93.08-23.08-137.957 5.412-56.935 26.462-116.847 79.717-145.061 19.606-10.387 41.678-15.996 63.878-15.996 17.069 0 30.905 13.837 30.905 30.905v278.149c.001 28.447-23.06 51.508-51.508 51.509M391.424 495.775c28.757 0 56.879-10.838 78.181-30.159 44.863-40.69 44.412-109.726 41.049-165.368-1.318-21.795-3.438-43.683-9.315-64.712-7.439-26.616-21.463-50.777-42.824-68.589-24.499-20.429-55.8-31.736-87.695-31.736-17.069 0-30.905 13.837-30.905 30.905v278.149c0 28.448 23.062 51.51 51.509 51.51" opacity="1" data-original="#fe9738"></path><path fill="#fe860a" d="M510.654 300.248c-1.318-21.795-3.438-43.683-9.315-64.712-7.439-26.616-21.463-50.777-42.824-68.589-24.499-20.429-55.8-31.736-87.694-31.736-3.47 0-6.802.58-9.916 1.635 24.406 3.81 47.62 14.186 66.705 30.101 21.361 17.812 35.385 41.973 42.824 68.589 5.878 21.029 7.998 42.917 9.315 64.712 3.363 55.642 3.814 124.678-41.049 165.368-16.687 15.134-37.558 25.062-59.641 28.654a51.6 51.6 0 0 0 12.365 1.505c28.757 0 56.879-10.838 78.181-30.159 44.864-40.69 44.413-109.726 41.049-165.368" opacity="1" data-original="#fe860a"></path><path fill="#9be69d" d="M283.361 131.41h-51.575c4.937-4.861 33.138-33.642 21.537-71.901-5.395-17.79-17.491-31.35-29.49-41.028-7.59-6.123-3.37-18.356 6.382-18.372l62.28-.107c8.706-.015 16.488 5.435 19.428 13.63 4.288 11.955 7.578 27.356 6.011 45.152-3.081 34.956-23.256 60.426-34.573 72.626" opacity="1" data-original="#9be69d"></path><path fill="#6fd7a3" d="M311.922 13.631C308.983 5.435 301.201-.015 292.495 0l-29.544.051c8.147.522 15.281 5.815 18.066 13.58 4.287 11.955 7.578 27.356 6.011 45.152-3.079 34.957-23.255 60.428-34.572 72.627h30.905c11.318-12.2 31.493-37.67 34.572-72.627 1.567-17.797-1.723-33.197-6.011-45.152" opacity="1" data-original="#6fd7a3"></path><path fill="#fe9738" d="M303.881 512c28.757 0 56.879-11.814 78.181-32.873 44.863-44.352 44.412-119.601 41.049-180.251-1.318-23.757-3.438-47.614-9.315-70.536-7.439-29.011-21.463-55.347-42.824-74.762-24.499-22.268-55.8-34.592-87.695-34.592-17.069 0-30.905 15.082-30.905 33.687v303.182c0 31.008 23.062 56.145 51.509 56.145" opacity="1" data-original="#fe9738"></path><path fill="#fe860a" d="M423.111 298.876c-1.318-23.757-3.438-47.614-9.315-70.536-7.439-29.011-21.463-55.347-42.824-74.762-24.499-22.267-55.8-34.592-87.695-34.592-3.47 0-6.802.633-9.915 1.782 24.406 4.153 47.619 15.463 66.705 32.81 21.361 19.415 35.385 45.751 42.824 74.762 5.878 22.922 7.998 46.779 9.315 70.536 3.364 60.65 3.814 135.9-41.049 180.251-16.687 16.496-37.558 27.318-59.641 31.233a47.6 47.6 0 0 0 12.365 1.64c28.757 0 56.879-11.814 78.181-32.873 44.863-44.352 44.413-119.601 41.049-180.251M67.299 228.34c-5.878 22.922-7.998 46.779-9.315 70.536-3.363 60.65-3.814 135.9 41.049 180.251a116.5 116.5 0 0 0 21.133 16.556c1.388.058 2.778.092 4.172.092 28.448 0 51.509-23.061 51.509-51.509V166.117c0-17.069-13.837-30.905-30.905-30.905-3.299 0-6.593.139-9.878.384a135.7 135.7 0 0 0-24.94 17.983c-21.362 19.414-35.386 45.749-42.825 74.761" opacity="1" data-original="#fe860a"></path><path fill="#fe9738" d="M208.119 512c-28.757 0-56.879-11.814-78.181-32.873-44.863-44.352-44.412-119.601-41.049-180.251 1.318-23.757 3.438-47.614 9.315-70.536 7.439-29.011 21.463-55.347 42.824-74.762 24.499-22.268 55.8-34.592 87.695-34.592 17.069 0 30.905 15.082 30.905 33.687v303.182c0 31.008-23.062 56.145-51.509 56.145" opacity="1" data-original="#fe9738"></path><path fill="#fe860a" d="M259.628 455.855V152.673c0-5.486-1.211-10.661-3.345-15.238-9.2-11.49-19.437-18.05-30.234-18.417-1.383.03-2.763.087-4.142.162-39.201 4.455-70.47 90.635-70.47 196.312 0 101.863 29.052 185.62 66.257 195.523 23.87-4.892 41.934-27.72 41.934-55.16" opacity="1" data-original="#fe860a"></path><ellipse cx="256" cy="315.493" fill="#fe9738" rx="73.658" ry="196.507" opacity="1" data-original="#fe9738"></ellipse><path fill="#fe860a" d="M256 118.986c-5.301 0-10.469 1.507-15.453 4.346 33.26 18.945 58.205 97.776 58.205 192.161s-24.945 173.216-58.205 192.161C245.531 510.493 250.699 512 256 512c40.68 0 73.658-87.979 73.658-196.507S296.68 118.986 256 118.986" opacity="1" data-original="#fe860a"></path></g></svg>