<svg xmlns="http://www.w3.org/2000/svg" version="1.1" xmlns:xlink="http://www.w3.org/1999/xlink" width="512" height="512" x="0" y="0" viewBox="0 0 512 512" xml:space="preserve"><g><path d="M60 120h181v272H60z" style="" fill="#ae2538" data-original="#ae2538"></path><path d="M271 120h151v272H271z" style="" fill="#a31c33" data-original="#a31c33"></path><path d="M120 482c0 16.5-13.5 30-30 30s-30-13.5-30-30c0 16.5-13.5 30-30 30S0 498.5 0 482s13.5-30 30-30v-60h60v60c16.5 0 30 13.5 30 30M120 30c0 16.5-13.5 30-30 30v60H30V60C13.5 60 0 46.5 0 30S13.5 0 30 0s30 13.5 30 30C60 13.5 73.5 0 90 0s30 13.5 30 30" style="" fill="#fff5f5" data-original="#fff5f5"></path><path d="M120 482c0 16.5-13.5 30-30 30s-30-13.5-30-30v-90h30v60c16.5 0 30 13.5 30 30M90 120H60V30C60 13.5 73.5 0 90 0s30 13.5 30 30-13.5 30-30 30z" style="" fill="#efe2dd" data-original="#efe2dd"></path><path d="M120 120v272c0 16.5-13.5 30-30 30H30c-16.5 0-30-13.5-30-30V120c0-16.5 13.5-30 30-30h60c16.5 0 30 13.5 30 30" style="" fill="#ff637b" data-original="#ff637b"></path><path d="M120 120v272c0 16.5-13.5 30-30 30H60V90h30c16.5 0 30 13.5 30 30" style="" fill="#e63950" data-original="#e63950"></path><path d="M316 482c0 16.5-13.5 30-30 30s-30-13.5-30-30c0 16.5-13.5 30-30 30s-30-13.5-30-30 13.5-30 30-30v-60h60v60c16.5 0 30 13.5 30 30M316 30c0 16.5-13.5 30-30 30v60h-60V60c-16.5 0-30-13.5-30-30s13.5-30 30-30 30 13.5 30 30c0-16.5 13.5-30 30-30s30 13.5 30 30" style="" fill="#fff5f5" data-original="#fff5f5"></path><path d="M316 482c0 16.5-13.5 30-30 30s-30-13.5-30-30v-90h30v60c16.5 0 30 13.5 30 30M286 120h-30V30c0-16.5 13.5-30 30-30s30 13.5 30 30-13.5 30-30 30z" style="" fill="#efe2dd" data-original="#efe2dd"></path><path d="M316 120v272c0 16.5-13.5 30-30 30h-60c-16.5 0-30-13.5-30-30V120c0-16.5 13.5-30 30-30h60c16.5 0 30 13.5 30 30" style="" fill="#ff637b" data-original="#ff637b"></path><path d="M316 120v272c0 16.5-13.5 30-30 30h-30V90h30c16.5 0 30 13.5 30 30" style="" fill="#e63950" data-original="#e63950"></path><path d="M512 482c0 16.5-13.5 30-30 30s-30-13.5-30-30c0 16.5-13.5 30-30 30s-30-13.5-30-30 13.5-30 30-30v-60h60v60c16.5 0 30 13.5 30 30M512 30c0 16.5-13.5 30-30 30v60h-60V60c-16.5 0-30-13.5-30-30s13.5-30 30-30 30 13.5 30 30c0-16.5 13.5-30 30-30s30 13.5 30 30" style="" fill="#fff5f5" data-original="#fff5f5"></path><path d="M512 482c0 16.5-13.5 30-30 30s-30-13.5-30-30v-90h30v60c16.5 0 30 13.5 30 30M482 120h-30V30c0-16.5 13.5-30 30-30s30 13.5 30 30-13.5 30-30 30z" style="" fill="#efe2dd" data-original="#efe2dd"></path><path d="M512 120v272c0 16.5-13.5 30-30 30h-60c-16.5 0-30-13.5-30-30V120c0-16.5 13.5-30 30-30h60c16.5 0 30 13.5 30 30" style="" fill="#ff637b" data-original="#ff637b"></path><path d="M512 120v272c0 16.5-13.5 30-30 30h-30V90h30c16.5 0 30 13.5 30 30" style="" fill="#e63950" data-original="#e63950"></path></g></svg>