<svg xmlns="http://www.w3.org/2000/svg" version="1.1" xmlns:xlink="http://www.w3.org/1999/xlink" width="512" height="512" x="0" y="0" viewBox="0 0 511.989 511.989" xml:space="preserve"><g><path fill="#00aa95" d="M492.675 240.155c25.303-27.283 25.803-69.896 1.155-97.772a72.9 72.9 0 0 0-21.715-16.793c1.731-22.429-5.959-45.448-23.113-62.602L261.597 236.25l24.749 10.606c45.345.501 92.311 4.807 136.607 14.866 24.463 5.556 51.235-1.634 69.722-21.567" opacity="1" data-original="#00aa95"></path><path fill="#00dd80" d="M386.4 39.874a72.9 72.9 0 0 0-16.793-21.715c-27.876-24.648-70.489-24.147-97.772 1.155-19.933 18.486-27.123 45.259-21.568 69.722 10.059 44.297 14.364 91.262 14.866 136.607l3.535 17.677L449.002 62.987c-17.154-17.153-40.174-24.844-62.602-23.113" opacity="1" data-original="#00dd80"></path><path fill="#00dd80" d="M339.136 194.067c12.489 8.26 26.924 12.392 41.359 12.392 19.206 0 38.412-7.311 53.033-21.932l-21.213-21.213c-13.827 13.826-34.485 16.749-51.209 8.782l45.905-45.905-10.607-10.607L261.597 236.25l24.749 10.606z" opacity="1" data-original="#00dd80"></path><path fill="#a5e887" d="m385.798 104.979-45.905 45.905c-7.967-16.724-5.045-37.381 8.782-51.209l-21.213-21.213c-25.611 25.611-28.79 65.287-9.539 94.392l-52.79 52.79 3.535 17.677 127.737-127.737z" opacity="1" data-original="#a5e887"></path><path fill="#f2ece6" d="M93.773 446.563a17.26 17.26 0 0 1 5.084-12.219l27.237-27.236-10.606-24.748-34.308 34.307c-6.082 6.083-9.448 14.171-9.477 22.773-.051 15.296-11.794 28.863-27.316 31.558l-11.127 1.933a32.2 32.2 0 0 0-17.343 9l-5.309 19.451 10.606 10.606 12.38-12.379a17.27 17.27 0 0 1 9.305-4.829l11.127-1.934c22.954-3.985 39.671-23.45 39.747-46.283" opacity="1" data-original="#f2ece6"></path><path fill="#fff5f5" d="m40.33 480.003 11.127-1.934c15.523-2.695 27.266-16.263 27.316-31.558.029-8.603 3.395-16.691 9.477-22.773l34.309-34.308-17.678-3.536-27.237 27.236c-8.902 8.902-13.828 20.739-13.871 33.329-.027 8.127-6.425 15.362-14.883 16.831l-11.128 1.933a47.1 47.1 0 0 0-25.383 13.173L0 490.776l10.607 10.607 12.38-12.38a32.2 32.2 0 0 1 17.343-9" opacity="1" data-original="#fff5f5"></path><path fill="#e62e6b" d="M310.251 310.551c1.097 23.055-5.273 44.789-18.006 62.426l-16.835 4.377-4.409 16.804c-29.625 21.264-70.541 24.214-106.273 6.553-12.904-6.377-28.43-3.807-38.633 6.396l-10.606-10.606 82.463-96.605 78.452-64.31c20.501 20.501 32.522 47.124 33.847 74.965" opacity="1" data-original="#e62e6b"></path><path fill="#ff6666" d="M201.438 201.738c-23.055-1.097-44.789 5.273-62.426 18.006l-4.377 16.835-16.804 4.409c-21.264 29.625-24.214 70.541-6.553 106.273 6.377 12.904 3.807 28.43-6.396 38.633l10.606 10.606 160.915-160.915c-20.501-20.501-47.124-32.521-74.965-33.847" opacity="1" data-original="#ff6666"></path><path fill="#b32453" d="m292.245 372.977-34.191-34.19L236.842 360l34.162 34.162a92.4 92.4 0 0 0 11.477-9.736 94.7 94.7 0 0 0 9.764-11.449M215.629 338.787l21.212-21.213-21.213-21.213-17.677 3.535-3.536 17.678z" opacity="1" data-original="#b32453"></path><path fill="#e62e6b" d="m215.628 296.361-76.616-76.617a95 95 0 0 0-11.448 9.764 92.5 92.5 0 0 0-9.733 11.48l76.585 76.585z" opacity="1" data-original="#e62e6b"></path></g></svg>