<svg xmlns="http://www.w3.org/2000/svg" version="1.1" xmlns:xlink="http://www.w3.org/1999/xlink" width="512" height="512" x="0" y="0" viewBox="0 0 512 512" xml:space="preserve"><g><path fill="#f3f6ff" d="M363.6 182.06c-28.83-28.62-66.99-44.35-107.59-44.35H256c-.37 0-.73.01-1.1.01-52.64.37-99.15 27.74-126.35 68.85-3.09 4.67 5.5 14.53 5.5 14.53s-18.87 10.17-20.89 15.47c-4.67 12.29-7.8 25.32-9.13 38.86-.48 4.8 13.26 14.59 13.26 14.59s-13.77 10.32-13.28 15.41c1.3 13.37 4.34 26.41 9.04 38.86 1.97 5.24 20.79 15.37 20.79 15.37s-8.61 9.89-5.48 14.63c.89 1.36 1.81 2.72 2.76 4.06 17.88 25.35 42.64 44.45 71.59 55.23 5 1.87 9.07 5.89 11.18 11.04L241.4 512h29.2l27.53-67.41c2.1-5.14 6.16-9.14 11.14-11 28.9-10.76 53.62-29.8 71.49-55.07 18.29-25.86 27.95-56.32 27.95-88.09 0-41-16.02-79.48-45.11-108.37" opacity="1" data-original="#f3f6ff"></path><path fill="#d9ebfc" d="M408.71 290.43c0 31.77-9.66 62.23-27.95 88.09-17.87 25.27-42.59 44.31-71.49 55.07-4.98 1.86-9.04 5.86-11.14 11L270.6 512H256V137.71h.01c40.6 0 78.76 15.73 107.59 44.35 29.09 28.89 45.11 67.37 45.11 108.37" opacity="1" data-original="#d9ebfc"></path><path fill="#a7cf3c" d="M335.32 122.66c-28.9 28.89-55.06 30.05-79.32 30.05s-50.42-1.16-79.32-30.05c-28.89-28.9-40.23-64.41-25.32-79.32 12.91-12.9 41.24-6.13 67.37 14.65C222.5 24.82 237.75 0 256 0s33.5 24.82 37.27 57.99c26.13-20.78 54.46-27.55 67.37-14.65 14.91 14.91 3.57 50.42-25.32 79.32" opacity="1" data-original="#a7cf3c"></path><path fill="#81a326" d="M335.32 122.66c-28.9 28.89-55.06 30.05-79.32 30.05V0c18.25 0 33.5 24.82 37.27 57.99 26.13-20.78 54.46-27.55 67.37-14.65 14.91 14.91 3.57 50.42-25.32 79.32" opacity="1" data-original="#81a326"></path><g fill="#cadded"><path d="M221.57 206.57v30H113.16c4.03-10.6 9.21-20.66 15.39-30zM221.57 344.29v30h-93.21a151.3 151.3 0 0 1-15.31-30zM202.14 275.43v30h-98.13c-.49-5.09-.73-10.23-.72-15.41.01-4.92.26-9.79.74-14.59z" fill="#d9ebfc" opacity="1" data-original="#000000"></path></g></g></svg>