<svg xmlns="http://www.w3.org/2000/svg" version="1.1" xmlns:xlink="http://www.w3.org/1999/xlink" width="512" height="512" x="0" y="0" viewBox="0 0 511.996 511.996" xml:space="preserve"><g><path fill="#ff3d7d" d="M301.116 391.761c-17.959 0-34.092 7.926-45.118 20.451-11.025-12.525-27.159-20.451-45.118-20.451-33.149 0-60.118 26.969-60.118 60.118s26.969 60.118 60.118 60.118c17.959 0 34.092-7.926 45.118-20.451 11.025 12.525 27.159 20.451 45.118 20.451 33.149 0 60.118-26.969 60.118-60.118s-26.969-60.118-60.118-60.118" opacity="1" data-original="#ff3d7d"></path><path fill="#e50058" d="M301.116 511.996c33.149 0 60.118-26.969 60.118-60.118s-26.969-60.118-60.118-60.118c-17.959 0-34.092 7.926-45.118 20.451v79.333c11.025 12.526 27.159 20.452 45.118 20.452" opacity="1" data-original="#e50058"></path><path fill="#57c126" d="M310.843 73.051c-7.5-37.744-44.373-65.323-45.939-66.479L255.998 0l-8.906 6.572c-1.566 1.156-38.439 28.735-45.939 66.479l-1.826 9.19 57.493 43.725 55.817-43.889z" opacity="1" data-original="#57c126"></path><path fill="#00a763" d="m312.637 82.077-1.793-9.026c-7.5-37.744-44.373-65.323-45.939-66.479L255.998 0v125.341l.822.625z" opacity="1" data-original="#00a763"></path><path fill="#6bcd00" d="M337.828 49.549c-34.096 0-64.546 17.864-81.83 45.139-17.284-27.276-47.734-45.139-81.83-45.139h-41.107v40.227c0 19.724 5.911 38.717 17.095 54.926l4.479 6.491 101.364-.124 101.364.124 4.479-6.491c11.184-16.209 17.095-35.203 17.095-54.926V49.549z" opacity="1" data-original="#6bcd00"></path><path fill="#57c126" d="M337.828 49.549c-34.096 0-64.546 17.864-81.83 45.139v56.381l101.364.124 4.479-6.491c11.184-16.209 17.095-35.203 17.095-54.926V49.549z" opacity="1" data-original="#57c126"></path><circle cx="346.234" cy="361.643" r="60.118" fill="#c1126b" transform="rotate(-13.34 345.484 361.544)" opacity="1" data-original="#c1126b"></circle><circle cx="346.234" cy="361.643" r="60.118" fill="#a20f59" transform="rotate(-13.34 345.484 361.544)" opacity="1" data-original="#a20f59"></circle><circle cx="165.763" cy="361.643" r="60.118" fill="#c1126b" transform="rotate(-45 165.71 361.7)" opacity="1" data-original="#c1126b"></circle><circle cx="255.998" cy="361.643" r="60.118" fill="#e50058" opacity="1" data-original="#e50058"></circle><path fill="#c1126b" d="M255.998 301.525v120.236c33.149 0 60.118-26.969 60.118-60.118s-26.969-60.118-60.118-60.118" opacity="1" data-original="#c1126b"></path><circle cx="346.234" cy="181.172" r="60.118" fill="#c1126b" transform="rotate(-45 346.227 181.248)" opacity="1" data-original="#c1126b"></circle><circle cx="346.234" cy="181.172" r="60.118" fill="#a20f59" transform="rotate(-45 346.227 181.248)" opacity="1" data-original="#a20f59"></circle><circle cx="165.763" cy="181.172" r="60.118" fill="#c1126b" transform="rotate(-13.34 165.396 181.112)" opacity="1" data-original="#c1126b"></circle><circle cx="255.998" cy="181.172" r="60.118" fill="#e50058" opacity="1" data-original="#e50058"></circle><path fill="#c1126b" d="M316.116 181.172c0-33.149-26.969-60.118-60.118-60.118V241.29c33.149 0 60.118-26.969 60.118-60.118" opacity="1" data-original="#c1126b"></path><circle cx="391.351" cy="271.407" r="60.118" fill="#e50058" transform="rotate(-9.25 391.604 271.95)" opacity="1" data-original="#e50058"></circle><circle cx="391.351" cy="271.407" r="60.118" fill="#c1126b" transform="rotate(-9.25 391.604 271.95)" opacity="1" data-original="#c1126b"></circle><circle cx="120.645" cy="271.407" r="60.118" fill="#e50058" transform="rotate(-67.48 120.733 271.39)" opacity="1" data-original="#e50058"></circle><path fill="#ff3d7d" d="M301.116 211.29c-17.959 0-34.092 7.926-45.118 20.451-11.025-12.525-27.159-20.451-45.118-20.451-33.149 0-60.118 26.969-60.118 60.118s26.969 60.118 60.118 60.118c17.959 0 34.092-7.926 45.118-20.451 11.025 12.525 27.159 20.451 45.118 20.451 33.149 0 60.118-26.969 60.118-60.118s-26.969-60.118-60.118-60.118" opacity="1" data-original="#ff3d7d"></path><path fill="#e50058" d="M301.116 331.525c33.149 0 60.118-26.969 60.118-60.118s-26.969-60.118-60.118-60.118c-17.959 0-34.092 7.926-45.118 20.451v79.333c11.025 12.526 27.159 20.452 45.118 20.452" opacity="1" data-original="#e50058"></path></g></svg>