<svg xmlns="http://www.w3.org/2000/svg" version="1.1" xmlns:xlink="http://www.w3.org/1999/xlink" width="512" height="512" x="0" y="0" viewBox="0 0 512 512" xml:space="preserve"><g><path fill="#e759aa" d="m141.865 51.181 16.675 25.246c30.828-19.672 67.412-31.085 106.615-31.085 83.53 0 155.181 51.8 184.54 124.96a188.5 188.5 0 0 1 38.208 26.548 51.3 51.3 0 0 0 3.826-19.483c0-19.616-10.971-36.667-27.11-45.361a51.3 51.3 0 0 0 4.224-20.436c0-28.439-23.054-51.494-51.493-51.494a51.24 51.24 0 0 0-29.175 9.068c.371-2.493.567-5.042.567-7.637 0-28.439-23.054-51.493-51.493-51.493-18.764 0-35.178 10.039-44.179 25.036C286.206 14.677 266.96 0 244.274 0c-22.097 0-40.937 13.922-48.244 33.471-9.396-10.03-22.751-16.306-37.579-16.306-28.439 0-51.493 23.054-51.493 51.493 0 3.519.355 6.954 1.028 10.274a222.4 222.4 0 0 1 33.879-27.751" opacity="1" data-original="#e759aa"></path><path fill="#e03d9c" d="M237.509 195.987c34.472-30.451 78.305-47.099 124.704-47.099 31.536 0 61.886 7.691 88.92 22.175-29.16-74.197-101.434-126.721-185.978-126.721-39.454 0-76.234 11.443-107.209 31.185z" opacity="1" data-original="#e03d9c"></path><path fill="#c53287" d="M182.591 270.359c.822.822 1.621 1.659 2.43 2.49 9.116-25.088 23.703-48.618 43.79-68.705a193 193 0 0 1 9.455-8.827l-93.327-141.3a5.01 5.01 0 0 0-7.038-1.35c-51.737 35.887-83.565 90.124-92.526 148.107 51.758 7.851 99.506 31.876 137.216 69.585" opacity="1" data-original="#c53287"></path><path fill="#98246a" d="m86.238 209.618.005.002c-2.512-57.045 17.101-113.972 56.133-157.56-1.454-.495-3.114-.337-4.476.608-51.448 35.686-83.205 89.519-92.371 147.135a246.6 246.6 0 0 1 40.709 9.815M141.296 237.021c-12.272-30.292-13.559-65.112-.947-97.959a7.5 7.5 0 1 0-14.003-5.377c-11.435 29.781-13.002 61.688-4.821 91.87a245 245 0 0 1 19.771 11.466" opacity="1" data-original="#98246a"></path><path fill="#c53287" d="M274.849 170.245c-4.43-23.504-2.62-48.471 6.565-72.393a7.5 7.5 0 1 0-14.003-5.377c-10.664 27.774-12.753 57.399-6.349 85.748a187 187 0 0 1 13.787-7.978" opacity="1" data-original="#c53287"></path><path fill="#98246a" d="m195.489 284.296.822.958.745-1.02a170 170 0 0 1 17.012-19.903c31.787-31.787 74.053-49.292 119.015-49.292 19.743 0 39.128 3.403 57.616 10.117l.41.149.388-.199c31.132-15.979 64.56-24.971 99.475-26.797-74.39-68.883-190.556-67.183-262.867 5.128-20.089 20.089-34.716 43.567-43.908 68.589a249 249 0 0 1 11.292 12.27" opacity="1" data-original="#98246a"></path><path fill="#c53287" d="M255 445.171h2c0-65.146 25.123-126.63 70.74-173.126 19.092-19.46 40.881-35.367 64.526-47.396-60.182-22.384-130.533-9.397-178.905 38.975a170.5 170.5 0 0 0-17.718 20.844C234.031 329.23 255 385.669 255 445.171" opacity="1" data-original="#c53287"></path><g fill="#e759aa"><path d="M504.221 202.006c0-2.811-2.318-5.061-5.128-5.004C364.372 199.732 256 309.796 256 445.171c0-135.375-108.372-245.439-243.093-248.169-2.81-.057-5.128 2.193-5.128 5.004v61.773C7.779 400.868 118.911 512 256 512s248.221-111.132 248.221-248.221z" fill="#e759aa" opacity="1" data-original="#000000"></path><path d="M504.221 202.006c0-2.811-2.318-5.061-5.128-5.004C364.372 199.732 256 309.796 256 445.171c0-135.375-108.372-245.439-243.093-248.169-2.81-.057-5.128 2.193-5.128 5.004v61.773C7.779 400.868 118.911 512 256 512s248.221-111.132 248.221-248.221z" fill="#e759aa" opacity="1" data-original="#000000"></path><path d="M504.221 202.006c0-2.811-2.318-5.061-5.128-5.004C364.372 199.732 256 309.796 256 445.171c0-135.375-108.372-245.439-243.093-248.169-2.81-.057-5.128 2.193-5.128 5.004v61.773C7.779 400.868 118.911 512 256 512s248.221-111.132 248.221-248.221z" fill="#e759aa" opacity="1" data-original="#000000"></path></g><path fill="#e03d9c" d="M50 263.779v-61.773c0-.504.097-.979.236-1.437a249.4 249.4 0 0 0-37.329-3.567c-2.81-.057-5.128 2.193-5.128 5.004v61.773C7.779 400.868 118.911 512 256 512v-3.611C139.027 488.341 50 386.471 50 263.779M504.221 202.006c0-2.811-2.318-5.061-5.128-5.004C364.372 199.732 256 309.796 256 445.17V512c14.4 0 28.509-1.241 42.237-3.595v-37.15c0-122.688 89.016-224.572 205.984-244.626z" opacity="1" data-original="#e03d9c"></path><path fill="#c53287" d="M97.895 296.138a7.5 7.5 0 0 0-10.929-10.276c-22.832 24.285-35.406 56.516-35.406 90.756 0 11.619 1.452 23.004 4.257 33.928a249.6 249.6 0 0 0 35.643 39.063c-35.157-44.67-33.018-111.51 6.435-153.471M151.513 380.263a7.5 7.5 0 0 0-3.699-9.94 7.5 7.5 0 0 0-9.941 3.698c-12.622 27.58-14.399 58.711-5.003 87.659 2.68 8.256 6.18 16.058 10.414 23.308a247 247 0 0 0 28.263 12.265c-29.184-29.271-38.539-76.554-20.034-116.99M425.034 285.862a7.501 7.501 0 0 0-10.929 10.276c39.452 41.962 41.592 108.801 6.435 153.472a249.6 249.6 0 0 0 35.643-39.063c2.805-10.924 4.257-22.31 4.257-33.928 0-34.241-12.574-66.472-35.406-90.757M364.186 370.322a7.5 7.5 0 0 0-3.699 9.94c18.505 40.436 9.15 87.72-20.034 116.99a247 247 0 0 0 28.263-12.265 119 119 0 0 0 10.414-23.308c9.396-28.948 7.618-60.079-5.003-87.659a7.5 7.5 0 0 0-9.941-3.698" opacity="1" data-original="#c53287"></path></g></svg>