<svg xmlns="http://www.w3.org/2000/svg" version="1.1" xmlns:xlink="http://www.w3.org/1999/xlink" width="512" height="512" x="0" y="0" viewBox="0 0 511.822 511.822" xml:space="preserve"><g><path fill="#ace233" d="M485.347 26.485C468.268 9.406 445.561 0 421.408 0c-20.713 0-40.362 6.917-56.306 19.654-12.385-6.129-26.031-9.327-40.058-9.327-24.147 0-46.849 9.403-63.924 26.478a90.34 90.34 0 0 0-26.301 58.164c-4.024 63.195-17.418 122.913-39.81 177.493l-3.791 9.239 38.914 38.913 9.239-3.79c54.58-22.392 114.297-35.785 177.493-39.811a90.32 90.32 0 0 0 58.163-26.302c27.643-27.642 34.082-69.725 17.146-103.984 28.262-35.467 25.987-87.43-6.826-120.242" opacity="1" data-original="#ace233"></path><path fill="#00da80" d="m485.347 26.485-.066-.065-274.672 274.672 19.523 19.522 9.239-3.79c54.58-22.392 114.297-35.785 177.493-39.811a90.32 90.32 0 0 0 58.163-26.302c27.643-27.642 34.082-69.725 17.146-103.984 28.262-35.467 25.987-87.43-6.826-120.242" opacity="1" data-original="#00da80"></path><path fill="#ffecd2" d="M215.03 354.969a628 628 0 0 0 36.513-52.124 599 599 0 0 1 83.73-105.073l68.401-68.401-21.213-21.213-68.401 68.402a599 599 0 0 1-105.073 83.729 628 628 0 0 0-52.125 36.514l-13.336 29.09 42.414 42.414z" opacity="1" data-original="#ffecd2"></path><path fill="#ffe0b8" d="m164.668 347.033 21.272 21.272 29.09-13.336a628 628 0 0 0 36.513-52.124 599 599 0 0 1 83.73-105.073l68.401-68.401-10.672-10.672z" opacity="1" data-original="#ffe0b8"></path><path fill="#ff3838" d="m98.644 348.219-85.178 85.179c-17.912 17.912-17.912 47.057 0 64.969 8.677 8.677 20.213 13.456 32.484 13.456s23.808-4.779 32.485-13.456l85.179-85.178a629 629 0 0 0 51.417-58.219l-58.168-58.168a629 629 0 0 0-58.219 51.417" opacity="1" data-original="#ff3838"></path><path fill="#e20059" d="M13.466 498.366c8.677 8.677 20.213 13.456 32.484 13.456s23.808-4.779 32.485-13.456l85.179-85.178a629 629 0 0 0 51.417-58.219l-29.149-29.149L13.401 498.3z" opacity="1" data-original="#e20059"></path></g></svg>