<svg xmlns="http://www.w3.org/2000/svg" version="1.1" xmlns:xlink="http://www.w3.org/1999/xlink" width="512" height="512" x="0" y="0" viewBox="0 0 509.387 509.387" xml:space="preserve"><g><path fill="#4ec06d" d="m135.104 286.807-26.484-14.092-19.954 37.505a274.6 274.6 0 0 1-8.689-45.191l50.814-47.164-20.408-21.988-31.679 29.403a273.5 273.5 0 0 1 6.077-46.662l62.608-30.149-13.016-27.029-37.993 18.295a263 263 0 0 1 2.618-6.581c4.931-11.943 10.812-23.606 17.52-34.833l68.956-9.94-4.28-29.693-40.894 5.895a269 269 0 0 1 17.329-19.11l-21.221-21.205a300 300 0 0 0-19.443 21.46l-5.669-39.325-29.693 4.281L91.779 81.27c-7.883 12.999-14.771 26.537-20.502 40.415a290 290 0 0 0-2.4 6.004L51.983 92.608l-27.029 13.016 31.008 64.392a304.3 304.3 0 0 0-7.053 50.359l-25.755-27.749-21.988 20.408L49.862 265.5a305 305 0 0 0 9.367 50.851l-34.091-18.138-14.091 26.484 63.082 33.563c14.808 33.438 36.237 64.691 62.278 90.752l21.222-21.205c-22.927-22.945-41.859-50.347-55.149-79.684zM482.793 340.467l-10.342-28.16-36.55 13.423a289 289 0 0 0 2.448-5.961c5.552-13.961 10.034-28.482 13.426-43.306l56.446-43.589-18.336-23.744-31.446 24.284a299 299 0 0 0 .982-28.94l-29.996.449a270 270 0 0 1-.864 25.781l-25.252-32.7-23.744 18.336 42.581 55.14c-3.001 12.735-6.902 25.208-11.68 37.223a257 257 0 0 1-2.694 6.526l-14.538-39.582-28.16 10.342 23.956 65.229a273.6 273.6 0 0 1-28.122 37.728l-2.272-43.161-29.959 1.578 3.646 69.231a275 275 0 0 1-37.698 26.391l11.785-40.813-28.822-8.322-19.269 66.731c-29.954 11.807-62.627 18.3-95.063 18.81l.472 29.996c36.842-.579 73.989-8.099 107.888-21.792l68.65 19.823 8.322-28.822-37.102-10.713a305.3 305.3 0 0 0 42.126-29.983l71.484-3.763-1.576-29.959-37.807 1.99a304 304 0 0 0 29.996-41.062z" opacity="1" data-original="#4ec06d"></path><path fill="#14987b" d="m425.768 87.95 57.263 39.683 17.088-24.658-33.959-23.533a270 270 0 0 1 25.702-2.191l-1.098-29.98a299 299 0 0 0-28.851 2.473l22.63-32.655L459.885 0l-40.621 58.616c-14.625 4.15-28.888 9.371-42.536 15.631a293 293 0 0 0-5.847 2.762l11.521-37.193-28.656-8.877-21.147 68.267a304 304 0 0 0-39.462 32.073l.039-37.859-30-.031-.074 71.583a305 305 0 0 0-27.772 43.614l-12.61-36.499-28.355 9.797 23.334 67.538c-11.93 34.571-17.523 72.049-16.203 108.866l29.98-1.074c-1.162-32.415 3.637-65.374 13.886-95.907l65.65-22.682-9.797-28.355-40.153 13.873a274.7 274.7 0 0 1 24.414-39.008l69.329.072.031-30-43.22-.044a273.4 273.4 0 0 1 36.228-30.029l66.377 20.562 8.877-28.656-40.279-12.478a261 261 0 0 1 6.399-3.036c11.742-5.388 23.992-9.924 36.55-13.576" opacity="1" data-original="#14987b"></path></g></svg>