<svg xmlns="http://www.w3.org/2000/svg" version="1.1" xmlns:xlink="http://www.w3.org/1999/xlink" width="512" height="512" x="0" y="0" viewBox="0 0 512 512" xml:space="preserve"><g><g fill="#97ce7e"><path d="M490.983.072c-43.798.737-86.519 9.59-127.071 26.387-25.127 10.408-48.677 23.577-70.46 39.316l-7.78 152.023zM281.355 225.563 263.477 90.058a354 354 0 0 0-12.336 11.752l-29.394 29.394-10.851 158.299zM208.695 299.282l-16.921-138.103-41.731 41.73-7.78 158.299zM62.73 290.222c-40.275 40.274-43.497 103.781-9.673 147.776l85.18-71.902-18.168-133.213z" fill="#97ce7e" opacity="1" data-original="#000000"></path></g><path fill="#25ae7f" d="m154.089 370.013 155.251-8.805 41.731-41.731-137.104-14.987zM485.29 147.838c16.668-40.24 25.52-82.616 26.375-126.06l-214.16 205.799 148.83-9.779c15.581-21.643 28.627-45.025 38.955-69.96M74.321 459.123c19.969 15.15 43.886 22.733 67.808 22.733 28.755 0 57.508-10.945 79.399-32.836l57.839-57.839-137.104-11.49zM227.63 299.282l153.414-9.778 28.895-28.895a352 352 0 0 0 12.199-12.835l-136.467-14.889zM150.043 202.909l-29.974 29.975v158.298h.499l29.975-29.974h-.5z" opacity="1" data-original="#25ae7f"></path><path fill="#008575" d="m279.366 391.182 29.974-29.974H150.543l-29.975 29.974zM351.071 319.477l29.974-29.974H222.247l-29.974 29.974z" opacity="1" data-original="#008575"></path><path fill="#25ae7f" d="m221.748 131.204-29.974 29.975v158.298h.499l29.974-29.974h-.499z" opacity="1" data-original="#25ae7f"></path><path fill="#008575" d="M263.977 247.773h158.161a347 347 0 0 0 24.198-29.974H293.951z" opacity="1" data-original="#008575"></path><path fill="#25ae7f" d="M293.452 217.799V65.776a346 346 0 0 0-29.974 24.282v157.715h.5l29.974-29.974z" opacity="1" data-original="#25ae7f"></path><path fill="#d7e183" d="m.25 490.805 10.347 10.347 230.685-213.498L511.75 0s-18.785.039-20.768.072z" opacity="1" data-original="#d7e183"></path><path fill="#97ce7e" d="M21.445 512 511.666 21.778C511.711 19.46 511.75 0 511.75 0L10.597 501.153z" opacity="1" data-original="#97ce7e"></path></g></svg>