<svg xmlns="http://www.w3.org/2000/svg" version="1.1" xmlns:xlink="http://www.w3.org/1999/xlink" width="512" height="512" x="0" y="0" viewBox="0 0 512 512" xml:space="preserve"><g><path fill="#cdcde6" d="m504.498 334.82-192 26.62-192-26.62 150.78-201.03c10.3-13.74 25.76-20.61 41.22-20.61s30.92 6.87 41.23 20.61z" opacity="1" data-original="#cdcde6"></path><path fill="#fff2f2" d="M308.115 321.421 199.5 361.44l-192-26.62 150.78-201.03c10.3-13.74 25.76-20.61 41.22-20.61 0 0 34.047 41.459 44.357 55.199z" opacity="1" data-original="#fff2f2"></path><path fill="#ede4f0" d="m391.5 334.82-192 26.62V113.18c15.46 0 30.92 6.87 41.23 20.61z" opacity="1" data-original="#ede4f0"></path><path fill="#ede4f0" d="M184.5 194.71h30v30h-30z" opacity="1" data-original="#ede4f0"></path><path fill="#cdcde6" d="M199.5 194.71h15v30h-15z" opacity="1" data-original="#cdcde6"></path><path fill="#c2672e" d="m199.5 334.82 27.077 26.62-27.077 37.38H0v-64z" opacity="1" data-original="#c2672e"></path><path fill="#854021" d="M199.5 334.82H512v64H199.5z" opacity="1" data-original="#854021"></path><path fill="#cdcde6" d="M222.627 254.955h30v30h-30z" opacity="1" data-original="#cdcde6"></path><path fill="#ede4f0" d="M146.377 254.955h30v30h-30z" opacity="1" data-original="#ede4f0"></path></g></svg>