<svg xmlns="http://www.w3.org/2000/svg" version="1.1" xmlns:xlink="http://www.w3.org/1999/xlink" width="512" height="512" x="0" y="0" viewBox="0 0 511.999 511.999" xml:space="preserve"><g><path fill="#8c4a37" d="m314.731 473.031-50.281-34.282h-16.9l-50.282 34.282 16.901 24.788L241 479.525v32.474h30v-32.474l26.831 18.294z" opacity="1" data-original="#8c4a37"></path><path fill="#6f2e01" d="M264.45 438.749h-8.451v73.25H271v-32.474l26.831 18.294 16.9-24.788z" opacity="1" data-original="#6f2e01"></path><path fill="#fd7816" d="M313.722 39.993V0H198.277v39.993c0 29.307-16.325 56.192-42.36 69.647-60.894 31.47-101.945 90.761-101.945 158.747 0 100.934 90.451 182.756 202.028 182.756 111.575 0 202.027-81.822 202.027-182.756 0-67.986-41.051-127.276-101.945-158.747-26.036-13.455-42.36-40.341-42.36-69.647" opacity="1" data-original="#fd7816"></path><path fill="#a14603" d="M356.082 109.64c-26.035-13.455-42.36-40.341-42.36-69.647V0h-57.723L256 451.142c111.575 0 202.027-81.822 202.027-182.756 0-67.985-41.051-127.276-101.945-158.746" opacity="1" data-original="#a14603"></path><path fill="#ffb54c" d="M304.92 155.204a178.8 178.8 0 0 1-43.602-79.646h-10.637a178.8 178.8 0 0 1-43.601 79.646c-65.971 69.734-65.115 179.115 1.939 247.808L256 451.141l46.981-48.129c67.053-68.693 67.909-178.074 1.939-247.808" opacity="1" data-original="#ffb54c"></path><path fill="#ffeedb" d="m256 466.141-.001-.001v.001z" opacity="1" data-original="#ffeedb"></path><path fill="#fd7816" d="M304.92 155.204a178.8 178.8 0 0 1-43.602-79.646h-5.319v375.584l46.981-48.129c67.054-68.694 67.91-178.075 1.94-247.809" opacity="1" data-original="#fd7816"></path></g></svg>