<svg xmlns="http://www.w3.org/2000/svg" version="1.1" xmlns:xlink="http://www.w3.org/1999/xlink" width="512" height="512" x="0" y="0" viewBox="0 0 512 512" xml:space="preserve"><g><path fill="#d3f3c2" d="M437 272c0 105.02-65.48 199.32-164.94 235.48l-9.93 3.62-4.75-13.06-1.38 2.3-5.72 9.52C151.42 450.54 90 344.1 90 232.07V135h30v97.07c0 84.43 38.6 165.42 103.27 221.33C206.66 406.27 198 356.3 198 306.38V257h30v49.38c0 50.61 9.54 101.28 27.79 148.52l.21-.7c31.19-102.91 47-209.46 47-317.2h30c0 113.38-17.03 225.49-50.64 333.6C357.73 434.13 407 356.91 407 272z" opacity="1" data-original="#d3f3c2"></path><path fill="#b3dfb3" d="M437 272c0 105.02-65.48 199.32-164.94 235.48l-9.93 3.62-4.75-13.06-1.38 2.3V454.2c31.19-102.91 47-209.46 47-317.2h30c0 113.38-17.03 225.49-50.64 333.6C357.73 434.13 407 356.91 407 272z" opacity="1" data-original="#b3dfb3"></path><path fill="#c86e59" d="M105 157.279c-41.314 0-105-10.82-105-52.279C0 47.103 47.103 0 105 0s105 47.103 105 105c0 41.45-63.662 52.279-105 52.279" opacity="1" data-original="#c86e59"></path><path fill="#a34f3e" d="M422 288.066c-36.599 0-90-9.829-90-46.066 0-49.626 40.374-90 90-90s90 40.374 90 90c0 36.236-53.401 46.066-90 46.066" opacity="1" data-original="#a34f3e"></path><path fill="#c86e59" d="M213 275.64c-26.109 0-60-7.643-60-33.64 0-33.084 26.916-60 60-60s60 26.916 60 60c0 25.99-33.876 33.64-60 33.64" opacity="1" data-original="#c86e59"></path><path fill="#a34f3e" d="M318 146.853c-31.417 0-75-8.716-75-39.853 0-41.355 33.645-75 75-75s75 33.645 75 75c0 31.125-43.551 39.853-75 39.853" opacity="1" data-original="#a34f3e"></path><path fill="#9cdd05" d="M123 482h270v30H123z" opacity="1" data-original="#9cdd05"></path><path fill="#66bb00" d="M256 482h137v30H256z" opacity="1" data-original="#66bb00"></path></g></svg>