<svg xmlns="http://www.w3.org/2000/svg" version="1.1" xmlns:xlink="http://www.w3.org/1999/xlink" width="512" height="512" x="0" y="0" viewBox="0 0 512 512" xml:space="preserve"><g><path fill="#567a3a" d="M223.483 319.717c-5.235-12.068 10.225-18.854 8.652-43.653-1.893-29.483-22.392-29.004-27.038-33.478-11.577-11.061-6.464-27.873 1.573-50.129 8.947-24.813 2.114-85.5-29.2-112.746-9.315-8.111-20.082-18.767-28.66-28.622-7.054-8.136-8.799-18.054-15.288-26.055C121.971 10.803 102.701 2.557 86.159 0 83.652 1.168 62.587 9.832 58.9 35.702c-4.129 29.016 5.875 28.979-.221 42.78-6.686 14.993-10.766 36.672-10.348 52.747 1.205 46.418 29.028 90.255 41.17 99.227 20.106 14.858 28.832 22.859 33.256 34.829 2.114 5.801-12.781 26.387-5.457 39.486 11.405 20.426 29.323 16.911 33.035 28.316 2.63 8.037-14.674 32.764-17.697 40.899 9.733 1.622 51.469-2.63 66.021 4.548 0 0 46.946-31.609 50.781-36.01-4.867-6.315-20.696-10.666-25.957-22.807" opacity="1" data-original="#567a3a"></path><path fill="#6d9d48" d="M435.752 196.144c4.325-8.996 27.946-32.187 27.946-43.272 0-14.366-13.15-38.982-15.805-43.972-7.448-13.986 4.597-17.587 5.284-31.646.738-14.6-14.82-51.051-37.065-66.45-.663-.049-57.442 10.114-72.779 27.836-11.528 13.335 1.131 25.317-4.179 40.863-3.416 9.942-27.258 20.155-28.512 32.199-1.475 14.637 13.912 28.967 7.373 41.17-5.678 10.717-17.647 33.526-23.743 44.329-14.256 25.329-11.085 55.955 9.341 78.126 2.605 2.852 18.385 21.482 18.631 27.431 1.081 24.284-24.776 53.189-39.77 58.671 10.766 17.328 47.782 9.242 62.48 3.613 11.602-4.449 27.972 22.17 61.031 4.842-.812-1.155-17.747-35.984-10.889-53.387 4.252-10.84 28.241-31.904 37.9-52.82 14.873-32.176-4.127-53.29 2.756-67.533M223.483 319.717c-5.235-12.068 10.225-18.854 8.652-43.653-1.893-29.483-22.392-29.004-27.038-33.478-11.577-11.061-6.464-27.873 1.573-50.129 8.947-24.813 2.114-85.5-29.2-112.746-9.315-8.111-20.082-18.767-28.66-28.622-7.054-8.136-8.799-18.054-15.288-26.055C121.971 10.803 102.701 2.557 86.159 0c-.393.185-1.376.64-2.556 1.241 30.085 36.82 45.3 104.708 57.958 142.229 25.759 76.221 48.028 154.593 56.164 234.745.934.32 47.88-31.289 51.715-35.689-4.867-6.317-20.696-10.668-25.957-22.809" opacity="1" data-original="#6d9d48"></path><path fill="#89c147" d="M435.752 196.144c4.325-8.996 27.946-32.187 27.946-43.272 0-14.366-13.15-38.982-15.805-43.972-7.448-13.986 4.597-17.587 5.284-31.646.738-14.6-14.82-51.051-37.065-66.45-.147-.012-10.274 2.876-15.362 3.957-5.629 57.209-16.714 113.312-29.495 169.058-13.788 60.133-18.041 120.562-18.876 181.788 11.207 3.835 26.938 18.264 53.607 4.277-.812-1.155-17.747-35.984-10.889-53.387 4.252-10.84 28.241-31.904 37.9-52.82 14.872-32.176-4.128-53.29 2.755-67.533M208.761 370.816a1875 1875 0 0 0-5.113-25.242c-2.827-13.298-5.85-27.332-9.365-42.498 8.922-11.799 5.703-67.299 4.793-71.366-3.515 11.785-8.406 24.923-13.42 35.984-4.941-19.418-10.348-39.352-16.321-59.261-5.187-17.255-11.675-37.644-18.853-59.273 6.661-17.845-9.586-111.983-13.469-118.805.59 17.132-.467 46.05-2.925 70.728C122.044 66.745 89.723.554 86.159 0c-1.278.603 36.82 143.998 54.198 199.806-25.12-14.28-67.274-42.719-91.657-64.533.812 13.396 80.153 89.493 101.193 96.475 14.895 52.108 26.128 103.356 33.625 141.331.737 3.613 13.249 84.848 16.542 115.941.688 6.464 6.145 11.281 12.486 11.281.442 0 .885-.049 1.352-.098 6.907-.713 11.921-6.907 11.184-13.814-3.344-31.61-16.272-115.326-16.321-115.573" opacity="1" data-original="#89c147"></path><path fill="#add485" d="M452.047 83.189c-6.709 7.976-38.344 25.882-59.948 38.146-.786-19.663 9.831-107.62 8.21-107.228-12.881 40.839-28.513 98.109-31.463 110.152-5.26 21.508-10.053 47.979-14.279 75.631-19.099-11.699-34.043-21.531-44.514-31.978 19.368 43.026 31.707 59.421 39.744 65.222-2.531 18.754-15.902 142.081-15.902 142.081-4.252 40.924-6.415 82.709-6.465 124.199 0 6.932 5.629 12.584 12.561 12.584 6.956 0 12.609-5.628 12.609-12.584a1206 1206 0 0 1 6.316-121.619s10.619-100.148 11.527-107.768c15.731-7.288 45.055-27.419 67.078-45.792-13.568 4.854-43.85 13.507-63.17 14.969 3.982-29.729 8.628-59.715 13.789-85.523 13.151-6.512 60.958-61.029 63.907-70.492" opacity="1" data-original="#add485"></path></g></svg>