<svg xmlns="http://www.w3.org/2000/svg" version="1.1" xmlns:xlink="http://www.w3.org/1999/xlink" width="512" height="512" x="0" y="0" viewBox="0 0 511.396 511.396" xml:space="preserve"><g><path fill="#008900" d="M346.151 511.396c-37.952-21.42-61.528-61.799-61.528-105.379V381.95h30v24.067c0 32.775 17.731 63.144 46.274 79.253z" opacity="1" data-original="#008900"></path><path fill="#00a600" d="M415.101 84.907C383.677 30.154 342.654 0 299.591 0c-17.633 0-34.98 5.002-51.561 14.868l-7.33 4.361v366.174l10.12 3.482c15.554 5.352 31.963 8.065 48.77 8.065 43.78 0 84.181-18.499 113.759-52.089 27.527-31.261 43.314-73.545 43.314-116.01.001-43.451-16.314-99.952-41.562-143.944" opacity="1" data-original="#00a600"></path><path fill="#b8dc38" d="M317.324 84.907C285.897 30.154 254.874 0 211.811 0S127.724 30.154 96.298 84.907C71.048 128.9 54.732 185.4 54.732 228.847c0 42.466 15.789 84.751 43.318 116.012 29.579 33.589 69.98 52.088 113.761 52.088s74.182-18.499 103.761-52.088c27.528-31.261 43.317-73.546 43.317-116.012 0-43.447-16.315-99.947-41.565-143.94" opacity="1" data-original="#b8dc38"></path><path fill="#6bc900" d="M327.324 84.907C295.897 30.154 254.874 0 211.811 0v396.947c43.781 0 84.182-18.499 113.761-52.088 27.528-31.261 43.317-73.546 43.317-116.012 0-43.447-16.315-99.947-41.565-143.94" opacity="1" data-original="#6bc900"></path><path fill="#6bc900" d="M226.811 406.017V308.8l83.355-82.369-21.086-21.339-62.269 61.532v-76.321l56.223-56.058-21.182-21.244-35.042 34.938V74.771h-30v73.046l-34.918-34.815-21.182 21.244 56.1 55.935v76.321l-61.874-61.145-21.087 21.338 82.96 81.984v97.338c0 43.58 23.576 83.958 61.528 105.379l14.746-26.126c-28.541-16.11-46.272-46.478-46.272-79.253" opacity="1" data-original="#6bc900"></path><path fill="#00a600" d="M226.811 406.017V308.8l83.355-82.369-21.086-21.339-62.269 61.532v-76.321l56.223-56.058-21.182-21.244-35.042 34.938V74.771h-15v389.52c10.669 19.402 26.615 35.866 46.528 47.105l14.746-26.126c-28.542-16.11-46.273-46.478-46.273-79.253" opacity="1" data-original="#00a600"></path></g></svg>