<svg xmlns="http://www.w3.org/2000/svg" version="1.1" xmlns:xlink="http://www.w3.org/1999/xlink" width="512" height="512" x="0" y="0" viewBox="0 0 510.121 510.121" xml:space="preserve"><g><path fill="#ca7b69" d="M468.961 442.676c14.951-40.171-12.953-70.344-45.641-97.209l-24.238-.455-.202-18.715c-21.56-16.406-43.244-32.375-66.16-51.965L88.985 196.746c-25.125 10.148-46.72 24.334-62.225 40.398l161.989 117.533 253.194 124.4c12.577-9.991 21.737-22.212 27.018-36.401" opacity="1" data-original="#ca7b69"></path><path fill="#af5d4f" d="M26.76 237.144c-10.007 10.368-17.484 21.518-21.711 32.877-15.791 42.428 7.765 86.859 38.795 120.335l22.905 2.321-1.02 18.765c23.297 20.184 51.488 38.459 82.89 53.75l28.13-3.848 3.349 17.738c56.208 22.35 123.065 36.286 183.186 29.024 33.001-3.986 59.714-13.977 78.659-29.029z" opacity="1" data-original="#af5d4f"></path><path fill="#994439" d="m95.423 351.672-51.58 38.685c6.692 7.219 14.008 14.261 21.885 21.086l47.695-35.771z" opacity="1" data-original="#994439"></path><path fill="#af5d4f" d="m377.928 379.512 45.393-34.045c-7.564-6.217-15.757-12.562-24.44-19.17l-38.952 29.215z" opacity="1" data-original="#af5d4f"></path><path fill="#994439" d="m201.437 425.578-52.819 39.614a461 461 0 0 0 31.48 13.891l39.339-29.505z" opacity="1" data-original="#994439"></path><path fill="#a07984" d="m302.128 10.845-3.546 15.667-24.134-.922c-8.981 6.134-17.37 13.323-25.105 21.58-54.296 57.949-116.778 90.447-146.028 125.516-17.194 20.614-21.702 40.98-13.782 62.261 2.198 5.906 5.147 11.395 8.75 16.477l200.799-95.411L471.616 37.51c-41.548-32.248-110.42-50.257-169.488-26.665" opacity="1" data-original="#a07984"></path><path fill="#7a566a" d="M471.616 37.51 98.283 251.423c26.754 37.739 84.254 46.607 130.997 44.227l3.552-16.138 31.165 12.427c49.676-7.908 102.724-27.291 147.001-54.799l1.835-21.128 23.335 3.871c13.511-10.228 25.61-21.131 35.966-32.516 33.561-36.901 45.432-74.99 33.425-107.252-5.69-15.286-17.74-30.028-33.943-42.605M333.188 41.904l-31.06-31.06a143 143 0 0 0-27.68 14.745l37.528 37.527z" opacity="1" data-original="#7a566a"></path><g fill="#5c3651"><path d="m198.782 254.986 30.497 40.663c11.216-.571 22.828-1.817 34.717-3.711l-41.214-54.952zM371.143 197.284l39.855 39.855c8.837-5.491 17.245-11.258 25.169-17.257l-43.812-43.812z" fill="#563d4b" opacity="1" data-original="#000000"></path></g></g></svg>