<svg xmlns="http://www.w3.org/2000/svg" version="1.1" xmlns:xlink="http://www.w3.org/1999/xlink" width="512" height="512" x="0" y="0" viewBox="0 0 512 512" xml:space="preserve"><g><path fill="#97ce7e" d="m341.775 169.703 24.368-17.803 12.531-19.095c23.788-23.788 23.788-62.357 0-86.145l-24.415-24.415C339.681 7.667 319.909 0 299.294 0H287.21v11.562a77.73 77.73 0 0 0 22.767 54.964l31.798 31.798c9.82 9.82 14.949 22.881 14.985 35.751.036 12.964-5.094 25.737-14.985 35.628" opacity="1" data-original="#97ce7e"></path><path fill="#008575" d="m89.394 436.716 36.898-36.898c23.788-23.788 62.357-23.788 86.145 0l45.134 45.134a77.73 77.73 0 0 1 22.767 54.964V512h-12.084a77.73 77.73 0 0 1-54.964-22.767l-52.517-52.517c-19.71-19.711-51.668-19.711-71.379 0M244.832 281.279l48.715-48.715c23.788-23.788 62.357-23.788 86.145 0l57.499 57.499a77.73 77.73 0 0 1 22.767 54.964v12.084h-12.084a77.73 77.73 0 0 1-54.964-22.767z" opacity="1" data-original="#008575"></path><path fill="#25ae7f" d="m75.284 422.606 36.898-36.898c23.788-23.788 23.788-62.357 0-86.145l-45.134-45.134a77.73 77.73 0 0 0-54.964-22.767H0v12.084a77.73 77.73 0 0 0 22.767 54.964l52.517 52.517c19.711 19.71 19.711 51.668 0 71.379M196.488 137.923l-48.682-48.682a77.73 77.73 0 0 1-22.767-54.964V22.193h12.084a77.73 77.73 0 0 1 54.964 22.767l87.348 87.348c23.788 23.788 23.788 62.357 0 86.145l-48.715 48.715z" opacity="1" data-original="#25ae7f"></path><path fill="#97ce7e" d="m198.171 299.719 36.898-36.898c23.788-23.788 23.788-62.357 0-86.145l-64.215-64.215a77.73 77.73 0 0 0-54.964-22.767h-12.084v12.084a77.73 77.73 0 0 0 22.767 54.964l71.598 71.598c19.711 19.71 19.711 51.668 0 71.379" opacity="1" data-original="#97ce7e"></path><path fill="#25ae7f" d="m212.281 313.829 36.898-36.898c23.788-23.788 62.357-23.788 86.145 0l87.348 87.348a77.73 77.73 0 0 1 22.767 54.964v12.084h-12.084a77.73 77.73 0 0 1-54.964-22.767l-94.731-94.731c-19.71-19.711-51.668-19.711-71.379 0M341.775 169.703l36.898-36.898c23.788-23.788 62.357-23.788 86.145 0l24.415 24.415A77.73 77.73 0 0 1 512 212.184v12.084h-12.084a77.73 77.73 0 0 1-54.964-22.767l-31.798-31.798c-9.658-9.658-22.571-14.27-35.228-14.463-13.175-.201-26.099 4.411-36.151 14.463" opacity="1" data-original="#25ae7f"></path><path fill="#d7e183" d="M356.76 134.075 8.971 481.863l10.346 10.346 141.146-126.562L367.105 144.42z" opacity="1" data-original="#d7e183"></path><path fill="#97ce7e" d="m19.288 492.17 347.736-347.737 10.818 10.819L30.107 502.988z" opacity="1" data-original="#97ce7e"></path></g></svg>