<svg xmlns="http://www.w3.org/2000/svg" version="1.1" xmlns:xlink="http://www.w3.org/1999/xlink" width="512" height="512" x="0" y="0" viewBox="0 0 512 512" xml:space="preserve"><g><path fill="#25ae7f" d="M213.17 298.83a82.53 82.53 0 0 0 22.306-56.42v-4.581c0-20.191-16.368-36.56-36.56-36.56-20.191 0-36.56 16.368-36.56 36.56a122.8 122.8 0 0 0 8.11 34.514c6.235 15.795 8.706 36.904 20.497 48.695-.001 0 20.895-20.979 22.207-22.208" opacity="1" data-original="#25ae7f"></path><path fill="#008575" d="M274.171 276.525h-4.581a82.53 82.53 0 0 0-56.42 22.306c-1.229 1.312-22.208 22.208-22.208 22.208 13.823 13.823 37.861 17.433 57.007 23.436a123 123 0 0 0 26.127 5.164l.075.007c20.192 0 36.56-16.368 36.56-36.56s-16.369-36.561-36.56-36.561" opacity="1" data-original="#008575"></path><path fill="#25ae7f" d="m414.439 97.561-3.823 3.823a83 83 0 0 0 3.823-3.823M414.439 97.561a82.53 82.53 0 0 0 22.306-56.42V36.56c0-20.191-16.368-36.56-36.56-36.56-20.191 0-36.56 16.368-36.56 36.56 2.579 29.742 15.661 56.407 35.535 76.28 0 0 13.967-14.05 15.279-15.279" opacity="1" data-original="#25ae7f"></path><path fill="#008575" d="M475.44 75.255h-4.581a82.53 82.53 0 0 0-56.42 22.306c-1.229 1.312-15.279 15.279-15.279 15.279 19.856 19.856 46.491 32.933 76.205 35.528l.075.007c20.192 0 36.56-16.368 36.56-36.56 0-20.191-16.368-36.56-36.56-36.56" opacity="1" data-original="#008575"></path><path fill="#25ae7f" d="m410.616 101.384 3.823-3.823a83 83 0 0 0-3.823 3.823" opacity="1" data-original="#25ae7f"></path><path fill="#008575" d="m92.211 423.265 9.542-.799a82.53 82.53 0 0 1 65.245 23.883l3.239 3.239c14.278 14.278 14.278 37.426 0 51.704s-37.426 14.278-51.704 0l-3.239-3.239a82.53 82.53 0 0 1-23.883-65.245z" opacity="1" data-original="#008575"></path><path fill="#25ae7f" d="m88.735 423.265.799-9.542a82.53 82.53 0 0 0-23.883-65.245l-3.239-3.239c-14.278-14.278-37.426-14.278-51.704 0s-14.278 37.426 0 51.704l3.239 3.239a82.53 82.53 0 0 0 65.245 23.883zM341.754 170.212l9.542-.799a82.53 82.53 0 0 1 65.245 23.883l3.239 3.239c14.278 14.278 14.278 37.426 0 51.704s-37.426 14.278-51.704 0L364.837 245a82.53 82.53 0 0 1-23.883-65.245z" opacity="1" data-original="#25ae7f"></path><path fill="#97ce7e" d="m341.754 170.212.799-9.542a82.53 82.53 0 0 0-23.883-65.245l-3.239-3.239c-14.278-14.278-37.426-14.278-51.704 0s-14.278 37.426 0 51.704l3.239 3.239a82.53 82.53 0 0 0 65.245 23.883z" opacity="1" data-original="#97ce7e"></path><path fill="#25ae7f" d="m184.416 327.549 9.542-.799a82.53 82.53 0 0 1 65.245 23.883l3.239 3.239c14.278 14.278 14.278 37.426 0 51.704s-37.426 14.278-51.704 0l-3.239-3.239a82.53 82.53 0 0 1-23.883-65.245z" opacity="1" data-original="#25ae7f"></path><path fill="#97ce7e" d="m184.416 327.549.799-9.542a82.53 82.53 0 0 0-23.883-65.245l-3.239-3.239c-14.278-14.278-37.426-14.278-51.704 0s-14.278 37.426 0 51.704l3.239 3.239a82.53 82.53 0 0 0 65.245 23.883z" opacity="1" data-original="#97ce7e"></path><path fill="#d7e183" d="M475.016 15.771 0 490.787l10.606 10.607 243.93-228.223L485.623 26.377z" opacity="1" data-original="#d7e183"></path><path fill="#97ce7e" d="M10.587 501.357 485.532 26.412l10.605 10.605L21.192 511.962z" opacity="1" data-original="#97ce7e"></path></g></svg>