<svg xmlns="http://www.w3.org/2000/svg" version="1.1" xmlns:xlink="http://www.w3.org/1999/xlink" width="512" height="512" x="0" y="0" viewBox="0 0 515.227 515.227" xml:space="preserve"><g><path d="m257.523 110.781 114.398 202.213-114.398 202.233c-134.63-.04-243.762-96.6-243.762-215.709 0-62.185 34.566-121.745 82.735-161.451z" style="" fill="#ff3f5c" data-original="#ff3f5c"></path><path d="M501.467 299.518c0 119.14-109.183 215.709-243.853 215.709h-.091V110.781l.091-.02 161.229 27.245c48.502 39.636 82.624 98.943 82.624 161.512" style="" fill="#ff193d" data-original="#ff193d"></path><path d="M272.761 117.929h-30.295V91.121c0-29.15 10.933-56.957 30.786-78.301L285.176 0l22.183 20.633-11.925 12.82c-14.621 15.719-22.674 36.2-22.674 57.668v26.808z" style="" fill="#62b500" data-original="#62b500"></path><path d="m257.523 104.126 36.058 41.76-36.058 118.964s-35.405-51.875-35.405-86.926c0-2.828.111-5.615.313-8.341-49.724 59.539-102.568 60.761-102.568 60.761l7.796-35.778c3.918-10.26 8.796-20.419 14.885-29.558 6.079-9.139 13.36-17.268 22.075-23.468-59.863 8.533-86.381-11.855-86.381-11.855l31.799-21.348c29.356-19.722 66.396-35.819 99.539-23.489z" style="" fill="#b8dc38" data-original="#b8dc38"></path><path d="m387.478 194.567 7.796 35.778s-13.209-.303-32.638-8.058c-19.419-7.745-45.059-22.933-69.92-52.703.192 2.727.313 5.514.313 8.341 0 35.051-35.506 86.926-35.506 86.926V104.126l48.038-19.278c33.143-12.33 70.193 3.767 99.549 23.489l31.789 21.348s-18.137 13.946-58.257 13.946c-8.402 0-17.753-.616-28.114-2.09 17.42 12.4 29.113 32.506 36.95 53.026" style="" fill="#92be00" data-original="#92be00"></path></g></svg>