<svg xmlns="http://www.w3.org/2000/svg" version="1.1" xmlns:xlink="http://www.w3.org/1999/xlink" width="512" height="512" x="0" y="0" viewBox="0 0 512 512" xml:space="preserve"><g><path fill="#292827" d="m256 0-52.5 256L256 512c33.936 0 66.51-11.318 92.893-31.735a151.68 151.68 0 0 0 88.126-43.246C483.346 390.692 512 326.692 512 256 512 114.615 397.385 0 256 0" opacity="1" data-original="#292827"></path><g fill="#464443"><path d="M163.107 31.735c-33.092 4.219-64.131 19.25-88.127 43.246s-39.026 55.033-43.245 88.125A151.68 151.68 0 0 0 0 256c0 141.385 114.615 256 256 256V0a151.7 151.7 0 0 0-92.893 31.735M433.265 241h30v30h-30z" fill="#464443" opacity="1" data-original="#000000"></path><path d="M271 433.266h-15l-7.5 15 7.5 15h15z" fill="#464443" opacity="1" data-original="#000000"></path></g><path fill="#62605f" d="M241 433.266h15v30h-15z" opacity="1" data-original="#62605f"></path><path fill="#464443" d="M304.734 369.531h30v30h-30z" opacity="1" data-original="#464443"></path><path fill="#fae8ac" d="M344.166 151.9c0-48.693-39.473-88.166-88.166-88.166L211 151.9l45 161.666c53.044-34.226 88.166-93.842 88.166-161.666" opacity="1" data-original="#fae8ac"></path><path fill="#fdf6df" d="M189.106 94.504c-24.747-1.879-50.133 6.619-69.058 25.544s-27.423 44.312-25.544 69.058c-18.828 16.169-30.77 40.13-30.77 66.894 0 48.693 39.473 88.166 88.166 88.166 38.362 0 74.097-11.24 104.1-30.599V63.734c-26.764 0-50.725 11.942-66.894 30.77" opacity="1" data-original="#fdf6df"></path></g></svg>