<svg xmlns="http://www.w3.org/2000/svg" version="1.1" xmlns:xlink="http://www.w3.org/1999/xlink" width="512" height="512" x="0" y="0" viewBox="0 0 510.5 510.5" xml:space="preserve"><g><path fill="#f4f1f4" d="m255.25 15 187.43 232.491L255.25 495.5C122.56 495.5 15 387.94 15 255.25S122.56 15 255.25 15" opacity="1" data-original="#f4f1f4"></path><path fill="#e0e3f9" d="M495.5 255.25c0 132.69-107.56 240.25-240.25 240.25V15C387.94 15 495.5 122.56 495.5 255.25" opacity="1" data-original="#e0e3f9"></path><path fill="#e0e3f9" d="m255.25 30 25.022-15L255.25 0C187.07 0 122.97 26.55 74.76 74.76S0 187.07 0 255.25s26.55 132.28 74.76 180.49 112.31 74.76 180.49 74.76l28.639-15-28.639-15C131.05 480.5 30 379.45 30 255.25S131.05 30 255.25 30" opacity="1" data-original="#e0e3f9"></path><path fill="#d0d0df" d="M510.5 255.25c0 68.18-26.55 132.28-74.76 180.49S323.43 510.5 255.25 510.5v-30c124.2 0 225.25-101.05 225.25-225.25S379.45 30 255.25 30V0c68.18 0 132.28 26.55 180.49 74.76s74.76 112.31 74.76 180.49" opacity="1" data-original="#d0d0df"></path><path fill="#ffdecf" d="m255.25 103.94 119.67 84.165-119.67 77.145-154.18 15.81-5.05-5.08a247 247 0 0 1-27.33-32.7l-5.23-7.51 18.78-35.52c31.98-60.47 94.93-95.47 173.01-96.31" opacity="1" data-original="#ffdecf"></path><path fill="#ffcdbe" d="M428.83 195c0 17.89-4.08 33.89-12.13 47.55l-3.85 6.54-157.6 16.16V103.94c.96-.01 1.93-.02 2.9-.02h79.6c50.22 0 91.08 40.86 91.08 91.08" opacity="1" data-original="#ffcdbe"></path><path fill="#ffcdbe" d="m255.25 180.19 142.656 100.87L255.25 414.28h-23.36c-31.11 0-62.61-11.45-92.31-29.7-27.02-16.61-68.33-61.751-68.33-61.751l6.43-38.999 4.56-7.33c31.98-60.47 94.93-95.47 173.01-96.31" opacity="1" data-original="#ffcdbe"></path><path fill="#ffb99c" d="M214.061 292.829h45.522v30h-45.522z" opacity="1" data-original="#ffb99c"></path><path fill="#ffb99c" d="M395.16 343.28c.26 1.93.43 3.87.51 5.84.03.76.04 1.53.04 2.3 0 34.66-28.2 62.86-62.86 62.86h-77.6V180.19c.96-.01 1.93-.02 2.9-.02h79.6c50.22 0 91.08 40.85 91.08 91.08 0 29.93-11.32 54.11-33.67 72.03" opacity="1" data-original="#ffb99c"></path><path fill="#ffa17a" d="M402.58 351.72c0 35.81-29.13 64.95-64.94 64.95h-82.39l-25.401-16.374 25.401-13.626h82.39c19.27 0 34.94-15.68 34.94-34.95 0-.43 0-.85-.02-1.28-.59-16.11-14.55-29.21-31.13-29.21h-38.55v-30h38.55c15.75 0 30.74 5.94 42.2 16.71 11.62 10.92 18.33 25.63 18.91 41.4.03.79.04 1.59.04 2.38" opacity="1" data-original="#ffa17a"></path><path fill="#ffb99c" d="M255.25 386.67v30h-22.96c-59.46 0-127.16-41.05-172.88-103.63l18.27-29.21c39.49 61.47 101.29 102.84 154.61 102.84z" opacity="1" data-original="#ffb99c"></path></g></svg>