<svg xmlns="http://www.w3.org/2000/svg" version="1.1" xmlns:xlink="http://www.w3.org/1999/xlink" width="512" height="512" x="0" y="0" viewBox="0 0 512 512" xml:space="preserve"><g><path fill="#fff7e6" d="M121.234 331c-14.883 0-30.249-6.563-47.021-20.068A45.2 45.2 0 0 0 46 301c-24.814 0-46 20.186-46 45 0 11.514 4.351 22.031 11.484 30C4.351 383.969 0 394.486 0 406c0 24.814 21.186 45 46 45a45.2 45.2 0 0 0 28.213-9.932C90.985 427.563 106.352 421 121.234 421H181v-90z" opacity="1" data-original="#fff7e6"></path><path fill="#ffe6cc" d="M46 451a45.2 45.2 0 0 0 28.213-9.932C90.985 427.563 106.352 421 121.234 421H181v-45H11.484C4.351 383.969 0 394.486 0 406c0 24.814 21.186 45 46 45" opacity="1" data-original="#ffe6cc"></path><path fill="#ffd480" d="M376 241c-52.192 0-108.896 19.541-147.964 51.021-7.178 5.786-16.699 8.979-26.792 8.979H196c-24.814 0-45 20.186-45 45v60c0 24.814 20.186 45 45 45h5.244c10.093 0 19.614 4.193 26.807 9.979C267.104 492.459 323.808 512 376 512c83.276 0 136-52.724 136-136s-52.724-135-136-135" opacity="1" data-original="#ffd480"></path><path fill="#ffb366" d="M196 451h5.244c10.093 0 19.614 4.193 26.807 9.979C267.104 492.459 323.808 512 376 512c83.276 0 136-52.724 136-136H151v30c0 24.814 20.186 45 45 45" opacity="1" data-original="#ffb366"></path><path fill="#fff7e6" d="M512 106c0-24.814-21.186-45-46-45a45.2 45.2 0 0 0-28.213 9.932C421.015 84.438 405.648 91 390.766 91H331v90h59.766c14.883 0 30.249 6.563 47.021 20.068A45.2 45.2 0 0 0 466 211c24.814 0 46-20.186 46-45 0-11.514-4.351-22.031-11.484-30 7.133-7.969 11.484-18.486 11.484-30" opacity="1" data-original="#fff7e6"></path><path fill="#ffe6cc" d="M390.766 181c14.883 0 30.249 6.563 47.021 20.068A45.2 45.2 0 0 0 466 211c24.814 0 46-20.186 46-45 0-11.514-4.351-22.031-11.484-30H331v45z" opacity="1" data-original="#ffe6cc"></path><path fill="#ffd480" d="M316 61h-5.244c-10.093 0-19.614-3.193-26.807-8.979C244.896 20.541 188.192 0 136 0 52.724 0 0 52.724 0 136s52.724 135 136 135c52.192 0 108.896-19.541 147.964-51.021 7.178-5.786 16.699-8.979 26.792-8.979H316c24.814 0 45-20.186 45-45v-60c0-24.814-20.186-45-45-45" opacity="1" data-original="#ffd480"></path><path fill="#ffb366" d="M136 271c52.192 0 108.896-19.541 147.964-51.021 7.178-5.786 16.699-8.979 26.792-8.979H316c24.814 0 45-20.186 45-45v-30H0c0 83.276 52.724 135 136 135M391 331h30v30h-30z" opacity="1" data-original="#ffb366"></path><path fill="#fd9662" d="M421 391h30v30h-30zM361 391h30v30h-30z" opacity="1" data-original="#fd9662"></path><path fill="#ffb366" d="M91 91h30v30H91z" opacity="1" data-original="#ffb366"></path><path fill="#fd9662" d="M61 151h30v30H61zM121 151h30v30h-30z" opacity="1" data-original="#fd9662"></path></g></svg>