<svg xmlns="http://www.w3.org/2000/svg" version="1.1" xmlns:xlink="http://www.w3.org/1999/xlink" width="512" height="512" x="0" y="0" viewBox="0 0 512 512" xml:space="preserve"><g><path fill="#158f5e" d="M142.083 429.827S-14.588 363.979 6.908 268.498c0 0-26.713-64.435 24.922-101.543 0 0 .628-121.206 118.348-73.082z" opacity="1" data-original="#158f5e"></path><path fill="#0c6842" d="M371.207 429.827s156.314-69.726 134.142-172.556c0 0 26.283-69.108-25.643-109.373 0 0-1.469-130.351-118.931-79.414z" opacity="1" data-original="#0c6842"></path><path fill="#1eb07c" d="M399.741 219.451c-40.558 20.665-30.699 34.501-18.368 41.774H254.29V56.981c21.799-14.052 84.866-44.916 131.812 30.287 0 0 .185-.052.536-.134 0 0 18.018 6.057 26.208 42.021-.001.001 50.2 58.052-13.105 90.296" opacity="1" data-original="#1eb07c"></path><path fill="#158f5e" d="M391.376 124.519s59.75 42.455 2.003 106.347h51.583c33.053-53.754-15.654-88.37-15.654-88.37 4.306-64.283-37.447-56.578-42.67-55.362 3.79 8.375 5.882 20.356 4.738 37.385" opacity="1" data-original="#158f5e"></path><path fill="#1eb07c" d="m321.262 146.308-207.19 70.31-16.782-67.57s27.279-36.973 17.194-81.796c-.793-3.492.422-7.119 3.091-9.488 7.747-6.882 27.032-17.791 66.148-8.365 0 0 .01 0 .021-.01 1.453-.33 83.383-18.595 128.134 78.52 3.234 7.016 6.365 13.125 9.384 18.399" opacity="1" data-original="#1eb07c"></path><path fill="#158f5e" d="M157.675 137.899a7.7 7.7 0 0 1-5.463-2.263c-20.508-20.507.619-55.612 1.528-57.096a7.727 7.727 0 0 1 13.182 8.064c-.244.407-15.475 26.415-3.785 38.106a7.726 7.726 0 0 1-5.462 13.189M343.514 130.154h-56.918c-5.973-56.538-45.447-53.702-57.623-51.44a6.07 6.07 0 0 1-5.881-2.219c-12.443-15.753-26.016-23.625-39.37-27.097s57.237-33.8 97.98 21.685c.001.001 58.526-17.708 61.812 59.071" opacity="1" data-original="#158f5e"></path><circle cx="255.422" cy="261.224" r="163.481" fill="#e2f4c6" opacity="1" data-original="#e2f4c6"></circle><g fill="#bcea73"><path d="M296.489 198.555c-27.466-5.089-49.127-.396-63.78 5.43 7.922-13.978 18.374-26.084 31.287-36.193 17.222-13.484 32.626-18.192 32.761-18.233a7.724 7.724 0 0 0 5.233-9.592 7.726 7.726 0 0 0-9.592-5.233c-.722.212-17.893 5.368-37.354 20.443a139 139 0 0 0-21.452 20.684c-9.008-9.892-27.611-24.191-58.871-22.165a7.726 7.726 0 0 0-7.21 8.211c.277 4.259 3.97 7.478 8.21 7.21 27.971-1.811 42.861 12.424 48.439 19.437-8.378 12.706-15.749 28.379-20.271 47.522a249 249 0 0 0-2.156 10.087c-8.298-8.242-21.5-16.308-41.404-16.308a7.726 7.726 0 1 0 0 15.452c24.992 0 35.55 16.952 38.258 22.297-7.09 71.193 22.033 115.615 23.447 117.72a7.72 7.72 0 0 0 6.421 3.418 7.727 7.727 0 0 0 6.407-12.036c-.235-.349-15.462-23.571-20.363-62.933 4.571-7.378 23.933-33.326 70.092-33.326a7.726 7.726 0 1 0 0-15.452c-36.43 0-58.942 14.21-71.577 26.449-.162-15.567 1.453-32.929 5.915-51.816a145 145 0 0 1 3.678-12.833c2.664-1.911 8.724-5.831 17.716-9.157 16.46-6.09 34.411-7.397 53.352-3.889a7.727 7.727 0 0 0 2.814-15.194" fill="#a6d460" opacity="1" data-original="#000000"></path><path d="M418.903 261.224c0 90.285-73.194 163.479-163.479 163.479-7.603 0-15.082-.515-22.406-1.525 79.685-10.93 141.063-79.272 141.063-161.955S312.701 110.2 233.017 99.269a164 164 0 0 1 22.406-1.525c90.285.001 163.48 73.195 163.48 163.48" fill="#a6d460" opacity="1" data-original="#000000"></path></g><path fill="#26d192" d="m266.116 465.623-49.026-32.811s-3.781-92.284 95.261-121.798c0 0-6.5-69.434 70.073-63.758 0 0 24.745-31.132 52.694-40.805l.01-.01a46 46 0 0 1 2.225-.711h.01c2.555.227 6.531 4.1 7.603 25.136 1.617 31.75-16.236 215.987-178.85 234.757" opacity="1" data-original="#26d192"></path><path fill="#1eb07c" d="M470.247 215.319c-.01 38.621-8.952 250.303-204.13 250.303l-7.489-5.007C428.442 442.557 436.58 248.491 436.58 211.662a10 10 0 0 0-1.463-5.213c9.622-3.338 19.625-4.131 29.123-.237 3.668 1.505 6.007 5.141 6.007 9.107" opacity="1" data-original="#1eb07c"></path><path fill="#23f1a8" d="M233.171 465.149c-44.288-4.347-122.334-25.765-164.541-118.739-38.395-84.588-11.116-153.899 7.85-186.885 42.742 10.611 33.718 130.967 33.718 130.967 49.861 10.755 47.481 63.026 47.481 63.026 89.152 32.101 75.492 111.631 75.492 111.631" opacity="1" data-original="#23f1a8"></path><path fill="#26d192" d="M266.116 465.622s-13.073 1.483-32.945-.474c-1.854-17.966-14.042-90.862-90.574-107.747 0 0 11.291-53.271-45.451-65.705 0 0 16.792-84.289-20.665-132.172a181 181 0 0 1 7.829-12.475c3.348-4.873 10.219-5.779 14.649-1.865 50.417 44.555 30.813 142.979 30.813 142.979 56.742 12.424 45.452 65.695 45.452 65.695 87.472 19.295 90.892 111.764 90.892 111.764" opacity="1" data-original="#26d192"></path><g fill="#1eb07c"><path d="M388.288 339.309a7.71 7.71 0 0 1-6.009-2.864c-24.808-30.629-65.928-18.575-67.664-18.046-4.078 1.239-8.394-1.054-9.643-5.126a7.717 7.717 0 0 1 5.097-9.643c2.139-.661 52.761-15.753 84.218 23.09a7.725 7.725 0 0 1-5.999 12.589M424.812 269.307a7.7 7.7 0 0 1-4.474-1.433c-14.415-10.263-38.479-12.906-38.72-12.932a7.73 7.73 0 0 1-6.876-8.488 7.717 7.717 0 0 1 8.479-6.881c1.148.119 28.314 3.064 46.079 15.712a7.725 7.725 0 0 1 1.813 10.775 7.72 7.72 0 0 1-6.301 3.247M95.543 303.216a7.727 7.727 0 0 1-5.528-13.123c15.413-15.789 40.577-9.691 41.641-9.425a7.726 7.726 0 0 1-3.742 14.993c-.309-.074-17.705-4.133-26.84 5.225a7.7 7.7 0 0 1-5.531 2.33M114.09 371.89a7.727 7.727 0 0 1-4.131-14.262c30.105-18.997 65.41-11.639 66.899-11.317a7.726 7.726 0 0 1-3.261 15.105c-.506-.105-30.821-6.226-55.391 9.281a7.7 7.7 0 0 1-4.116 1.193" fill="#a6d460" opacity="1" data-original="#000000"></path></g><path fill="#26d192" d="M49.286 263.907q-.286 0-.577-.022c-4.239-.315-7.43-3.975-7.137-8.216.031-.444 3.608-44.437 50.369-44.437a7.726 7.726 0 1 1 0 15.452c-13.532 0-23.453 4.865-29.486 14.461-4.782 7.605-5.464 15.548-5.47 15.627-.323 4.045-3.706 7.135-7.699 7.135" opacity="1" data-original="#26d192"></path><path fill="#1eb07c" d="M266.107 473.346a7.727 7.727 0 0 1-.893-15.4c2.014-.257 45.883-6.723 45.883-76.931a7.726 7.726 0 1 1 15.452 0c0 24.06-5.039 57.067-29.047 77.679-14.813 12.718-29.892 14.533-30.527 14.604a8 8 0 0 1-.868.048" opacity="1" data-original="#1eb07c"></path><path fill="#158f5e" d="M377.193 441.889a7.728 7.728 0 0 1-5.327-13.325c.722-.705 15.43-15.507 4.87-40.737a7.726 7.726 0 0 1 4.145-10.11 7.726 7.726 0 0 1 10.111 4.144c14.848 35.48-7.557 57.039-8.518 57.939a7.7 7.7 0 0 1-5.281 2.089" opacity="1" data-original="#158f5e"></path></g></svg>