<svg xmlns="http://www.w3.org/2000/svg" version="1.1" xmlns:xlink="http://www.w3.org/1999/xlink" width="512" height="512" x="0" y="0" viewBox="0 0 512 512" xml:space="preserve"><g><path fill="#b8abab" d="m180.428 252.01 10 150.99-10 67.35L0 366.18V157.84z" opacity="1" data-original="#b8abab"></path><path fill="#9d9696" d="M360.856 157.84v208.34L180.428 470.35V252.01s146.96-74.848 180.428-94.17" opacity="1" data-original="#9d9696"></path><path fill="#e0d2cd" d="M0 157.84 180.428 53.67l180.428 104.17-180.428 104.17z" opacity="1" data-original="#e0d2cd"></path><path fill="#eee1dc" d="M151.144 145.82v208.34l180.428 104.17 20-137.041-20-81.299z" opacity="1" data-original="#eee1dc"></path><path fill="#e0d2cd" d="M331.572 239.99v218.34L512 354.16V145.82zM199.879 291.289h30v30h-30z" opacity="1" data-original="#e0d2cd"></path><path fill="#b8abab" d="M433.266 249.33h30v30h-30z" opacity="1" data-original="#b8abab"></path><path fill="#fff4f4" d="M512 145.82 331.572 41.65 151.144 145.82l180.428 104.17z" opacity="1" data-original="#fff4f4"></path><path fill="#e0d2cd" d="M284.705 110.708h30v30h-30zM348.439 142.575h30v30h-30z" opacity="1" data-original="#e0d2cd"></path></g></svg>