<svg xmlns="http://www.w3.org/2000/svg" version="1.1" xmlns:xlink="http://www.w3.org/1999/xlink" width="512" height="512" x="0" y="0" viewBox="0 0 512 512" xml:space="preserve"><g><path fill="#faecd8" d="M166 512h-60v-91l30-30 30 30zm0 0" opacity="1" data-original="#faecd8"></path><path fill="#f8e5ca" d="M406 512h-60v-91l30-30 30 30zm0 0" opacity="1" data-original="#f8e5ca"></path><path fill="#ea9b58" d="M271 150 406.293 14.707C415.785 5.23 428.383 0 441.801 0c23.086 0 44.11 15.629 49.691 38.027L512 120l-60-30v30c0 16.54-14.46 30-31 30zm0 0" opacity="1" data-original="#ea9b58"></path><path fill="#ffbd86" d="M241 150 105.707 14.707C96.215 5.23 83.617 0 70.199 0 47.113 0 26.09 15.629 20.508 38.027L0 120l61-30v30c0 16.54 13.46 30 30 30zM106 421l-16.566-33.367C80.644 370.039 76 350.48 76 331c0-33.09 26.91-60 60-60s60 26.91 60 60c0 19.48-4.645 39.04-13.418 56.586L166 421zm0 0" opacity="1" data-original="#ffbd86"></path><path fill="#ea9b58" d="m346 421-16.566-33.367C320.644 370.039 316 350.48 316 331c0-33.09 26.91-60 60-60s60 26.91 60 60c0 19.48-4.645 39.04-13.418 56.586L406 421zm0 0" opacity="1" data-original="#ea9b58"></path><path fill="#fed2a4" d="M271.602 30h-31.204c-73.199 0-132.296 58.5-135 131.102-.898 27.898 0 56.496 2.704 83.199 4.199 38.101 23.101 72.597 53.699 97.5 17.398 13.8 29.398 27.898 37.5 44.097C209.8 407.2 231.1 420.7 255.1 421h1.5c24-.3 45.598-13.8 56.7-36 7.5-15.3 19.5-29.398 36.898-43.2 30.602-24.902 49.5-59.398 53.7-97.5 2.703-26.698 3.601-55.3 2.703-83.198C403.898 88.8 345.098 30 271.602 30m0 0" opacity="1" data-original="#fed2a4"></path><path fill="#ffbd86" d="M406.602 161.102c.898 27.898 0 56.496-2.704 83.199-4.199 38.101-23.097 72.597-53.699 97.5-17.398 13.8-29.398 27.898-36.898 43.199-11.102 22.2-32.7 35.7-56.7 36H256V30h15.602c73.496 0 132.296 58.8 135 131.102m0 0" opacity="1" data-original="#ffbd86"></path></g></svg>