<svg xmlns="http://www.w3.org/2000/svg" version="1.1" xmlns:xlink="http://www.w3.org/1999/xlink" width="512" height="512" x="0" y="0" viewBox="0 0 512 512" xml:space="preserve"><g><path fill="#a3e5a8" d="M481.431 173.816c2.284-12.759 1.545-25.363-1.647-37.131 0 0-4.688-5.672-5.628-8.186-12.365-33.065-41.278-57.276-79.045-56.901-39.139 0-64.002 27.127-75.219 62.556-7.601 23.264-29.657 82.251-85.22 127.655-47.183 38.556-101.479 51.262-125.55 55.761-48.348 7.25-82.765 44.493-82.765 94.861 0 18.62 9.211 50.133 9.211 50.133C53.042 492.153 85.26 512 122.112 512c9.071 0 17.859-1.21 26.218-3.464l.001.005c40.82-8.727 105.224-28.411 169.296-76.643 110.053-82.846 148.206-196.523 160.94-246.191 1.242-3.848 2.864-11.891 2.864-11.891" opacity="1" data-original="#4fc660"></path><path fill="#6acb73" d="M479.783 136.685c-5.604 1.999-10.621 2.39-13.629 2.39 0 0-.515 0-.773-.01-9.89-.175-18.852-4.553-26.136-12.414a3.07 3.07 0 0 0-3.698-.618c-5.46 2.915-11.239 4.42-17.152 4.42-2.132 0-4.286-.206-6.377-.608-8.066-1.576-14.969-5.81-20.397-12.321a3.076 3.076 0 0 0-3.657-.814c-5.532 2.586-11.167 3.925-16.74 3.925-4.193 0-8.272-.742-12.125-2.225a41 41 0 0 1-4.481-2.055 5.15 5.15 0 0 0-6.523 1.457 93 93 0 0 0-14.236 27.661c-4.038 12.352-11.785 33.223-25.899 57.041-14.113 23.818-34.593 50.582-64.108 74.688-50.118 40.96-101.679 54.187-127.248 58.968-25.682 3.853-48.367 16.854-64.633 35.582-16.009 18.43-25.785 42.392-26.084 68.641a100.2 100.2 0 0 1-4.213-28.835c0-25.178 9.272-48.202 24.58-65.828 15.308-17.637 36.674-29.875 60.842-33.491 24.065-4.502 72.607-16.957 119.789-55.516 27.774-22.705 47.059-47.883 60.348-70.31 13.289-22.417 20.583-42.073 24.384-53.703 4.656-14.701 13.083-27.712 24.137-37.911 24.929-23.166 65.758-31.59 99.567-13.464 21.665 11.361 38.034 31.666 44.462 55.35" opacity="1" data-original="#3bb74f"></path><g fill="#3bb74f"><path d="M163.024 461.346c1.607 3.946-.299 8.458-4.244 10.065-.412.165-29.566 10.559-62.048 10.559-15.7 0-32.173-2.431-46.564-9.612-5.439-2.709-10.302-5.975-14.598-9.797-8.633-14.618-13.67-31.616-13.887-49.778 3.111-8.818 8.149-17.091 15.061-24.766 23.632-26.239 69.486-43.525 119.666-45.122a7.7 7.7 0 0 1 7.963 7.479 7.72 7.72 0 0 1-7.469 7.974c-46.121 1.453-87.771 16.792-108.684 40.012a66 66 0 0 0-4.458 5.502c-13.226 18.283-7.17 44.292 12.957 54.495l.33.166c33.8 16.874 87.442 2.009 95.91-1.432 3.946-1.607 8.458.299 10.065 4.255M272.007 347.388a7.726 7.726 0 0 1 1.514-10.827c39.662-29.896 73.029-68.6 96.497-111.919 19.553-36.118 32.43-75.162 38.282-116.06l4.522-35.273.01-.103a7.736 7.736 0 0 1 8.654-6.686c4.224.546 7.222 4.419 6.676 8.643l-.34 2.679-4.203 32.76c0 .041-.01.072-.01.113-6.109 42.732-19.563 83.537-40.002 121.283-24.508 45.256-59.359 85.68-100.782 116.905a7.7 7.7 0 0 1-4.646 1.556 7.72 7.72 0 0 1-6.172-3.071" fill="#6acb73" opacity="1" data-original="#000000"></path><path d="m470.677 83.353-4.172 25.312-1.339 8.128c-.01.093-.031.175-.041.258-12.764 63.943-43.329 157.133-116.524 237.971-54.393 60.09-107.695 86.514-134.634 96.909a7.5 7.5 0 0 1-2.781.525 7.72 7.72 0 0 1-7.211-4.945c-1.535-3.976.443-8.458 4.43-9.993 25.651-9.91 76.491-35.15 128.741-92.871 70.784-78.17 100.401-168.465 112.794-230.492l3.348-20.305 2.143-13.021c.7-4.203 4.667-7.046 8.88-6.356s7.067 4.666 6.366 8.88" fill="#6acb73" opacity="1" data-original="#000000"></path></g><g fill="#30aa44"><path d="M466.505 108.664v.01l-1.339 8.118c-.01.093-.031.175-.041.258a546 546 0 0 1-4.759 21.551c-5.161-.855-10.013-2.915-14.443-6.057a518 518 0 0 0 4.018-18.389l3.348-20.305v-.01a90.5 90.5 0 0 1 13.216 14.824M412.822 73.308a84 84 0 0 1 14.999 4.533v.01l-4.203 32.749c0 .041-.01.072-.01.113a367 367 0 0 1-3.358 19.687 37 37 0 0 1-1.854.052c-2.132 0-4.286-.206-6.377-.608a33.3 33.3 0 0 1-6.995-2.163 346 346 0 0 0 3.276-19.1z" fill="#6acb73" opacity="1" data-original="#000000"></path></g><path fill="#a3e5a8" d="M490.318 76.591c.411-23.553-14.283-50.923-20.248-61.037a10.31 10.31 0 0 0-6.92-4.888l-20.391-3.964-30.716-3.482a10.32 10.32 0 0 0-8.247 1.94c-9.32 7.144-32.064 22.865-40.506 44.857-10.584 27.573-9.541 41.635 3.77 46.744 4.993 1.917 16.175-.944 16.175-.944 4.338-2.867 8.712-7.103 12.815-12.416 1.113-1.441 3.394-.853 3.668.947 2.103 13.822 7.88 23.647 16.237 25.271s17.394-5.321 24.521-17.349c.072-.121.249-.443.353-.563 1.233-1.427 4.422-2.438 4.876-.821 1.565 5.577 2.145 12.364 4.572 16.358 4.222 6.946 9.576 11.121 15.461 11.224 14.256.249 24.065-12.347 24.58-41.877" opacity="1" data-original="#a3e5a8"></path><path fill="#90d196" d="M383.071 52.169c-8.437 21.984-7.367 36.199.164 43.647-5.913 3.904-11.764 5.276-16.75 3.36-13.31-5.11-17.688-20.47-7.108-48.037 8.448-21.994 32.317-41.866 41.64-49.006a10.34 10.34 0 0 1 8.252-1.947l15.411 2.998c-9.344 7.16-33.172 27.011-41.609 48.985" opacity="1" data-original="#90d196"></path><path fill="#90d196" d="m442.759 6.697-4.389 3.915a96 96 0 0 0-16.709 19.542 95 95 0 0 0-8.509 16.555 7.73 7.73 0 0 1-10.034 4.327c-3.966-1.576-5.903-6.068-4.337-10.034a111.5 111.5 0 0 1 9.9-19.223A110.7 110.7 0 0 1 423.886 3.03zM457.192 93.706c-.052.124-.113.237-.165.35l-6.751 13.188c-2.431-3.997-4.478-8.903-6.044-14.476-.494-1.751-2.833-2.06-3.76-.494l1.514-2.843c1.082-2.04 2.05-4.141 2.792-6.325 3.245-9.56 2.812-17.832 2.802-17.925a7.733 7.733 0 0 1 7.201-8.221c4.234-.299 7.932 2.936 8.221 7.191.041.597.897 14.669-5.81 29.555" opacity="1" data-original="#90d196"></path></g></svg>