<svg xmlns="http://www.w3.org/2000/svg" version="1.1" xmlns:xlink="http://www.w3.org/1999/xlink" width="512" height="512" x="0" y="0" viewBox="0 0 510 510" xml:space="preserve"><g><path fill="#fff5f5" d="M45 165v120c0 41.355 33.645 75 75 75h135l15-120-15-75-120-15z" opacity="1" data-original="#fff5f5"></path><path fill="#ece6f2" d="M255 165v195h135c41.355 0 75-33.645 75-75V165l-120-15zM125 105H95c0-2.441-.39-3.242-5.26-7.807C83.871 91.689 75 83.373 75 67.5s8.871-24.189 14.74-29.693C94.61 33.242 95 32.441 95 30h30c0 15.873-8.871 24.189-14.741 29.693-4.87 4.565-5.259 5.366-5.259 7.807s.389 3.242 5.259 7.807C116.129 80.811 125 89.127 125 105M215 75h-30c0-2.441-.39-3.242-5.26-7.807C173.871 61.689 165 53.373 165 37.5s8.871-24.189 14.74-29.693C184.61 3.242 185 2.441 185 0h30c0 15.873-8.871 24.189-14.741 29.693-4.87 4.565-5.259 5.366-5.259 7.807s.389 3.242 5.259 7.807C206.129 50.811 215 59.127 215 75" opacity="1" data-original="#ece6f2"></path><path fill="#cfcfe6" d="M415 105h-30c0-15.873 8.871-24.189 14.741-29.693C404.61 70.742 405 69.941 405 67.5s-.39-3.242-5.259-7.807C393.871 54.189 385 45.873 385 30h30c0 2.441.39 3.242 5.259 7.807C426.129 43.311 435 51.627 435 67.5s-8.871 24.189-14.741 29.693C415.39 101.758 415 102.559 415 105M325 75h-30c0-15.873 8.871-24.189 14.741-29.693C314.61 40.742 315 39.941 315 37.5s-.39-3.242-5.259-7.807C303.871 24.189 295 15.873 295 0h30c0 2.441.39 3.242 5.259 7.807C336.129 13.311 345 21.627 345 37.5s-8.871 24.189-14.741 29.693C325.39 71.758 325 72.559 325 75" opacity="1" data-original="#cfcfe6"></path><path fill="#99ccff" d="M105 195h30v30h-30zM180 210h30v30h-30zM175.92 270H75v15c0 24.813 20.188 45 45 45h135l15-29.999-15-38.969A353.4 353.4 0 0 1 175.92 270" opacity="1" data-original="#99ccff"></path><path fill="#8095ff" d="M435 285v-60c-6.861.549-64.2-4.05-135 22.5a353 353 0 0 1-45 13.532V330h135c24.814 0 45-20.187 45-45" opacity="1" data-original="#8095ff"></path><path fill="#ffdf80" d="M135 465c0-16.568-30-60-30-60s-30 43.432-30 60a29.85 29.85 0 0 0 4.023 15l27.644 10 24.31-10A29.85 29.85 0 0 0 135 465" opacity="1" data-original="#ffdf80"></path><path fill="#ffbf40" d="M435 465c0-16.568-30-60-30-60s-30 43.432-30 60a29.85 29.85 0 0 0 4.023 15l27.644 10 24.31-10A29.85 29.85 0 0 0 435 465" opacity="1" data-original="#ffbf40"></path><path fill="#ffdf80" d="M255 405s-30 43.432-30 60a29.85 29.85 0 0 0 4.023 15l12.31 10L255 480l15-30z" opacity="1" data-original="#ffdf80"></path><path fill="#ffbf40" d="M280.977 480A29.84 29.84 0 0 0 285 465c0-16.568-30-60-30-60v75l9.666 10z" opacity="1" data-original="#ffbf40"></path><path fill="#ece6f2" d="M255 135H45v30h210l15-15z" opacity="1" data-original="#ece6f2"></path><path fill="#cfcfe6" d="M255 135h210v30H255z" opacity="1" data-original="#cfcfe6"></path><path fill="#404a80" d="M0 480v30h255l15-15-15-15z" opacity="1" data-original="#404a80"></path><path fill="#283366" d="M255 480h255v30H255z" opacity="1" data-original="#283366"></path></g></svg>