<svg xmlns="http://www.w3.org/2000/svg" version="1.1" xmlns:xlink="http://www.w3.org/1999/xlink" width="512" height="512" x="0" y="0" viewBox="0 0 512 512" xml:space="preserve"><g><g fill-rule="evenodd" clip-rule="evenodd"><path fill="#f4f6f8" d="M62.274 249.413h287.402v158.63c0 12.256-9.997 22.253-22.253 22.253H84.527c-12.256 0-22.253-9.996-22.253-22.253z" opacity="1" data-original="#f4f6f8"></path><path fill="#fdcd56" d="M349.676 321.333v86.709c0 12.256-9.997 22.253-22.253 22.253H84.527c-12.256 0-22.253-9.996-22.253-22.253V324.59c16.711-.742 35.568-13.164 55.871-13.164 20.928 0 43.392 13.2 66.624 13.2s47.232-13.2 71.232-13.2 48 13.2 71.232 13.2c7.571 0 15.061-1.403 22.443-3.293M186.996 83.543a6.985 6.985 0 1 1-10.664-9.024c8.95-10.612 6.017-15.418 2.606-21.005-5.186-8.496-11.024-18.062-3.782-36.564a6.988 6.988 0 0 1 13.016 5.086c-4.722 12.064-.797 18.494 2.688 24.205 6.229 10.206 11.587 18.983-3.864 37.302m-67.088 0a6.985 6.985 0 0 1-10.663-9.024c8.95-10.612 6.017-15.418 2.606-21.005-5.186-8.496-11.024-18.062-3.782-36.564a6.988 6.988 0 0 1 13.016 5.086c-4.722 12.064-.797 18.494 2.688 24.205 6.227 10.206 11.585 18.983-3.865 37.302m134.177 0a6.985 6.985 0 1 1-10.664-9.024c8.95-10.612 6.017-15.418 2.606-21.005-5.186-8.496-11.024-18.062-3.782-36.564a6.988 6.988 0 0 1 13.016 5.086c-4.722 12.064-.797 18.494 2.688 24.205 6.229 10.206 11.586 18.983-3.864 37.302" opacity="1" data-original="#fdcd56"></path><g fill="#f5b945"><path d="m248.658 187.495-58.382 58.382a5.01 5.01 0 0 0 0 7.071l19.11 19.11a5.01 5.01 0 0 0 7.071 0l58.382-58.382a5.01 5.01 0 0 0 0-7.071l-19.111-19.111a5.01 5.01 0 0 0-7.07.001M76.686 168.881l79.752 21.37a5.01 5.01 0 0 1 3.535 6.123l-6.995 26.105a5.01 5.01 0 0 1-6.123 3.535l-79.752-21.37a5.01 5.01 0 0 1-3.535-6.123l6.995-26.105a5.01 5.01 0 0 1 6.123-3.535M225.557 118.402h-82.565a5.01 5.01 0 0 0-5 5v27.026c0 2.754 2.246 5 5 5h82.565c2.754 0 5-2.246 5-5v-27.026c0-2.754-2.246-5-5-5" fill="#cad0d7" opacity="1" data-original="#000000"></path></g><path fill="#fdcd56" d="M16 311.469v188.026h480V311.469c-12.165-.888-28.075 13.157-44.736 13.157-17.088 0-36.48-13.2-57.408-13.2s-43.392 13.2-66.624 13.2-47.232-13.2-71.232-13.2-48 13.2-71.232 13.2-45.696-13.2-66.624-13.2-40.32 13.2-57.408 13.2c-16.661 0-32.57-14.045-44.736-13.157" opacity="1" data-original="#fdcd56"></path><path fill="#f5b945" d="M387.927 396.055a8 8 0 1 1 0 16 8 8 0 0 1 0-16M61.88 453.835a8 8 0 1 1 0 16 8 8 0 0 1 0-16m81.293 6.539a8 8 0 1 1 0 16c-4.418 0-8-3.581-8-8s3.582-8 8-8m73.181-2.479a8 8 0 1 1 0 16 8 8 0 0 1 0-16m79.343 1.16a8 8 0 1 1 0 16 8 8 0 0 1 0-16m78.235 9.16a8 8 0 1 1 0 16 8 8 0 0 1 0-16m73.181-14.183a8 8 0 1 1 0 16 8 8 0 0 1 0-16m.46-69.709a8 8 0 1 1 0 16 8 8 0 0 1 0-16m-49.977-47.019a8 8 0 1 1 0 16 8 8 0 0 1 0-16" opacity="1" data-original="#f5b945"></path><path fill="#a9b0bb" d="M409.124 165.466h-50.85L312.557 270.27l-25.594-11.156 48.953-112.223c1.896-5.485 7.105-9.425 13.234-9.425h59.974z" opacity="1" data-original="#a9b0bb"></path><path fill="#636c77" d="M491 128.405h-97.903a5.01 5.01 0 0 0-5 5v36.122c0 2.754 2.246 5 5 5H491c2.754 0 5-2.246 5-5v-36.122c0-2.754-2.246-5-5-5" opacity="1" data-original="#636c77"></path><g fill="#cad0d7"><path d="M308.774 286.488v143.807h-14V286.488zm-47.9 0v143.807h-14V286.488zm-47.9 0v143.807h-14V286.488zm-47.9 0v143.807h-14V286.488zm-47.9 0v143.807h-14V286.488z" fill="#cad0d7" opacity="1" data-original="#000000"></path><path d="M62.274 242.413h287.402a7 7 0 0 1 7 7v158.63c0 8.06-3.284 15.374-8.582 20.672-5.297 5.297-12.611 8.581-20.671 8.581H84.527c-8.06 0-15.375-3.284-20.672-8.581s-8.581-12.611-8.581-20.672v-158.63a7 7 0 0 1 7-7m280.402 13.999H69.274v151.63c0 4.196 1.715 8.009 4.48 10.774s6.578 4.48 10.774 4.48h242.896c4.196 0 8.008-1.715 10.773-4.48s4.48-6.578 4.48-10.774v-151.63z" fill="#cad0d7" opacity="1" data-original="#000000"></path><path d="M62.274 279.488h287.402v14H62.274zm0 47.901h287.402v14H62.274zm0 47.9h287.402v14H62.274z" fill="#cad0d7" opacity="1" data-original="#000000"></path></g><path fill="#cad0d7" d="M62.274 242.413h287.401a7 7 0 0 1 7 7v44.075H55.273v-44.075a7 7 0 0 1 7.001-7" opacity="1" data-original="#cad0d7"></path></g></g></svg>