<svg xmlns="http://www.w3.org/2000/svg" version="1.1" xmlns:xlink="http://www.w3.org/1999/xlink" width="512" height="512" x="0" y="0" viewBox="0 0 511.575 511.575" xml:space="preserve"><g><path fill="#ffc247" d="m170.828 306.354-8.729-6.246-8.729 6.246c-.36.259-8.938 6.424-17.555 14.969-13.565 13.453-20.159 25.587-20.159 37.096 0 25.609 20.834 46.444 46.443 46.444s46.444-20.835 46.444-46.444c0-11.509-6.595-23.643-20.16-37.096-8.616-8.545-17.194-14.711-17.555-14.969" opacity="1" data-original="#ffc247"></path><path fill="#ffa426" d="M188.383 321.323c-8.616-8.545-17.194-14.71-17.556-14.969l-8.729-6.246v104.755c25.609 0 46.444-20.835 46.444-46.444.002-11.509-6.593-23.643-20.159-37.096M290.45 321.323c-8.616-8.545-17.194-14.71-17.556-14.969l-8.729-6.246-8.729 6.246c-.36.259-8.938 6.424-17.555 14.969-13.565 13.453-20.159 25.587-20.159 37.096 0 25.609 20.834 46.444 46.443 46.444s46.444-20.835 46.444-46.444c.001-11.509-6.594-23.643-20.159-37.096" opacity="1" data-original="#ffa426"></path><path fill="#ffc247" d="m68.695 306.354-8.729-6.246-8.729 6.246c-.36.259-8.938 6.424-17.555 14.969-13.565 13.453-20.159 25.587-20.159 37.096 0 25.609 20.834 46.444 46.443 46.444s46.444-20.835 46.444-46.444c0-11.509-6.595-23.643-20.16-37.096-8.616-8.545-17.194-14.711-17.555-14.969" opacity="1" data-original="#ffc247"></path><path fill="#0078c8" d="M1.566 374.863h321v84.333h-321z" opacity="1" data-original="#0078c8"></path><path fill="#0053bf" d="M162.099 374.863h160.467v84.333H162.099z" opacity="1" data-original="#0053bf"></path><path fill="#a7ddfa" d="M268.047 259.878H42.748C19.139 259.878 0 240.739 0 217.13v-48.025h310.795v48.025c0 23.609-19.139 42.748-42.748 42.748" opacity="1" data-original="#a7ddfa"></path><path fill="#0078c8" d="M483.499 225.257H306.795V177.72l4-8.615h172.704c15.506 0 28.076 12.57 28.076 28.076s-12.57 28.076-28.076 28.076" opacity="1" data-original="#0078c8"></path><path fill="#cdebfc" d="M94.205 126.196h-30c0-24.157 11.196-36.753 20.192-46.874 7.597-8.546 12.615-14.192 12.615-26.943h30c0 24.157-11.196 36.753-20.192 46.874-7.596 8.546-12.615 14.192-12.615 26.943M162.157 126.196h-30c0-24.157 11.196-36.753 20.192-46.874 7.597-8.546 12.615-14.192 12.615-26.943h30c0 24.157-11.196 36.753-20.192 46.874-7.597 8.546-12.615 14.192-12.615 26.943" opacity="1" data-original="#cdebfc"></path><path fill="#a7ddfa" d="M230.108 126.196h-30c0-24.157 11.196-36.753 20.192-46.874 7.597-8.546 12.615-14.192 12.615-26.943h30c0 24.157-11.196 36.753-20.192 46.874-7.597 8.546-12.615 14.192-12.615 26.943" opacity="1" data-original="#a7ddfa"></path><path fill="#87c7ff" d="M162.099 169.105v90.773h105.948c23.609 0 42.748-19.139 42.748-42.748v-48.025z" opacity="1" data-original="#87c7ff"></path><path fill="#a7ddfa" d="M164.964 52.379c0 5.77-1.036 10.08-2.865 13.867v59.95h.057c0-12.751 5.019-18.397 12.615-26.943 8.996-10.121 20.192-22.717 20.192-46.874z" opacity="1" data-original="#a7ddfa"></path></g></svg>