<svg xmlns="http://www.w3.org/2000/svg" version="1.1" xmlns:xlink="http://www.w3.org/1999/xlink" width="512" height="512" x="0" y="0" viewBox="0 0 512 512" xml:space="preserve"><g><path fill="#c3c7cb" d="M161 428.1h-42.9c-34.1 0-61.8-27.7-61.8-61.8V205.8h42.9v160.6c0 34.1 27.6 61.7 61.8 61.7" opacity="1" data-original="#c3c7cb"></path><path fill="#e6e6e5" d="M455.7 205.8v160.6c0 34.1-27.7 61.8-61.8 61.8H161c-34.1 0-61.8-27.7-61.8-61.8V205.8z" opacity="1" data-original="#e6e6e5"></path><path fill="#818181" d="M154.1 391.5H118c-13.8 0-25.1-11.3-25.1-25.1v-54.7c0-3.3 2.6-5.9 5.9-5.9s5.9 2.6 5.9 5.9v54.7c0 7.3 6 13.3 13.3 13.3h36.1c7.8.1 7.8 11.6 0 11.8M455.7 268.7H494c9.5 0 17.3-7.7 17.3-17.3 0-9.5-7.7-17.3-17.3-17.3h-38.3zM56.3 268.7H18C8.5 268.7.7 261 .7 251.4c0-9.5 7.7-17.3 17.3-17.3h38.3zM136 476.6c-3.2 0-5.9-2.6-5.9-5.9v-16c0-17.9 14.6-32.5 32.5-32.5h23.8c7.7 0 7.7 11.7 0 11.8h-23.8c-11.4 0-20.7 9.3-20.7 20.7v16c0 3.3-2.7 5.9-5.9 5.9M376.1 476.6c-3.2 0-5.9-2.6-5.9-5.9v-16c0-11.4-9.3-20.7-20.8-20.7h-23.8c-7.7 0-7.7-11.7 0-11.8h23.8c18 0 32.6 14.6 32.6 32.5v16c0 3.3-2.7 5.9-5.9 5.9M256 476.6c-3.2 0-5.9-2.6-5.9-5.9v-42.6c0-3.3 2.6-5.9 5.9-5.9 3.2 0 5.9 2.6 5.9 5.9v42.6c0 3.3-2.7 5.9-5.9 5.9" opacity="1" data-original="#818181"></path><path fill="#f6851f" d="M6.5 470.8h498.9v38.6H6.5z" opacity="1" data-original="#f6851f"></path><path fill="#a7cf38" d="M225.5 76.1c5.9-13.8 23.9-11.2 32.7 3.6-.5-29.7 16.3-52.9 34.8-29.1 8.9-25 29.2-46.1 41.7-23.9 25.9-37.2 58-30.7 40.8 16.1 26.3-6.2 23.4 19.4 5.9 42.8 32.5-3.5 23.8 22.4-3.2 41.6 6.3-.2 11.8.3 16.3 1.5-11.7 14.3-23.3 28.5-35 42.8l-74.8.3c-16.1-5.2-32.2-10.5-48.3-15.7-3.7-26.7-7.3-53.3-10.9-80" opacity="1" data-original="#a7cf38"></path><path fill="#85c441" d="M356.4 32.3c-2.9-1.5-6.4-.5-8 2.4L324 80.2l-6.5-10.7c-4-6.6-14-.5-10.1 6.1l10.1 16.6-21.1 39.3-13.5-22.3c-4-6.6-14-.5-10.1 6.1l17.1 28.2c-4.8 6.9 5.5 13.8 9.8 6.5l27.7-51.7 24.5-4.9c7.5-1.5 5.3-13-2.3-11.5l-15 3 24-44.8c1.7-2.7.6-6.3-2.2-7.8" opacity="1" data-original="#85c441"></path><path fill="#f6851f" d="M219.6 186.9c-5.7 3.6-28.2 12.9-31.3 18.9h-45.7c-21.1-29.3-36.6-78.7-11.7-109.5 0-.1.1-.1.1-.1 13.1-14.6 37.1-17.7 54.4-8.4 28.1 12.3 41.8 67.1 34.2 99.1" opacity="1" data-original="#f6851f"></path><path fill="#ef4723" d="M265.9 143c-.2 7.2-1 14.1-2.3 20.7l-44 23.2c7.7-32.1-6.1-86.8-34.1-99.1 8.8-8.5 20.3-12.7 32.6-12.4 27.5.6 49.1 22.9 47.8 67.6M142.6 205.8H99.3c-31.1-34.2-49.3-98-3.5-112.4 11.8-3.9 24.1-3 35.5 2.3-.1.2-.4.3-.5.5-10.2 11.4-14 28-12.1 47.5 2.3 22.3 10.8 45.3 23.9 62.1" opacity="1" data-original="#ef4723"></path><path fill="#85c441" d="M444.1 183.4c-.5 10.3-52.3 7.7-67.2 1.6-1.8-5.1-6.8-22.2-9.4-26.8 7.6-14.5 38.8-43.3 46.4-36.7 4.7 3.1.4 15.1-9.7 28.4 39-11.6 49.4 1.9 9.5 19.5 18.1 3.2 31.1 8.9 30.4 14" opacity="1" data-original="#85c441"></path><path fill="#fcc46a" d="M354 144.3c-12.8-5.1-28.4-5-41.7 2l-109 57.3c-1.2.6-2.3 1.4-3.3 2.2h-11.8c-3.6-3.1 113.9-61.3 116.2-63.5 16.3-8.6 35.9-6.9 49.6 2" opacity="1" data-original="#fcc46a"></path><path fill="#ffdea6" d="M376.3 205.8H200c1-.8 2.1-1.5 3.3-2.2l109-57.3c13.4-7 28.9-7.1 41.7-2 14.3 7.9 17.8 25.9 22.5 40 2.6 7.2 2.2 14.8-.2 21.5" opacity="1" data-original="#ffdea6"></path><path fill="#fcc46a" d="M270.2 181.1c-2.4 0-4.6-1.5-5.5-3.9l-4.7-12.8c-1.1-3.1.4-6.4 3.5-7.6 3.1-1.1 6.4.4 7.6 3.5l4.7 12.8c1.3 3.9-1.6 8.1-5.6 8M305 171.1c-2.4 0-4.6-1.5-5.5-3.9l-7.3-19.8c-2.6-7.2 8.4-11.3 11-4.1l7.3 19.8c1.4 3.8-1.6 8-5.5 8" opacity="1" data-original="#fcc46a"></path></g></svg>