<svg xmlns="http://www.w3.org/2000/svg" version="1.1" xmlns:xlink="http://www.w3.org/1999/xlink" width="512" height="512" x="0" y="0" viewBox="0 0 512 512" xml:space="preserve"><g><path fill="#576689" d="M240.549 111.491v45.377h15l7.5-22.688-7.5-22.689z" opacity="1" data-original="#576689"></path><path fill="#414f76" d="M255.549 111.491h15v45.377h-15zM70.998 283.922H45.541c-8.32 0-15.09-6.77-15.09-15.09s6.77-15.09 15.09-15.09h25.457v-30H45.541c-24.863 0-45.09 20.228-45.09 45.09s20.227 45.09 45.09 45.09h25.457z" opacity="1" data-original="#414f76"></path><path fill="#343b5c" d="M466.459 223.742h-27.13v30h27.13c8.32 0 15.09 6.77 15.09 15.09s-6.77 15.09-15.09 15.09h-27.13v30h27.13c24.863 0 45.09-20.228 45.09-45.09s-20.227-45.09-45.09-45.09" opacity="1" data-original="#343b5c"></path><path fill="#ebf4fe" d="M199.938 80.807h-30c0-12.323-10.025-22.349-22.348-22.349H86.213c-28.865 0-52.348-23.483-52.348-52.349V0h30v6.109c0 12.323 10.025 22.349 22.348 22.349h61.376c28.865 0 52.349 23.483 52.349 52.349" opacity="1" data-original="#ebf4fe"></path><path fill="#d2e5fc" d="M406.132 108.049h-30c0-12.323-10.025-22.349-22.348-22.349h-61.376c-28.865 0-52.348-23.483-52.348-52.349v-6.109h30v6.109c0 12.323 10.025 22.349 22.348 22.349h61.376c28.865 0 52.348 23.484 52.348 52.349" opacity="1" data-original="#d2e5fc"></path><path fill="#414f76" d="M113.673 141.868c-27.57 0-50 22.43-50 50v31.874l191.876 29.11 15-64.462-15-46.522z" opacity="1" data-original="#414f76"></path><path fill="#343b5c" d="M447.425 191.868c0-27.57-22.43-50-50-50H255.549v110.984l191.876-29.11z" opacity="1" data-original="#343b5c"></path><path fill="#576689" d="M63.673 223.742v136.27c25.243 2.043 153.737 77.525 191.876 82.191l21.205-143.324-21.205-75.137z" opacity="1" data-original="#576689"></path><path fill="#414f76" d="M255.549 223.742v218.461q1.827.225 3.37.227c33.204 0 162.455-80.31 188.506-82.418v-136.27z" opacity="1" data-original="#414f76"></path><path fill="#98f9fd" d="M255.544 375.284c-33.203 0-33.203-15.564-66.405-15.564-33.203 0-33.203 15.564-66.406 15.564-30.546 0-33.01-13.164-59.059-15.272V462c0 27.57 22.43 50 50 50H255.55l39.7-56.93-39.7-79.786z" opacity="1" data-original="#98f9fd"></path><path fill="#74dbf2" d="M388.362 375.284c-33.205 0-33.205-15.564-66.41-15.564-33.202 0-33.204 15.563-66.402 15.564V512h141.876c27.57 0 50-22.43 50-50V360.012c-26.052 2.108-28.516 15.272-59.064 15.272" opacity="1" data-original="#74dbf2"></path></g></svg>