<svg xmlns="http://www.w3.org/2000/svg" version="1.1" xmlns:xlink="http://www.w3.org/1999/xlink" width="512" height="512" x="0" y="0" viewBox="0 0 512 512" xml:space="preserve"><g><path fill="#fabc00" d="M481.68 319.015c0 17.67-6.32 33.67-16.52 45.25-10.22 11.58-24.32 18.75-39.9 18.75H86.74c-31.16 0-56.42-28.66-56.42-64 0-27.44 15.22-52.85 41.12-73.68 7.24-5.83 33.09-7.52 33.09-7.52s11.01-19.29 22.16-23.71v-.01c28.35-11.26 61.48-18.92 97.32-21.8 10.45-.84 31.99 17.29 31.99 17.29s21.54-18.13 31.99-17.29c35.84 2.88 68.97 10.54 97.32 21.8v.01c10.27 4.07 22.43 26.75 22.43 26.75s24.95-1.85 32.82 4.48c25.9 20.83 41.12 46.24 41.12 73.68" opacity="1" data-original="#fabc00"></path><path fill="#ff9501" d="M481.68 319.015c0 17.67-6.32 33.67-16.52 45.25-10.22 11.58-24.32 18.75-39.9 18.75H256v-173.43s21.54-18.13 31.99-17.29c35.84 2.88 68.97 10.54 97.32 21.8v.01c10.27 4.07 22.43 26.75 22.43 26.75s24.95-1.85 32.82 4.48c25.9 20.83 41.12 46.24 41.12 73.68" opacity="1" data-original="#ff9501"></path><path fill="#52b6ed" d="m501.38 383.015-14.87 64H25.49l-14.87-64z" opacity="1" data-original="#52b6ed"></path><path fill="#4490d6" d="m501.38 383.015-14.87 64H256v-64z" opacity="1" data-original="#4490d6"></path><path fill="#fee891" d="M287.99 192.295c-.27 70.18-14.49 126.72-31.99 126.72s-31.72-56.54-31.99-126.72c10.45-.84 21.13-1.28 31.99-1.28s21.54.44 31.99 1.28" opacity="1" data-original="#fee891"></path><path fill="#ffc072" d="M287.99 192.295c-.27 70.18-14.49 126.72-31.99 126.72v-128c10.86 0 21.54.44 31.99 1.28" opacity="1" data-original="#ffc072"></path><path fill="#fee891" d="M154.1 327.545c-14.19 7.98-49.88-28.05-82.66-82.21 15.09-12.14 33.8-22.72 55.25-31.23 29.31 56.2 41.6 105.46 27.41 113.44" opacity="1" data-original="#fee891"></path><path fill="#ffc072" d="M440.56 245.335c-32.78 54.16-68.47 90.19-82.66 82.21s-1.9-57.24 27.41-113.44c21.45 8.51 40.16 19.09 55.25 31.23" opacity="1" data-original="#ffc072"></path><path fill="#81d2f6" d="M0 367.975h512v30H0z" opacity="1" data-original="#81d2f6"></path><path fill="#52b6ed" d="M256 367.975h256v30H256z" opacity="1" data-original="#52b6ed"></path><path fill="#bd6100" d="M267.86 102.305c9.54 9.57 14.09 34.23 0 49.36-2.42 3.13-2.86 3.7-2.86 6.32h-30c0-12.88 5.5-19.98 9.14-24.68 4.47-5.37 3.27-8.41 0-12.63-9.54-9.57-14.09-34.24 0-49.37 2.42-3.13 2.86-3.69 2.86-6.32h30c0 12.88-5.5 19.99-9.14 24.69-4.47 5.36-3.27 8.4 0 12.63" opacity="1" data-original="#bd6100"></path><path fill="#8a4808" d="M267.86 102.305c9.54 9.57 14.09 34.23 0 49.36-2.42 3.13-2.86 3.7-2.86 6.32h-9v-93h21c0 12.88-5.5 19.99-9.14 24.69-4.47 5.36-3.27 8.4 0 12.63" opacity="1" data-original="#8a4808"></path><path fill="#bd6100" d="M174.75 157.981h30c0-2.62.437-3.184 2.86-6.313 14.094-15.13 9.539-39.796.001-49.362-3.269-4.229-4.472-7.271 0-12.634 3.64-4.7 9.14-11.805 9.14-24.683h-30c0 2.622-.437 3.187-2.861 6.317-14.093 15.131-9.538 39.798 0 49.364 3.268 4.229 4.472 7.269 0 12.63-3.64 4.701-9.14 11.804-9.14 24.681" opacity="1" data-original="#bd6100"></path><path fill="#8a4808" d="M295.25 157.981h30c0-2.62.437-3.184 2.86-6.313 14.094-15.13 9.539-39.796.001-49.362-3.269-4.229-4.472-7.271 0-12.634 3.64-4.7 9.14-11.805 9.14-24.683h-30c0 2.622-.437 3.187-2.861 6.317-14.093 15.131-9.538 39.798 0 49.364 3.268 4.229 4.472 7.269 0 12.63-3.64 4.701-9.14 11.804-9.14 24.681" opacity="1" data-original="#8a4808"></path></g></svg>