<svg xmlns="http://www.w3.org/2000/svg" version="1.1" xmlns:xlink="http://www.w3.org/1999/xlink" width="512" height="512" x="0" y="0" viewBox="0 0 512 512" xml:space="preserve"><g><path fill="#1fbd66" d="m339.667 126.106-18-24c16.28-12.21 26-31.649 26-52h30c0 29.743-14.206 58.154-38 76" opacity="1" data-original="#1fbd66"></path><path fill="#804231" d="M261.691 15.902a61 61 0 0 0-5.691-1.21l-10.667 81.315L256 215.613l14.384 3.787 34.21-129.934c8.453-32.11-10.792-65.111-42.903-73.564" opacity="1" data-original="#804231"></path><path fill="#97503d" d="M216.024 22.116c-13.895 8.103-23.802 21.132-27.898 36.687l-3.545 13.465-13.464-3.545c-32.112-8.453-65.112 10.792-73.565 42.901-8.455 32.11 10.79 65.111 42.9 73.566L256 215.613V14.692c-13.77-2.259-27.769.305-39.976 7.424" opacity="1" data-original="#97503d"></path><path fill="#c4715a" d="M261.691 15.902h.002z" opacity="1" data-original="#c4715a"></path><circle cx="298.667" cy="151.439" r="63" fill="#ff3b76" transform="rotate(-9.25 298.898 151.792)" opacity="1" data-original="#ff3b76"></circle><path fill="#fdc673" d="M471.667 340.439v-73.766L256 245.339l-10.667 64L256 352.006z" opacity="1" data-original="#fdc673"></path><path fill="#ffdf8e" d="M256 245.339H53.333l-13 86.334v8.766L256 352.006z" opacity="1" data-original="#ffdf8e"></path><path fill="#b15f49" d="M256 417.106h215.667v-76.667H256l-10.667 43.567z" opacity="1" data-original="#b15f49"></path><path fill="#c4715a" d="M40.333 340.439H256v76.667H40.333z" opacity="1" data-original="#c4715a"></path><path fill="#e1d3ce" d="m256 408.106-10.667 46.234L256 498.106h180.958c41.378 0 75.042-33.645 75.042-75v-15z" opacity="1" data-original="#e1d3ce"></path><path fill="#efe2dd" d="M0 408.106v15c0 41.355 33.664 75 75.041 75H256v-90z" opacity="1" data-original="#efe2dd"></path><path fill="#fc80aa" d="M471.667 184.439H256l-10.667 66.658L256 266.673h215.667z" opacity="1" data-original="#fc80aa"></path><path fill="#fda0c1" d="M40.333 184.439v147.666c0 25.916 21.084 47 47 47s47-21.084 47-47v-65.433H256v-82.233z" opacity="1" data-original="#fda0c1"></path></g></svg>