<svg xmlns="http://www.w3.org/2000/svg" version="1.1" xmlns:xlink="http://www.w3.org/1999/xlink" width="512" height="512" x="0" y="0" viewBox="0 0 512 512.001" xml:space="preserve"><g transform="matrix(1,0,0,1,35,0)"><path fill="#ede9e8" d="m390 90-21.3 149.102c-10.5-1.2-20.7 25.5-29.7 19.5H52.5c-9.602 6.296-20.398-20.102-31.2-19.2L0 90zm0 0" opacity="1" data-original="#ede9e8"></path><path fill="#dfd7d5" d="m390 90-21.3 149.102c-10.5-1.2-20.7 25.5-29.7 19.5H195V90zm0 0" opacity="1" data-original="#dfd7d5"></path><path fill="#a8ebfa" d="M368.7 239.102 338.7 450 195 481 51.3 450l-30-210.602c10.802-.898 21.598-4.5 31.2-10.796C84.902 207 126.598 207 159 228.602c11.102 7.199 23.703 11.097 36 11.097 13.2 0 26.102-3.597 37.5-11.097 32.402-21.602 74.098-21.602 106.5 0 9 6 19.2 9.3 29.7 10.5m0 0" opacity="1" data-original="#a8ebfa"></path><path fill="#76e2f8" d="M368.7 239.102 338.7 450 195 481V239.7c13.2 0 26.102-3.598 37.5-11.098 32.402-21.602 74.098-21.602 106.5 0 9 6 19.2 9.3 29.7 10.5M118.258 481.266l-25.063-163.98 29.649-4.571 25.062 163.98zm0 0" opacity="1" data-original="#76e2f8"></path><path fill="#25d9f8" d="m271.04 485.777-29.65-4.57 25.77-168.492 29.649 4.57zm0 0" opacity="1" data-original="#25d9f8"></path><path fill="#76e2f8" d="M180 315h30v166h-30zm0 0" opacity="1" data-original="#76e2f8"></path><path fill="#25d9f8" d="M195 315h15v166h-15zm0 0" opacity="1" data-original="#25d9f8"></path><path fill="#ede9e8" d="m338.7 450-8.7 62H60l-8.7-62zm0 0" opacity="1" data-original="#ede9e8"></path><path fill="#dfd7d5" d="M195 450h143.7l-8.7 62H195zm0 0" opacity="1" data-original="#dfd7d5"></path><path fill="#70da40" d="m410.543 230.375-10.605 10.61-21.215-21.215-10.606-31.82L262.051 81.882l-31.82-10.606-21.211-21.214 10.605-10.606c52.61-52.61 138.313-52.61 190.918 0 52.61 52.61 52.61 138.309 0 190.918m0 0" opacity="1" data-original="#70da40"></path><path fill="#56c225" d="m410.543 230.375-10.605 10.61-21.215-21.215-10.606-31.82-53.035-53.032 95.461-95.461c52.61 52.61 52.61 138.309 0 190.918m0 0" opacity="1" data-original="#56c225"></path><path fill="#fdbf00" d="m304.477 145.523 74.246 74.247 10.609-10.606c20.5-20.504 30.754-47.375 30.75-74.246l-44.07-15.227zm0 0" opacity="1" data-original="#fdbf00"></path><path fill="#ffd400" d="m240.84 60.672-10.61 10.605 74.247 74.246 25.902-72.312-15.293-43.293c-26.871 0-53.746 10.25-74.246 30.754m0 0" opacity="1" data-original="#ffd400"></path><path fill="#ffe470" d="m419.879 134.914-115.402 10.61 10.609-115.399c26.937-.215 53.668 9.969 74.246 30.547 20.574 20.574 30.758 47.305 30.547 74.242m0 0" opacity="1" data-original="#ffe470"></path><path fill="#ffd400" d="m419.879 134.914-115.402 10.61 84.855-84.852c20.574 20.574 30.758 47.305 30.547 74.242m0 0" opacity="1" data-original="#ffd400"></path></g></svg>