<svg xmlns="http://www.w3.org/2000/svg" version="1.1" xmlns:xlink="http://www.w3.org/1999/xlink" width="512" height="512" x="0" y="0" viewBox="0 0 512 512" xml:space="preserve"><g><circle cx="140.408" cy="99" r="83.5" fill="#fdb902" opacity="1" data-original="#fdb902"></circle><path fill="#fdd902" d="M140.408 198c-54.589 0-99-44.411-99-99s44.411-99 99-99 99 44.411 99 99-44.411 99-99 99m0-168c-38.047 0-69 30.953-69 69s30.953 69 69 69 69-30.953 69-69-30.953-69-69-69" opacity="1" data-original="#fdd902"></path><path fill="#afd7fd" d="M311.723 300.113 470.592 79.139h-174.22L288 180.333 296.372 512h75.276v-30h-59.925z" opacity="1" data-original="#afd7fd"></path><path fill="#c4e2fe" d="m122.726 79.139 158.867 220.973V482h-59.924v30h74.703V79.139z" opacity="1" data-original="#c4e2fe"></path><path fill="#ff3a3b" d="M412.075 109.139H296.372L288 170.666l8.372 98.609.287.399z" opacity="1" data-original="#ff3a3b"></path><path fill="#ff5645" d="m181.242 109.139 115.13 160.136V109.139z" opacity="1" data-original="#ff5645"></path><path fill="#fdc673" d="m338.983 106.631 60.588-73.993-23.211-19.006-76.151 92.999z" opacity="1" data-original="#fdc673"></path><path fill="#0dca71" d="M347.582 109.139c-2.508-7.9-7.008-14.828-13.224-20.031-10.077-8.435-23.857-11.693-37.987-9.065L288 96l8.372 21.333z" opacity="1" data-original="#0dca71"></path><path fill="#04db7b" d="M296.372 80.043c-.461.086-.921.159-1.383.258-13.443 2.863-26.148 10.718-35.774 22.119a71 71 0 0 0-5.025 6.719l42.183 8.194v-37.29z" opacity="1" data-original="#04db7b"></path><path fill="#fb8315" d="M296.372 187.586c.652-.114 1.303-.225 1.956-.364 13.443-2.863 26.148-10.718 35.772-22.119 9.626-11.401 15.215-25.212 15.738-38.891.229-5.987-.566-11.748-2.256-17.073h-51.21L288 149.334z" opacity="1" data-original="#fb8315"></path><path fill="#fb9b3b" d="M258.957 178.415c7.802 6.53 17.82 9.969 28.507 9.969 2.929 0 5.91-.274 8.908-.798v-78.447h-42.183c-6.534 9.908-10.288 21.084-10.711 32.172-.567 14.87 5.074 28.394 15.479 37.104" opacity="1" data-original="#fb9b3b"></path></g></svg>