<svg xmlns="http://www.w3.org/2000/svg" version="1.1" xmlns:xlink="http://www.w3.org/1999/xlink" width="512" height="512" x="0" y="0" viewBox="0 0 512 512" xml:space="preserve"><g><path fill="#cfcfe6" d="M437.02 437.019C485.372 388.667 512 324.38 512 256s-26.628-132.667-74.98-181.019L221.755 276.103 74.981 437.019C123.333 485.372 187.62 512 256 512s132.667-26.628 181.02-74.981" opacity="1" data-original="#cfcfe6"></path><path fill="#ece6f2" d="M256 0C187.62 0 123.333 26.628 74.981 74.981S0 187.62 0 256s26.628 132.667 74.981 181.019L437.019 74.981C388.667 26.628 324.38 0 256 0" opacity="1" data-original="#ece6f2"></path><path fill="#ece6f2" d="M415.807 415.806C458.492 373.12 482 316.367 482 256s-23.508-117.12-66.193-159.806l-194.052 179.91L96.194 415.806C138.88 458.492 195.633 482 256 482c60.366 0 117.12-23.508 159.807-66.194" opacity="1" data-original="#ece6f2"></path><path fill="#fff5f5" d="M256 30c-60.367 0-117.12 23.508-159.806 66.194S30 195.633 30 256s23.508 117.12 66.194 159.806L415.807 96.194C373.12 53.508 316.366 30 256 30" opacity="1" data-original="#fff5f5"></path><path fill="#e7c994" d="M376.554 323.29c5.171-19.115 13.37-35.955 24.369-50.054 16.492-21.141 25.138-47.593 24.344-74.485-.869-29.43-12.897-57.171-33.873-78.145L221.755 276.103l-101.15 115.292.001.001c29.838 29.837 69.032 44.756 108.226 44.756s78.39-14.919 108.228-44.758c18.892-18.891 32.549-42.441 39.494-68.104" opacity="1" data-original="#e7c994"></path><path fill="#f3e5cb" d="M391.221 120.431c-21.085-20.996-48.951-32.968-78.466-33.711-17.871-.463-35.065 3.069-51.154 10.46L138.29 159.734l-1.041.779a155 155 0 0 0-16.651 14.434c-59.669 59.677-59.666 156.775.007 216.448l270.789-270.789q-.087-.087-.173-.175" opacity="1" data-original="#f3e5cb"></path><path fill="#d10050" d="M347.595 315.455c6.221-22.991 16.204-43.404 29.674-60.671 12.203-15.641 18.6-35.226 18.012-55.146-.643-21.75-9.557-42.273-25.101-57.816L221.755 276.103l-79.937 94.079.001.001c23.987 23.986 55.505 35.98 87.013 35.983 31.516.002 63.022-11.992 87.015-35.985 15.192-15.192 26.171-34.116 31.748-54.726" opacity="1" data-original="#d10050"></path><path fill="#ff415b" d="M370.053 141.688c-15.625-15.559-36.242-24.43-58.054-24.979-13.138-.331-25.8 2.231-37.621 7.614l-120.161 60.97a125 125 0 0 0-12.405 10.865c-47.973 47.98-47.971 126.046.006 174.023l228.362-228.36q-.064-.067-.127-.133" opacity="1" data-original="#ff415b"></path><path fill="#e7c994" d="M262.244 316.592c18.427-18.427 18.427-48.409 0-66.836l-40.489 26.347-26.347 40.489c8.927 8.926 20.795 13.842 33.418 13.842 12.624.001 24.492-4.915 33.418-13.842" opacity="1" data-original="#e7c994"></path><path fill="#f3e5cb" d="M262.244 249.756c-18.427-18.428-48.409-18.427-66.836 0-8.927 8.927-13.843 20.795-13.843 33.419s4.916 24.492 13.842 33.418z" opacity="1" data-original="#f3e5cb"></path><path fill="#f3e5cb" d="m241.031 270.969-19.277 5.134-5.134 19.276c3.26 3.26 7.594 5.056 12.205 5.056s8.945-1.795 12.205-5.055c6.731-6.731 6.731-17.681.001-24.411" opacity="1" data-original="#f3e5cb"></path><path fill="#fff5f5" d="M241.031 270.969c-3.365-3.365-7.785-5.047-12.205-5.047s-8.84 1.683-12.206 5.047a17.15 17.15 0 0 0-5.056 12.206c0 4.61 1.795 8.945 5.056 12.205z" opacity="1" data-original="#fff5f5"></path><path fill="#00cc76" d="M271.711 144.252c13.605-27.918-6.548-64.29-7.413-65.825l-2.541-4.512-36.411 51.597-8.658 53.343c-.001.001 43.027-9.987 55.023-34.603" opacity="1" data-original="#00cc76"></path><path fill="#90e36a" d="M256.637 74.694c-1.742.265-42.806 6.804-56.411 34.721-1.667 3.42-2.893 7.094-3.677 11.005l-4.103 25.105 24.241 33.33 45.07-104.94z" opacity="1" data-original="#90e36a"></path><path fill="#00cc76" d="m196.549 120.42-.001.005c-3.029-2.599-6.26-4.738-9.682-6.406-27.916-13.604-64.291 6.548-65.825 7.412l-4.512 2.542 40.874 43.019 59.283 11.863z" opacity="1" data-original="#00cc76"></path><path fill="#90e36a" d="m116.53 123.974.778 5.119c.265 1.742 6.804 42.806 34.721 56.412 7.008 3.415 14.548 4.703 21.937 4.703 18.571-.001 42.722-11.353 42.722-11.353z" opacity="1" data-original="#90e36a"></path></g></svg>