<svg xmlns="http://www.w3.org/2000/svg" version="1.1" xmlns:xlink="http://www.w3.org/1999/xlink" width="512" height="512" x="0" y="0" viewBox="0 0 511.89 511.89" xml:space="preserve"><g><path fill="#24b3b3" d="m472.981 315.023 26.586-49.317c9.789-18.158-1.112-40.566-21.44-44.075a30.19 30.19 0 0 1-22.438-17.455l-7.172-16.085c-7.094-15.909-26.142-22.53-41.574-14.451l-15.692 8.215-63.64 133.168 41.101 10zM358.422 174.922c-.53-37.677-31.237-68.056-69.04-68.056h-33.673v32.822l-10 111.08 112.713-10z" opacity="1" data-original="#24b3b3"></path><path fill="#2ee6a8" d="M327.611 315.026c38.01-21.646 63.64-62.53 63.64-109.4v-63.115h-5.118c-54.036 0-101.764 27.006-130.424 68.258l-6.859 114.255z" opacity="1" data-original="#2ee6a8"></path><path fill="#2ee6a8" d="M151.599 237.772v-30.028c.53-37.677 31.237-68.056 69.04-68.056h35.07v101.08l-42.831 104.257z" opacity="1" data-original="#2ee6a8"></path><path fill="#ffda44" d="m387.312 236.973 85.669 78.05-81.73 10-63.64-10z" opacity="1" data-original="#ffda44"></path><path fill="#ff8859" d="m255.709 210.769-10 76.745 10 76.745c42.385 0 76.745-34.36 76.745-76.745.001-42.385-34.359-76.745-76.745-76.745" opacity="1" data-original="#ff8859"></path><path fill="#ffb655" d="M178.964 287.514c0 42.385 34.36 76.745 76.745 76.745v-153.49c-42.385 0-76.745 34.36-76.745 76.745" opacity="1" data-original="#ffb655"></path><path fill="#ffb655" d="m255.709 240.769-10 46.745 10 46.745c25.775 0 46.745-20.97 46.745-46.745s-20.969-46.745-46.745-46.745" opacity="1" data-original="#ffb655"></path><path fill="#ffda44" d="M208.964 287.514c0 25.776 20.97 46.745 46.745 46.745v-93.491c-25.775.001-46.745 20.97-46.745 46.746" opacity="1" data-original="#ffda44"></path><path fill="#ffb655" d="M67.195 315.026c-19.641-12.698-32.374-35.168-31.317-60.53 1.471-35.313 30.113-64.009 65.423-65.542 19.514-.847 37.324 6.469 50.299 18.818l-7.636 117.252z" opacity="1" data-original="#ffb655"></path><path fill="#ff415b" d="M255.945 315.023 151.599 207.772c-29.256 29.256-31.801 75.108-7.636 107.252l35.001 10z" opacity="1" data-original="#ff415b"></path><path fill="#ece6f2" d="M511.89 315.023H255.945l-10 40 254.695-10z" opacity="1" data-original="#ece6f2"></path><path fill="#fff5f5" d="m0 315.023 11.25 30 244.695 10v-40z" opacity="1" data-original="#fff5f5"></path><path fill="#cfcfe6" d="M500.64 345.023H255.945l-10 30 10 30H478.14z" opacity="1" data-original="#cfcfe6"></path><path fill="#ece6f2" d="m11.25 345.023 22.5 60h222.195v-60z" opacity="1" data-original="#ece6f2"></path></g></svg>