<svg xmlns="http://www.w3.org/2000/svg" version="1.1" xmlns:xlink="http://www.w3.org/1999/xlink" width="512" height="512" x="0" y="0" viewBox="0 0 510 510" xml:space="preserve"><g><path fill="#d88a55" d="M165 106.599c-22.853 0-44.876 4.602-65.094 13.38C39.004 146.42 0 208.73 0 271.599c0 19.626 2.94 38.474 8.559 55.769C27.898 386.895 76.353 421.599 135 421.599h120l10-145.307-10-145.307c-27.703-17.948-57.254-24.386-90-24.386" opacity="1" data-original="#d88a55"></path><path fill="#c27742" d="M277.332 148.306c-.706-.591-9.547-9.037-22.332-17.32v290.613h165c53.697 0 90-57.222 90-90 0-30.272-13.071-56.037-37.865-76.014-17.49-14.09-40.813-25.3-69.495-33.18-3.308-.909-125.308-74.099-125.308-74.099" opacity="1" data-original="#c27742"></path><path fill="#ebd9c0" d="m407.272 169.213 31.406-31.406c7.534-7.534 18.617-10.943 29.098-8.084 18.91 5.16 37.882-8.918 37.882-28.939 0-7.104-2.477-14.207-7.432-19.817-11.568-13.1-31.579-13.554-43.738-1.396 6.102-6.101 9.025-14.177 8.772-22.17-.507-15.984-13.52-28.999-29.985-28.999-19.817 0-34.159 18.751-28.94 37.881 2.861 10.486-.553 21.567-8.084 29.098l-32.998 33.012z" opacity="1" data-original="#ebd9c0"></path><path fill="#d6e8fe" d="m68.766 451.599 30.015 30H255l10-15-10-15-93.117-10z" opacity="1" data-original="#d6e8fe"></path><path fill="#b5dbff" d="m441.219 451.599-93.11-10-93.109 10v30h156.25zM0 421.599v30h255l10-15-10-15z" opacity="1" data-original="#b5dbff"></path><path fill="#8dccff" d="M255 421.599h255v30H255z" opacity="1" data-original="#8dccff"></path><path fill="#c27742" d="M229.652 183.047c-32.608 32.608-31.117 86.587 2.859 120.564a91 91 0 0 0 10.61 9.1A91 91 0 0 0 255 320.079l10-79.102-10-79.102c-9.506 6.65-17.966 13.79-25.348 21.172" opacity="1" data-original="#c27742"></path><path fill="#a86739" d="M394.355 141.767c-14.451-14.45-41.477-17.294-71.357-10.527-22.429 5.079-46.465 15.573-67.999 30.636V320.08c16.138 8.367 34.131 11.469 51.341 9.238 17.251-2.235 33.714-9.829 46.733-22.849 22.318-22.318 38.579-50.333 47.51-77.4 11.872-35.98 10.791-70.284-6.228-87.302" opacity="1" data-original="#a86739"></path></g></svg>