<svg xmlns="http://www.w3.org/2000/svg" version="1.1" xmlns:xlink="http://www.w3.org/1999/xlink" width="512" height="512" x="0" y="0" viewBox="0 0 512 512" xml:space="preserve"><g><path fill="#cfcfe6" d="M437.019 74.981 250.56 247.298 74.981 437.019c99.974 99.974 262.065 99.974 362.039 0s99.973-262.064-.001-362.038" opacity="1" data-original="#cfcfe6"></path><path fill="#ece6f2" d="M74.981 74.981c-99.974 99.974-99.974 262.065 0 362.039L437.019 74.981c-99.974-99.975-262.064-99.975-362.038 0" opacity="1" data-original="#ece6f2"></path><path fill="#ece6f2" d="M415.806 96.194 250.56 247.298 96.194 415.806c88.259 88.259 231.354 88.259 319.612 0s88.259-231.354 0-319.612" opacity="1" data-original="#ece6f2"></path><path fill="#fff5f5" d="M96.194 96.194c-88.259 88.259-88.259 231.354 0 319.612L415.806 96.194c-88.258-88.259-231.354-88.259-319.612 0" opacity="1" data-original="#fff5f5"></path><path fill="#b56d3c" d="m149.198 128.019 21.21-21.21 21.21 21.21-21.21 21.21z" opacity="1" data-original="#b56d3c"></path><path fill="#915041" d="m127.98 191.648 21.21-21.21 21.21 21.21-21.21 21.21zM234.455 319.476l-28.036-28.037-52.239 66.381c-1.555 18.128 4.576 36.797 18.418 50.639l18.504 18.504 32.214-32.214c20.049-20.048 24.524-50.298 11.139-75.273" opacity="1" data-original="#915041"></path><path fill="#24b3b3" d="m273.907 368.658-5.74-13.858 27.716-11.48 45.401-7.982 37.748-26.46 27.716-11.48 5.74 13.858c15.826 38.207-2.382 82.166-40.59 97.992s-82.165-2.383-97.991-40.59" opacity="1" data-original="#24b3b3"></path><path fill="#2ee6a8" d="m295.883 343.319 5.74 13.858c9.496 22.925 35.871 33.85 58.795 24.354 22.925-9.496 33.85-35.871 24.354-58.795l-5.74-13.858z" opacity="1" data-original="#2ee6a8"></path><path fill="#b56d3c" d="M192.526 277.546c-24.977-13.386-55.228-8.911-75.275 11.137l-32.214 32.214 18.504 18.504c13.842 13.842 32.512 19.974 50.639 18.418l59.31-59.31z" opacity="1" data-original="#b56d3c"></path><path fill="#b56d3c" d="M285.782 212.076 154.18 357.82l21.593-4.073c1.223-.231 30.362-5.793 66.768-18.374 46.907-16.21 83.088-35.996 107.677-58.861z" opacity="1" data-original="#b56d3c"></path><path fill="#c9885b" d="M235.488 161.782c-22.865 24.589-42.652 60.77-58.861 107.677-12.581 36.406-18.142 65.545-18.374 66.768l-4.073 21.593 138.673-138.673z" opacity="1" data-original="#c9885b"></path><path fill="#915041" d="m371.804 251.45-62.696-62.7-30.654 44.796c24.39 24.39 53.62 37 71.763 42.966a160 160 0 0 0 4.214-4.054c6.578-6.577 12.373-13.602 17.373-21.008" opacity="1" data-original="#915041"></path><path fill="#b56d3c" d="M260.555 140.193c-7.408 5.001-14.435 10.797-21.013 17.376a162 162 0 0 0-4.054 4.214c5.967 18.143 18.576 47.373 42.966 71.763l37.725-37.725z" opacity="1" data-original="#b56d3c"></path><path fill="#b56d3c" d="M394.444 179.708c.559-26.519-6.571-45.735-6.875-46.541l-2.394-6.343-55.99 41.848-29.518 43.66c28.285 28.285 65.217 37.579 72.137 39.117 14.333-21.228 22.088-45.611 22.64-71.741" opacity="1" data-original="#b56d3c"></path><path fill="#c9885b" d="M378.833 124.43c-.805-.304-20.021-7.434-46.541-6.875-26.128.552-50.509 8.306-71.737 22.637 1.597 7.03 11.093 44.121 39.112 72.14l85.508-85.508z" opacity="1" data-original="#c9885b"></path></g></svg>