<svg xmlns="http://www.w3.org/2000/svg" version="1.1" xmlns:xlink="http://www.w3.org/1999/xlink" width="512" height="512" x="0" y="0" viewBox="0 0 512 512" xml:space="preserve"><g><path d="M305.945 97.748v64.914l24.116 20.016 23.687-20.016V97.748C353.748 43.763 309.985 0 256 0l-20.016 26.028L256 47.803c27.54 0 49.945 22.405 49.945 49.945" style="" fill="#dd975a" data-original="#dd975a"></path><path d="M256 0c-53.985 0-97.748 43.763-97.748 97.748v64.915l24.761 20.016 23.042-20.016V97.748c0-27.54 22.405-49.945 49.945-49.945z" style="" fill="#ffc88c" data-original="#ffc88c"></path><path d="M465.926 162.662H256l-20.016 174.669L256 512h209.926z" style="" fill="#bd7d50" data-original="#bd7d50"></path><path d="M295.45 219.82h-15v235.97h30v-74.092c24.499-6.618 42.583-29.026 42.583-55.589v-48.706c0-31.752-25.832-57.583-57.583-57.583" style="" fill="#77dd00" data-original="#77dd00"></path><path d="M46.074 162.662V512H256V280.766L245.992 248.5 256 218.873v-56.211z" style="" fill="#dd975a" data-original="#dd975a"></path><path d="M226 265.766h-13.304v-46.894h-30v46.894h-13.303v-46.894h-30v61.894c0 26.963 18.402 49.701 43.303 56.337V455.79h30V337.104C237.598 330.467 256 307.729 256 280.766v-61.894h-30z" style="" fill="#b5fb4a" data-original="#b5fb4a"></path></g></svg>