<svg xmlns="http://www.w3.org/2000/svg" version="1.1" xmlns:xlink="http://www.w3.org/1999/xlink" width="512" height="512" x="0" y="0" viewBox="0 0 511.951 511.951" xml:space="preserve"><g><path fill="#ffe6b3" d="M150.451 420.975h211v90h-211z" opacity="1" data-original="#ffe6b3"></path><path fill="#ffca80" d="M256.02 420.975h105.43v90H256.02z" opacity="1" data-original="#ffca80"></path><path fill="#90cc1c" d="M232.387 82.159c-19.95-19.95-50.37-23.646-74.188-10.978a64 64 0 0 0-2.535-2.687c-18.83-18.817-46.98-23.516-70.463-12.849-21.457-13.617-50.371-11.068-69.008 7.583-18.662 18.662-21.207 47.579-7.568 69.025-10.628 23.471-5.909 51.589 12.903 70.402a63 63 0 0 0 2.5 2.364c-6.259 11.35-8.88 24.448-7.314 37.712l1.563 13.242h145.134l.472-14.513c1.396-42.953 31.682-79.291 73.648-88.366l9.092-1.966 2.28-9.019c5.407-21.383-.921-44.355-16.516-59.95" opacity="1" data-original="#90cc1c"></path><path fill="#66bb00" d="m88.138 156.406 21.21-21.21 57.976 57.975-21.21 21.21zM437.566 52.254C431.831 23.1 405.998.976 375.271.976c-30.754 0-56.593 22.137-62.306 51.308-28.554 10.037-48.284 37.163-48.284 68.303 0 7.954 1.281 15.754 3.81 23.182l2.668 7.841 8.058 1.919c27.861 6.636 51.588 26.22 63.466 52.389l19.12 42.121 9.237-45.326c2.131-10.459 7.761-20.891 15.859-29.391l.411-.416c.335-.351.671-.685 1.013-1.02l.797-.804c25.116-25.082 63.057-32.546 83.443-34.764l12.898-1.403.47-12.966c.017-.448.02-.914.02-1.362 0-31.187-19.771-58.325-48.385-68.333" opacity="1" data-original="#66bb00"></path><path fill="#b9dd39" d="m509.28 119.668-.535-13.879-13.879-.533c-.426-.015-10.632-.383-25.547 1.237-29.702 3.231-71.412 13.385-101.442 43.404l-.637.645c-.501.491-.993.985-1.485 1.497l-.42.425c-12.194 12.739-20.387 28.044-23.691 44.257l-.302 1.492v4.759l1.342 2.955c5.088 11.205 7.868 23.158 8.266 35.53l.466 14.519h102.999l4.228-3.661a95 95 0 0 0 3.423-3.124l.454-.449c.353-.342.714-.693 1.069-1.049l1.042-1.042c29.373-29.385 39.664-70.042 43.125-98.978 1.947-16.243 1.541-27.533 1.524-28.005" opacity="1" data-original="#b9dd39"></path><path fill="#fc3134" d="M379.971 255.975h-91.84l-.51-14.47c-.6-17.1-14.48-30.5-31.6-30.53h-.06c-17.15 0-31.06 13.41-31.66 30.53l-.51 14.47h-91.86l.51-15.49c1.84-56.73 41.85-104.72 97.29-116.71 8.59-1.86 17.45-2.79 26.29-2.79 9.69 0 19.38 1.12 28.7 3.36 36.8 8.76 68.14 34.62 83.82 69.17l1.34 3.07c5.88 13.93 9.1 28.69 9.59 43.91z" opacity="1" data-original="#fc3134"></path><path fill="#bd2527" d="M379.971 255.975h-91.84l-.51-14.47c-.6-17.1-14.48-30.5-31.6-30.53v-89.99c9.69 0 19.38 1.12 28.7 3.36 36.8 8.76 68.14 34.62 83.82 69.17l1.34 3.07c5.88 13.93 9.1 28.69 9.59 43.91z" opacity="1" data-original="#bd2527"></path><path fill="#ff5d3c" d="M318.151 255.975h-124.38l.55-15.53c1.17-33.35 28.25-59.47 61.64-59.47h.06c33.36.03 60.41 26.14 61.58 59.47z" opacity="1" data-original="#ff5d3c"></path><path fill="#fc3134" d="M318.151 255.975h-62.13v-75c33.36.03 60.41 26.14 61.58 59.47z" opacity="1" data-original="#fc3134"></path><path fill="#fff7cc" d="M511.951 225.975v58.37c0 91.88-74.75 166.63-166.63 166.63h-178.59c-91.89 0-166.64-74.75-166.64-166.63v-58.37z" opacity="1" data-original="#fff7cc"></path><path fill="#ffe6b3" d="M511.951 225.975v58.37c0 91.88-74.75 166.63-166.63 166.63h-89.3v-225z" opacity="1" data-original="#ffe6b3"></path></g></svg>