<svg xmlns="http://www.w3.org/2000/svg" version="1.1" xmlns:xlink="http://www.w3.org/1999/xlink" width="512" height="512" x="0" y="0" viewBox="0 0 512 512" xml:space="preserve"><g><path fill="#ef3800" d="m303.897 203.142 65.975-192.04 28.38 9.75-65.975 192.04zM369.555 223.295l112.97-130.963 22.71 19.59-112.97 130.963z" opacity="1" data-original="#ef3800"></path><path fill="#ffe0b9" d="m18.201 369.716 55.887 131.118H256l18-62-18-69.118z" opacity="1" data-original="#ffe0b9"></path><path fill="#ffd07b" d="M493.799 369.716H256v131.118h181.912z" opacity="1" data-original="#ffd07b"></path><path fill="#f5f8f9" d="m30.945 361.788-.451 4.288H256l19-85.242-19-107c-9.155 0-16.333 4.486-22.102 8.09-1.967 1.229-4.911 3.069-6.155 3.416-1.339-.038-4.769-1.256-7.059-2.07-6.333-2.251-14.216-5.053-22.982-3.109-8.962 1.984-14.999 7.95-19.849 12.744-1.658 1.638-4.141 4.091-5.28 4.697-1.306.265-4.923-.149-7.336-.426-6.71-.77-15.061-1.728-23.199 2.192-8.31 4.002-12.811 11.24-16.428 17.056-1.236 1.988-3.088 4.966-4.056 5.813-1.196.573-4.809 1.046-7.218 1.362-6.746.884-15.141 1.984-22.112 7.848-7.116 5.983-9.645 14.186-11.678 20.776-.694 2.251-1.736 5.629-2.46 6.685-.984.866-4.334 2.292-6.566 3.242-6.332 2.696-14.212 6.051-19.357 13.728-5.219 7.789-5.293 16.44-5.354 23.391-.021 2.387-.051 5.973-.457 7.187-.666 1.1-3.395 3.45-5.212 5.014-5.292 4.556-11.877 10.226-14.412 19.296-2.523 9.029.168 17.267 2.332 23.886.772 2.362 1.938 5.93 1.885 7.136" opacity="1" data-original="#f5f8f9"></path><path fill="#e2e1f4" d="m481.465 366.076-.198-2.137c-.054-1.263 1.163-4.875 1.968-7.266 2.229-6.619 5.004-14.856 2.578-23.928v-.001c-2.44-9.123-8.974-14.899-14.223-19.541-1.829-1.617-4.58-4.049-5.217-5.167-.414-1.214-.424-4.873-.43-7.305-.018-6.975-.041-15.655-5.208-23.502-5.093-7.736-12.966-11.183-19.292-13.952-2.264-.991-5.666-2.48-6.632-3.371-.735-1.05-1.787-4.499-2.487-6.795-2.018-6.618-4.53-14.854-11.628-20.889-6.955-5.912-15.366-7.079-22.125-8.017-2.475-.343-6.201-.86-7.312-1.44-.975-.822-2.873-3.88-4.136-5.915-3.623-5.837-8.131-13.101-16.442-17.137-8.14-3.953-16.519-3.037-23.254-2.304-2.484.271-6.222.679-7.444.389-1.14-.576-3.692-3.093-5.391-4.769-4.869-4.803-10.929-10.781-19.904-12.783-8.778-1.958-16.693.819-23.054 3.051-2.356.827-5.898 2.07-7.164 2.07h-.007c-1.239-.315-4.268-2.198-6.285-3.452-5.794-3.601-13.004-8.083-22.176-8.083v192.242h225.463z" opacity="1" data-original="#e2e1f4"></path><path fill="#fcbe00" d="M0 348.834v30h256l12-13-12-17z" opacity="1" data-original="#fcbe00"></path><path fill="#ff9000" d="M256 348.834h256v30H256z" opacity="1" data-original="#ff9000"></path><path fill="#fcbe00" d="M186 285.834h30v30h-30z" opacity="1" data-original="#fcbe00"></path><path fill="#ff9000" d="M256 235.834h30v30h-30zM320 285.834h30v30h-30z" opacity="1" data-original="#ff9000"></path><path fill="#ff7d43" d="M179 420.834v30h77l14-14-14-16z" opacity="1" data-original="#ff7d43"></path><path fill="#ef3800" d="M256 420.834h77v30h-77z" opacity="1" data-original="#ef3800"></path></g></svg>