<svg xmlns="http://www.w3.org/2000/svg" version="1.1" xmlns:xlink="http://www.w3.org/1999/xlink" width="512" height="512" x="0" y="0" viewBox="0 0 512 511" xml:space="preserve"><g><path fill="#ff9a00" d="M512 208.832c0 17.23-1.691 34.219-5.031 50.777a249 249 0 0 1-7.989 30c-8.3 24.91-20.507 48.528-36.398 70.157-31.66 43.097-75.129 74.757-125.707 91.558l-2.297.77H177.422l-2.297-.77c-50.57-16.8-94.04-48.46-125.707-91.558-15.89-21.63-28.098-45.246-36.398-70.157a249 249 0 0 1-7.989-30C1.691 243.051 0 226.063 0 208.832c0-.398.012-.8.012-1.2l.008-.57.109-14.89H511.87l.117 15.46c0 .4.012.802.012 1.2m0 0" opacity="1" data-original="#ff9a00"></path><path fill="#e67500" d="M512 208.832c0 17.23-1.691 34.219-5.031 50.777a249 249 0 0 1-7.989 30c-8.3 24.91-20.507 48.528-36.398 70.157-31.66 43.097-75.129 74.757-125.707 91.558l-2.297.77H256V192.172h255.871l.117 15.46c0 .4.012.802.012 1.2m0 0" opacity="1" data-original="#e67500"></path><path fill="#c5c9f7" d="m198.715 143.055-20.863-21.559-.086.082c.093-.094 9.343-9.476 9.297-20.648-.028-6.293-3.07-12.332-9.297-18.461-15.168-14.922-18.301-30.063-18.258-40.137.097-23.496 16.476-40.023 18.344-41.832l20.863 21.559.086-.086c-.094.093-9.344 9.48-9.297 20.648.027 6.297 3.07 12.336 9.297 18.465 15.168 14.918 18.3 30.059 18.258 40.137-.098 23.496-16.477 40.023-18.344 41.832M284.79 101.227c-.103 23.488-16.481 40.02-18.349 41.828L256 132.265l-10.418-10.769c.957-1.012 9.258-9.98 9.207-20.558-.027-6.301-3.07-12.34-9.297-18.473-15.172-14.918-18.3-30.059-18.262-40.137.102-23.488 16.48-40.02 18.352-41.828L256 11.27l10.441 10.789.047-.04c-.629.641-9.308 9.778-9.258 20.598.032 6.301 3.07 12.34 9.301 18.469 15.168 14.922 18.297 30.059 18.258 40.14m0 0" opacity="1" data-original="#c5c9f7"></path><path fill="#a7aff2" d="m334.168 143.055-20.863-21.559-.086.082c.094-.094 9.344-9.476 9.297-20.648-.028-6.293-3.067-12.332-9.297-18.461-15.168-14.922-18.301-30.063-18.258-40.137.098-23.496 16.477-40.023 18.344-41.832l20.863 21.559.086-.086c-.094.093-9.344 9.48-9.293 20.648.023 6.297 3.066 12.336 9.297 18.465 15.164 14.918 18.297 30.059 18.254 40.137-.094 23.496-16.477 40.023-18.344 41.832m0 0" opacity="1" data-original="#a7aff2"></path><path fill="#ffdba9" d="M67.418 422.094h377.164v30H67.418zm0 0" opacity="1" data-original="#ffdba9"></path><path fill="#ffdb2d" d="M506.969 259.61a249 249 0 0 1-7.989 30H13.02a249 249 0 0 1-7.989-30zm0 0" opacity="1" data-original="#ffdb2d"></path><path fill="#a7aff2" d="M266.441 143.055 256 132.265V11.27l10.441 10.789.047-.04c-.629.641-9.308 9.778-9.258 20.598.032 6.301 3.07 12.34 9.301 18.469 15.168 14.922 18.297 30.059 18.258 40.14-.101 23.489-16.48 40.02-18.348 41.829m0 0" opacity="1" data-original="#a7aff2"></path><path fill="#ffc473" d="M256 422.094h188.582v30H256zm0 0" opacity="1" data-original="#ffc473"></path><path fill="#ffaa20" d="M506.969 259.61a249 249 0 0 1-7.989 30H256v-30zm0 0" opacity="1" data-original="#ffaa20"></path></g></svg>